<svg width="16" height="16" viewBox="0 0 16 16" fill="none" xmlns="http://www.w3.org/2000/svg">
<path fill-rule="evenodd" clip-rule="evenodd" d="M10.8822 7.22559C13.0914 7.22559 14.8822 9.01645 14.8822 11.2256C14.882 13.4345 13.0912 15.2256 10.8822 15.2256C8.67331 15.2255 6.88248 13.4344 6.88222 11.2256C6.88222 9.0165 8.67315 7.22567 10.8822 7.22559ZM11.3822 8.8252C11.3819 9.07495 11.132 9.27536 10.8822 9.27539C10.6324 9.27531 10.4324 9.07494 10.3822 8.8252C10.0323 8.87523 9.73177 9.02581 9.48183 9.17578C9.63163 9.37576 9.63171 9.67524 9.48183 9.8252C9.33169 9.9749 8.98249 10.0248 8.78261 9.8252C8.58281 10.0751 8.48216 10.3758 8.38222 10.7256C8.63218 10.7256 8.8324 10.9756 8.83241 11.2256C8.83215 11.4753 8.63202 11.6756 8.38222 11.7256C8.43228 12.0754 8.58269 12.3761 8.78261 12.626C8.9826 12.4761 9.28187 12.476 9.48183 12.626C9.68169 12.776 9.68178 13.0754 9.48183 13.2754C9.7318 13.4753 10.0823 13.576 10.3822 13.626C10.3822 13.376 10.6323 13.1759 10.8822 13.1758C11.1322 13.1758 11.3322 13.376 11.3822 13.626C11.7321 13.576 12.0327 13.4253 12.2826 13.2754C12.1327 13.0755 12.1329 12.7761 12.2826 12.626C12.4826 12.426 12.7818 12.426 12.9818 12.626C13.1817 12.3761 13.2823 12.0754 13.3822 11.7256C13.1325 11.7255 12.9323 11.4754 12.932 11.2256C12.932 10.9757 13.1323 10.7757 13.3822 10.7256C13.3322 10.3757 13.1817 10.0751 12.9818 9.8252C12.7819 9.97489 12.4825 9.97495 12.2826 9.8252C12.0827 9.6253 12.0829 9.37573 12.2826 9.17578C12.0326 8.97578 11.6822 8.8752 11.3822 8.8252ZM10.0824 0.774414C12.5675 0.774551 14.5823 2.79031 14.5824 5.27539C14.5823 6.20989 14.2967 7.07749 13.809 7.79688C13.0649 7.16231 12.1089 6.76775 11.056 6.72852C11.5238 6.41434 11.8322 5.88107 11.8324 5.27539C11.8323 4.30909 11.0487 3.52553 10.0824 3.52539C9.1161 3.52552 8.33254 4.30908 8.33241 5.27539C8.33262 6.04489 8.83044 6.69632 9.52089 6.93066C7.7556 7.48333 6.47169 9.08724 6.3871 11.0215L4.05214 13.3584C3.84011 13.5703 3.55717 13.5702 3.34511 13.3584L1.93104 11.9443C1.71895 11.7322 1.71895 11.4484 1.93104 11.2363L2.2787 10.8877L1.27675 9.88574C1.06465 9.67362 1.06465 9.39083 1.27675 9.17871L3.39784 7.05762C3.60994 6.84572 3.89282 6.84559 4.10487 7.05762L5.10585 8.05957L5.9994 7.16699C5.73245 6.59185 5.58248 5.95118 5.58241 5.27539C5.58254 2.7903 7.59732 0.774541 10.0824 0.774414ZM10.8822 10.2256C11.4322 10.2256 11.8822 10.6756 11.8822 11.2256C11.882 11.7753 11.432 12.2256 10.8822 12.2256C10.3325 12.2255 9.88248 11.7753 9.88222 11.2256C9.88223 10.6757 10.3323 10.2257 10.8822 10.2256Z" fill="#0D6CF2"/>
</svg>
