<svg width="16" height="16" viewBox="0 0 16 16" fill="none" xmlns="http://www.w3.org/2000/svg">
<path d="M11.5 10.6816C13.1226 10.6817 15 12.0503 15 14.8184H8C8 12.0502 9.87736 10.6816 11.5 10.6816ZM11 1.18164C11.5523 1.18164 12 1.62936 12 2.18164V6.22461C11.8481 6.19743 11.6916 6.18164 11.5312 6.18164C10.0885 6.18187 8.94051 7.32931 8.94043 8.77246C8.94043 9.32693 9.11089 9.83701 9.40137 10.2559C8.40861 10.8281 7.58313 11.8186 7.21191 13.1816H2C1.44772 13.1816 1 12.7339 1 12.1816V2.18164C1 1.62936 1.44772 1.18164 2 1.18164H11ZM11.5312 7.18164C12.4221 7.18164 13.122 7.88159 13.1221 8.77246C13.1221 9.66337 12.4221 10.3633 11.5312 10.3633C10.6405 10.3631 9.94043 9.66328 9.94043 8.77246C9.94048 7.88168 10.6405 7.18178 11.5312 7.18164ZM3.5 8.68164H6.5V7.68164H3.5V8.68164ZM3.5 6.68164H9.5V5.68164H3.5V6.68164ZM3.5 4.68164H9.5V3.68164H3.5V4.68164Z" fill="#0D6CF2"/>
</svg>
