<svg viewBox="0 0 1024 1024" fill="none" xmlns="http://www.w3.org/2000/svg"><g transform="scale(64)">
<path d="M10.25 12H8.25V13H10.25V15H8.75C7.36929 15 6.25 13.8807 6.25 12.5C6.25 11.1193 7.36929 10 8.75 10H10.25V12ZM13.0059 10.0127C14.2664 10.1408 15.25 11.2057 15.25 12.5C15.25 13.7943 14.2664 14.8592 13.0059 14.9873L12.75 15H11.25V13H13.25V12H11.25V10H12.75L13.0059 10.0127ZM6.25 6.5C7.83355 6.5 9.57036 7.32977 10.6602 9H8.30566C6.61813 9 5.25 10.567 5.25 12.5C5.25 12.6698 5.26085 12.8367 5.28125 13H0.75C0.75 8.65 3.7 6.5 6.25 6.5ZM6.2998 1C7.6998 1 8.7998 2.1 8.7998 3.5C8.7998 4.9 7.6998 6 6.2998 6C4.8999 5.9999 3.7998 4.89993 3.7998 3.5C3.7998 2.10007 4.8999 1.0001 6.2998 1Z" fill="#0D6CF2"/>
</g></svg>
