<svg viewBox="0 0 1024 1024" fill="none" xmlns="http://www.w3.org/2000/svg"><g transform="scale(64)">
<path fill-rule="evenodd" clip-rule="evenodd" d="M8.375 10.25H1.125C1.05597 10.25 1 10.306 1 10.375V11.625C1 11.694 1.05597 11.75 1.125 11.75H8.375C8.44403 11.75 8.5 11.694 8.5 11.625V10.375C8.5 10.306 8.44403 10.25 8.375 10.25Z" fill="#0D6CF2"/>
<path fill-rule="evenodd" clip-rule="evenodd" d="M14.875 10.25H9.5V11.75H14.875C14.944 11.75 15 11.694 15 11.625V10.375C15 10.306 14.944 10.25 14.875 10.25Z" fill="#0D6CF2"/>
<path fill-rule="evenodd" clip-rule="evenodd" d="M6.5 4.25H1.125C1.05597 4.25 1 4.30597 1 4.375V5.625C1 5.69403 1.05597 5.75 1.125 5.75H6.5V4.25Z" fill="#0D6CF2"/>
<path fill-rule="evenodd" clip-rule="evenodd" d="M14.875 4.25H7.625C7.55597 4.25 7.5 4.30597 7.5 4.375V5.625C7.5 5.69403 7.55597 5.75 7.625 5.75H14.875C14.944 5.75 15 5.69403 15 5.625V4.375C15 4.30597 14.944 4.25 14.875 4.25Z" fill="#0D6CF2"/>
<path fill-rule="evenodd" clip-rule="evenodd" d="M6.00005 8H3.50317C3.22703 8 3.00317 7.77614 3.00317 7.5V2.5C3.00317 2.22386 3.22703 2 3.50317 2H6.00005C6.27619 2 6.50005 2.22386 6.50005 2.5V7.5C6.50005 7.77614 6.27619 8 6.00005 8Z" fill="#0D6CF2"/>
<path fill-rule="evenodd" clip-rule="evenodd" d="M12.5 14H10C9.72386 14 9.5 13.7761 9.5 13.5V8.5C9.5 8.22386 9.72386 8 10 8H12.5C12.7761 8 13 8.22386 13 8.5V13.5C13 13.7761 12.7761 14 12.5 14Z" fill="#0D6CF2"/>
</g></svg>
