<svg width="16" height="16" viewBox="0 0 16 16" fill="none" xmlns="http://www.w3.org/2000/svg">
<path fill-rule="evenodd" clip-rule="evenodd" d="M8 1C4.13438 1 1 4.13438 1 8C1 11.8656 4.13438 15 8 15C11.8656 15 15 11.8656 15 8C15 4.13438 11.8656 1 8 1ZM7.5 4.625C7.5 4.55625 7.55625 4.5 7.625 4.5H8.375C8.44375 4.5 8.5 4.55625 8.5 4.625V8.875C8.5 8.94375 8.44375 9 8.375 9H7.625C7.55625 9 7.5 8.94375 7.5 8.875V4.625ZM8 11.5C7.58594 11.5 7.25 11.1641 7.25 10.75C7.25 10.3359 7.58594 10 8 10C8.41406 10 8.75 10.3359 8.75 10.75C8.75 11.1641 8.41406 11.5 8 11.5Z" fill="#F49F25"/>
</svg>
