<svg viewBox="0 0 1024 1024" fill="none" xmlns="http://www.w3.org/2000/svg"><g transform="scale(64)">
<path d="M11.5 8C13.433 8 15 9.567 15 11.5C15 13.433 13.433 15 11.5 15C9.567 15 8 13.433 8 11.5C8 9.567 9.567 8 11.5 8ZM11 1.5C11.5523 1.5 12 1.94772 12 2.5V7.02832C11.8358 7.01017 11.669 7 11.5 7C10.7816 7 10.1025 7.16837 9.5 7.46777V6.5H3.5V7.5H9.43848C7.99041 8.24782 7 9.75788 7 11.5C7 12.2186 7.16922 12.8974 7.46875 13.5H2C1.44772 13.5 1 13.0523 1 12.5V2.5C1 1.94772 1.44772 1.5 2 1.5H11ZM11.125 11.6553L11.2344 11.7656L12.2344 12.7656L12.7656 12.2344L11.875 11.3438V10H11.125V11.6553ZM3.5 9.5H6.5V8.5H3.5V9.5ZM3.5 5.5H9.5V4.5H3.5V5.5Z" fill="#0D6CF2"/>
</g></svg>
