<svg width="16" height="16" viewBox="0 0 16 16" fill="none" xmlns="http://www.w3.org/2000/svg">
<path d="M0.000914301 1.5C0.000914301 1.22386 0.224772 1 0.500914 1H15.5C15.7761 1 16 1.22386 16 1.5V2.36267V10.3081C16 10.5842 15.7761 10.8081 15.5 10.8081H14.571H1.42903H0.500914C0.224772 10.8081 0.000914301 10.5842 0.000914301 10.3081V9.44543V2.36267V1.5ZM2.28571 2.08979C2.28571 2.37882 2.16531 2.65601 1.95098 2.86039C1.73665 3.06476 1.44596 3.17958 1.14286 3.17958V8.62852C1.44596 8.62852 1.73665 8.74334 1.95098 8.94772C2.16531 9.15209 2.28571 9.42928 2.28571 9.71831H13.7143C13.7143 9.42928 13.8347 9.15209 14.049 8.94772C14.2633 8.74334 14.554 8.62852 14.8571 8.62852V3.17958C14.554 3.17958 14.2633 3.06476 14.049 2.86039C13.8347 2.65601 13.7143 2.37882 13.7143 2.08979H2.28571ZM8 4.26937C7.77488 4.26937 7.55196 4.31165 7.34397 4.3938C7.13598 4.47595 6.947 4.59636 6.78782 4.74815C6.62863 4.89995 6.50236 5.08016 6.41621 5.27848C6.33006 5.47681 6.28571 5.68938 6.28571 5.90405C6.28571 6.11872 6.33006 6.33129 6.41621 6.52962C6.50236 6.72795 6.62863 6.90815 6.78782 7.05995C6.947 7.21174 7.13598 7.33215 7.34397 7.4143C7.55196 7.49645 7.77488 7.53873 8 7.53873C8.45466 7.53873 8.89069 7.36651 9.21218 7.05995C9.53368 6.75338 9.71429 6.3376 9.71429 5.90405C9.71429 5.47051 9.53368 5.05472 9.21218 4.74815C8.89069 4.44159 8.45466 4.26937 8 4.26937ZM5.97943 3.9773C6.24477 3.72428 6.55978 3.52357 6.90648 3.38663C7.25317 3.2497 7.62475 3.17922 8 3.17922C8.37525 3.17922 8.74684 3.2497 9.09353 3.38663C9.44022 3.52357 9.75523 3.72428 10.0206 3.9773C10.2859 4.23033 10.4964 4.53071 10.64 4.8613C10.7836 5.19189 10.8575 5.54622 10.8575 5.90405C10.8575 6.26188 10.7836 6.61621 10.64 6.9468C10.4964 7.27739 10.2859 7.57777 10.0206 7.8308C9.48468 8.3418 8.75786 8.62888 8 8.62888C7.24214 8.62888 6.51532 8.3418 5.97943 7.8308C5.44354 7.31979 5.14248 6.62672 5.14248 5.90405C5.14248 5.18138 5.44354 4.48831 5.97943 3.9773ZM2.85714 5.90405C2.85714 5.75954 2.91735 5.62094 3.02451 5.51875C3.13167 5.41656 3.27702 5.35916 3.42857 5.35916H3.43497C3.58652 5.35916 3.73187 5.41656 3.83903 5.51875C3.9462 5.62094 4.0064 5.75954 4.0064 5.90405V5.91015C4.0064 6.05467 3.9462 6.19326 3.83903 6.29545C3.73187 6.39764 3.58652 6.45505 3.43497 6.45505H3.42857C3.27702 6.45505 3.13167 6.39764 3.02451 6.29545C2.91735 6.19326 2.85714 6.05467 2.85714 5.91015V5.90405ZM12 5.90405C12 5.75954 12.0602 5.62094 12.1674 5.51875C12.2745 5.41656 12.4199 5.35916 12.5714 5.35916H12.5778C12.7294 5.35916 12.8747 5.41656 12.9819 5.51875C13.0891 5.62094 13.1493 5.75954 13.1493 5.90405V5.91015C13.1493 6.05467 13.0891 6.19326 12.9819 6.29545C12.8747 6.39764 12.7294 6.45505 12.5778 6.45505H12.5714C12.4199 6.45505 12.2745 6.39764 12.1674 6.29545C12.0602 6.19326 12 6.05467 12 5.91015V5.90405ZM12.4571 13.9511C8.58307 12.9472 4.586 12.44 0.571429 12.4428C0.419876 12.4428 0.274531 12.3854 0.167368 12.2832C0.0602039 12.181 0 12.0424 0 11.8979C0 11.7534 0.0602039 11.6148 0.167368 11.5126C0.274531 11.4104 0.419876 11.353 0.571429 11.353C4.68726 11.3499 8.78517 11.8698 12.757 12.8988C12.8015 12.9111 12.8483 12.9135 12.8939 12.9058C12.9394 12.8981 12.9825 12.8805 13.0198 12.8543C13.0571 12.8282 13.0876 12.7943 13.109 12.7551C13.1303 12.7159 13.1419 12.6726 13.1429 12.6285V11.8979C13.1429 11.7534 13.2031 11.6148 13.3102 11.5126C13.4174 11.4104 13.5627 11.353 13.7143 11.353C13.8658 11.353 14.0112 11.4104 14.1183 11.5126C14.2255 11.6148 14.2857 11.7534 14.2857 11.8979V12.6276C14.2857 13.1174 14.3342 13.7897 14 14C13.6658 14.2103 12.8797 14.0607 12.4571 13.9511Z" fill="#5C6B8A"/>
</svg>
