<svg viewBox="0 0 1024 1024" fill="none" xmlns="http://www.w3.org/2000/svg"><g transform="scale(64)">
<path d="M13.7139 12.3574C13.8654 12.3574 14.011 12.4173 14.1182 12.5244C14.2253 12.6316 14.2861 12.7772 14.2861 12.9287V13.6934C14.2861 14.1304 14.2927 14.7414 14 15C13.6485 15.3105 12.9519 15.2167 12.457 15.082C8.58296 14.0293 4.58585 13.497 0.571289 13.5C0.419787 13.5 0.274123 13.4401 0.166992 13.333C0.0598616 13.2259 3.71146e-05 13.0802 0 12.9287C0 12.7772 0.059916 12.6316 0.166992 12.5244C0.274123 12.4173 0.419787 12.3575 0.571289 12.3574C4.68709 12.3542 8.78501 12.8994 12.7568 13.9785C12.8012 13.9914 12.8481 13.9934 12.8936 13.9854C12.939 13.9773 12.9823 13.959 13.0195 13.9316C13.0568 13.9042 13.088 13.8682 13.1094 13.8271C13.1306 13.7862 13.1416 13.7404 13.1426 13.6943V12.9287C13.1426 12.7772 13.2034 12.6316 13.3105 12.5244C13.4176 12.4175 13.5626 12.3575 13.7139 12.3574ZM15.5 1.5C15.7761 1.5 16 1.72386 16 2V11.2861C15.9998 11.5621 15.776 11.7861 15.5 11.7861H0.500977C0.224974 11.7861 0.00120323 11.5621 0.000976562 11.2861V2C0.000976724 1.72386 0.224834 1.5 0.500977 1.5H15.5ZM8 3.78516C7.62475 3.78516 7.25294 3.85933 6.90625 4.00293C6.5597 4.14651 6.24475 4.35684 5.97949 4.62207C5.44366 5.1579 5.14264 5.8848 5.14258 6.64258C5.14258 7.40038 5.44368 8.12721 5.97949 8.66309C6.51538 9.19897 7.24214 9.5 8 9.5C8.75786 9.5 9.48462 9.19897 10.0205 8.66309C10.2858 8.39779 10.4961 8.08292 10.6396 7.73633C10.7833 7.38964 10.8574 7.01783 10.8574 6.64258C10.8574 6.2674 10.7832 5.89545 10.6396 5.54883C10.496 5.20234 10.2857 4.88728 10.0205 4.62207C9.75525 4.35684 9.4403 4.14651 9.09375 4.00293C8.74706 3.85933 8.37525 3.78516 8 3.78516ZM8 4.92871C8.4546 4.92871 8.89043 5.10925 9.21191 5.43066C9.53335 5.7521 9.7138 6.18801 9.71387 6.64258C9.71387 7.09723 9.53341 7.53398 9.21191 7.85547C8.89046 8.17673 8.45448 8.35742 8 8.35742C7.77488 8.35742 7.55174 8.31271 7.34375 8.22656C7.13601 8.14048 6.94714 8.01443 6.78809 7.85547C6.6289 7.69628 6.50217 7.50681 6.41602 7.29883C6.32989 7.09086 6.28613 6.86767 6.28613 6.64258C6.28616 6.41754 6.3299 6.19424 6.41602 5.98633C6.50216 5.77847 6.62898 5.58977 6.78809 5.43066C6.94724 5.27154 7.13583 5.14472 7.34375 5.05859C7.55174 4.97244 7.77488 4.92871 8 4.92871ZM3.42871 6.07129C3.27725 6.07129 3.13156 6.13124 3.02441 6.23828C2.91731 6.34539 2.85748 6.49111 2.85742 6.64258V6.64941C2.85747 6.80089 2.9173 6.94659 3.02441 7.05371C3.13156 7.16077 3.27724 7.2207 3.42871 7.2207H3.43457C3.58598 7.2207 3.73173 7.16069 3.83887 7.05371C3.94598 6.94659 4.00678 6.80089 4.00684 6.64941V6.64258C4.00677 6.49111 3.94598 6.34539 3.83887 6.23828C3.73173 6.13132 3.58597 6.07129 3.43457 6.07129H3.42871ZM12.5713 6.07129C12.4198 6.07133 12.2741 6.13118 12.167 6.23828C12.0599 6.34539 12.0001 6.49111 12 6.64258V6.64941C12.0001 6.80089 12.0599 6.94659 12.167 7.05371C12.2741 7.16082 12.4198 7.22067 12.5713 7.2207H12.5781C12.7294 7.22062 12.8744 7.16053 12.9814 7.05371C13.0886 6.94659 13.1494 6.80089 13.1494 6.64941V6.64258C13.1494 6.49111 13.0886 6.34539 12.9814 6.23828C12.8744 6.13147 12.7294 6.07137 12.5781 6.07129H12.5713Z" fill="#0D6CF2"/>
</g></svg>
