<?xml version="1.0" standalone="no"?>
<svg xmlns="http://www.w3.org/2000/svg" class="icon" viewBox="0 0 1024 1024">
  <path d="M882.476 292c16.33 0 29.524 13.193 29.524 29.524v560.952c0 16.33-13.193 29.524-29.524 29.524H321.524C305.194 912 292 898.807 292 882.476V321.524c0-16.33 13.193-29.524 29.524-29.524z m-180-180c16.167 0 29.26 12.93 29.524 29.035V236H265.524C249.194 236 236 249.193 236 265.524V732h-94.476c-16.167 0-29.26-12.93-29.524-29.035V141.524c0-16.167 12.93-29.26 29.035-29.524h561.441z" p-id="44015"></path>
</svg>
