<svg width="16" height="16" viewBox="0 0 16 16" fill="none" xmlns="http://www.w3.org/2000/svg">
<path d="M1 9.64999V12.9C1 13.1 1.1 13.25 1.25 13.35L4 14.95C4.15 15.05 4.35 15.05 4.5 14.95L7.25 13.35C7.4 13.25 7.5 13.1 7.5 12.9V9.64999C7.5 9.44999 7.4 9.29999 7.25 9.19999L4.5 7.59999C4.35 7.49999 4.15 7.49999 4 7.59999L1.25 9.19999C1.1 9.29999 1 9.44999 1 9.64999Z" fill="#0D6CF2"/>
<path d="M8.5 9.64999V12.9C8.5 13.1 8.6 13.25 8.75 13.35L11.5 14.95C11.65 15.05 11.85 15.05 12 14.95L14.75 13.35C14.9 13.25 15 13.1 15 12.9V9.64999C15 9.44999 14.9 9.29999 14.75 9.19999L12 7.59999C11.85 7.49999 11.65 7.49999 11.5 7.59999L8.75 9.19999C8.6 9.29999 8.5 9.44999 8.5 9.64999Z" fill="#0D6CF2"/>
<path d="M4.75 3.14999V6.39999C4.75 6.59999 4.85 6.74999 5 6.84999L7.75 8.44999C7.9 8.54999 8.1 8.54999 8.25 8.44999L11 6.84999C11.15 6.74999 11.25 6.59999 11.25 6.39999V3.14999C11.25 2.94999 11.15 2.79999 11 2.69999L8.25 1.09999C8.1 0.999994 7.9 0.999994 7.75 1.09999L5 2.69999C4.85 2.79999 4.75 2.94999 4.75 3.14999Z" fill="#0D6CF2"/>
</svg>
