<svg width="16" height="16" viewBox="0 0 16 16" fill="none" xmlns="http://www.w3.org/2000/svg">
<path d="M7.48438 2V3H7.19727C5.97178 3.01987 4.98438 4.01978 4.98438 5.25V5.28711C5.00424 6.51259 6.00416 7.5 7.23438 7.5H7.48438V9.75H8.87793C9.49067 9.75993 9.98438 10.2599 9.98438 10.875C9.98438 11.4963 9.4807 12 8.85938 12H7.48438V14H2.5C2.22386 14 2 13.7761 2 13.5V2.5C2 2.22386 2.22386 2 2.5 2H7.48438ZM13.5 2C13.7761 2 14 2.22386 14 2.5V13.5C14 13.7761 13.7761 14 13.5 14H8.48438V13H8.89453C10.0519 12.9812 10.9844 12.0369 10.9844 10.875V10.8398C10.9656 9.68245 10.0212 8.75 8.85938 8.75H8.48438V6.5H7.21387C6.53304 6.48896 5.98438 5.93345 5.98438 5.25C5.98438 4.55964 6.54402 4 7.23438 4H8.48438V2H13.5Z" fill="#0D6CF2"/>
<path d="M13.4922 2C13.7683 2 13.9922 2.22386 13.9922 2.5V13.5C13.9922 13.7761 13.7683 14 13.4922 14H8.48438V13H8.89453C10.0519 12.9812 10.9844 12.0369 10.9844 10.875V10.8398C10.9656 9.68245 10.0212 8.75 8.85938 8.75H8.48438V6.5H7.21387C6.53304 6.48896 5.98438 5.93345 5.98438 5.25C5.98438 4.55964 6.54402 4 7.23438 4H8.48438V2H13.4922Z" fill="#0D6CF2"/>
</svg>
