<svg viewBox="0 0 1024 1024" fill="none" xmlns="http://www.w3.org/2000/svg"><g transform="scale(64)">
<path d="M14.5 2C14.7761 2 15 2.22386 15 2.5V13.5L14.9902 13.6006C14.9503 13.7961 14.7961 13.9503 14.6006 13.9902L14.5 14H1.5L1.39941 13.9902C1.20392 13.9503 1.04966 13.7961 1.00977 13.6006L1 13.5V2.5C1 2.22386 1.22386 2 1.5 2H14.5ZM9.5 5C8.11929 5 7 6.11929 7 7.5L7.0127 7.75586C7.13227 8.93228 8.06772 9.86773 9.24414 9.9873L9.5 10H14V9H9.5C8.67157 9 8 8.32843 8 7.5C8 6.67157 8.67157 6 9.5 6H14V5H9.5ZM9.5 7C9.22386 7 9 7.22386 9 7.5C9 7.77614 9.22386 8 9.5 8C9.77614 8 10 7.77614 10 7.5C10 7.22386 9.77614 7 9.5 7Z" fill="#0D6CF2"/>
</g></svg>
