<svg width="16" height="16" viewBox="0 0 16 16" fill="none" xmlns="http://www.w3.org/2000/svg">
<path d="M6.0498 3.04977H7.0498V1.99997H9.0498V3.04977H10.0498V1.99997H13.5C13.7761 1.99997 14 2.22384 14 2.49997V5.99997H13V6.99997H14V8.99997H13V9.99997H14V13.5C14 13.7761 13.7761 14 13.5 14H10.0498V13.0498H9.0498V14H7.0498V13.0498H6.0498V14H2.5C2.22386 14 2 13.7761 2 13.5V9.99997H3V8.99997H2V6.99997H3V5.99997H2V2.49997C2.00001 2.22384 2.22387 1.99997 2.5 1.99997H6.0498V3.04977ZM5 11H11V4.99997H5V11Z" fill="#0D6CF2"/>
<rect x="6" y="6" width="4" height="4" fill="#0D6CF2"/>
</svg>
