<?xml version="1.0" standalone="no"?>
<svg xmlns="http://www.w3.org/2000/svg" class="icon" viewBox="0 0 1024 1024">
  <path d="M473.984 952a8 8 0 0 1-8 8H361.984a8 8 0 0 1-8-8V832H208a16 16 0 0 1-16-16v-145.984H72A8 8 0 0 1 64 662.016V558.016c0-4.48 3.584-8 8-8H192V473.984H72A8 8 0 0 1 64 465.984V361.984c0-4.416 3.584-8 8-8H192V208A16 16 0 0 1 208 192h145.984V72c0-4.416 3.584-8 8-8h104c4.48 0 8 3.584 8 8V192h76.032V72c0-4.416 3.584-8 8-8h104c4.416 0 8 3.584 8 8V192h145.984a16 16 0 0 1 16 16v145.984h120c4.416 0 8 3.584 8 8v104a8 8 0 0 1-8 8H832v76.032h120c4.416 0 8 3.584 8 8v104a8 8 0 0 1-8 8H832v145.984a16 16 0 0 1-16 16h-145.984v120a8 8 0 0 1-8 8H558.016a8 8 0 0 1-8-8V832H473.984v120z m150.016-560h-224a8 8 0 0 0-8 7.744V624c0 4.352 3.456 7.872 7.744 8H624a8 8 0 0 0 8-7.744V400a8 8 0 0 0-7.744-8H624z" p-id="45666"></path>
</svg>
