<svg viewBox="0 0 1024 1024" fill="none" xmlns="http://www.w3.org/2000/svg"><g transform="scale(64)">
<path d="M13.5 12.85C13.5 13.5 11.05 14.0004 8 14.0004C4.95 14.0004 2.5 13.5 2.5 12.85V10.35C2.5 11 4.95 11.5004 8 11.5004C11.05 11.5004 13.5 11 13.5 10.35V12.85Z" fill="#0D6CF2"/>
<path d="M13.5 9.35001C13.5 10 11.05 10.5004 8 10.5004C4.95 10.5004 2.5 10 2.5 9.35001V6.85001C2.5 7.50001 4.95 8.0004 8 8.0004C11.05 8.0004 13.5 7.50001 13.5 6.85001V9.35001Z" fill="#0D6CF2"/>
<path d="M2.5 3.15C2.5 2.5 4.95 2 8 2C11.05 2 13.5 2.5 13.5 3.15V5.85C13.5 6.5 11.05 7 8 7C4.95 7 2.5 6.5 2.5 5.85V3.15Z" fill="#0D6CF2"/>
</g></svg>
