<svg width="16" height="16" viewBox="0 0 16 16" fill="none" xmlns="http://www.w3.org/2000/svg">
<path fill-rule="evenodd" clip-rule="evenodd" d="M4.98574 7.50018L8.49983 11.0143C8.6951 11.2095 8.6951 11.5261 8.49983 11.7214L6.74278 13.4784C5.57713 14.6441 3.68724 14.6441 2.52158 13.4784V13.4784C1.35592 12.3128 1.35592 10.4229 2.52158 9.25723L4.27863 7.50018C4.47389 7.30491 4.79047 7.30491 4.98574 7.50018Z" fill="#0D6CF2"/>
<path fill-rule="evenodd" clip-rule="evenodd" d="M11.0143 8.4998L7.50021 4.98571C7.30494 4.79044 7.30494 4.47386 7.50021 4.2786L9.25726 2.52155C10.4229 1.35589 12.3128 1.35589 13.4785 2.52155C14.6441 3.68721 14.6441 5.5771 13.4785 6.74275L11.7214 8.4998C11.5261 8.69507 11.2096 8.69507 11.0143 8.4998Z" fill="#0D6CF2"/>
<path fill-rule="evenodd" clip-rule="evenodd" d="M8.01167 10.5261L7.30457 9.81903L8.611 8.51259C8.65983 8.46378 8.73897 8.46378 8.78778 8.51259L9.31811 9.04292C9.36692 9.09173 9.36692 9.17089 9.31811 9.2197L8.01167 10.5261Z" fill="#0D6CF2"/>
<path fill-rule="evenodd" clip-rule="evenodd" d="M6.18099 8.69544L5.47388 7.98833L6.78033 6.68187C6.82914 6.63306 6.90828 6.63306 6.95711 6.68187L7.48744 7.21222C7.53625 7.26103 7.53625 7.34017 7.48744 7.38898L6.18099 8.69544Z" fill="#0D6CF2"/>
<path fill-rule="evenodd" clip-rule="evenodd" d="M0.749555 15.7808L0.219227 15.2505C0.170414 15.2017 0.170414 15.1225 0.219227 15.0737L2.26632 13.0266C2.31513 12.9778 2.39429 12.9778 2.4431 13.0266L2.97343 13.5569C3.02224 13.6057 3.02224 13.6849 2.97343 13.7337L0.926336 15.7808C0.877523 15.8296 0.798367 15.8296 0.749555 15.7808Z" fill="#0D6CF2"/>
<mask id="mask0_2088_1151" style="mask-type:luminance" maskUnits="userSpaceOnUse" x="13" y="0" width="3" height="3">
<path fill-rule="evenodd" clip-rule="evenodd" d="M13.0088 0.182617H15.8174V2.99123H13.0088V0.182617Z" fill="white"/>
</mask>
<g mask="url(#mask0_2088_1151)">
<path fill-rule="evenodd" clip-rule="evenodd" d="M13.5757 2.95463L13.0454 2.4243C12.9966 2.37549 12.9966 2.29634 13.0454 2.24752L15.0737 0.219227C15.1225 0.170414 15.2016 0.170414 15.2505 0.219227L15.7808 0.749555C15.8296 0.798383 15.8296 0.877523 15.7808 0.926336L13.7525 2.95463C13.7037 3.00345 13.6245 3.00345 13.5757 2.95463Z" fill="#0D6CF2"/>
</g>
</svg>
