<?xml version="1.0" standalone="no"?>
<svg xmlns="http://www.w3.org/2000/svg" class="icon" viewBox="0 0 1024 1024">
  <path d="M907.702857 802.596571V631.661714c-25.307429 22.089143-53.76 40.228571-84.260571 53.906286a761.709714 761.709714 0 0 1-313.782857 64.365714 623.689143 623.689143 0 0 1-392.045715-110.445714v172.178286c7.753143 75.190857 173.568 157.476571 394.752 157.476571 221.110857 0 385.682286-82.944 395.264-158.72v-7.826286z m0-296.301714v-3.218286 7.753143c-9.654857 75.922286-174.226286 158.72-395.337143 158.72C291.108571 669.622857 125.44 587.337143 117.613714 512.219429V339.748571a622.957714 622.957714 0 0 0 392.045715 110.518858 759.881143 759.881143 0 0 0 313.782857-64.365715 346.697143 346.697143 0 0 0 84.187428-53.906285v174.299428zM798.354286 110.299429c65.536 28.891429 104.740571 70.070857 104.740571 106.788571 0 35.913143-40.448 75.849143-104.740571 106.715429a702.171429 702.171429 0 0 1-289.28 55.881142C284.086857 379.611429 116.297143 294.034286 116.297143 217.746286 116.297143 141.165714 284.818286 55.076571 510.390857 55.076571a699.757714 699.757714 0 0 1 288.036572 55.222858z" p-id="43715"></path>
</svg>
