<svg width="16" height="16" viewBox="0 0 16 16" fill="none" xmlns="http://www.w3.org/2000/svg">
<path fill-rule="evenodd" clip-rule="evenodd" d="M13.7004 1.64391L10.7661 4.64705L7.80392 1.68491C7.62282 1.5038 7.32918 1.5038 7.14809 1.68491L5.1694 3.66358C4.98829 3.84469 4.98829 4.13831 5.1694 4.31942L13.7042 12.8542C13.9963 13.1463 14.4958 12.9394 14.4958 12.5263V1.968C14.4958 1.55225 13.9909 1.34655 13.7004 1.64391Z" fill="#0D6CF2"/>
<path fill-rule="evenodd" clip-rule="evenodd" d="M2.29959 14.3561L5.23393 11.3529L8.19607 14.3151C8.37717 14.4962 8.67081 14.4962 8.8519 14.3151L10.8306 12.3364C11.0117 12.1553 11.0117 11.8617 10.8306 11.6806L2.29581 3.14579C2.00367 2.85365 1.50415 3.06055 1.50415 3.47371V14.032C1.50415 14.4477 2.00904 14.6534 2.29959 14.3561Z" fill="#0D6CF2"/>
</svg>
