<svg width="16" height="16" viewBox="0 0 16 16" fill="none" xmlns="http://www.w3.org/2000/svg">
<path fill-rule="evenodd" clip-rule="evenodd" d="M14.5 2C14.7761 2 15 2.22386 15 2.5V13.5L14.9902 13.6006C14.9503 13.7961 14.7961 13.9503 14.6006 13.9902L14.5 14H1.5L1.39941 13.9902C1.20392 13.9503 1.04966 13.7961 1.00977 13.6006L1 13.5V2.5C1 2.22386 1.22386 2 1.5 2H14.5ZM5.66504 5.5C5.69535 5.50002 5.72604 5.51025 5.75195 5.53125L8.2041 7.51953C8.50309 7.76189 8.50309 8.23811 8.2041 8.48047L5.75195 10.4688C5.72604 10.4898 5.69535 10.5 5.66504 10.5C5.62208 10.5 5.5799 10.4793 5.55176 10.4404L5.0293 9.71973C4.98139 9.65351 4.99336 9.55874 5.05566 9.50781L6.91602 8L5.05566 6.49219C4.99336 6.44126 4.98139 6.34649 5.0293 6.28027L5.55176 5.55957C5.5799 5.5207 5.62208 5.5 5.66504 5.5ZM12 9.625C12 9.55597 11.9421 9.5 11.8711 9.5H9.55664C9.48582 9.50021 9.42871 9.5561 9.42871 9.625V10.375C9.42871 10.4439 9.48582 10.4998 9.55664 10.5H11.8711C11.9421 10.5 12 10.444 12 10.375V9.625Z" fill="#0D6CF2"/>
</svg>
