<svg viewBox="0 0 1024 1024" fill="none" xmlns="http://www.w3.org/2000/svg"><g transform="scale(64)">
<path fill-rule="evenodd" clip-rule="evenodd" d="M14.1701 10.8393C14.5152 11.0291 14.5151 11.5251 14.1701 11.7153L8.48256 14.85C8.18206 15.0157 7.81724 15.0157 7.51674 14.85L1.82924 11.7153C1.48402 11.525 1.48464 11.0289 1.83022 10.8393L2.98061 10.2075L7.25307 12.562C7.48122 12.6877 7.73962 12.7543 8.00014 12.7543C8.26056 12.7543 8.51916 12.6877 8.74721 12.562L13.0187 10.2075L14.1701 10.8393Z" fill="#0D6CF2"/>
<path fill-rule="evenodd" clip-rule="evenodd" d="M14.1701 7.55492C14.5153 7.74468 14.5152 8.24065 14.1701 8.43089L8.48256 11.5666C8.18209 11.7322 7.8172 11.7323 7.51674 11.5666L1.82924 8.43089C1.48402 8.2406 1.48464 7.74456 1.83022 7.55492L2.98061 6.92308L7.25307 9.27855C7.48117 9.40421 7.73975 9.47093 8.00014 9.47093C8.26053 9.47088 8.51916 9.40423 8.74721 9.27855L13.0187 6.92308L14.1701 7.55492ZM7.51869 4.43285C7.81821 4.26851 8.18106 4.26861 8.48061 4.43285L11.9806 6.35374L8.26381 8.40257C8.18172 8.44777 8.09095 8.47088 8.00014 8.47093C7.90914 8.47093 7.81774 8.4479 7.73549 8.40257L4.01772 6.35374L7.51869 4.43285Z" fill="#0D6CF2"/>
<path fill-rule="evenodd" clip-rule="evenodd" d="M7.51731 8.28188L1.82931 5.14666C1.48409 4.95636 1.48456 4.46006 1.83014 4.27042L7.51897 1.14872C7.81861 0.984281 8.18147 0.984281 8.48111 1.14872L14.1699 4.27042C14.5155 4.46006 14.516 4.95636 14.1708 5.14666L8.48277 8.28188C8.18227 8.44752 7.81781 8.44752 7.51731 8.28188Z" fill="#0D6CF2"/>
</g></svg>
