<?xml version="1.0" standalone="no"?>
<svg xmlns="http://www.w3.org/2000/svg" class="icon" viewBox="0 0 12 12">
  <path d="M6,0 C2.68660714,0 0,2.68660714 0,6 C0,9.31339286 2.68660714,12 6,12 C9.31339286,12 12,9.31339286 12,6 C12,2.68660714 9.31339286,0 6,0 Z M3.86666666,5.46666666 C4.16121854,5.46666666 4.4,5.72250395 4.4,6.03809523 C4.4,6.35368653 4.16121854,6.60952381 3.86666666,6.60952381 C3.5721148,6.60952381 3.33333334,6.35368653 3.33333334,6.03809523 C3.33333334,5.72250395 3.5721148,5.46666666 3.86666666,5.46666666 Z M6,5.46666666 C6.29455186,5.46666666 6.53333334,5.72250395 6.53333334,6.03809523 C6.53333334,6.35368653 6.29455186,6.60952381 6,6.60952381 C5.70544814,6.60952381 5.46666666,6.35368653 5.46666666,6.03809523 C5.46666666,5.72250395 5.70544814,5.46666666 6,5.46666666 Z M8.13333334,5.46666666 C8.4278852,5.46666666 8.66666666,5.72250395 8.66666666,6.03809523 C8.66666666,6.35368653 8.4278852,6.60952381 8.13333334,6.60952381 C7.83878146,6.60952381 7.6,6.35368653 7.6,6.03809523 C7.6,5.72250395 7.83878146,5.46666666 8.13333334,5.46666666 Z"></path>
</svg>
