<svg width="16" height="16" viewBox="0 0 16 16" fill="none" xmlns="http://www.w3.org/2000/svg">
<path fill-rule="evenodd" clip-rule="evenodd" d="M2 2.49999V13.5C2 13.8 2.2 14 2.5 14H7V8.89999L11 7.44999L13 8.19999V2.54999C13 2.24999 12.8 2.04999 12.5 2.04999H2.5C2.2 2.04999 2 2.24999 2 2.54999V2.49999ZM6.5 7.49999H3.5V6.49999H6.5V7.49999ZM9.5 5.49999H3.5V4.49999H9.5V5.49999Z" fill="#0D6CF2"/>
<path d="M14 9.59961V13.4004L11 14.5L8 13.4004V9.59961L11 8.5L14 9.59961ZM10.5 11.75L9.84961 11.1504L9.15039 11.8496L10.5 13.2002L12.8496 10.8496L12.1504 10.1504L10.5 11.75Z" fill="#0D6CF2"/>
</svg>
