<svg viewBox="0 0 1024 1024" fill="none" xmlns="http://www.w3.org/2000/svg"><g transform="scale(64)">
<path fill-rule="evenodd" clip-rule="evenodd" d="M5.93281 4.49731H1.93527C1.67763 4.49731 1.46875 4.69992 1.46875 4.94985V13.5478C1.46875 13.7978 1.67763 14.0003 1.93527 14.0003H14.0647C14.3224 14.0003 14.5312 13.7978 14.5312 13.5478V6.75705C14.5312 6.50713 14.3224 6.30452 14.0647 6.30452H7.98752L6.26284 4.63002C6.17534 4.54505 6.05663 4.49731 5.93281 4.49731Z" fill="#0D6CF2"/>
<path fill-rule="evenodd" clip-rule="evenodd" d="M14.5312 4.86905C14.5312 4.93809 14.4753 4.99405 14.4062 4.99405H8.96875C8.83639 4.99405 8.70942 4.94157 8.6157 4.8481L6.76206 2.99969H2.53125C2.46222 2.99969 2.40625 2.94374 2.40625 2.87469V2.12469C2.40625 2.05566 2.46222 1.99969 2.53125 1.99969H6.96875C7.10111 1.99969 7.22808 2.05219 7.32181 2.14565L9.17545 3.99405H14.4062C14.4753 3.99405 14.5312 4.05002 14.5312 4.11905V4.86905Z" fill="#0D6CF2"/>
</g></svg>
