<svg viewBox="0 0 1024 1024" fill="none" xmlns="http://www.w3.org/2000/svg"><g transform="scale(64)">
<path d="M15.4777 7C15.8305 7.00005 16.032 7.30042 15.9816 7.65039L14.2677 13.6504C14.2172 13.8501 14.0156 13.9999 13.7638 14H3.07532L5.09192 7H15.4777Z" fill="#0D6CF2"/>
<path fill-rule="evenodd" clip-rule="evenodd" d="M7.15901 3.85001L6.1507 3.05001C6.04986 3.00001 5.94903 2.95001 5.8482 2.95001H1.51246C1.20996 2.95001 1.0083 3.15001 1.0083 3.45001V13.45C1.0083 13.75 1.20996 13.95 1.51246 13.95H1.9662L4.28532 5.95001H14.1164V4.45001C14.1164 4.15001 13.9147 3.95001 13.6122 3.95001H7.51192C7.41109 3.95001 7.31026 3.95001 7.20942 3.85001H7.15901Z" fill="#0D6CF2"/>
</g></svg>
