<?xml version="1.0" standalone="no"?>
<svg xmlns="http://www.w3.org/2000/svg" class="icon" viewBox="0 0 1024 1024">
  <path d="M938.66666667 136.53333333v156.8H85.33333333V136.53333333c0-28.27733333 22.92266667-51.2 51.2-51.2h750.93333334c28.27733333 0 51.2 22.92266667 51.2 51.2zM336 349.86666667v254.93333333H85.33333333V349.86666667h250.66666667z m0 312.53333333v276.26666667H136.53333333c-28.27733333 0-51.2-22.92266667-51.2-51.2V662.4h250.66666667z m298.66666667-312.53333333v254.93333333H389.33333333V349.86666667h245.33333334z m0 312.53333333v276.26666667H390.4V662.4h244.26666667z m304-312.53333333v254.93333333H693.33333333V349.86666667h245.33333334z m0 312.53333333v225.06666667c0 28.27733333-22.92266667 51.2-51.2 51.2H693.33333333V662.4h245.33333334z" p-id="41915"></path>
</svg>
