<svg width="16" height="16" viewBox="0 0 16 16" fill="none" xmlns="http://www.w3.org/2000/svg">
<path d="M14.8355 5.73784L8.22439 1.07118C8.15873 1.02486 8.08035 1 8 1C7.91965 1 7.84127 1.02486 7.77561 1.07118L1.1645 5.73784C1.1137 5.77381 1.07225 5.82143 1.04363 5.87671C1.01501 5.93198 1.00005 5.99332 1 6.05556V14.6111C1 14.6622 1.01006 14.7128 1.0296 14.7599C1.04915 14.8071 1.07779 14.85 1.1139 14.8861C1.15001 14.9222 1.19289 14.9509 1.24007 14.9704C1.28725 14.9899 1.33782 15 1.38889 15H5.66667C5.76981 15 5.86872 14.959 5.94165 14.8861C6.01458 14.8132 6.05556 14.7143 6.05556 14.6111V9.94445H9.94444V14.6111C9.94444 14.7143 9.98542 14.8132 10.0583 14.8861C10.1313 14.959 10.2302 15 10.3333 15H14.6111C14.7143 15 14.8132 14.959 14.8861 14.8861C14.959 14.8132 15 14.7143 15 14.6111V6.05556C15 5.99332 14.985 5.93198 14.9564 5.87671C14.9277 5.82143 14.8863 5.77381 14.8355 5.73784Z" fill="#0D6CF2"/>
</svg>
