<?xml version="1.0" standalone="no"?>
<svg xmlns="http://www.w3.org/2000/svg" class="icon" viewBox="0 0 1024 1024">
  <path d="M448 112c17.673 0 32 14.327 32 32v736c0 17.673-14.327 32-32 32H144c-17.673 0-32-14.327-32-32V144c0-17.673 14.327-32 32-32h304z m-52 393H196v64h200v-64z m0-128H196v64h200v-64z m0-128H196v64h200v-64z m484-137c17.673 0 32 14.327 32 32v736c0 17.673-14.327 32-32 32H576c-17.673 0-32-14.327-32-32V144c0-17.673 14.327-32 32-32h304z m-52 393H628v64h200v-64z m0-128H628v64h200v-64z m0-128H628v64h200v-64z" p-id="45066"></path>
</svg>
