<svg viewBox="0 0 1024 1024" fill="none" xmlns="http://www.w3.org/2000/svg"><g transform="scale(64)">
<path fill-rule="evenodd" clip-rule="evenodd" d="M8 1C4.13438 1 1 4.13438 1 8C1 11.8656 4.13438 15 8 15C11.8656 15 15 11.8656 15 8C15 4.13438 11.8656 1 8 1ZM8.5 11.375C8.5 11.4438 8.44375 11.5 8.375 11.5H7.625C7.55625 11.5 7.5 11.4438 7.5 11.375V7.125C7.5 7.05625 7.55625 7 7.625 7H8.375C8.44375 7 8.5 7.05625 8.5 7.125V11.375ZM8 6C7.58594 6 7.25 5.66406 7.25 5.25C7.25 4.83594 7.58594 4.5 8 4.5C8.41406 4.5 8.75 4.83594 8.75 5.25C8.75 5.66406 8.41406 6 8 6Z" fill="#0D6CF2"/>
</g></svg>
