<svg width="16" height="16" viewBox="0 0 16 16" fill="none" xmlns="http://www.w3.org/2000/svg">
<path fill-rule="evenodd" clip-rule="evenodd" d="M10.817 3.15603L12.4555 1.62259C12.6435 1.44664 12.9374 1.4524 13.1184 1.63561L14.3629 2.89553C14.546 3.08095 14.5457 3.37929 14.3621 3.56429L12.7924 5.14626L14.3513 6.69542C14.6521 6.99439 14.4404 7.50783 14.0163 7.50783H8.97528C8.7128 7.50783 8.5 7.29503 8.5 7.03254V1.99612C8.5 1.57342 9.01042 1.36103 9.31028 1.65897L10.817 3.15603Z" fill="#0D6CF2"/>
<path fill-rule="evenodd" clip-rule="evenodd" d="M5.183 3.15603L3.54453 1.62259C3.35652 1.44664 3.06258 1.4524 2.88163 1.63561L1.63714 2.89553C1.45399 3.08095 1.45433 3.37929 1.63791 3.56429L3.20761 5.14626L1.64872 6.69542C1.34786 6.99439 1.5596 7.50783 1.98374 7.50783H7.02472C7.28721 7.50783 7.5 7.29503 7.5 7.03254V1.99612C7.5 1.57342 6.98958 1.36103 6.68972 1.65897L5.183 3.15603Z" fill="#0D6CF2"/>
<path fill-rule="evenodd" clip-rule="evenodd" d="M10.817 12.844L12.4555 14.3774C12.6435 14.5534 12.9374 14.5476 13.1184 14.3644L14.3629 13.1045C14.546 12.9191 14.5457 12.6207 14.3621 12.4357L12.7924 10.8537L14.3513 9.30459C14.6521 9.00563 14.4404 8.49219 14.0163 8.49219H8.97528C8.7128 8.49219 8.5 8.70498 8.5 8.96747V14.0039C8.5 14.4266 9.01042 14.639 9.31028 14.341L10.817 12.844Z" fill="#0D6CF2"/>
<path fill-rule="evenodd" clip-rule="evenodd" d="M5.183 12.844L3.54453 14.3774C3.35652 14.5534 3.06258 14.5476 2.88163 14.3644L1.63714 13.1045C1.45399 12.9191 1.45433 12.6207 1.63791 12.4357L3.20761 10.8537L1.64872 9.30459C1.34786 9.00563 1.5596 8.49219 1.98374 8.49219H7.02472C7.28721 8.49219 7.5 8.70498 7.5 8.96747V14.0039C7.5 14.4266 6.98958 14.639 6.68972 14.341L5.183 12.844Z" fill="#0D6CF2"/>
</svg>
