<svg viewBox="0 0 1024 1024" fill="none" xmlns="http://www.w3.org/2000/svg"><g transform="scale(64)">
<path d="M13.5 1C13.7999 1 13.9999 1.19993 14 1.5498V14.4502L13.9951 14.5225C13.974 14.6866 13.8813 14.8129 13.75 14.9004L13.6914 14.9326C13.5708 14.9888 13.4292 14.9888 13.3086 14.9326L13.25 14.9004L11.9502 13.9502C11.6002 14.1502 10.9496 14.5504 10.3496 14.9004C10.2184 14.9876 10.0491 14.9982 9.875 14.9326L9.7998 14.9004C9.19996 14.5505 8.50033 14.1003 8.2002 13.9502C7.85023 14.1502 7.10033 14.5502 6.40039 14.9502L6.31738 14.9785C6.22826 14.9997 6.12488 15 6.0498 15C5.94993 14.9999 5.8498 14.9503 5.7998 14.9004C5.1498 14.5004 4.3498 14.1502 4.0498 13.9502C3.7997 14.1004 3.24985 14.6005 2.75 14.9004C2.6188 14.9878 2.44933 14.9982 2.30859 14.9326L2.25 14.9004C2.11878 14.8129 2.0261 14.6867 2.00488 14.4893L2 14.4004V1.5C2 1.22386 2.22386 1 2.5 1H13.5ZM4 10V11H12V10H4ZM4 7V8H12V7H4ZM4 4V5H10V4H4Z" fill="#0D6CF2"/>
</g></svg>
