<svg width="16" height="16" viewBox="0 0 16 16" fill="none" xmlns="http://www.w3.org/2000/svg">
<path d="M11 2C11.3 2 11.5 2.2 11.5 2.5V9H9.41309C9.46847 9.15653 9.5 9.3245 9.5 9.5C9.5 10.3284 8.82843 11 8 11C7.17157 11 6.5 10.3284 6.5 9.5C6.5 9.3245 6.53153 9.15653 6.58691 9H2.5V2.5C2.5 2.2 2.7 2 3 2H11Z" fill="#0D6CF2"/>
<rect x="12.5" y="3" width="1" height="6" fill="#0D6CF2"/>
<path d="M14 10C14.2761 10 14.5 10.2239 14.5 10.5V13.5C14.5 13.7761 14.2761 14 14 14H2C1.72386 14 1.5 13.7761 1.5 13.5V10.5C1.5 10.2239 1.72386 10 2 10H5.5498C5.78142 11.1411 6.79051 12 8 12C9.20949 12 10.2186 11.1411 10.4502 10H14ZM9.41309 10C9.20703 10.5823 8.65293 11 8 11C7.34707 11 6.79297 10.5823 6.58691 10H9.41309Z" fill="#0D6CF2"/>
</svg>
