<svg viewBox="0 0 1024 1024" fill="none" xmlns="http://www.w3.org/2000/svg"><g transform="scale(64)">
<rect opacity="0.01" width="16" height="16" fill="white"/>
<rect opacity="0.01" width="16" height="16" fill="white"/>
<rect opacity="0.01" width="16" height="16" fill="white"/>
<path d="M6.98865 2C7.26479 2 7.48865 2.22386 7.48865 2.5V13.5C7.48865 13.7761 7.26479 14 6.98865 14H1.99548C1.71933 14 1.49548 13.7761 1.49548 13.5V2.5C1.49548 2.22386 1.71933 2 1.99548 2H6.98865ZM3.14197 6.01465C3.07319 6.01484 3.01712 6.07086 3.01697 6.13965V6.88965C3.01697 6.95856 3.0731 7.01446 3.14197 7.01465H5.89197C5.961 7.01465 6.01697 6.95868 6.01697 6.88965V6.13965C6.01681 6.07075 5.9609 6.01465 5.89197 6.01465H3.14197ZM3.14197 4.01172C3.0731 4.01191 3.01697 4.06781 3.01697 4.13672V4.88672C3.01715 4.95547 3.07321 5.01153 3.14197 5.01172H5.89197C5.96088 5.01172 6.01678 4.95559 6.01697 4.88672V4.13672C6.01697 4.06769 5.961 4.01172 5.89197 4.01172H3.14197Z" fill="#0D6CF2"/>
<path d="M14.0043 2C14.2804 2 14.5043 2.22386 14.5043 2.5V13.5C14.5043 13.7761 14.2804 14 14.0043 14H9.01111C8.73495 14 8.51111 13.7761 8.51111 13.5V2.5C8.51111 2.22386 8.73495 2 9.01111 2H14.0043ZM10.1332 6.01465C10.0642 6.01465 10.0083 6.07075 10.0082 6.13965V6.88965C10.0082 6.95868 10.0641 7.01465 10.1332 7.01465H12.8832C12.9521 7.01446 13.0082 6.95856 13.0082 6.88965V6.13965C13.008 6.07086 12.952 6.01483 12.8832 6.01465H10.1332ZM10.1332 4.01172C10.0641 4.01172 10.0082 4.06769 10.0082 4.13672V4.88672C10.0084 4.95559 10.0643 5.01172 10.1332 5.01172H12.8832C12.9519 5.01153 13.008 4.95548 13.0082 4.88672V4.13672C13.0082 4.0678 12.9521 4.01191 12.8832 4.01172H10.1332Z" fill="#0D6CF2"/>
</g></svg>
