<svg viewBox="0 0 1024 1024" fill="none" xmlns="http://www.w3.org/2000/svg"><g transform="scale(64)">
<path d="M5 8.9502C7.1 8.9502 9.5 10.6002 9.5 13.9502H0.5C0.5 10.6002 2.9 8.9502 5 8.9502ZM5 4.5C6.10457 4.5 7 5.39543 7 6.5C7 7.60457 6.10457 8.5 5 8.5C3.89543 8.5 3 7.60457 3 6.5C3 5.39543 3.89543 4.5 5 4.5Z" fill="#0D6CF2"/>
<path d="M10 8C12.55 8 15.5 10 15.5 14H4.5C4.5 10 7.45 8 10 8ZM10.0498 2.5C11.4305 2.5 12.5498 3.61929 12.5498 5C12.5498 6.38071 11.4305 7.5 10.0498 7.5C8.66918 7.49989 7.5498 6.38065 7.5498 5C7.5498 3.61935 8.66918 2.50011 10.0498 2.5Z" fill="#0D6CF2"/>
</g></svg>
