<svg width="16" height="16" viewBox="0 0 16 16" fill="none" xmlns="http://www.w3.org/2000/svg">
<path d="M12.5 2C12.8 2 13 2.2 13 2.5V6.2002C13 6.40013 13.0504 6.60005 13.1504 6.75L13.7998 7.75C13.8998 7.89995 13.9502 8.09987 13.9502 8.2998V13.5C13.9502 13.7999 13.7501 13.9999 13.4502 14H12.0498V10.5498H4.0498V14H2.5C2.2 14 2 13.8 2 13.5V2.5C2 2.2 2.2 2 2.5 2H12.5ZM11.0498 14H5.0498V11.5498H11.0498V14ZM4.5 5H5.5V3H4.5V5ZM7 5H8V3H7V5ZM9.5 3V5H10.5V3H9.5Z" fill="#0D6CF2"/>
<rect x="5" y="11.5" width="6" height="2.5" fill="#0D6CF2"/>
</svg>
