<?xml version="1.0" standalone="no"?>
<svg xmlns="http://www.w3.org/2000/svg" class="icon" viewBox="0 0 1024 1024">
  <path d="M944 604.032a16 16 0 0 1 16 16v176a8 8 0 0 1-8 7.936h-80a8 8 0 0 1-8-7.936v-72.064h-64v72.064a8 8 0 0 1-8 7.936h-80a8 8 0 0 1-8-7.936v-72.064h-64v72.064a8 8 0 0 1-8 7.936h-80a8 8 0 0 1-8-7.936v-72.064h-64v72.064a8 8 0 0 1-8 7.936h-80A8 8 0 0 1 384 796.032v-72.064H320v72.064a8 8 0 0 1-8 7.936h-80a8 8 0 0 1-8-7.936v-72.064h-64v72.064a8 8 0 0 1-8 7.936h-80A8 8 0 0 1 64 796.032v-176a16 16 0 0 1 16-16h864z m-16-416a32 32 0 0 1 32 32v240a16 16 0 0 1-16 16h-84.032v56a8 8 0 0 1-7.936 7.936H171.968a8 8 0 0 1-7.936-7.936v-56.064H80a16 16 0 0 1-16-16v-240a32 32 0 0 1 32-32h832z m-124.032 96h-103.936a8 8 0 0 0-8.064 8v104c0 4.416 3.584 8 8.064 8h103.936a8 8 0 0 0 8.064-8V292.032a8 8 0 0 0-8.064-8z m-240 0H460.032a8 8 0 0 0-8 8v104c0 4.416 3.52 8 8 8h104a8 8 0 0 0 7.936-8V292.032a8 8 0 0 0-7.936-8z m-240 0H220.032a8 8 0 0 0-7.936 8v104c0 4.416 3.52 8 7.936 8h104.064a8 8 0 0 0 8-8V292.032a8 8 0 0 0-8-8z" p-id="45516"></path>
</svg>
