<svg viewBox="0 0 1024 1024" fill="none" xmlns="http://www.w3.org/2000/svg"><g transform="scale(64)">
<g clip-path="url(#clip0_2502_93)">
<path d="M8.123 1.42902L13.605 2.91702C13.8103 2.97222 13.953 3.15839 13.953 3.37102V7.99202C13.953 11.729 11.555 13.407 8.001 14.588C4.445 13.407 2.047 11.728 2.047 7.99102V3.37002C2.047 3.15739 2.18966 2.97122 2.395 2.91602L7.877 1.42802C7.95772 1.40754 8.04228 1.40754 8.123 1.42802M10.88 8.01102H10.161C10.097 8.01094 10.0442 8.0611 10.041 8.12502C9.99955 8.92847 9.48842 9.63199 8.73711 9.9197C7.9858 10.2074 7.13551 10.0253 6.568 9.45502L6.506 9.39002L6.881 9.09602C6.91777 9.06788 6.93507 9.0211 6.92545 8.97581C6.91584 8.93052 6.88103 8.8948 6.836 8.88402L5.363 8.52402C5.32738 8.51548 5.2898 8.52367 5.26097 8.54626C5.23214 8.56886 5.21521 8.60339 5.215 8.64002L5.209 10.161C5.209 10.261 5.323 10.319 5.402 10.256L5.75 9.98302C6.31809 10.6369 7.14181 11.0123 8.008 11.012C9.61414 11.0091 10.9331 9.74178 11 8.13702C11.0014 8.10434 10.9893 8.07252 10.9667 8.04892C10.944 8.02532 10.9127 8.012 10.88 8.01202M8.022 5.01302C6.41548 5.01594 5.0964 6.28388 5.03 7.88902C5.02863 7.92171 5.04067 7.95353 5.06333 7.97713C5.08598 8.00073 5.11729 8.01402 5.15 8.01402H5.869C5.93296 8.01299 5.98487 7.96196 5.987 7.89802C6.02845 7.09458 6.53957 6.39106 7.29088 6.10334C8.04219 5.81563 8.89249 5.99778 9.46 6.56802L9.522 6.63302L9.147 6.92702C9.11023 6.95516 9.09293 7.00194 9.10254 7.04724C9.11216 7.09253 9.14697 7.12825 9.192 7.13902L10.665 7.49902C10.7006 7.50789 10.7383 7.49999 10.7673 7.47758C10.7964 7.45517 10.8136 7.4207 10.814 7.38402L10.821 5.86402C10.8209 5.81839 10.7949 5.77675 10.754 5.7566C10.713 5.73645 10.6642 5.74126 10.628 5.76902L10.28 6.04202C9.71191 5.38815 8.88818 5.01277 8.022 5.01302Z" fill="#0D6CF2"/>
</g>
<defs>
<clipPath id="clip0_2502_93">
<rect width="16" height="16" fill="white"/>
</clipPath>
</defs>
</g></svg>
