<svg viewBox="0 0 1024 1024" fill="none" xmlns="http://www.w3.org/2000/svg"><g transform="scale(64)">
<path d="M13.7295 1.8291C13.9728 1.8291 14.1707 2.02632 14.1709 2.26953V11.9668C14.1709 12.2102 13.9729 12.4072 13.7295 12.4072H9.7627V13.7295C9.7627 13.9729 9.56568 14.1709 9.32227 14.1709H2.26953C2.02632 14.1707 1.8291 13.9728 1.8291 13.7295V4.0332C1.8291 3.78993 2.02632 3.59302 2.26953 3.59277H6.2373V2.26953C6.23755 2.02632 6.43447 1.8291 6.67773 1.8291H13.7295ZM10.333 4.01758C10.2843 3.96889 10.2051 3.96896 10.1562 4.01758L9.625 4.54688C9.57608 4.59561 9.57628 4.67473 9.625 4.72363L10.8926 5.99609H4.32617C4.25717 5.99609 4.20124 6.05212 4.20117 6.12109V6.87109C4.20117 6.94012 4.25712 6.99609 4.32617 6.99609H10.8926L9.625 8.26855C9.57629 8.31745 9.57613 8.39657 9.625 8.44531L10.1562 8.97461C10.2051 9.02329 10.2843 9.0234 10.333 8.97461L12.4502 6.84863C12.6443 6.65356 12.6444 6.3386 12.4502 6.14355L10.333 4.01758Z" fill="#0D6CF2"/>
</g></svg>
