<svg viewBox="0 0 1024 1024" fill="none" xmlns="http://www.w3.org/2000/svg"><g transform="scale(64)">
<path fill-rule="evenodd" clip-rule="evenodd" d="M12.9062 13.25H3.14062C3.07159 13.25 3.01562 13.194 3.01562 13.125V12.375C3.01562 12.306 3.07159 12.25 3.14062 12.25H12.9062C12.9753 12.25 13.0312 12.306 13.0312 12.375V13.125C13.0312 13.194 12.9753 13.25 12.9062 13.25Z" fill="#0D6CF2"/>
<path d="M13.0312 2.75C13.3074 2.75 13.5312 2.97386 13.5312 3.25V10.75C13.5312 11.0261 13.3074 11.25 13.0312 11.25H2.96875C2.69261 11.25 2.46875 11.0261 2.46875 10.75V3.25C2.46875 2.97386 2.69261 2.75 2.96875 2.75H13.0312ZM7.23438 5.52734C7.03912 5.33209 6.7226 5.3321 6.52734 5.52734L4.37695 7.67773C4.32855 7.72658 4.32827 7.80582 4.37695 7.85449L4.90723 8.38477C4.9559 8.43344 5.03514 8.43316 5.08398 8.38477L6.88086 6.58789L8.76562 8.47266C8.86325 8.5703 8.99119 8.61914 9.11914 8.61914C9.24709 8.61914 9.37503 8.57029 9.47266 8.47266L11.623 6.32324C11.6717 6.27458 11.6714 6.19533 11.623 6.14648L11.0928 5.61523C11.044 5.56642 10.9639 5.56642 10.915 5.61523L9.11914 7.41211L7.23438 5.52734Z" fill="#0D6CF2"/>
</g></svg>
