<svg viewBox="0 0 1024 1024" fill="none" xmlns="http://www.w3.org/2000/svg"><g transform="scale(64)">
<path d="M8 1C11.8656 1 15 4.13438 15 8C15 11.8656 11.8656 15 8 15C4.13438 15 1 11.8656 1 8C1 4.13438 4.13438 1 8 1ZM7.70703 3.625C7.66388 3.625 7.62891 3.65998 7.62891 3.70312V4.89648C6.19963 5.06559 5.06559 6.19963 4.89648 7.62891H3.70312C3.65998 7.62891 3.625 7.66388 3.625 7.70703V8.29297C3.625 8.33612 3.65998 8.37109 3.70312 8.37109H4.89648C5.06559 9.80037 6.19963 10.9344 7.62891 11.1035V12.2969C7.62891 12.34 7.66388 12.375 7.70703 12.375H8.29297C8.33612 12.375 8.37109 12.34 8.37109 12.2969V11.1035C9.80037 10.9344 10.9344 9.80037 11.1035 8.37109H12.2969C12.34 8.37109 12.375 8.33612 12.375 8.29297V7.70703C12.375 7.66388 12.34 7.62891 12.2969 7.62891H11.1035C10.9344 6.19963 9.80037 5.06559 8.37109 4.89648V3.70312C8.37109 3.65998 8.33612 3.625 8.29297 3.625H7.70703ZM8 5.61719C9.31599 5.61719 10.3828 6.68401 10.3828 8C10.3828 9.31599 9.31599 10.3828 8 10.3828C6.68401 10.3828 5.61719 9.31599 5.61719 8C5.61719 6.68401 6.68401 5.61719 8 5.61719ZM8 6.82812C7.68687 6.82812 7.39389 6.94986 7.17188 7.17188C6.95091 7.39389 6.82812 7.68687 6.82812 8C6.82812 8.31313 6.95091 8.60611 7.17188 8.82812C7.39389 9.0491 7.68687 9.17188 8 9.17188C8.31313 9.17188 8.60611 9.0491 8.82812 8.82812C9.0491 8.60611 9.17188 8.31313 9.17188 8C9.17188 7.68687 9.0491 7.39389 8.82812 7.17188C8.60611 6.94986 8.31313 6.82812 8 6.82812Z" fill="#0D6CF2"/>
</g></svg>
