<?xml version="1.0" standalone="no"?>
<svg xmlns="http://www.w3.org/2000/svg" class="icon" viewBox="0 0 1024 1024">
  <path d="M872 112c22.091 0 40 17.909 40 40v283h1v438c0 22.091-17.909 40-40 40h-28v-0.05H430.05c-2.989 0-5.9-0.327-8.7-0.948L152 912c-22.091 0-40-17.909-40-40V152c0-22.091 17.909-40 40-40h720zM408.369 284.687c-39.952 6.972-94.581 37.44-113.299 78.476-30.494 12.525-74.27 26.164-89.927 58.561-13.419 29.54 47.74 39.592 67.823 43.324 8.906 0.973 50.414 6.723 103.926 21.846l2.286 1.786 0.25 2.035c-0.974 8.9 0.588 21.622 10.069 48.35 26.085 52.58 60.291 87.12 76.584 80.987 6.947-3.202 6.763-25.053 5.95-47.38l-0.05-1.367-0.09-2.358-0.063-1.597c-0.593-15.153-1.238-29.86 0.108-38.408 0 0 1.79-2.286 3.82-2.535l4.072-0.5c82.33 39.477 151.24 108.493 183.793 201.085 14.443 38.592 21.458 78.46 21.966 117.958l78.706-0.001c54.453-150.487 37.512-284.404-31.447-395.562-0.25-2.035-2.29-1.785-2.54-3.82-4.41-19.086 71.422-32.53 88.939-45.527 9.844-20.837-122.343-62.456-172.482-50.101-2.03 0.249-8.896-0.974-10.936-0.724-84.892-60.34-187.251-69.465-227.458-64.528z" p-id="14660"></path>
</svg>
