<svg width="16" height="16" viewBox="0 0 16 16" fill="none" xmlns="http://www.w3.org/2000/svg">
<path d="M10.2278 8.49609C10.1337 11.5777 9.17224 13.999 7.99927 13.999H7.99829C6.82571 13.9967 5.86519 11.5747 5.77173 8.49316L10.2278 8.49609ZM13.9924 8.30859C13.8504 11.1128 11.7823 13.4065 9.08521 13.8994C9.40316 13.8408 9.71258 13.7585 10.011 13.6523C10.1979 13.3475 10.3682 12.9932 10.5178 12.5918C10.936 11.47 11.1824 10.0314 11.2268 8.49707L13.9768 8.49902C13.9836 8.41683 13.9892 8.33405 13.9934 8.25098L13.9924 8.30859ZM6.89868 13.8965C6.83687 13.885 6.77524 13.8737 6.71411 13.8604C6.77522 13.8738 6.8369 13.8849 6.89868 13.8965ZM2.02173 8.49121L4.77271 8.49219C4.81653 10.0282 5.06218 11.4689 5.48071 12.5918C5.63023 12.9929 5.79986 13.3477 5.98657 13.6523C6.22251 13.7364 6.4657 13.8058 6.71411 13.8604C4.09926 13.2892 2.12324 11.0144 2.00708 8.25684C2.01079 8.3353 2.01544 8.41356 2.02173 8.49121ZM9.33423 2.15039C11.9088 2.73516 13.8548 4.9741 13.9924 7.69141L14.0002 8C14.0002 7.83127 13.9905 7.66423 13.9768 7.49902L11.2268 7.49707C11.182 5.96497 10.9355 4.52855 10.5178 3.4082C10.3681 3.00645 10.1981 2.65169 10.011 2.34668C9.79105 2.26844 9.56512 2.20302 9.33423 2.15039ZM7.99927 2C9.17125 2 10.1313 4.41823 10.2268 7.49609L5.77173 7.49316C5.86761 4.41815 6.82744 2.00233 7.99829 2H7.99927ZM5.9856 2.34668C5.79882 2.65143 5.63028 3.00697 5.48071 3.4082C5.06359 4.52732 4.81776 5.96203 4.77271 7.49219L2.02271 7.49121C2.22293 5.10735 3.81548 3.11999 5.9856 2.34668ZM6.64087 2.15527C6.4507 2.1994 6.26408 2.25277 6.0813 2.31445C6.2641 2.25279 6.45066 2.19933 6.64087 2.15527Z" fill="#0D6CF2"/>
<path d="M13.9746 8.49829C13.8998 9.4073 13.6253 10.2582 13.1904 11.0071C13.0991 11.1644 13.0013 11.3173 12.8965 11.4651C12.3903 12.1791 11.7321 12.7764 10.9688 13.2122C10.8207 13.2967 10.6693 13.3756 10.5137 13.4475C10.3507 13.5228 10.1831 13.589 10.0127 13.6497C10.199 13.3454 10.3693 12.9924 10.5186 12.592C10.9368 11.4701 11.1832 10.0309 11.2275 8.49634L13.9746 8.49829ZM13.9834 8.41821C13.9823 8.43357 13.9797 8.44879 13.9785 8.46411C13.9811 8.43099 13.9831 8.39777 13.9854 8.3645C13.9842 8.38239 13.9846 8.40036 13.9834 8.41821ZM13.9893 7.66333C13.9902 7.67957 13.9904 7.69587 13.9912 7.71216C13.9898 7.68735 13.987 7.66267 13.9854 7.63794H13.9883C13.9888 7.64623 13.9888 7.65504 13.9893 7.66333ZM5.9873 2.34595V2.34692C5.80039 2.6518 5.6311 3.00697 5.48145 3.40845C5.0643 4.52763 4.8175 5.96217 4.77246 7.49243L2.02246 7.49146C2.22274 5.10694 3.81624 3.11874 5.9873 2.34595ZM7.34668 2.03638C7.3294 2.03826 7.31216 2.04021 7.29492 2.04224C7.31315 2.0401 7.33133 2.03737 7.34961 2.0354L7.34668 2.03638Z" fill="#0D6CF2"/>
</svg>
