<svg width="16" height="16" viewBox="0 0 16 16" fill="none" xmlns="http://www.w3.org/2000/svg">
<path d="M7.52832 11.001C7.51054 11.1648 7.5 11.3312 7.5 11.5C7.5 12.5372 7.84442 13.4881 8.42578 14.2461C8.26356 14.4139 8.11742 14.5 8 14.5C7.56072 14.5 6.69526 13.3202 6.26172 11.001H7.52832ZM5.25098 11.001C5.48794 12.3539 5.88007 13.4973 6.37012 14.293C4.57117 13.8284 3.07521 12.6131 2.23438 11.001H5.25098ZM5.1084 6.00098C5.03808 6.63715 5 7.30741 5 8C5 8.69438 5.0387 9.36626 5.10938 10.0039H1.81641C1.61196 9.37258 1.5 8.69943 1.5 8C1.5 7.30241 1.61104 6.63086 1.81445 6.00098H5.1084ZM9.8877 6.00098C9.93971 6.45574 9.97673 6.94421 9.99121 7.4668C8.94814 7.98323 8.13947 8.89145 7.75195 10.0039H6.1123C6.04264 9.39644 6 8.7285 6 8C6 7.27343 6.04297 6.60715 6.1123 6.00098H9.8877ZM14.1855 6.00098C14.3642 6.55407 14.4698 7.13927 14.4932 7.74609C13.7811 7.27449 12.925 7 12 7C11.6478 7 11.3057 7.04005 10.9775 7.11523C10.9596 6.73427 10.9315 6.36211 10.8916 6.00098H14.1855ZM6.37012 1.70605C5.87928 2.50275 5.48695 3.64845 5.25 5.00391H2.23145C3.07182 3.38917 4.56919 2.17108 6.37012 1.70605ZM8 1.5C8.43959 1.5 9.30602 2.6814 9.73926 5.00391H6.26074C6.69398 2.6814 7.56041 1.5 8 1.5ZM9.62891 1.70605C11.4302 2.17091 12.928 3.3889 13.7686 5.00391H10.75C10.513 3.64821 10.1199 2.50276 9.62891 1.70605Z" fill="#0D6CF2"/>
<path d="M12 8C13.95 8 15.5 9.55 15.5 11.5C15.5 13.45 13.95 15 12 15C10.05 15 8.5 13.45 8.5 11.5C8.5 9.55 10.05 8 12 8ZM12.4004 9.5C12.4004 9.7 12.2 9.84961 12 9.84961C11.8 9.84961 11.5996 9.7 11.5996 9.5C11.3497 9.55003 11.0995 9.64988 10.8496 9.7998C10.9996 9.9498 10.9996 10.1996 10.8496 10.3496C10.7496 10.4496 10.6498 10.4502 10.5498 10.4502C10.4499 10.4502 10.3498 10.4495 10.2998 10.3496C10.1499 10.5495 10.05 10.7998 10 11.0996C10.2 11.0996 10.3496 11.3 10.3496 11.5C10.3496 11.7 10.2 11.9004 10 11.9004C10.05 12.1503 10.1499 12.4005 10.2998 12.6504C10.3997 12.6004 10.4499 12.5499 10.5498 12.5498C10.6498 12.5498 10.7496 12.5504 10.8496 12.6504C10.9996 12.8004 10.9996 13.0502 10.8496 13.2002C11.0495 13.3501 11.2998 13.45 11.5996 13.5C11.5996 13.3 11.8 13.1504 12 13.1504C12.2 13.1504 12.4004 13.3 12.4004 13.5C12.6503 13.45 12.9005 13.3501 13.1504 13.2002C13.0004 13.0502 13.0004 12.8004 13.1504 12.6504C13.2504 12.5504 13.3502 12.5498 13.4502 12.5498C13.5501 12.5498 13.6502 12.5505 13.7002 12.6504C13.8501 12.4505 13.95 12.2002 14 11.9004C13.8 11.9004 13.6504 11.7 13.6504 11.5C13.6504 11.3 13.8 11.0996 14 11.0996C13.95 10.8497 13.8501 10.5995 13.7002 10.3496C13.6003 10.3996 13.5501 10.4501 13.4502 10.4502C13.3502 10.4502 13.2504 10.4496 13.1504 10.3496C13.0004 10.1996 13.0004 9.9498 13.1504 9.7998C12.9505 9.64987 12.7002 9.55002 12.4004 9.5ZM12 10.75C12.4499 10.75 12.7997 11.0999 12.7998 11.5498C12.7998 11.9998 12.45 12.3496 12 12.3496C11.55 12.3496 11.2002 11.9998 11.2002 11.5498C11.2003 11.0999 11.5501 10.75 12 10.75Z" fill="#0D6CF2"/>
</svg>
