<svg width="16" height="16" viewBox="0 0 16 16" fill="none" xmlns="http://www.w3.org/2000/svg">
<path d="M11.9844 8.75C13.9174 8.75 15.4844 10.317 15.4844 12.25C15.4844 14.183 13.9174 15.75 11.9844 15.75C10.0514 15.75 8.48438 14.183 8.48438 12.25C8.48438 10.317 10.0514 8.75 11.9844 8.75ZM11.4844 11.75H10.4844V12.75H11.4844V13.75H12.4844V12.75H13.4844V11.75H12.4844V10.75H11.4844V11.75ZM2.13477 1.75C2.41083 1.75 2.63464 1.97252 2.63477 2.24707V3.49023C2.63477 3.62745 2.74683 3.73911 2.88477 3.73926H10.0996C10.2375 3.73911 10.3496 3.62745 10.3496 3.49023V2.24707C10.3497 1.97252 10.5735 1.75 10.8496 1.75H11.9531C12.2292 1.75 12.453 1.97252 12.4531 2.24707V7.77441C12.299 7.75846 12.1427 7.75 11.9844 7.75C9.49909 7.75 7.48438 9.76472 7.48438 12.25C7.48438 12.5938 7.52462 12.9283 7.59766 13.25H1.01562C0.73956 13.25 0.515748 13.0275 0.515625 12.7529V2.24707C0.515748 1.97252 0.73956 1.75 1.01562 1.75H2.13477ZM3.61719 9.5C3.54816 9.5 3.49219 9.55597 3.49219 9.625V10.375C3.49219 10.444 3.54816 10.5 3.61719 10.5H7.36719C7.43622 10.5 7.49219 10.444 7.49219 10.375V9.625C7.49219 9.55597 7.43622 9.5 7.36719 9.5H3.61719ZM3.61719 6.65918C3.54816 6.65918 3.49219 6.71515 3.49219 6.78418V7.53418C3.49245 7.60299 3.54832 7.65918 3.61719 7.65918H9.36719C9.43606 7.65918 9.49192 7.60299 9.49219 7.53418V6.78418C9.49219 6.71515 9.43622 6.65918 9.36719 6.65918H3.61719ZM8.85742 0.25C9.13342 0.250172 9.35742 0.473966 9.35742 0.75V2.25C9.35742 2.52603 9.13342 2.74983 8.85742 2.75H4.14258C3.86655 2.74987 3.64258 2.52606 3.64258 2.25V0.75C3.64258 0.473941 3.86655 0.250132 4.14258 0.25H8.85742Z" fill="#0D6CF2"/>
</svg>
