<svg width="16" height="16" viewBox="0 0 16 16" fill="none" xmlns="http://www.w3.org/2000/svg">
<rect x="1" y="4.5" width="6" height="7" rx="0.5" fill="#0D6CF2"/>
<path d="M14.5 2C14.7761 2 15 2.22386 15 2.5V6C15 6.27614 14.7761 6.5 14.5 6.5H11.5C11.2239 6.5 11 6.27614 11 6V4.9502H9.5V11.0996H11V10C11 9.72386 11.2239 9.5 11.5 9.5H14.5C14.7761 9.5 15 9.72386 15 10V13.5C15 13.7761 14.7761 14 14.5 14H11.5C11.2239 14 11 13.7761 11 13.5V12.0996H8.5V8.5H7V7.5H8.5V3.9502H11V2.5C11 2.22386 11.2239 2 11.5 2H14.5Z" fill="#0D6CF2"/>
</svg>
