<svg viewBox="0 0 1024 1024" fill="none" xmlns="http://www.w3.org/2000/svg"><g transform="scale(64)">
<path fill-rule="evenodd" clip-rule="evenodd" d="M7.99999 2.01566C4.69735 2.01566 2.02002 4.69298 2.02002 7.99562C2.02002 11.2983 4.69735 13.9756 7.99999 13.9756C11.3026 13.9756 13.98 11.2983 13.98 7.99562C13.98 4.69298 11.3026 2.01566 7.99999 2.01566ZM7.99999 3.51566C8.60544 3.51566 9.19199 3.63389 9.74333 3.86709C10.2766 4.09266 10.7559 4.41589 11.1678 4.82781C11.5797 5.23972 11.9029 5.71898 12.1285 6.25228C12.3617 6.80362 12.48 7.39017 12.48 7.99562C12.48 8.60108 12.3617 9.18761 12.1285 9.73897C11.9029 10.2722 11.5797 10.7515 11.1678 11.1634C10.7559 11.5753 10.2766 11.8986 9.74333 12.1241C9.19199 12.3573 8.60544 12.4756 7.99999 12.4756C7.39454 12.4756 6.80799 12.3573 6.25664 12.1241C5.72335 11.8986 5.2441 11.5753 4.83218 11.1634C4.42025 10.7515 4.09702 10.2722 3.87147 9.73897C3.63827 9.18761 3.52002 8.60108 3.52002 7.99562C3.52002 7.39017 3.63827 6.80362 3.87147 6.25228C4.09702 5.71898 4.42025 5.23972 4.83218 4.82781C5.2441 4.41589 5.72335 4.09266 6.25664 3.86709C6.80799 3.63389 7.39454 3.51566 7.99999 3.51566Z" fill="#0D6CF2"/>
<path fill-rule="evenodd" clip-rule="evenodd" d="M8.00005 4.3475C8.97451 4.3475 9.89062 4.72697 10.5797 5.41602C11.2687 6.10505 11.6482 7.02118 11.6482 7.99563C11.6482 8.97007 11.2687 9.88619 10.5797 10.5752C9.89062 11.2643 8.97451 11.6437 8.00005 11.6437C7.0256 11.6437 6.10949 11.2643 5.42044 10.5752C4.7314 9.88619 4.35193 8.97007 4.35193 7.99563C4.35193 7.02118 4.7314 6.10505 5.42044 5.41602C6.10948 4.72697 7.0256 4.3475 8.00005 4.3475Z" fill="#0D6CF2"/>
<path fill-rule="evenodd" clip-rule="evenodd" d="M8.36306 4.00015H7.63692C7.5613 4.00015 7.5 3.93884 7.5 3.86321V1.13709C7.5 1.06147 7.5613 1.00015 7.63692 1.00015H8.36306C8.43869 1.00015 8.5 1.06147 8.5 1.13709V3.86321C8.5 3.93884 8.43869 4.00015 8.36306 4.00015Z" fill="#0D6CF2"/>
<path fill-rule="evenodd" clip-rule="evenodd" d="M8.36306 14.9998H7.63692C7.5613 14.9998 7.5 14.9385 7.5 14.8629V12.1368C7.5 12.0612 7.5613 11.9998 7.63692 11.9998H8.36306C8.43869 11.9998 8.5 12.0612 8.5 12.1368V14.8629C8.5 14.9385 8.43869 14.9998 8.36306 14.9998Z" fill="#0D6CF2"/>
<path fill-rule="evenodd" clip-rule="evenodd" d="M15 7.63254V8.35868C15 8.43431 14.9387 8.49561 14.8631 8.49561H12.1369C12.0613 8.49561 12 8.43431 12 8.35868V7.63254C12 7.55692 12.0613 7.49561 12.1369 7.49561H14.8631C14.9387 7.49561 15 7.55692 15 7.63254Z" fill="#0D6CF2"/>
<path fill-rule="evenodd" clip-rule="evenodd" d="M4 7.63254V8.35868C4 8.43431 3.93869 8.49561 3.86306 8.49561H1.13694C1.06131 8.49561 1 8.43431 1 8.35868V7.63254C1 7.55692 1.06131 7.49561 1.13694 7.49561H3.86306C3.93869 7.49561 4 7.55692 4 7.63254Z" fill="#0D6CF2"/>
</g></svg>
