<?xml version="1.0" standalone="no"?>
<svg xmlns="http://www.w3.org/2000/svg" class="icon" viewBox="0 0 1024 1024">
  <g fill-rule="evenodd" stroke="none" stroke-width="1">
    <path d="M438.781 328.176V644.23a29.257 29.257 0 0 1-14.623 25.334l-87.953 50.807a35.109 35.109 0 0 1-35.12.002L17.551 556.63A35.109 35.109 0 0 1 0 526.227V198.792a35.109 35.109 0 0 1 17.556-30.406L301.092 4.703a35.109 35.109 0 0 1 35.106 0l283.537 163.683a35.109 35.109 0 0 1 17.556 30.406v328.056a35.109 35.109 0 0 1-16.745 29.922l-69.586 42.707c-8.263 5.071-19.072 2.484-24.143-5.779a17.554 17.554 0 0 1-2.593-9.182V254.598c0-8.487-4.595-16.31-12.007-20.443L330.044 132.577a23.406 23.406 0 0 0-22.797 0L125.08 234.155a23.406 23.406 0 0 0-12.007 20.443V463.63c0 8.374 4.474 16.11 11.732 20.287l173.112 97.104c8.403 4.835 19.135 1.943 23.97-6.46a17.554 17.554 0 0 0 2.339-8.755V370.139c0-1.555-.154-3.088-.452-4.58l-.055-.268 110.058-55.18a35.15 35.15 0 0 0-.31-.507l-.285-.45a35.091 35.091 0 0 1 5.6 19.022Z" transform="translate(193.355 149.457)" />
    <path fill-opacity=".5" d="m336.142 249.285 84.913 48.387a35.084 35.084 0 0 1 12.722 12.438l-110.058 55.181a23.407 23.407 0 0 0-11.138-15.389l-73.324-39.36c-8.382-4.872-11.228-15.616-6.357-23.998a17.554 17.554 0 0 1 6.4-6.382l61.905-30.779a35.109 35.109 0 0 1 34.937-.098Z" transform="translate(193.355 149.457)" />
  </g>
</svg>
