<svg width="16" height="16" viewBox="0 0 16 16" fill="none" xmlns="http://www.w3.org/2000/svg">
<path d="M3 1C4.10457 1 5 1.89543 5 3C5 3.38316 4.88998 3.73976 4.70312 4.04395L11.9561 11.2959C12.2601 11.1092 12.617 11 13 11C14.1046 11 15 11.8954 15 13C15 14.1046 14.1046 15 13 15C11.8954 15 11 14.1046 11 13C11 12.6416 11.0947 12.3055 11.2598 12.0146L3.98438 4.73926C3.69355 4.90421 3.35823 5 3 5C1.89543 5 1 4.10457 1 3C1 1.89543 1.89543 1 3 1Z" fill="#0D6CF2"/>
<path d="M13 1C14.1046 1 15 1.89543 15 3C15 4.10457 14.1046 5 13 5C12.6245 5 12.2748 4.89386 11.9746 4.71387L10.4355 6.25293C10.7893 6.74526 11 7.34746 11 8C11 9.65685 9.65685 11 8 11C7.34746 11 6.74526 10.7893 6.25293 10.4355L4.71387 11.9736C4.89412 12.274 5 12.6242 5 13C5 14.1046 4.10457 15 3 15C1.89543 15 1 14.1046 1 13C1 11.8954 1.89543 11 3 11C3.3659 11 3.70788 11.0999 4.00293 11.2715L5.54883 9.72656C5.20414 9.23811 5 8.64329 5 8C5 6.34315 6.34315 5 8 5C8.64329 5 9.23811 5.20414 9.72656 5.54883L11.2715 4.00293C11.0999 3.70788 11 3.3659 11 3C11 1.89543 11.8954 1 13 1Z" fill="#0D6CF2"/>
</svg>
