<?xml version="1.0" standalone="no"?>
<svg xmlns="http://www.w3.org/2000/svg" class="icon" viewBox="0 0 1024 1024">
  <g transform="translate(8 29) scale(21)">
    <path d="M23.77 0.478138V9.96814C23.77 10.2281 23.63 10.4781 23.41 10.6181C16.64 14.8281 9.03 17.8081 0.89 19.2581C0.42 19.3381 0 18.9781 0 18.5081V9.40814C0 9.04814 0.26 8.72814 0.62 8.65814C8.67 7.06814 16.23 4.11814 23.06 0.0681384C23.38 -0.121862 23.78 0.108138 23.78 0.478138H23.77Z" fill="currentColor"/>
    <path d="M47.55 27.4981V36.5981C47.55 36.9581 47.29 37.2781 46.93 37.3481C38.88 38.9381 31.32 41.8781 24.49 45.9381C24.17 46.1281 23.77 45.8981 23.77 45.5281V36.0381C23.77 35.7781 23.9 35.5281 24.13 35.3881C30.9 31.1781 38.51 28.1981 46.65 26.7481C47.12 26.6681 47.55 27.0281 47.55 27.4981Z" fill="currentColor"/>
    <path d="M47.55 8.66814V21.3881C47.55 21.7581 47.28 22.0781 46.91 22.1381C26.97 25.3781 20.59 37.7381 0.77 38.0881C0.34 38.0881 0 37.7481 0 37.3281V24.6081C0 24.2381 0.27 23.9181 0.64 23.8581C20.58 20.6181 26.96 8.25814 46.78 7.90814C47.21 7.90814 47.55 8.24814 47.55 8.66814Z" fill="currentColor"/>
  </g>
</svg>
