<?xml version="1.0" standalone="no"?>
<svg xmlns="http://www.w3.org/2000/svg" class="icon" viewBox="0 0 1024 1024">
  <path d="M938.666667 309.973333v300.672a899.072 899.072 0 0 0-378.154667 44.928c-16.554667 5.632-33.109333 10.965333-49.706667 15.786667A1198.208 1198.208 0 0 1 85.333333 717.781333V416.981333a898.176 898.176 0 0 0 378.154667-44.842666A1197.482667 1197.482667 0 0 1 938.666667 309.973333" p-id="15712"></path>
  <path d="M473.813333 234.666667a791.765333 791.765333 0 0 1-94.336 32.896A774.698667 774.698667 0 0 1 85.333333 291.498667v100.437333a873.898667 873.898667 0 0 0 370.048-43.434667c16.725333-5.717333 33.194667-11.946667 49.365334-18.56L473.813333 234.666667z" p-id="15713"></path>
  <path d="M550.186667 793.002667a791.765333 791.765333 0 0 1 94.336-32.896A774.698667 774.698667 0 0 1 938.666667 736.170667V635.733333a873.898667 873.898667 0 0 0-370.048 43.434667c-16.725333 5.717333-33.194667 11.946667-49.365334 18.56l30.933334 95.274667z" p-id="15714"></path>
</svg>
