<?xml version="1.0" standalone="no"?>
<svg xmlns="http://www.w3.org/2000/svg" class="icon" viewBox="0 0 1024 1024">
  <g fill-rule="evenodd" stroke="none" stroke-width="1">
    <path d="M350.999 536.008 149.893 419.755a46.811 46.811 0 0 0-47.037.106l-67.027 39.15c-11.162 6.519-14.925 20.853-8.406 32.015a23.406 23.406 0 0 0 8.497 8.459l309.22 178.744a46.811 46.811 0 0 0 46.83.014l309.142-178.457c11.195-6.462 15.031-20.777 8.569-31.972a23.406 23.406 0 0 0-8.51-8.535L633.924 420.2a46.811 46.811 0 0 0-46.912-.075l-200.9 115.899a35.109 35.109 0 0 1-35.114-.016Z" transform="translate(146.286 163.84)" />
    <path d="M344.208 6.257a46.812 46.812 0 0 1 45.232-.844l1.563.864 300.28 173.461a29.257 29.257 0 0 1 10.708 10.715c7.85 13.607 3.53 30.897-9.577 39.267l-1.145.695-300.301 173.24a46.812 46.812 0 0 1-45.254.844l-1.565-.865-208.185-120.337L236.56 225.27c11.197-6.46 15.038-20.773 8.578-31.97a23.406 23.406 0 0 0-8.566-8.57L135.85 126.543 41.44 180.97l1.205-.82 1.258-.767L344.208 6.257ZM385.2 136.305a35.109 35.109 0 0 0-33.753-.763l-1.372.752-92.597 53.456a17.554 17.554 0 0 0-6.42 6.418c-4.673 8.082-2.184 18.339 5.502 23.42l.91.563 92.5 53.472a35.109 35.109 0 0 0 33.753.761l1.371-.751 92.593-53.456a17.554 17.554 0 0 0 6.42-6.417c4.673-8.083 2.184-18.34-5.501-23.42l-.91-.564-92.496-53.471Z" transform="translate(146.286 163.84)" />
    <path fill-opacity=".5" d="m265.68 201.545-129.83-75.001L4.502 202.27a3 3 0 0 0-.003 5.196l131.33 75.915 129.849-74.908a4 4 0 0 0 .002-6.929Z" transform="translate(146.286 163.84)" />
  </g>
</svg>
