<?xml version="1.0" standalone="no"?>
<svg xmlns="http://www.w3.org/2000/svg" class="icon" viewBox="0 0 1024 1024">
  <g fill-rule="evenodd" stroke="none" stroke-width="1">
    <path d="M557.044 0c19.39 0 35.109 15.719 35.109 35.109v80.071a70.217 70.217 0 0 1-20.634 49.719L336.515 399.267c-13.377 13.341-34.824 13.655-48.58.962l-1.121-1.08-61.65-62.07 76.257-76.948-.023-.026 3.383-3.404a17.501 17.501 0 0 0 11.85-4.324l.844-.788 8.473-8.445 103.065-103.2c4.567-4.573 4.562-11.982-.012-16.55a11.703 11.703 0 0 0-8.27-3.422l-277.353.005c-12.927 0-23.406 10.48-23.406 23.406v326.065c0 12.927 10.479 23.406 23.406 23.406h305.391c12.535.001 22.769-9.852 23.378-22.236l.027-1.17-.003-78.848a70.217 70.217 0 0 1 20.566-49.654l69.449-69.45c6.855-6.855 17.97-6.855 24.825 0a17.554 17.554 0 0 1 5.142 12.413v293.814c0 19.39-15.719 35.109-35.109 35.109H35.11C15.719 612.832 0 597.113 0 577.723V35.11C0 15.719 15.719 0 35.109 0h521.935Z" transform="translate(215.189 203.852)" />
    <path fill-opacity=".5" d="m301.777 260.142-76.614 76.938-50.911-50.74c-8.85-8.82-9.17-22.963-.938-32.166l1.018-1.07 42.579-42.03c8.97-8.855 23.344-9.015 32.51-.361l52.356 49.429Z" transform="translate(215.189 203.852)" />
  </g>
</svg>
