<svg viewBox="0 0 1024 1024" fill="none" xmlns="http://www.w3.org/2000/svg"><g transform="scale(64)">
<path fill-rule="evenodd" clip-rule="evenodd" d="M14.7528 2.13648L10.856 1.07877C10.7986 1.06318 10.738 1.06318 10.6806 1.07877L6.78381 2.13648C6.6379 2.17609 6.53662 2.30852 6.53662 2.45971V3.33904L11.6977 4.75901V5.79698V9.5608C11.6977 9.74327 11.691 9.92237 11.6784 10.0983C13.696 9.27123 15 8.06748 15 5.74444V2.45971C15 2.30852 14.8987 2.17609 14.7528 2.13648Z" fill="#0D6CF2"/>
<path d="M5.94922 4.21515L10.4141 5.42706C10.5813 5.47244 10.6973 5.62395 10.6973 5.79718V9.56085C10.6973 12.6041 8.74478 13.9709 5.84961 14.9329C2.95375 13.971 1.00016 12.6036 1 9.55988V5.79718C1 5.62399 1.11609 5.47248 1.2832 5.42706L5.74805 4.21515C5.81386 4.19728 5.8834 4.19728 5.94922 4.21515ZM7.44629 8.05597C7.39748 8.00716 7.31834 8.00716 7.26953 8.05597L5.41602 9.90851L4.42871 8.92023C4.37995 8.87158 4.30076 8.87163 4.25195 8.92023L3.72168 9.4505C3.67291 9.49927 3.67299 9.57844 3.72168 9.62726L5.0625 10.9691C5.25767 11.1642 5.57424 11.164 5.76953 10.9691L7.97656 8.763C8.02525 8.71431 8.02501 8.63508 7.97656 8.58624L7.44629 8.05597Z" fill="#0D6CF2"/>
</g></svg>
