<svg viewBox="0 0 1024 1024" fill="none" xmlns="http://www.w3.org/2000/svg"><g transform="scale(64)">
<path fill-rule="evenodd" clip-rule="evenodd" d="M5.67576 2.26452C5.6977 2.32617 5.76633 2.35711 5.82742 2.33366C6.5193 2.06792 7.24914 1.93333 8 1.93333C8.81941 1.93333 9.61381 2.0936 10.3611 2.40969C11.0834 2.71521 11.7323 3.15275 12.2898 3.71022C12.8472 4.26766 13.2848 4.91657 13.5903 5.63886C13.9064 6.38619 14.0667 7.1806 14.0667 7.99999C14.0667 8.81939 13.9064 9.6138 13.5903 10.3611C13.3391 10.955 12.9985 11.4991 12.5755 11.9837C12.6579 12.2744 12.9255 12.4881 13.2423 12.4881V12.6388C14.336 11.4038 15 9.77946 15 8.00003C15 4.13399 11.8721 1.00328 8.00608 1C7.09286 0.999221 6.22042 1.17335 5.42036 1.49069C5.35047 1.51841 5.32572 1.60419 5.36855 1.66599C5.49578 1.84957 5.59961 2.05053 5.67576 2.26452Z" fill="#0D6CF2"/>
<path fill-rule="evenodd" clip-rule="evenodd" d="M11.1702 13.2961C11.1353 13.2481 11.0696 13.2346 11.0182 13.2641C10.8067 13.3855 10.5876 13.4945 10.3611 13.5903C9.61381 13.9064 8.81941 14.0667 8 14.0667C7.18059 14.0667 6.38619 13.9064 5.63886 13.5903C4.91656 13.2848 4.26767 12.8472 3.71022 12.2898C3.15277 11.7323 2.7152 11.0834 2.4097 10.3611C2.09361 9.61382 1.93334 8.81941 1.93334 8.00001C1.93334 7.1806 2.09361 6.3862 2.4097 5.63888C2.7152 4.91657 3.15277 4.26768 3.71022 3.71023C3.9248 3.49565 4.15305 3.29904 4.39369 3.1207H3.95652C3.95652 2.87263 3.82545 2.65471 3.62902 2.53223C2.02644 3.81499 1.00002 5.78759 1 7.99999C0.999984 11.861 4.1158 14.9874 7.97675 15C9.31605 15.0043 10.5682 14.6325 11.6336 13.9842C11.7025 13.9423 11.7082 13.8444 11.6453 13.794C11.4656 13.6501 11.3056 13.4825 11.1702 13.2961Z" fill="#0D6CF2"/>
<path fill-rule="evenodd" clip-rule="evenodd" d="M4.73335 3.1146C4.73335 2.3414 4.10655 1.7146 3.33335 1.7146C2.56015 1.7146 1.93335 2.3414 1.93335 3.1146C1.93335 3.8878 2.56015 4.5146 3.33335 4.5146C4.10655 4.5146 4.73335 3.8878 4.73335 3.1146Z" fill="#0D6CF2"/>
<path fill-rule="evenodd" clip-rule="evenodd" d="M14.6423 11.795C14.6423 11.0218 14.0155 10.395 13.2423 10.395C12.4691 10.395 11.8423 11.0218 11.8423 11.795C11.8423 12.5682 12.4691 13.195 13.2423 13.195C14.0155 13.195 14.6423 12.5682 14.6423 11.795Z" fill="#0D6CF2"/>
<path fill-rule="evenodd" clip-rule="evenodd" d="M11.4849 9.60593C11.5116 9.57561 11.5629 9.59825 11.5629 9.63802V10.947C11.5629 11.4213 9.96696 11.8077 8.00004 11.8077C6.03296 11.8077 4.43701 11.4213 4.43701 10.947V9.63802C4.43701 9.59825 4.48832 9.57561 4.51506 9.60593C4.85776 9.99438 6.28842 10.2869 8.00004 10.2869C9.71154 10.2869 11.1422 9.99438 11.4849 9.60593Z" fill="#0D6CF2"/>
<path fill-rule="evenodd" clip-rule="evenodd" d="M11.4848 7.45938C11.5114 7.42891 11.5629 7.45149 11.5629 7.49135V8.79867C11.5629 9.273 9.96696 9.65933 8.00004 9.65933C6.03298 9.65933 4.43701 9.273 4.43701 8.79867V7.49135C4.43701 7.45149 4.4885 7.42891 4.51518 7.45938C4.85807 7.851 6.28861 8.14344 8.00004 8.14344C9.71136 8.14344 11.1419 7.851 11.4848 7.45938Z" fill="#0D6CF2"/>
<path fill-rule="evenodd" clip-rule="evenodd" d="M11.5629 5.05296V6.6471C11.5629 7.12631 9.96696 7.51263 8.00004 7.51263C6.03298 7.51263 4.43701 7.12631 4.43701 6.6471V5.05296C4.43701 4.57865 6.03298 4.19232 8.00004 4.19232C9.96696 4.19232 11.5629 4.57865 11.5629 5.05296Z" fill="#0D6CF2"/>
</g></svg>
