<?xml version="1.0" standalone="no"?>
<svg xmlns="http://www.w3.org/2000/svg" class="icon" viewBox="0 0 1024 1024">
  <path d="M872 112c22.091 0 40 17.909 40 40v720c0 22.091-17.909 40-40 40H152c-22.091 0-40-17.909-40-40V152c0-22.091 17.909-40 40-40h720zM538 289h-52c-123.16 0-223 99.84-223 223s99.84 223 223 223h52c123.16 0 223-99.84 223-223s-99.84-223-223-223z m0 80l2.365 0.02C618.25 370.281 681 433.812 681 512c0 78.977-64.023 143-143 143h-52l-2.365-0.02C405.75 653.719 343 590.188 343 512c0-78.977 64.023-143 143-143h52z" p-id="45966"></path>
  <path d="M913 435v438c0 22.091-17.909 40-40 40h-28V435h68z" p-id="45967"></path>
</svg>
