<svg width="16" height="16" viewBox="0 0 16 16" fill="none" xmlns="http://www.w3.org/2000/svg">
<path fill-rule="evenodd" clip-rule="evenodd" d="M4.5 14H1.5C1.22386 14 1 13.7761 1 13.5V8.5C1 8.22386 1.22386 8 1.5 8H4.5C4.77614 8 5 8.22386 5 8.5V13.5C5 13.7761 4.77614 14 4.5 14Z" fill="#0D6CF2"/>
<path fill-rule="evenodd" clip-rule="evenodd" d="M6.5 14C6.22386 14 6 13.7761 6 13.5V5.5C6 5.22386 6.22386 5 6.5 5H9.5C9.77614 5 10 5.22386 10 5.5V13.5C10 13.7761 9.77614 14 9.5 14H6.5Z" fill="#0D6CF2"/>
<path fill-rule="evenodd" clip-rule="evenodd" d="M14.5 14H11.5C11.2239 14 11 13.7761 11 13.5V2.5C11 2.22386 11.2239 2 11.5 2H14.5C14.7761 2 15 2.22386 15 2.5V13.5C15 13.7761 14.7761 14 14.5 14Z" fill="#0D6CF2"/>
</svg>
