<svg viewBox="0 0 1024 1024" fill="none" xmlns="http://www.w3.org/2000/svg"><g transform="scale(64)">
<path d="M8 1C11.8656 1 15 4.13438 15 8C15 11.8656 11.8656 15 8 15C4.13438 15 1 11.8656 1 8C1 4.13438 4.13438 1 8 1ZM5.62012 5.5C5.55384 5.5 5.5 5.55384 5.5 5.62012V10.3799C5.5 10.4462 5.55384 10.5 5.62012 10.5H6.37988C6.44616 10.5 6.5 10.4462 6.5 10.3799V5.62012C6.5 5.55384 6.44616 5.5 6.37988 5.5H5.62012ZM9.62012 5.5C9.55384 5.5 9.5 5.55384 9.5 5.62012V10.3799C9.5 10.4462 9.55384 10.5 9.62012 10.5H10.3799C10.4462 10.5 10.5 10.4462 10.5 10.3799V5.62012C10.5 5.55384 10.4462 5.5 10.3799 5.5H9.62012Z" fill="#5C6B8A"/>
</g></svg>
