<svg width="16" height="16" viewBox="0 0 16 16" fill="none" xmlns="http://www.w3.org/2000/svg">
<path fill-rule="evenodd" clip-rule="evenodd" d="M10.3571 4H5.64282C5.36668 4 5.14282 3.77614 5.14282 3.5V2C5.14282 1.72386 5.36668 1.5 5.64282 1.5H10.3571C10.6332 1.5 10.8571 1.72386 10.8571 2V3.5C10.8571 3.77614 10.6332 4 10.3571 4Z" fill="#0D6CF2"/>
<path d="M3.64258 2.5C3.91872 2.5 4.14258 2.72386 4.14258 3V5H11.8574V3C11.8574 2.72386 12.0813 2.5 12.3574 2.5H13.5C13.7761 2.5 14 2.72386 14 3V14C14 14.2761 13.7761 14.5 13.5 14.5H2.5C2.22386 14.5 2 14.2761 2 14V3C2 2.72386 2.22386 2.5 2.5 2.5H3.64258ZM11.2314 7.03516C11.1824 6.98659 11.1033 6.98707 11.0547 7.03613L8.75488 9.35938L7.64062 8.31641C7.44462 8.13278 7.13836 8.13649 6.94727 8.3252L4.23535 11.0039C4.18639 11.0524 4.18593 11.1316 4.23438 11.1807L4.76172 11.7139C4.81023 11.763 4.88937 11.7633 4.93848 11.7148L7.30859 9.375L8.42578 10.4219C8.6233 10.6069 8.93254 10.6014 9.12305 10.4092L11.7656 7.73926C11.814 7.69022 11.8136 7.61103 11.7646 7.5625L11.2314 7.03516Z" fill="#0D6CF2"/>
</svg>
