<svg width="16" height="16" viewBox="0 0 16 16" fill="none" xmlns="http://www.w3.org/2000/svg">
<path d="M13.5 2C13.7761 2 14 2.22386 14 2.5V13.5C14 13.7761 13.7761 14 13.5 14H2.5C2.22386 14 2 13.7761 2 13.5V2.5C2 2.22386 2.22386 2 2.5 2H13.5ZM8 8.40918C5.89678 8.40918 4.18385 10.0802 4.11621 12.167C4.11395 12.2372 4.17095 12.2949 4.24121 12.2949H11.7588C11.8291 12.2949 11.8861 12.2372 11.8838 12.167C11.8162 10.0802 10.1032 8.4092 8 8.40918ZM7.99902 4.12402C6.81555 4.12402 5.85645 5.08313 5.85645 6.2666C5.85654 7.44999 6.81561 8.40918 7.99902 8.40918C9.18239 8.40913 10.1415 7.44996 10.1416 6.2666C10.1416 5.08316 9.18245 4.12407 7.99902 4.12402Z" fill="#0D6CF2"/>
</svg>
