<svg width="16" height="16" viewBox="0 0 16 16" fill="none" xmlns="http://www.w3.org/2000/svg">
<path fill-rule="evenodd" clip-rule="evenodd" d="M7.01086 2.16473H2.56684C2.27213 2.16473 2.0332 2.40366 2.0332 2.69837V7.14239C2.0332 7.43712 2.27213 7.67605 2.56684 7.67605H7.01086C7.30559 7.67605 7.54452 7.43712 7.54452 7.14239V2.69837C7.54452 2.40366 7.30559 2.16473 7.01086 2.16473Z" fill="#0D6CF2"/>
<path fill-rule="evenodd" clip-rule="evenodd" d="M7.01086 8.66864H2.56684C2.27213 8.66864 2.0332 8.90756 2.0332 9.2023V13.6463C2.0332 13.941 2.27213 14.18 2.56684 14.18H7.01086C7.30559 14.18 7.54452 13.941 7.54452 13.6463V9.2023C7.54452 8.90756 7.30559 8.66864 7.01086 8.66864Z" fill="#0D6CF2"/>
<path fill-rule="evenodd" clip-rule="evenodd" d="M13.5026 8.66864H9.05854C8.76382 8.66864 8.5249 8.90756 8.5249 9.2023V13.6463C8.5249 13.941 8.76382 14.18 9.05854 14.18H13.5026C13.7973 14.18 14.0362 13.941 14.0362 13.6463V9.2023C14.0362 8.90756 13.7973 8.66864 13.5026 8.66864Z" fill="#0D6CF2"/>
<path fill-rule="evenodd" clip-rule="evenodd" d="M11.4208 1.50757C11.2842 1.50757 11.1477 1.55966 11.0435 1.66387L8.34367 4.36365C8.13528 4.57205 8.13528 4.90993 8.34367 5.11833L11.0435 7.81812C11.1477 7.92232 11.2842 7.97441 11.4208 7.97441C11.5574 7.97441 11.6939 7.92232 11.7981 7.81812L14.4979 5.11833C14.7063 4.90993 14.7063 4.57205 14.4979 4.36365L11.7981 1.66387C11.6939 1.55966 11.5574 1.50757 11.4208 1.50757Z" fill="#0D6CF2"/>
</svg>
