<svg viewBox="0 0 1024 1024" fill="none" xmlns="http://www.w3.org/2000/svg"><g transform="scale(64)">
<path d="M13.5 2.01465C13.7761 2.01465 13.9999 2.23862 14 2.51465V13.4854C13.9998 13.7614 13.776 13.9854 13.5 13.9854H2.5C2.22396 13.9854 2.00016 13.7614 2 13.4854V2.51465C2.00013 2.23862 2.22394 2.01465 2.5 2.01465H13.5ZM4.625 10.5215C4.55597 10.5215 4.5 10.5775 4.5 10.6465V11.3965C4.5 11.4655 4.55597 11.5215 4.625 11.5215H5.375C5.44403 11.5215 5.5 11.4655 5.5 11.3965V10.6465C5.5 10.5775 5.44403 10.5215 5.375 10.5215H4.625ZM6.65625 10.5215C6.56995 10.5215 6.5 10.5775 6.5 10.6465V11.3965C6.5 11.4655 6.56995 11.5215 6.65625 11.5215H11.3438C11.43 11.5215 11.5 11.4655 11.5 11.3965V10.6465C11.5 10.5775 11.43 10.5215 11.3438 10.5215H6.65625ZM4.625 7.49316C4.55597 7.49316 4.5 7.54913 4.5 7.61816V8.36816C4.50013 8.43708 4.55605 8.49316 4.625 8.49316H5.375C5.44395 8.49316 5.49987 8.43708 5.5 8.36816V7.61816C5.5 7.54913 5.44403 7.49316 5.375 7.49316H4.625ZM6.65625 7.49316C6.56995 7.49316 6.5 7.54913 6.5 7.61816V8.36816C6.50016 8.43708 6.57006 8.49316 6.65625 8.49316H11.3438C11.4299 8.49316 11.4998 8.43708 11.5 8.36816V7.61816C11.5 7.54913 11.43 7.49316 11.3438 7.49316H6.65625ZM4.625 4.49316C4.55597 4.49316 4.5 4.54913 4.5 4.61816V5.36816C4.50013 5.43708 4.55605 5.49316 4.625 5.49316H5.375C5.44395 5.49316 5.49987 5.43708 5.5 5.36816V4.61816C5.5 4.54913 5.44403 4.49316 5.375 4.49316H4.625ZM6.65625 4.49316C6.56995 4.49316 6.5 4.54913 6.5 4.61816V5.36816C6.50016 5.43708 6.57006 5.49316 6.65625 5.49316H11.3438C11.4299 5.49316 11.4998 5.43708 11.5 5.36816V4.61816C11.5 4.54913 11.43 4.49316 11.3438 4.49316H6.65625Z" fill="#0D6CF2"/>
</g></svg>
