<svg width="16" height="16" viewBox="0 0 16 16" fill="none" xmlns="http://www.w3.org/2000/svg">
<path d="M4.0498 10.0625C5.00547 10.2771 5.75478 11.0372 5.9502 12H10.5V13H5.9502C5.71858 14.1411 4.70949 15 3.5 15C2.11929 15 1 13.8807 1 12.5C1 11.2731 1.8841 10.2541 3.0498 10.042V5.5H4.0498V10.0625ZM12.5 1C13.8807 1 15 2.11929 15 3.5C15 4.6916 14.1657 5.6858 13.0498 5.93652V10.5H12.0498V5.95703C11.0469 5.77446 10.252 4.99598 10.0498 4H5.5V3H10.0498C10.2814 1.85886 11.2905 1 12.5 1Z" fill="#0D6CF2"/>
<path d="M12.5 10C13.8807 10 15 11.1193 15 12.5C15 13.8807 13.8807 15 12.5 15C11.1193 15 10 13.8807 10 12.5C10 11.1193 11.1193 10 12.5 10ZM3.5 1C4.88071 1 6 2.11929 6 3.5C6 4.88071 4.88071 6 3.5 6C2.11929 6 1 4.88071 1 3.5C1 2.11929 2.11929 1 3.5 1Z" fill="#0D6CF2"/>
</svg>
