<svg viewBox="0 0 1024 1024" fill="none" xmlns="http://www.w3.org/2000/svg"><g transform="scale(64)">
<path d="M7.87695 1.42896C7.95761 1.40712 8.04239 1.40712 8.12305 1.42896L13.6055 2.91626C13.8107 2.97198 13.9531 3.15865 13.9531 3.37134V7.99243C13.9531 11.7286 11.5555 13.4071 8.00098 14.5881C4.44548 13.4071 2.04688 11.7277 2.04688 7.99048V3.37134C2.04688 3.15865 2.18927 2.97198 2.39453 2.91626L7.87695 1.42896ZM7.625 4.49146C7.55597 4.49146 7.5 4.54742 7.5 4.61646V6.99146H5.125C5.05597 6.99146 5 7.04742 5 7.11646V7.86646C5.00026 7.93526 5.05613 7.99146 5.125 7.99146H7.5V10.3665C7.50026 10.4353 7.55613 10.4915 7.625 10.4915H8.375C8.44387 10.4915 8.49974 10.4353 8.5 10.3665V7.99146H10.875C10.9439 7.99146 10.9997 7.93526 11 7.86646V7.11646C11 7.04742 10.944 6.99146 10.875 6.99146H8.5V4.61646C8.5 4.54742 8.44403 4.49146 8.375 4.49146H7.625Z" fill="#0D6CF2"/>
</g></svg>
