<?xml version="1.0" standalone="no"?>
<svg xmlns="http://www.w3.org/2000/svg" class="icon" viewBox="0 0 1024 1024">
  <path d="M832 64h-640a31.963429 31.963429 0 0 0-32.036571 32.036571v223.963429h704.073142V95.963429a31.963429 31.963429 0 0 0-32.036571-31.963429z m-375.954286 151.990857c0 4.388571-3.657143 8.045714-8.045714 8.045714H263.972571a8.045714 8.045714 0 0 1-7.972571-8.045714v-47.981714c0-4.388571 3.657143-8.045714 8.045714-8.045714h183.954286c4.388571 0 8.045714 3.657143 8.045714 8.045714v47.981714z m-296.082285 712.045714c0 17.627429 14.336 31.963429 32.036571 31.963429h640a31.963429 31.963429 0 0 0 32.036571-32.036571V704.073143H159.963429v224.036571z m576.073142-136.045714a40.009143 40.009143 0 1 1 0 80.018286 40.009143 40.009143 0 0 1 0-80.018286zM159.890286 640h704.073143v-256H159.963429v256zM256 488.009143c0-4.388571 3.657143-8.045714 8.045714-8.045714h183.954286c4.388571 0 8.045714 3.657143 8.045714 8.045714v47.981714c0 4.388571-3.657143 8.045714-8.045714 8.045714H263.972571a8.045714 8.045714 0 0 1-7.972571-8.045714v-47.981714z" p-id="38014"></path>
</svg>
