<svg viewBox="0 0 1024 1024" fill="none" xmlns="http://www.w3.org/2000/svg"><g transform="scale(64)">
<path fill-rule="evenodd" clip-rule="evenodd" d="M6.99223 12.8636L5.58624 12.3409C5.52152 12.3169 5.48857 12.2449 5.51263 12.1802L8.84715 3.21002C8.87121 3.14532 8.94316 3.11235 9.00787 3.13641L10.4139 3.65907C10.4786 3.68313 10.5115 3.75508 10.4875 3.81979L7.15295 12.79C7.1289 12.8547 7.05693 12.8877 6.99223 12.8636Z" fill="#0D6CF2"/>
<path fill-rule="evenodd" clip-rule="evenodd" d="M4.15363 12.0908C4.10566 12.1405 4.02652 12.1418 3.97688 12.0938L0.391937 8.62921C0.221328 8.46435 0.125 8.23727 0.125 8.00002C0.125 7.76277 0.221328 7.53569 0.391937 7.37083L3.97688 3.90621C4.02652 3.85824 4.10566 3.85958 4.15363 3.90922L5.19603 4.98782C5.244 5.03746 5.24266 5.1166 5.19302 5.16457L2.25911 8.00002L5.19302 10.8355C5.24266 10.8834 5.244 10.9626 5.19603 11.0122L4.15363 12.0908Z" fill="#0D6CF2"/>
<path fill-rule="evenodd" clip-rule="evenodd" d="M11.8463 12.0908L10.8039 11.0122C10.7559 10.9626 10.7573 10.8834 10.8069 10.8355L13.7408 8.00002L10.8069 5.16457C10.7573 5.1166 10.7559 5.03746 10.8039 4.98782L11.8463 3.90922C11.8943 3.85958 11.9734 3.85824 12.0231 3.90621L15.608 7.37083C15.7786 7.53569 15.8749 7.76277 15.8749 8.00002C15.8749 8.23727 15.7786 8.46435 15.608 8.62921L12.0231 12.0938C11.9734 12.1418 11.8943 12.1405 11.8463 12.0908Z" fill="#0D6CF2"/>
</g></svg>
