<svg width="16" height="16" viewBox="0 0 16 16" fill="none" xmlns="http://www.w3.org/2000/svg">
<path d="M14.5 2C14.7761 2 15 2.22386 15 2.5V13.5L14.9902 13.6006C14.9503 13.7961 14.7961 13.9503 14.6006 13.9902L14.5 14H1.5L1.39941 13.9902C1.20392 13.9503 1.04966 13.7961 1.00977 13.6006L1 13.5V2.5C1 2.22386 1.22386 2 1.5 2H14.5ZM8.0332 6C7.71021 6 7.41985 6.0731 7.16309 6.21973C6.90629 6.36528 6.70285 6.57741 6.55371 6.85547C6.40456 7.13364 6.33008 7.47162 6.33008 7.86816C6.33011 8.26329 6.40468 8.59987 6.55371 8.87793C6.70286 9.1561 6.90622 9.36884 7.16309 9.51562C7.4199 9.66233 7.71013 9.73535 8.0332 9.73535C8.26156 9.73531 8.47299 9.69688 8.66895 9.62305L8.96289 9.98438H9.68066L9.1582 9.33008C9.2972 9.20628 9.41486 9.05687 9.50977 8.87988C9.66006 8.60177 9.73532 8.26459 9.73535 7.86816C9.73535 7.47162 9.6601 7.13364 9.50977 6.85547C9.36064 6.57751 9.15733 6.36525 8.89941 6.21973C8.64267 6.07305 8.3538 6.00005 8.0332 6ZM4.47363 6C4.20855 6.00001 3.97196 6.04638 3.76367 6.13867C3.5554 6.23097 3.39103 6.35897 3.27148 6.52344C3.15316 6.68791 3.09457 6.88053 3.0957 7.10059C3.09452 7.36929 3.18279 7.58357 3.36035 7.74219C3.5379 7.90075 3.78041 8.01724 4.08691 8.0918L4.48242 8.19141C4.615 8.22337 4.72721 8.25879 4.81836 8.29785C4.91041 8.33683 4.98004 8.38399 5.02734 8.43945C5.07586 8.49507 5.10057 8.56387 5.10059 8.64551C5.10059 8.73305 5.07371 8.81049 5.02051 8.87793C4.96724 8.9454 4.89199 8.99825 4.79492 9.03613C4.69909 9.07397 4.58617 9.09276 4.45605 9.09277C4.32348 9.09277 4.20398 9.07247 4.09863 9.03223C3.99472 8.9908 3.91126 8.92996 3.84863 8.84961C3.78715 8.76796 3.75242 8.66579 3.74414 8.54395H3C3.00592 8.80555 3.06969 9.02557 3.19043 9.20312C3.31234 9.3794 3.48171 9.51261 3.69824 9.60254C3.91597 9.69241 4.17144 9.7373 4.46484 9.7373C4.76061 9.7373 5.0132 9.69318 5.22266 9.60449C5.43327 9.51457 5.59479 9.38863 5.70605 9.22656C5.81849 9.06323 5.87478 8.86996 5.87598 8.64746C5.87479 8.49595 5.84742 8.36133 5.79297 8.24414C5.73971 8.12702 5.66441 8.02485 5.56738 7.93848C5.47038 7.85217 5.35511 7.77983 5.22266 7.7207C5.09014 7.66157 4.94466 7.61362 4.78613 7.57812L4.45996 7.5C4.38065 7.48224 4.30519 7.46138 4.23535 7.43652C4.16566 7.41051 4.10396 7.37997 4.05078 7.3457C3.99767 7.31024 3.95552 7.26816 3.9248 7.21973C3.89536 7.17135 3.88151 7.11463 3.88379 7.0498C3.88379 6.97168 3.90717 6.9014 3.95215 6.83984C3.99826 6.77845 4.0642 6.73057 4.15039 6.69629C4.2368 6.66078 4.34328 6.64258 4.46875 6.64258C4.65324 6.64263 4.79958 6.68246 4.90723 6.76172C5.01484 6.84102 5.07565 6.95255 5.08984 7.0957H5.82715C5.8236 6.87908 5.7648 6.68797 5.65234 6.52344C5.53996 6.35917 5.38277 6.23092 5.18066 6.13867C4.97943 6.04634 4.74352 6 4.47363 6ZM10.3047 9.68652H12.6328V9.05176H11.0732V6.0498H10.3047V9.68652ZM8.0332 6.67969C8.21888 6.67975 8.38113 6.72534 8.51953 6.81641C8.65798 6.90752 8.76507 7.0415 8.84082 7.21777C8.91776 7.39415 8.95605 7.6113 8.95605 7.86816C8.95603 8.12482 8.91768 8.3413 8.84082 8.51758C8.79957 8.61361 8.74735 8.69584 8.6875 8.7666L8.41992 8.42188H7.7666L8.23047 9.03418C8.16783 9.04685 8.10241 9.05564 8.0332 9.05566C7.84736 9.05566 7.68439 9.01009 7.5459 8.91895C7.40758 8.82781 7.30051 8.6938 7.22363 8.51758C7.1479 8.34127 7.1094 8.12491 7.10938 7.86816C7.10938 7.6113 7.14788 7.39415 7.22363 7.21777C7.30054 7.04165 7.40758 6.90748 7.5459 6.81641C7.68439 6.72526 7.84736 6.67969 8.0332 6.67969Z" fill="#0D6CF2"/>
</svg>
