<svg viewBox="0 0 1024 1024" fill="none" xmlns="http://www.w3.org/2000/svg"><g transform="scale(64)">
<path d="M11.7646 6.84375C12.0432 6.84378 12.2686 7.05353 12.2686 7.3125V7.76855C13.9791 7.9959 15.2939 9.36211 15.2939 11.0156V13H15.5967C15.8197 13.0001 16 13.1676 16 13.375V13.75C16 13.8014 15.9547 13.8436 15.8994 13.8438H13.1768C13.1768 14.568 12.5436 15.1562 11.7646 15.1562C10.9857 15.1562 10.3525 14.568 10.3525 13.8438H7.62988C7.57454 13.8436 7.5293 13.8015 7.5293 13.75V13.375C7.5293 13.1676 7.70953 13 7.93262 13H8.23535V11.0156C8.23535 9.36211 9.55024 7.9959 11.2607 7.76855V7.3125C11.2607 7.05352 11.4861 6.84375 11.7646 6.84375ZM0 10.0215C0.397789 10.3026 0.885557 10.5265 1.40625 10.7031C2.60385 11.1093 4.19676 11.3438 5.91602 11.3438C6.20321 11.3437 6.48673 11.3341 6.76562 11.3213V13.1748C6.76562 13.1748 6.2707 13.2091 6.04785 13.4004C5.90788 13.5206 5.83782 13.6774 5.80176 13.8408C2.57438 13.8202 0 12.9309 0 11.8438V10.0215ZM0 6.52148C0.397789 6.80264 0.885557 7.02652 1.40625 7.20312C2.60385 7.60927 4.19676 7.84375 5.91602 7.84375C6.71655 7.84375 7.4894 7.79065 8.20801 7.69531C7.48101 8.39249 6.98025 9.30173 6.82031 10.3174C6.5256 10.3326 6.22373 10.3437 5.91602 10.3438L5.30859 10.333C2.31603 10.2301 0 9.37496 0 8.34375V6.52148ZM5.91602 0.84375C9.06631 0.843759 11.6203 1.6739 11.8184 2.71387C11.8266 2.7569 11.832 2.80004 11.832 2.84375V4.84375L11.8242 4.94629C11.6665 5.99912 9.09412 6.84374 5.91602 6.84375L5.30859 6.83301C2.31603 6.73005 0 5.87496 0 4.84375V2.84375C0 1.74375 2.63534 0.84375 5.91602 0.84375Z" fill="#0D6CF2"/>
</g></svg>
