<svg viewBox="0 0 1024 1024" fill="none" xmlns="http://www.w3.org/2000/svg"><g transform="scale(64)">
<path fill-rule="evenodd" clip-rule="evenodd" d="M13.875 4.49289H2.125C2.05597 4.49289 2 4.43692 2 4.36789V2.51492C2 2.23878 2.22386 2.01492 2.5 2.01492H13.5C13.7761 2.01492 14 2.23878 14 2.51492V4.36789C14 4.43692 13.944 4.49289 13.875 4.49289Z" fill="#0D6CF2"/>
<path d="M13.875 5.49316C13.944 5.49316 14 5.54913 14 5.61816V13.4854C13.9999 13.7614 13.7761 13.9854 13.5 13.9854H2.5C2.22395 13.9854 2.00014 13.7614 2 13.4854V5.61816C2 5.54913 2.05597 5.49316 2.125 5.49316H13.875ZM4.625 10.5107C4.55597 10.5107 4.5 10.5667 4.5 10.6357V11.3857C4.5 11.4548 4.55597 11.5107 4.625 11.5107H5.375C5.44403 11.5107 5.5 11.4548 5.5 11.3857V10.6357C5.5 10.5667 5.44403 10.5107 5.375 10.5107H4.625ZM6.65625 10.5107C6.56995 10.5107 6.5 10.5667 6.5 10.6357V11.3857C6.5 11.4548 6.56995 11.5107 6.65625 11.5107H11.3438C11.43 11.5107 11.5 11.4548 11.5 11.3857V10.6357C11.5 10.5667 11.43 10.5107 11.3438 10.5107H6.65625ZM4.625 7.48926C4.55597 7.48926 4.5 7.54523 4.5 7.61426V8.36426C4.5 8.43329 4.55597 8.48926 4.625 8.48926H5.375C5.44403 8.48926 5.5 8.43329 5.5 8.36426V7.61426C5.5 7.54523 5.44403 7.48926 5.375 7.48926H4.625ZM6.65625 7.48926C6.56995 7.48926 6.5 7.54523 6.5 7.61426V8.36426C6.5 8.43329 6.56995 8.48926 6.65625 8.48926H11.3438C11.43 8.48926 11.5 8.43329 11.5 8.36426V7.61426C11.5 7.54523 11.43 7.48926 11.3438 7.48926H6.65625Z" fill="#0D6CF2"/>
</g></svg>
