<svg viewBox="0 0 1024 1024" fill="none" xmlns="http://www.w3.org/2000/svg"><g transform="scale(64)">
<path d="M13.5 2C13.7761 2 14 2.22386 14 2.5V13.5C14 13.7761 13.7761 14 13.5 14H2.5C2.22386 14 2 13.7761 2 13.5V2.5C2 2.22386 2.22386 2 2.5 2H13.5ZM8.44336 3.87402L3.94922 5.22754C3.84394 5.25941 3.77169 5.35681 3.77148 5.4668V11.5449C3.7716 11.6828 3.88359 11.7948 4.02148 11.7949H8.76562V11.7969H12C12.1381 11.7969 12.25 11.685 12.25 11.5469V7.49023C12.25 7.37773 12.1748 7.27892 12.0664 7.24902L8.76562 6.3457V4.11328C8.76552 3.94579 8.60374 3.82574 8.44336 3.87402ZM7.28711 10.2812H5.28711V9.28125H7.28711V10.2812ZM7.28711 8.28125H5.28711V7.28125H7.28711V8.28125Z" fill="#0D6CF2"/>
</g></svg>
