<svg width="16" height="16" viewBox="0 0 16 16" fill="none" xmlns="http://www.w3.org/2000/svg">
<path d="M14.55 11.2504C14.5499 11.4501 14.4499 11.5997 14.3 11.6996L8.30005 14.9496C8.15005 15.0496 7.95005 15.0496 7.80005 14.9496L1.80005 11.6996C1.65025 11.5997 1.55018 11.4501 1.55005 11.2504V4.85001L4.50024 6.50137V9.89981L8.00024 11.8002L11.5002 9.89981V6.55704L14.55 4.85001V11.2504Z" fill="#0D6CF2"/>
<path fill-rule="evenodd" clip-rule="evenodd" d="M7.7998 1.15C7.94979 1.05001 8.14981 1.05003 8.2998 1.15L13.8496 4.15L10.8955 5.77207L8 4.1998L5.15332 5.74472L2.25 4.15L7.7998 1.15Z" fill="#0D6CF2"/>
<path d="M5.5 6.64999V9.39999L8 10.75L10.5 9.39999V6.64999L8 5.29999L5.5 6.64999Z" fill="#0D6CF2"/>
</svg>
