<svg width="16" height="16" viewBox="0 0 16 16" fill="none" xmlns="http://www.w3.org/2000/svg">
<path d="M3.65039 3C3.92646 3 4.15027 3.22252 4.15039 3.49707V4.74023C4.15039 4.87745 4.26246 4.98911 4.40039 4.98926H11.6152C11.7532 4.98911 11.8652 4.87745 11.8652 4.74023V3.49707C11.8654 3.22252 12.0892 3 12.3652 3H13.4688C13.7448 3 13.9686 3.22252 13.9688 3.49707V14.0029C13.9686 14.2775 13.7448 14.5 13.4688 14.5H2.53125C2.25519 14.5 2.03137 14.2775 2.03125 14.0029V3.49707C2.03137 3.22252 2.25519 3 2.53125 3H3.65039ZM5.13281 10.75C5.06378 10.75 5.00781 10.806 5.00781 10.875V11.625C5.00781 11.694 5.06378 11.75 5.13281 11.75H10.8828C10.9518 11.75 11.0078 11.694 11.0078 11.625V10.875C11.0078 10.806 10.9518 10.75 10.8828 10.75H5.13281ZM5.13281 7.90918C5.06378 7.90918 5.00781 7.96515 5.00781 8.03418V8.78418C5.00808 8.85299 5.06394 8.90918 5.13281 8.90918H10.8828C10.9517 8.90918 11.0075 8.85299 11.0078 8.78418V8.03418C11.0078 7.96515 10.9518 7.90918 10.8828 7.90918H5.13281Z" fill="#0D6CF2"/>
<path fill-rule="evenodd" clip-rule="evenodd" d="M10.3727 4H5.65845C5.38231 4 5.15845 3.77614 5.15845 3.5V2C5.15845 1.72386 5.38231 1.5 5.65845 1.5H10.3727C10.6489 1.5 10.8727 1.72386 10.8727 2V3.5C10.8727 3.77614 10.6489 4 10.3727 4Z" fill="#0D6CF2"/>
</svg>
