<svg width="16" height="16" viewBox="0 0 16 16" fill="none" xmlns="http://www.w3.org/2000/svg">
<path d="M7.52832 11.001C7.51054 11.1648 7.5 11.3312 7.5 11.5C7.5 12.5372 7.84442 13.4881 8.42578 14.2461C8.26356 14.4139 8.11742 14.5 8 14.5C7.56072 14.5 6.69526 13.3202 6.26172 11.001H7.52832ZM5.25098 11.001C5.48794 12.3539 5.88007 13.4973 6.37012 14.293C4.57117 13.8284 3.07521 12.6131 2.23438 11.001H5.25098ZM5.1084 6.00098C5.03808 6.63715 5 7.30741 5 8C5 8.69438 5.0387 9.36626 5.10938 10.0039H1.81641C1.61196 9.37258 1.5 8.69943 1.5 8C1.5 7.30241 1.61104 6.63086 1.81445 6.00098H5.1084ZM9.8877 6.00098C9.93971 6.45574 9.97673 6.94421 9.99121 7.4668C8.94814 7.98323 8.13947 8.89145 7.75195 10.0039H6.1123C6.04264 9.39644 6 8.7285 6 8C6 7.27343 6.04297 6.60715 6.1123 6.00098H9.8877ZM14.1855 6.00098C14.3642 6.55407 14.4698 7.13927 14.4932 7.74609C13.7811 7.27449 12.925 7 12 7C11.6478 7 11.3057 7.04005 10.9775 7.11523C10.9596 6.73427 10.9315 6.36211 10.8916 6.00098H14.1855ZM6.37012 1.70605C5.87928 2.50275 5.48695 3.64845 5.25 5.00391H2.23145C3.07182 3.38917 4.56919 2.17108 6.37012 1.70605ZM8 1.5C8.43959 1.5 9.30602 2.6814 9.73926 5.00391H6.26074C6.69398 2.6814 7.56041 1.5 8 1.5ZM9.62891 1.70605C11.4302 2.17091 12.928 3.3889 13.7686 5.00391H10.75C10.513 3.64821 10.1199 2.50276 9.62891 1.70605Z" fill="#0D6CF2"/>
<path d="M12 8C13.95 8 15.5 9.55 15.5 11.5C15.5 13.45 13.95 15 12 15C10.05 15 8.5 13.45 8.5 11.5C8.5 9.55 10.05 8 12 8ZM11.5 9.5V12H14V11H12.5V9.5H11.5Z" fill="#0D6CF2"/>
</svg>
