<?xml version="1.0" standalone="no"?>
<svg xmlns="http://www.w3.org/2000/svg" class="icon" viewBox="0 0 1024 1024">
  <path d="M652.8 34.13333333c35.34613333 0 64 28.65386667 64 64s-28.65386667 64-64 64h-76.26666667l0.00426667 82.32533334C753.14986667 275.05386667 887.46666667 429.04106667 887.46666667 614.4c0 207.36426667-168.1024 375.46666667-375.46666667 375.46666667S136.53333333 821.76426667 136.53333333 614.4c0-185.73226667 134.85866667-339.96586667 311.9968-370.1248L448.53333333 162.13333333H371.2c-35.34613333 0-64-28.65386667-64-64s28.65386667-64 64-64h281.6zM511.46666667 353.6c-29.16053333 0-52.85546667 23.40266667-53.32586667 52.4512l-0.00746667 0.88213333v169.6c0 10.39146667 2.97173333 20.08853333 8.112 28.288a53.42613333 53.42613333 0 0 0 7.73333334 10.17173334l0.61333333 0.62293333 119.92533333 119.92533333c20.82773333 20.8288 54.59626667 20.8288 75.424 0 20.61973333-20.61866667 20.82666667-53.92213333 0.61866667-74.79466666l-0.61866667-0.62933334-105.14133333-105.1424V406.93333333c0-29.16053333-23.40266667-52.85546667-52.4512-53.32586666l-0.88213333-0.00746667z" p-id="42515"></path>
</svg>
