<?xml version="1.0" standalone="no"?>
<svg xmlns="http://www.w3.org/2000/svg" class="icon" viewBox="0 0 1024 1024">
  <path d="M512 62.025143A449.901714 449.901714 0 0 0 61.952 511.926857c0 83.382857 23.113143 161.206857 62.537143 228.205714l-44.251429 193.097143 177.005715-50.468571A449.901714 449.901714 0 0 0 961.974857 512C961.901714 263.606857 760.466286 62.171429 512 62.171429z m47.030857 485.961143h-100.205714l37.156571-101.961143h100.205715l-37.156572 101.961143z m-22.235428 61.147428H436.662857l-26.258286 72.265143a30.573714 30.573714 0 1 1-57.490285-20.918857l18.797714-51.346286h-40.009143a30.573714 30.573714 0 1 1 0-61.147428h62.171429l37.156571-101.961143h-58.002286a30.573714 30.573714 0 1 1 0-61.147429h80.310858l20.187428-55.588571a30.573714 30.573714 0 1 1 57.490286 20.918857l-12.580572 34.669714h100.205715l20.187428-55.588571a30.573714 30.573714 0 1 1 57.490286 20.918857l-12.580571 34.669714h20.333714a30.573714 30.573714 0 1 1 0 61.147429h-42.569143l-37.083429 101.961143h38.326858a30.573714 30.573714 0 1 1 0 61.147428h-60.562286l-26.331429 72.265143a30.573714 30.573714 0 1 1-57.490285-20.918857l18.505142-51.346286z" p-id="43865"></path>
</svg>
