<svg viewBox="0 0 1024 1024" fill="none" xmlns="http://www.w3.org/2000/svg"><g transform="scale(64)">
<path d="M13.5 13H2.5V14H13.5V13Z" fill="#0D6CF2"/>
<path d="M13.9502 2C14.2538 2.0001 14.4999 2.24621 14.5 2.5498V11.4502C14.4999 11.7538 14.2538 11.9999 13.9502 12H2.0498C1.74619 11.9999 1.5001 11.7538 1.5 11.4502V2.5498C1.50012 2.24621 1.7462 2.0001 2.0498 2H13.9502ZM6.90039 5.2998C6.55039 5.14981 6.2002 5.4 6.2002 5.75V8.25C6.2002 8.6 6.55039 8.8502 6.90039 8.7002L9.65039 7.4502C10.0501 7.25014 10.0501 6.69991 9.65039 6.5498L6.90039 5.2998Z" fill="#0D6CF2"/>
</g></svg>
