<svg width="16" height="16" viewBox="0 0 16 16" fill="none" xmlns="http://www.w3.org/2000/svg">
<path fill-rule="evenodd" clip-rule="evenodd" d="M6.69998 8.94999C6.69998 8.69999 6.44998 8.54999 6.19998 8.54999H2.34998C2.09998 8.54999 1.89998 8.69999 1.84998 8.94999L1.04998 13.45C0.999982 13.75 1.24998 14.05 1.54998 14.05H7.04998C7.34998 14.05 7.59998 13.75 7.54998 13.45L6.74998 8.94999H6.69998Z" fill="#0D6CF2"/>
<path fill-rule="evenodd" clip-rule="evenodd" d="M10.45 2.44999C10.45 2.19999 10.2 2.04999 9.94998 2.04999H6.09998C5.84998 2.04999 5.64998 2.19999 5.59998 2.44999L4.79998 6.94999C4.74998 7.24999 4.99998 7.54999 5.29998 7.54999H10.8C11.1 7.54999 11.35 7.24999 11.3 6.94999L10.5 2.44999H10.45Z" fill="#0D6CF2"/>
<path fill-rule="evenodd" clip-rule="evenodd" d="M14.2 8.94999C14.2 8.69999 13.95 8.54999 13.7 8.54999H9.84998C9.59998 8.54999 9.39998 8.69999 9.34998 8.94999L8.54998 13.45C8.49998 13.75 8.74998 14.05 9.04998 14.05H14.55C14.85 14.05 15.1 13.75 15.05 13.45L14.25 8.94999H14.2Z" fill="#0D6CF2"/>
</svg>
