<svg viewBox="0 0 1024 1024" fill="none" xmlns="http://www.w3.org/2000/svg"><g transform="scale(64)">
<path fill-rule="evenodd" clip-rule="evenodd" d="M11.5027 4.51926C11.5027 6.45226 9.93569 8.01926 8.00269 8.01926C6.06969 8.01926 4.50269 6.45226 4.50269 4.51926C4.50269 2.58626 6.06969 1.01926 8.00269 1.01926C9.93569 1.01926 11.5027 2.58626 11.5027 4.51926Z" fill="#0D6CF2"/>
<path fill-rule="evenodd" clip-rule="evenodd" d="M13.1679 14.97L12.4953 14.0723C12.0947 14.1522 11.6815 14.129 11.2874 14.0029C10.8086 13.8497 10.3956 13.5554 10.0932 13.1518C9.79082 12.7482 9.62438 12.2693 9.61185 11.7666C9.59961 11.2754 9.73426 10.7988 10.0012 10.3884C10.059 10.2995 10.1566 10.2445 10.2626 10.241C10.3687 10.2375 10.4695 10.2859 10.5331 10.3708L11.4678 11.6182C11.5979 11.7919 11.8451 11.8274 12.0188 11.6972C12.1925 11.5671 12.2279 11.3199 12.0978 11.1462L11.1506 9.88197C11.1327 9.85806 11.1191 9.83106 11.1112 9.80226C11.0593 9.61258 11.1671 9.44198 11.3295 9.39319C11.7983 9.25228 12.2935 9.25694 12.7616 9.40667C13.2404 9.55987 13.6534 9.85417 13.9558 10.2577C14.2582 10.6613 14.4246 11.1403 14.4371 11.6429C14.4474 12.0565 14.3536 12.4597 14.1645 12.8217L14.9788 13.9008V14.8557C14.9788 14.9251 14.9223 14.9812 14.853 14.9807L13.1679 14.97Z" fill="#0D6CF2"/>
<path fill-rule="evenodd" clip-rule="evenodd" d="M8.3555 11.6966C8.3555 10.4783 8.95431 9.39998 9.87354 8.73953C9.27555 8.57334 8.64534 8.48447 7.99439 8.48447C4.3467 8.48447 1.35053 11.2734 1.02165 14.8352C1.0149 14.9085 1.07276 14.9716 1.14626 14.9716H10.4066C9.19251 14.3819 8.3555 13.137 8.3555 11.6966Z" fill="#0D6CF2"/>
</g></svg>
