<?xml version="1.0" standalone="no"?>
<svg xmlns="http://www.w3.org/2000/svg" class="icon" viewBox="0 0 1024 1024">
  <path d="M256 333.9392c0 142.01386667 114.1376 257.1392 254.93333333 257.1392 140.79573333 0 254.93333333-115.12533333 254.93333334-257.1392S651.72906667 76.8 510.93333333 76.8c-140.79573333 0-254.93333333 115.12533333-254.93333333 257.1392z m512.4736 277.14026667c-20.18133333-15.984-49.01333333-14.53013333-67.75466667 4.35946666-46.1312 46.49813333-120.2272 75.55946667-190.86506666 75.55946667-70.63786667 0-144.73493333-29.06133333-190.86506667-75.55946667-18.74133333-18.89066667-47.57333333-21.79626667-67.75466667-4.35946666-77.84533333 66.84053333-124.84266667 131.2384-143.584 248.93653333C100.44266667 907.968 133.6 947.2 182.61333333 947.2h658.80533334c47.57333333 0 82.17173333-39.232 74.9632-87.184-20.18133333-117.69813333-67.17866667-182.096-147.90826667-248.93653333z" p-id="42965"></path>
</svg>
