<svg width="16" height="16" viewBox="0 0 16 16" fill="none" xmlns="http://www.w3.org/2000/svg">
<path d="M11.2002 7.4668C13.5564 7.46703 15.4668 9.37712 15.4668 11.7334C15.4668 14.0897 13.5564 15.9998 11.2002 16C8.84379 16 6.93265 14.0898 6.93262 11.7334C6.93265 9.377 8.8438 7.46683 11.2002 7.4668ZM0.533203 9.73926C0.922877 10.0285 1.39755 10.2614 1.9043 10.4463C2.9991 10.8456 4.4225 11.0857 5.96875 11.124C5.94571 11.3239 5.9336 11.5273 5.93359 11.7334L5.94043 12.0049C5.97393 12.6645 6.12946 13.2916 6.38379 13.8652C3.13799 13.8621 0.533299 12.9048 0.533203 11.7334V9.73926ZM12.5342 10.2188C12.4366 10.2188 12.3443 10.2664 12.2871 10.3457L10.79 12.4219L10.1113 11.4805C10.0541 11.4014 9.96263 11.3545 9.86523 11.3545H9.41895C9.35688 11.3545 9.32103 11.4251 9.35742 11.4756L10.5439 13.1211C10.6654 13.2895 10.9157 13.2895 11.0371 13.1211L13.042 10.3398C13.0783 10.2894 13.0425 10.2188 12.9805 10.2188H12.5342ZM0.533203 6.00586C0.922876 6.29512 1.39752 6.52803 1.9043 6.71289C3.10007 7.149 4.6877 7.40035 6.39941 7.40039C7.08846 7.40039 7.7572 7.35737 8.38867 7.28027C7.35395 7.93484 6.56272 8.93911 6.18262 10.1279C3.13187 10.0877 0.693927 9.20643 0.541016 8.10938L0.533203 8V6.00586ZM12.2666 6.57422C12.0081 6.52104 11.7425 6.48741 11.4717 6.47363L11.4648 6.47266C11.7554 6.33579 12.0278 6.18316 12.2666 6.00586V6.57422ZM6.39941 0C9.65275 0 12.2666 0.960456 12.2666 2.13379V4.2666L12.2588 4.37598C12.1025 5.49903 9.5511 6.40039 6.39941 6.40039L5.79785 6.38867C2.83008 6.2789 0.533203 5.3666 0.533203 4.2666V2.13379C0.533203 0.96051 3.14629 8.97068e-05 6.39941 0Z" fill="#0D6CF2"/>
</svg>
