<svg viewBox="0 0 1024 1024" fill="none" xmlns="http://www.w3.org/2000/svg"><g transform="scale(64)">
<path fill-rule="evenodd" clip-rule="evenodd" d="M8 1C4.13438 1 1 4.13438 1 8C1 11.8656 4.13438 15 8 15C11.8656 15 15 11.8656 15 8C15 4.13438 11.8656 1 8 1ZM5.51111 7.37778C5.85475 7.37778 6.13333 7.67625 6.13333 8.04444C6.13333 8.41263 5.85475 8.71111 5.51111 8.71111C5.16747 8.71111 4.88889 8.41263 4.88889 8.04444C4.88889 7.67625 5.16747 7.37778 5.51111 7.37778ZM8 7.37778C8.34364 7.37778 8.62222 7.67625 8.62222 8.04444C8.62222 8.41263 8.34364 8.71111 8 8.71111C7.65636 8.71111 7.37778 8.41263 7.37778 8.04444C7.37778 7.67625 7.65636 7.37778 8 7.37778ZM10.4889 7.37778C10.8325 7.37778 11.1111 7.67625 11.1111 8.04444C11.1111 8.41263 10.8325 8.71111 10.4889 8.71111C10.1452 8.71111 9.86667 8.41263 9.86667 8.04444C9.86667 7.67625 10.1452 7.37778 10.4889 7.37778Z" fill="#F49F25"/>
</g></svg>
