<?xml version="1.0" standalone="no"?>
<svg xmlns="http://www.w3.org/2000/svg" class="icon" viewBox="0 0 1024 1024">
  <path d="M533.333333 85.333333A448 448 0 1 1 85.333333 533.333333C85.333333 285.866667 285.866667 85.333333 533.333333 85.333333z m0 560.725334c-33.024 0-59.733333 27.306667-59.733333 61.013333 0 33.621333 26.709333 60.928 59.733333 60.928 33.024 0 59.733333-27.306667 59.733334-60.928a60.416 60.416 0 0 0-59.733334-61.013333zM344.234667 566.613333a15.36 15.36 0 0 0-0.597334 22.101334l32.170667 32.341333c5.632 5.632 14.592 5.973333 20.650667 0.768a206.933333 206.933333 0 0 1 273.92 0c5.973333 5.290667 14.933333 4.864 20.565333-0.768l32.170667-32.426667a15.445333 15.445333 0 0 0-0.597334-22.016 282.112 282.112 0 0 0-378.282666 0zM239.445333 458.24a15.36 15.36 0 0 0-0.341333 21.930667l31.914667 32.426666c5.802667 5.802667 15.018667 5.973333 20.906666 0.341334a352.768 352.768 0 0 1 482.816 0c5.973333 5.546667 15.189333 5.461333 20.906667-0.426667l32-32.341333a15.445333 15.445333 0 0 0-0.341333-21.930667 427.52 427.52 0 0 0-587.946667 0z" p-id="44765"></path>
</svg>
