<svg width="16" height="16" viewBox="0 0 16 16" fill="none" xmlns="http://www.w3.org/2000/svg">
<path d="M13 2.99902C13.2761 2.99902 13.5 3.22288 13.5 3.49902V10.499C13.4998 10.775 13.276 10.999 13 10.999H3C2.72398 10.999 2.5002 10.775 2.5 10.499V3.49902C2.5 3.22288 2.72386 2.99902 3 2.99902H13ZM8.2373 8.06348C8.16827 8.06348 8.1123 8.11945 8.1123 8.18848V8.93848C8.11254 9.00731 8.16842 9.06348 8.2373 9.06348H10.4873C10.556 9.06321 10.6121 9.00715 10.6123 8.93848V8.18848C10.6123 8.11961 10.5561 8.06374 10.4873 8.06348H8.2373ZM5.53125 4.95996C5.47644 4.91798 5.39745 4.9286 5.35547 4.9834L4.89941 5.5791C4.85769 5.6339 4.86814 5.712 4.92285 5.75391L6.54785 6.99902L4.92285 8.24316C4.86804 8.28513 4.85743 8.36415 4.89941 8.41895L5.35547 9.01367C5.39745 9.06848 5.47644 9.07908 5.53125 9.03711L7.67383 7.39551C7.93511 7.19537 7.93511 6.80169 7.67383 6.60156L5.53125 4.95996Z" fill="#0D6CF2"/>
<path fill-rule="evenodd" clip-rule="evenodd" d="M14.875 12.996H1.125C1.05597 12.996 1 12.9404 1 12.8717V12.1204C1 12.0517 1.05597 11.996 1.125 11.996H14.875C14.944 11.996 15 12.0517 15 12.1204V12.8717C15 12.9404 14.944 12.996 14.875 12.996Z" fill="#0D6CF2"/>
</svg>
