<svg viewBox="0 0 1024 1024" fill="none" xmlns="http://www.w3.org/2000/svg"><g transform="scale(64)">
<rect opacity="0.01" width="16" height="16" fill="white"/>
<rect opacity="0.01" width="16" height="16" fill="white"/>
<rect opacity="0.01" width="16" height="16" fill="white"/>
<path fill-rule="evenodd" clip-rule="evenodd" d="M10.9922 14H4.98413C4.70799 14 4.48413 13.7761 4.48413 13.5V2.5C4.48413 2.22386 4.70799 2 4.98413 2H10.9922C11.2683 2 11.4922 2.22386 11.4922 2.5V13.5C11.4922 13.7761 11.2683 14 10.9922 14Z" fill="#0D6CF2"/>
<path fill-rule="evenodd" clip-rule="evenodd" d="M1.00781 4.00781H3.01366C3.28656 4.00781 3.50781 4.23123 3.50781 4.50684V11.5088C3.50781 11.7844 3.28656 12.0078 3.01366 12.0078H1.00781" fill="#0D6CF2"/>
<path fill-rule="evenodd" clip-rule="evenodd" d="M14.9922 4.01562H12.9863C12.7134 4.01562 12.4922 4.23905 12.4922 4.51466V11.5166C12.4922 11.7922 12.7134 12.0156 12.9863 12.0156H14.9922" fill="#0D6CF2"/>
</g></svg>
