<?xml version="1.0" standalone="no"?>
<svg xmlns="http://www.w3.org/2000/svg" class="icon" viewBox="0 0 1024 1024">
  <g fill="none" fill-rule="evenodd" stroke="none" stroke-width="1">
    <path d="M0 0H1024V1024H0z" />
    <path fill="#006AFF" d="M512 129.002c-211.369 0-382.718 171.349-382.718 382.718 0 211.369 171.349 382.717 382.718 382.717 211.369 0 382.718-171.348 382.718-382.717 0-211.37-171.349-382.718-382.718-382.718m0 96c38.749 0 76.288 7.567 111.574 22.492 34.131 14.436 64.803 35.123 91.166 61.486 26.363 26.362 47.049 57.035 61.485 91.166 14.925 35.286 22.493 72.825 22.493 111.574 0 38.749-7.568 76.287-22.493 111.574-14.436 34.13-35.122 64.803-61.485 91.166-26.363 26.362-57.035 47.049-91.166 61.485-35.286 14.925-72.825 22.492-111.574 22.492-38.749 0-76.288-7.567-111.574-22.492-34.131-14.436-64.803-35.123-91.166-61.485-26.363-26.363-47.05-57.036-61.485-91.166-14.925-35.287-22.493-72.825-22.493-111.574 0-38.75 7.568-76.288 22.493-111.574 14.435-34.131 35.122-64.804 61.485-91.166 26.363-26.363 57.035-47.05 91.166-61.486 35.286-14.925 72.825-22.492 111.574-22.492" />
    <path fill="#FFF" d="M512 212.866c-165.052 0-298.854 133.8-298.854 298.854 0 165.052 133.802 298.854 298.854 298.854S810.854 676.772 810.854 511.72c0-165.053-133.802-298.854-298.854-298.854" />
    <path fill="#0AC185" d="M512 278.24c62.365 0 120.996 24.286 165.095 68.385 44.098 44.098 68.384 102.73 68.384 165.095 0 62.364-24.286 120.996-68.384 165.095-44.099 44.098-102.73 68.384-165.095 68.384-62.365 0-120.996-24.286-165.095-68.385-44.099-44.098-68.385-102.73-68.385-165.094 0-62.365 24.286-120.997 68.385-165.095 44.098-44.1 102.73-68.385 165.095-68.385" />
    <path fill="#006AFF" d="M535.237 256.01h-46.473a8.763 8.763 0 0 1-8.764-8.765V72.773a8.763 8.763 0 0 1 8.764-8.764h46.472A8.764 8.764 0 0 1 544 72.773v174.472a8.764 8.764 0 0 1-8.764 8.764M535.237 959.99h-46.473a8.763 8.763 0 0 1-8.764-8.763V776.755a8.763 8.763 0 0 1 8.764-8.764h46.472a8.764 8.764 0 0 1 8.764 8.764v174.472a8.764 8.764 0 0 1-8.764 8.764M960 488.483v46.473a8.763 8.763 0 0 1-8.764 8.763H776.764a8.763 8.763 0 0 1-8.764-8.763v-46.473a8.764 8.764 0 0 1 8.764-8.764h174.472a8.764 8.764 0 0 1 8.764 8.764M256 488.483v46.473a8.763 8.763 0 0 1-8.764 8.763H72.764A8.763 8.763 0 0 1 64 534.956v-46.473a8.764 8.764 0 0 1 8.764-8.764h174.472a8.764 8.764 0 0 1 8.764 8.764" />
  </g>
</svg>
