<?xml version="1.0" standalone="no"?>
<svg xmlns="http://www.w3.org/2000/svg" class="icon" viewBox="0 0 16 16">
  <g fill="none" fill-rule="evenodd" stroke="none" stroke-width="1">
    <g>
      <path d="M0 0H16V16H0z" />
      <g fill="#FF6A00" fill-rule="nonzero" transform="translate(1.2 3.6)">
        <path d="M4.54777072 3.72484076 9.0955414 3.72484076 9.0955414 4.7643312 4.54777072 4.7643312z" />
        <path d="M11.348 0H8.359l.737 1.04 2.165.692c.39.13.65.52.65.91v3.292c0 .39-.26.78-.65.91l-2.165.692-.737 1.04h2.989A2.237 2.237 0 0 0 13.6 6.324V2.296C13.6 1.039 12.604 0 11.348 0M2.339 6.843a.98.98 0 0 1-.65-.91V2.643c0-.39.26-.78.65-.91l2.165-.693L5.241 0H2.252C.996 0 0 1.04 0 2.296V6.28c0 1.256.996 2.252 2.252 2.252h2.989l-.737-1.039z" />
      </g>
    </g>
  </g>
</svg>
