<?xml version="1.0" standalone="no"?>
<svg xmlns="http://www.w3.org/2000/svg" class="icon" viewBox="0 0 16 16">
  <g fill="none" fill-rule="evenodd" stroke="none" stroke-width="1">
    <g>
      <path d="M0 0H16V16H0z" />
      <g fill-rule="nonzero" transform="translate(1.2 4.8)">
        <path fill="#252F3E" d="M3.722 2.872q-.006.2.05.391.06.164.143.315.03.045.032.1a.17.17 0 0 1-.085.13l-.264.185a.2.2 0 0 1-.116.04.18.18 0 0 1-.13-.062 1 1 0 0 1-.158-.203 3 3 0 0 1-.135-.264c-.313.391-.79.615-1.291.607a1.2 1.2 0 0 1-.877-.314 1.13 1.13 0 0 1-.323-.845 1.13 1.13 0 0 1 .386-.898 1.6 1.6 0 0 1 1.078-.341q.232 0 .465.034.243.035.504.095V1.52a.96.96 0 0 0-.208-.703 1 1 0 0 0-.716-.203q-.24 0-.473.058-.243.058-.473.15-.074.035-.153.059H.909Q.817.88.817.743V.535A.3.3 0 0 1 .848.38.3.3 0 0 1 .972.29 2.9 2.9 0 0 1 2.21.006c.415-.037.828.092 1.149.357.264.295.396.685.364 1.08zm-1.783.669q.234-.003.455-.082a.96.96 0 0 0 .414-.283.7.7 0 0 0 .148-.264q.045-.187.043-.38v-.185a4 4 0 0 0-.405-.074 3 3 0 0 0-.412-.027 1 1 0 0 0-.652.177.62.62 0 0 0-.209.49.62.62 0 0 0 .161.464.63.63 0 0 0 .457.164m3.527.475a.26.26 0 0 1-.17-.042.34.34 0 0 1-.092-.172L4.177.405a.8.8 0 0 1-.04-.177.095.095 0 0 1 .109-.108h.43a.26.26 0 0 1 .172.042.4.4 0 0 1 .087.172l.737 2.906.684-2.906a.3.3 0 0 1 .087-.17.3.3 0 0 1 .177-.042h.354a.3.3 0 0 1 .177.043.3.3 0 0 1 .085.171l.69 2.943.76-2.943a.37.37 0 0 1 .09-.171.26.26 0 0 1 .172-.043h.407a.095.095 0 0 1 .108.109.4.4 0 0 1 0 .068 1 1 0 0 1-.032.109L8.374 3.805a.34.34 0 0 1-.092.172.26.26 0 0 1-.17.042h-.385a.26.26 0 0 1-.177-.045.33.33 0 0 1-.084-.177L6.782.967l-.677 2.827a.33.33 0 0 1-.084.177.26.26 0 0 1-.177.045zm5.643.117a3 3 0 0 1-.677-.077 2 2 0 0 1-.507-.177.26.26 0 0 1-.161-.246v-.222q0-.137.1-.137.042 0 .082.016l.111.045q.233.103.484.153.26.053.528.053c.223.013.446-.037.642-.146a.47.47 0 0 0 .227-.414.43.43 0 0 0-.119-.307 1.1 1.1 0 0 0-.46-.232l-.636-.2a1.36 1.36 0 0 1-.684-.445 1.04 1.04 0 0 1-.22-.636 1 1 0 0 1 .12-.49 1.2 1.2 0 0 1 .314-.361c.134-.102.287-.18.449-.227q.27-.078.552-.077.149 0 .296.019.15.018.285.05t.251.069q.096.03.185.076a.4.4 0 0 1 .13.108.25.25 0 0 1 .039.146v.208q0 .138-.1.138a.5.5 0 0 1-.17-.053 2.05 2.05 0 0 0-.845-.17 1.15 1.15 0 0 0-.584.125.42.42 0 0 0-.208.391.42.42 0 0 0 .13.312c.142.114.306.196.483.243l.623.187c.264.069.5.216.679.423.14.181.212.405.206.634a1.11 1.11 0 0 1-.436.898 1.4 1.4 0 0 1-.489.246 2.2 2.2 0 0 1-.62.077" />
        <path fill="#F90" d="M11.938 6.296c-1.445 1.067-3.542 1.635-5.333 1.635a9.68 9.68 0 0 1-6.547-2.49c-.134-.122-.015-.289.148-.196A13.15 13.15 0 0 0 6.745 6.98a13 13 0 0 0 4.984-1.022c.243-.103.45.161.21.338" />
        <path fill="#F90" d="M12.54 5.61c-.185-.239-1.223-.112-1.688-.056-.14.016-.163-.106-.037-.196.827-.58 2.185-.414 2.34-.219.157.195-.041 1.556-.815 2.206-.12.1-.233.047-.18-.085.174-.438.565-1.413.38-1.65" />
        <path fill="#252F3E" d="M3.722 2.872q-.006.2.05.391.06.164.143.315.03.045.032.1a.17.17 0 0 1-.085.13l-.264.185a.2.2 0 0 1-.116.04.18.18 0 0 1-.13-.062 1 1 0 0 1-.158-.203 3 3 0 0 1-.135-.264c-.313.391-.79.615-1.291.607a1.2 1.2 0 0 1-.877-.314 1.13 1.13 0 0 1-.323-.845 1.13 1.13 0 0 1 .386-.898 1.6 1.6 0 0 1 1.078-.341q.232 0 .465.034.243.035.504.095V1.52a.96.96 0 0 0-.208-.703 1 1 0 0 0-.716-.203q-.24 0-.473.058-.243.058-.473.15-.074.035-.153.059H.909Q.817.88.817.743V.535A.3.3 0 0 1 .848.38.3.3 0 0 1 .972.29 2.9 2.9 0 0 1 2.21.006c.415-.037.828.092 1.149.357.264.295.396.685.364 1.08zm-1.783.669q.234-.003.455-.082a.96.96 0 0 0 .414-.283.7.7 0 0 0 .148-.264q.045-.187.043-.38v-.185a4 4 0 0 0-.405-.074 3 3 0 0 0-.412-.027 1 1 0 0 0-.652.177.62.62 0 0 0-.209.49.62.62 0 0 0 .161.464.63.63 0 0 0 .457.164m3.527.475a.26.26 0 0 1-.17-.042.34.34 0 0 1-.092-.172L4.177.405a.8.8 0 0 1-.04-.177.095.095 0 0 1 .109-.108h.43a.26.26 0 0 1 .172.042.4.4 0 0 1 .087.172l.737 2.906.684-2.906a.3.3 0 0 1 .087-.17.3.3 0 0 1 .177-.042h.354a.3.3 0 0 1 .177.043.3.3 0 0 1 .085.171l.69 2.943.76-2.943a.37.37 0 0 1 .09-.171.26.26 0 0 1 .172-.043h.407a.095.095 0 0 1 .108.109.4.4 0 0 1 0 .068 1 1 0 0 1-.032.109L8.374 3.805a.34.34 0 0 1-.092.172.26.26 0 0 1-.17.042h-.385a.26.26 0 0 1-.177-.045.33.33 0 0 1-.084-.177L6.782.967l-.677 2.827a.33.33 0 0 1-.084.177.26.26 0 0 1-.177.045zm5.643.117a3 3 0 0 1-.677-.077 2 2 0 0 1-.507-.177.26.26 0 0 1-.161-.246v-.222q0-.137.1-.137.042 0 .082.016l.111.045q.233.103.484.153.26.053.528.053c.223.013.446-.037.642-.146a.47.47 0 0 0 .227-.414.43.43 0 0 0-.119-.307 1.1 1.1 0 0 0-.46-.232l-.636-.2a1.36 1.36 0 0 1-.684-.445 1.04 1.04 0 0 1-.22-.636 1 1 0 0 1 .12-.49 1.2 1.2 0 0 1 .314-.361c.134-.102.287-.18.449-.227q.27-.078.552-.077.149 0 .296.019.15.018.285.05t.251.069q.096.03.185.076a.4.4 0 0 1 .13.108.25.25 0 0 1 .039.146v.208q0 .138-.1.138a.5.5 0 0 1-.17-.053 2.05 2.05 0 0 0-.845-.17 1.15 1.15 0 0 0-.584.125.42.42 0 0 0-.208.391.42.42 0 0 0 .13.312c.142.114.306.196.483.243l.623.187c.264.069.5.216.679.423.14.181.212.405.206.634a1.11 1.11 0 0 1-.436.898 1.4 1.4 0 0 1-.489.246 2.2 2.2 0 0 1-.62.077" />
        <path fill="#F90" d="M11.938 6.296c-1.445 1.067-3.542 1.635-5.333 1.635a9.68 9.68 0 0 1-6.547-2.49c-.134-.122-.015-.289.148-.196A13.15 13.15 0 0 0 6.745 6.98a13 13 0 0 0 4.984-1.022c.243-.103.45.161.21.338" />
        <path fill="#F90" d="M12.54 5.61c-.185-.239-1.223-.112-1.688-.056-.14.016-.163-.106-.037-.196.827-.58 2.185-.414 2.34-.219.157.195-.041 1.556-.815 2.206-.12.1-.233.047-.18-.085.174-.438.565-1.413.38-1.65" />
      </g>
    </g>
  </g>
</svg>
