<?xml version="1.0" standalone="no"?>
<svg xmlns="http://www.w3.org/2000/svg" class="icon" viewBox="0 0 18 18">
  <g fill="none" fill-rule="evenodd" stroke="none" stroke-width="1">
    <g>
      <path d="M0 0H18V18H0z" />
      <path fill="#006AFF" d="M10.012 2 13 5.07v2.82h-2.745c-.232 0-.457.05-.662.141l-.15.077c-.243.14-.45.343-.595.595l-1.562 2.705a1.63 1.63 0 0 0 0 1.625l.558.967H3a1 1 0 0 1-1-1V3a1 1 0 0 1 1-1zM7 6.5H4.5a.5.5 0 0 0 0 1H7a.5.5 0 0 0 0-1M8 4H4.5a.5.5 0 0 0 0 1H8a.5.5 0 0 0 0-1" />
      <path fill="#0AC185" d="m14.03 9.384 1.526 2.643a.8.8 0 0 1 0 .793l-1.526 2.643a.8.8 0 0 1-.687.397H10.29a.8.8 0 0 1-.687-.397L8.078 12.82a.8.8 0 0 1 0-.793l1.526-2.643a.8.8 0 0 1 .687-.397h3.052c.283 0 .545.151.687.397" />
    </g>
  </g>
</svg>
