<?xml version="1.0" standalone="no"?>
<svg xmlns="http://www.w3.org/2000/svg" class="icon" viewBox="0 0 54 54">
  <g fill="none" fill-rule="evenodd" stroke="none" stroke-width="1">
    <g>
      <path d="M0 0H54V54H0z" />
      <g fill-rule="nonzero">
        <path fill="#111827" d="M15.59 51.47A27.005 27.005 0 0 1 .541 21.618 27 27 0 0 1 26.058.017a27 27 0 0 1 26.96 19.768 27 27 0 0 1-12.928 30.83L27 27z" />
        <path fill="#FFF" d="M40.063 50.63a27 27 0 0 1-24.446.853L27 27z" />
        <path fill="#FFF" d="M11.812 15.875h30.671v12.96q0 5.055-2.375 7.603-2.333 2.593-6.049 2.593-2.375 0-4.147-1.167-1.728-1.123-2.635-3.11-.82 2.16-2.592 3.413-1.772 1.296-4.19 1.296-4.062 0-6.394-2.592-2.29-2.593-2.29-7.474zm25.013 6.134h-6.653v6.783q0 1.858.82 2.851.865 1.037 2.507 1.037 1.468 0 2.376-.994.95-.951.95-2.895zm-12.355 0H17.47v7.215q0 1.944.907 2.895.909.993 2.593.993 1.598 0 2.549-.993.95-.951.95-2.895z" />
      </g>
    </g>
  </g>
</svg>
