<?xml version="1.0" standalone="no"?>
<svg xmlns="http://www.w3.org/2000/svg" class="icon" viewBox="0 0 54 54">
  <g fill="none" fill-rule="evenodd" stroke="none" stroke-width="1">
    <g>
      <path d="M0 0H54V54H0z" />
      <g fill-rule="nonzero" transform="translate(3)">
        <path id="路径" fill="#004482" d="M47.981 15.877a4.8 4.8 0 0 0-.584-2.4 4.6 4.6 0 0 0-1.737-1.693Q36.078 6.25 26.49.732c-1.72-.996-3.39-.96-5.1.05-2.541 1.495-15.272 8.8-19.065 11-1.563.905-2.322 2.291-2.322 4.093v22.25c-.016.82.178 1.63.563 2.353a4.55 4.55 0 0 0 1.765 1.74C6.125 44.425 18.857 51.72 21.4 53.222c1.71 1.01 3.379 1.046 5.102.05q9.58-5.535 19.17-11.056a4.55 4.55 0 0 0 1.765-1.74A4.8 4.8 0 0 0 48 38.123V15.877z" />
        <path id="路径" fill="#00599C" d="M47.986 38.125c.016.82-.177 1.63-.563 2.353a4 4 0 0 1-.32.495L23.993 27 45.66 11.784c.72.398 1.319.983 1.734 1.693.404.735.606 1.562.587 2.4.005 7.417.005 22.248.005 22.248" />
        <path id="路径" fill="#659AD2" d="M47.394 13.477.56 40.478a4.8 4.8 0 0 1-.558-2.35V15.875c0-1.802.761-3.188 2.322-4.093 3.795-2.2 16.526-9.505 19.07-11.004 1.706-1.01 3.376-1.046 5.097-.05q9.58 5.536 19.17 11.056c.72.398 1.319.983 1.734 1.693" />
        <path id="路径" fill="#FFF" d="M24.92 35.989a8.81 8.81 0 0 1-7.945-4.978 8.82 8.82 0 0 1 3.18-11.267 8.81 8.81 0 0 1 11.56 1.826c.118.141.221.289.338.441q.08.109.155.221l7.739-4.459a15 15 0 0 0-.592-.883c-.108-.152-.22-.298-.326-.441-5.576-7.246-15.763-9.028-23.466-4.104S5.197 27.265 9.428 35.37c.075.142.152.28.22.42a17.633 17.633 0 0 0 30.202.799l-7.567-4.576a8.8 8.8 0 0 1-7.364 3.976" />
      </g>
    </g>
  </g>
</svg>
