<?xml version="1.0" standalone="no"?>
<svg xmlns="http://www.w3.org/2000/svg" xmlns:xlink="http://www.w3.org/1999/xlink" class="icon" viewBox="0 0 1024 1024">
  <defs><path id="a" d="M0 0 319.397089 0 319.397089 623.547 0 623.547z" /></defs>
  <g fill="none" fill-rule="evenodd" stroke="none" stroke-width="1">
    <path d="M0 0H1024V1024H0z" />
    <g transform="translate(8 200.226)">
      <path fill="#FFF" d="M613.492 17.228 394.508 606.318" />
      <g transform="translate(344.302)">
        <mask id="b" fill="#fff"><use xlink:href="#a" /></mask>
        <path fill="#0AC185" d="m95.198 623.044-89.983-33.45a8 8 0 0 1-4.711-10.287L213.913 5.216A8 8 0 0 1 224.199.504l89.983 33.45a8 8 0 0 1 4.712 10.285l-213.41 574.094a8 8 0 0 1-10.286 4.71" />
      </g>
      <path fill="#006AFF" d="M257.832 573.584a8 8 0 0 1-11.312.193L17.084 352.041a55.995 55.995 0 0 1 0-80.536L246.52 49.77a8 8 0 0 1 11.312.193l66.714 69.03a8 8 0 0 1-.193 11.312l-187.77 181.47 187.77 181.468a8 8 0 0 1 .193 11.312zM755.728 579.337l-77.833-80.535 193.522-187.028-193.523-187.03 77.833-80.534 235.188 227.296a55.995 55.995 0 0 1 0 80.535z" />
    </g>
  </g>
</svg>
