<?xml version="1.0" standalone="no"?>
<svg xmlns="http://www.w3.org/2000/svg" class="icon" viewBox="0 0 1024 1024">
  <g fill="none" fill-rule="evenodd" stroke="none" stroke-width="1">
    <path d="M0 0H1024V1024H0z" />
    <path fill="#0AC185" d="M864 128c17.673 0 32 14.327 32 32v704c0 17.673-14.327 32-32 32H543v-64h24l2.249-.018C643.323 830.78 703 770.36 703 696l-.018-2.249C701.78 619.677 641.36 560 567 560h-24V416h-80l-1.323-.01C418.104 415.282 383 379.74 383 336c0-44.183 35.817-80 80-80h80V128zm-385 64h-16l-2.381.02C382.188 193.29 319 257.265 319 336l.02 2.381C320.29 416.812 384.265 480 463 480h16v144h88l1.19.01c39.216.635 70.81 32.623 70.81 71.99 0 39.765-32.235 72-72 72h-88v128H160c-17.673 0-32-14.327-32-32V160c0-17.673 14.327-32 32-32h319z" />
    <path fill="#006AFF" d="M863.5 128c17.673 0 32 14.327 32 32v704c0 17.673-14.327 32-32 32H543v-64h24l2.249-.018C643.323 830.78 703 770.36 703 696l-.018-2.249C701.78 619.677 641.36 560 567 560h-24V416h-80l-1.323-.01C418.104 415.282 383 379.74 383 336c0-44.183 35.817-80 80-80h80V128z" />
  </g>
</svg>
