<?xml version="1.0" standalone="no"?>
<svg xmlns="http://www.w3.org/2000/svg" xmlns:xlink="http://www.w3.org/1999/xlink" class="icon" viewBox="0 0 1024 1024">
  <defs>
    <path id="a" d="M0 0 617.765476 0 617.765476 744.885168 0 744.885168z" />
    <path id="c" d="M0 0 684.101171 0 684.101171 797.9381 0 797.9381z" />
  </defs>
  <g fill="none" fill-rule="evenodd" stroke="none" stroke-width="1">
    <path d="M0 0H1024V1024H0z" />
    <g transform="translate(342.235 64)">
      <mask id="b" fill="#fff"><use xlink:href="#a" /></mask>
      <path fill="#006AFF" d="M21.015 80.93c1.404 3.945 5.796 5.925 9.706 4.424 44.28-17.007 90.99-25.62 139.045-25.62 52.442 0 103.284 10.256 151.113 30.486 46.227 19.553 87.756 47.556 123.433 83.234 35.677 35.676 63.68 77.206 83.233 123.433 20.23 47.83 30.488 98.671 30.488 151.112 0 52.442-10.258 103.284-30.488 151.113-16.076 38.008-37.877 72.83-64.946 103.844 5.273 18.608 22.4 32.284 42.675 32.284v9.645c69.996-79.043 112.492-183 112.492-296.883C617.766 200.575 417.582.21 170.155 0 111.709-.05 55.873 11.094 4.669 31.404c-4.473 1.774-6.057 7.264-3.316 11.22a163.469 163.469 0 0 1 19.662 38.305" mask="url(#b)" />
    </g>
    <g transform="translate(64 162.062)">
      <mask id="d" fill="#fff"><use xlink:href="#c" /></mask>
      <path fill="#006AFF" d="M650.89 688.887c-2.233-3.074-6.434-3.938-9.728-2.046a387.586 387.586 0 0 1-42.05 20.876c-47.828 20.23-98.67 30.488-151.112 30.488-52.442 0-103.284-10.258-151.113-30.488-46.227-19.552-87.756-47.556-123.433-83.233-35.677-35.677-63.681-77.206-83.233-123.433-20.23-47.829-30.487-98.671-30.487-151.113 0-52.442 10.257-103.284 30.487-151.112 19.552-46.228 47.556-87.757 83.233-123.434a391.434 391.434 0 0 1 43.742-37.73h-27.98c0-15.876-8.387-29.823-20.96-37.662C65.693 82.097 0 208.343 0 349.937c0 247.102 199.41 447.196 446.512 448.001 85.715.276 165.852-23.52 234.036-65.009 4.41-2.684 4.779-8.952.749-12.178a165.271 165.271 0 0 1-30.407-31.864" mask="url(#d)" />
    </g>
    <path fill="#0AC185" d="M302.933 199.333c0-49.485-40.115-89.6-89.6-89.6-49.485 0-89.6 40.115-89.6 89.6 0 49.485 40.115 89.6 89.6 89.6 49.485 0 89.6-40.115 89.6-89.6M937.108 754.882c0-49.485-40.115-89.6-89.6-89.6-49.485 0-89.6 40.115-89.6 89.6 0 49.485 40.115 89.6 89.6 89.6 49.485 0 89.6-40.115 89.6-89.6" />
    <path fill="#006AFF" d="M735.034 614.778c1.71-1.94 4.996-.49 4.996 2.054v83.776c0 30.357-102.142 55.082-228.025 55.082-125.893 0-228.034-24.725-228.034-55.082v-83.776c0-2.545 3.284-3.994 4.995-2.054 21.933 24.861 113.495 43.582 223.039 43.582 109.536 0 201.096-18.72 223.029-43.582" />
    <path fill="#0AC185" d="M735.027 477.4c1.707-1.95 5.003-.505 5.003 2.046v83.669c0 30.357-102.142 55.082-228.025 55.082-125.892 0-228.034-24.725-228.034-55.082v-83.67c0-2.55 3.295-3.995 5.003-2.045 21.945 25.064 113.499 43.78 223.03 43.78 109.525 0 201.077-18.716 223.023-43.78" />
    <path fill="#006AFF" d="M740.03 323.39v102.026c0 30.669-102.142 55.394-228.025 55.394-125.892 0-228.034-24.725-228.034-55.394V323.39c0-30.356 102.142-55.081 228.034-55.081 125.883 0 228.025 24.725 228.025 55.08" />
  </g>
</svg>
