<?xml version="1.0" standalone="no"?>
<svg xmlns="http://www.w3.org/2000/svg" class="icon" viewBox="0 0 16 16">
  <g fill="#583ACA" fill-rule="nonzero" stroke="none" stroke-width="1">
    <path d="M13.467 7.411a.846.846 0 0 0-.56.213l-2.325-.341a1.875 1.875 0 0 0-.264-.767l1.951-2.06a1.424 1.424 0 1 0 .515-2.75c-.785 0-1.422.637-1.423 1.423 0 .257.071.502.194.708L9.642 5.853a1.817 1.817 0 0 0-.857-.245l-.49-2.306a.943.943 0 0 0 .297-.682.948.948 0 0 0-1.615-.673.943.943 0 0 0-.278.666c0 .432.29.786.676.902l.483 2.28a1.96 1.96 0 0 0-.58.444L4.992 5.061c0-.013.007-.033.007-.045a.948.948 0 0 0-.947-.947.948.948 0 0 0-.947.947c0 .522.424.945.947.946a.891.891 0 0 0 .418-.103l2.383 1.23a1.884 1.884 0 0 0 .264 1.436L5.172 10.58a1.424 1.424 0 1 0 .818 1.288 1.4 1.4 0 0 0-.141-.612l1.97-2.08a1.877 1.877 0 0 0 1.481.129l1.456 2.299a.944.944 0 0 0-.116.438c0 .522.424.946.947.947a.948.948 0 0 0 .946-.947.948.948 0 0 0-.946-.947h-.032l-1.462-2.312c.152-.164.274-.354.36-.56l2.21.328a.85.85 0 0 0 .804.574.86.86 0 0 0 .857-.857.86.86 0 0 0-.857-.857" />
    <path d="M4.593 7.263a.473.473 0 0 0 .36-.566.473.473 0 0 0-.566-.361 1.445 1.445 0 0 1-1.733-1.063 1.423 1.423 0 0 1 1.089-1.7 1.453 1.453 0 0 1 1.732 1.069.472.472 0 1 0 .921-.212c-.29-1.27-1.571-2.074-2.86-1.784a2.384 2.384 0 0 0-1.5 1.056 2.335 2.335 0 0 0-.303 1.777c.251 1.095 1.243 1.842 2.332 1.842.178.007.355-.013.528-.058m7.432 2.396a.47.47 0 0 0-.554.373.47.47 0 0 0 .373.554 1.432 1.432 0 0 1 1.127 1.681c-.067.377-.286.71-.605.921-.308.212-.689.29-1.056.22a1.441 1.441 0 0 1-1.133-1.682.475.475 0 1 0-.934-.174c-.245 1.289.598 2.544 1.88 2.789a2.32 2.32 0 0 0 1.771-.367c.526-.355.886-.908.998-1.533a2.361 2.361 0 0 0-1.867-2.782" />
  </g>
</svg>
