<?xml version="1.0" standalone="no"?>
<svg xmlns="http://www.w3.org/2000/svg" class="icon" viewBox="0 0 54 54">
  <g fill="none" fill-rule="evenodd" stroke="none" stroke-width="1">
    <g>
      <path d="M0 0H54V54H0z" />
      <path fill="#3D75FF" fill-rule="nonzero" stroke="#3D75FF" stroke-linecap="round" stroke-linejoin="round" stroke-width="1.219" d="M41.125 21.153a.87.87 0 0 0 .71-.366.89.89 0 0 0 .12-.795L39.33 12.06a.88.88 0 0 0-.486-.531L32.72 8.885h0q-.006-.001-.01-.004a.87.87 0 0 0-.953.19l-4.444 4.476L22.097.551a.88.88 0 0 0-.804-.55h-.008a.87.87 0 0 0-.805.536L15.168 13.15 2.368.258A.873.873 0 0 0 .876.881v25.56c0 .226.087.444.241.608l9.28 9.814L.176 50.59a.886.886 0 0 0 .43 1.367.87.87 0 0 0 .546-.002l18.375-6.17h0a.9.9 0 0 0 .342-.213l13.125-13.22a.88.88 0 0 0 .256-.623V19.584l7.703 1.551a1 1 0 0 0 .172.018M31.5 29.6l-8.825-8.89 8.825-8.888zM18.556 42.937 3.376 26.883l17.116-5.008zm2.71-39.753 4.703 11.717-4.532 4.564-4.934-4.97zm-1.518 17.073-17.123 5.01V3.009zm-8.128 17.9 6.046 6.395-14.41 4.838zm8.725 4.443 1.828-19.9 8.965 9.029zM33.25 17.786v-6.754l4.544 1.961 2.024 6.116z" transform="translate(6 1)" />
    </g>
  </g>
</svg>
