<?xml version="1.0" standalone="no"?>
<svg xmlns="http://www.w3.org/2000/svg" xmlns:xlink="http://www.w3.org/1999/xlink" class="icon" viewBox="0 0 1024 1024">
  <defs><path id="a" d="M0 1.13686838e-13 179.7512 1.13686838e-13 179.7512 179.7514 0 179.7514z" /></defs>
  <g fill="none" fill-rule="evenodd" stroke="none" stroke-width="1">
    <path d="M0 0H1024V1024H0z" />
    <path fill="#006AFF" d="m319.086 480.012 224.902 224.902c12.497 12.497 12.497 32.758 0 45.255L431.537 862.62c-74.602 74.602-195.555 74.602-270.157 0v-.001c-74.602-74.601-74.602-195.554 0-270.156l112.45-112.451c12.498-12.497 32.759-12.497 45.256 0" />
    <path fill="#0AC185" d="M704.914 543.987 480.012 319.085c-12.497-12.497-12.497-32.758 0-45.255l112.451-112.45c74.602-74.603 195.555-74.603 270.157 0 74.602 74.601 74.602 195.554 0 270.156L750.17 543.987c-12.498 12.497-32.759 12.497-45.256 0" />
    <path fill="#006AFF" d="m512.747 673.673-45.255-45.255 83.612-83.612a8 8 0 0 1 11.314 0l33.941 33.941a8 8 0 0 1 0 11.314zM395.581 556.508l-45.255-45.255 83.613-83.613a8 8 0 0 1 11.314 0l33.941 33.942a8 8 0 0 1 0 11.313zM47.97 1009.97l-33.94-33.94a8 8 0 0 1 0-11.315l131.014-131.014a8 8 0 0 1 11.314 0l33.94 33.941a8 8 0 0 1 0 11.314L59.286 1009.97a8 8 0 0 1-11.314 0" />
    <g transform="translate(832.562 11.687)">
      <mask id="b" fill="#fff"><use xlink:href="#a" /></mask>
      <path fill="#0AC185" d="m36.284 177.408-33.941-33.94a8 8 0 0 1 0-11.315L132.154 2.343a8 8 0 0 1 11.313 0l33.942 33.94a8 8 0 0 1 0 11.314L47.598 177.408a8 8 0 0 1-11.314 0" mask="url(#b)" />
    </g>
  </g>
</svg>
