<?xml version="1.0" standalone="no"?>
<svg xmlns="http://www.w3.org/2000/svg" class="icon" viewBox="0 0 75.098 80">
  <g fill="none" fill-rule="evenodd" stroke="none" stroke-width="1">
    <g transform="translate(-238.454 -148)">
      <g transform="translate(236 148)">
        <path d="M4.09266411e-14-1.84297022e-13 80-1.84297022e-13 80 80 4.09266411e-14 80z" />
        <g fill="#5C2D90" fill-rule="nonzero" transform="translate(2.454)">
          <path d="m69.657 42.124 1.976 25.123-34.842 6.254-2.978-25.123 4.981-.704c.813.352 1.381.46 2.329.704 1.516.352 3.248.812 5.793-.569.569-.352 1.84-1.38 2.328-2.084zm-53.82 29.86c-.568-.92-1.624-1.975-3.248-3.248-2.329-1.84-1.516-5.09-.109-7.066 1.76-3.357 10.883-7.742 10.423-13.184-.244-1.976-.46-4.52-2.328-6.362-.108.704 0 1.38 0 1.38s-.812-.92-1.164-2.327c-.352-.46-.704-.704-1.029-1.38-.244.811-.244 1.623-.244 1.623s-.568-1.516-.704-2.653c-.351.569-.46 1.625-.46 1.625s-.812-2.329-.568-3.574c-.352-1.029-1.516-3.249-1.164-8.094 1.976 1.38 6.362 1.028 8.094-1.516.569-.813.92-3.114-.243-7.635-.813-2.897-2.789-7.174-3.574-8.798l-.108.108c.46 1.272 1.272 4.06 1.624 5.442.92 4.06 1.272 5.441.812 7.282-.352 1.624-1.272 2.653-3.709 3.817-2.328 1.164-5.55-1.76-5.685-1.84-2.328-1.842-4.06-4.874-4.277-6.254-.244-1.625.92-2.545 1.516-3.818-.812.244-1.76.704-1.76.704s1.029-1.164 2.437-2.084c.514-.298 1.028-.65 1.516-1.03h-1.49s1.381-.811 2.897-1.271h-2.084l5.55-2.437c1.76-.704 3.357-.46 4.277.812 1.272 1.76 2.545 2.653 5.198 3.357 1.624-.704 2.193-1.164 4.277-1.76 1.841-2.084 3.357-2.328 3.357-2.328s-1.028.92-1.164 1.977c1.029-.813 2.193-1.517 2.193-1.517s-.46.569-.812 1.381l.108.108a30 30 0 0 1 2.653-1.272s-.46.46-.92 1.164c.92 0 2.788 0 3.465.108 4.277.109 5.198-4.52 6.822-5.197 2.085-.704 3.005-1.165 6.47 2.328 3.005 3.005 5.334 8.23 4.17 9.367-.92.92-2.897-.352-5.09-3.005q-1.746-2.071-2.437-5.198c-.243-1.76-1.516-2.789-1.516-2.789s.813 1.76.813 3.25c0 .811.108 3.816 1.38 5.549-.108.244-.243 1.272-.352 1.38-1.516-1.84-4.873-3.113-5.333-3.573 1.841 1.516 6.01 4.873 7.634 8.095 1.516 3.113.569 5.901 1.381 6.605.244.244 3.249 3.926 3.817 5.902 1.03 3.357.109 6.822-1.272 8.907l-3.709.568a4.9 4.9 0 0 1-1.38-.46c.243-.46.812-1.624.812-1.84l-.244-.353c-1.164 1.624-3.113 3.249-4.738 4.17-2.084 1.163-4.52 1.028-6.118.46-4.521-1.381-8.799-4.386-9.719-5.198 0 0 0 .568.108.812a35 35 0 0 0 6.254 5.198l-5.333.568 2.545 19.682c-1.165.108-1.273.243-2.545.46-1.029-3.817-3.114-6.254-5.442-7.743-1.976-1.272-4.737-1.624-7.417-1.029l-.109.244c1.841-.244 4.061.108 6.254 1.516 2.193 1.38 3.925 4.981 4.63 7.066.811 2.788 1.38 5.685-.813 8.798-1.624 2.193-6.254 3.466-9.962.813 1.028 1.624 2.328 2.896 4.169 3.113 2.653.352 5.197-.108 7.065-1.841 1.516-1.516 2.329-4.738 2.085-8.23l2.436-.352.813 6.118 39.58-4.737-3.466-31.485-1.976.352L65.73 0 0 7.634 8.095 73.15z" />
          <path d="M47.133 37.55c1.76 1.271 3.248 2.084 4.737 1.975.92-.108 1.841-1.624 2.437-3.005.46-.92.46-1.976-.244-2.328-.352-.108-1.76-.108-2.788 0-1.977.244-3.926.92-4.386 1.273-.677.487-.352 1.624.244 2.084m.46-13.536v.108l.108.244c.46.92.92 1.84 1.841 2.328.244 0 .46-.108.704-.108.812 0 1.272.108 1.624.244v-.704c-.108-1.164.244-3.249-2.084-4.386-.92-.46-2.085-.244-2.545.244h.244c.568.243.243.46.108.703-.108.407-.244.515 0 1.327m-10.423.244c.569-.46-2.653-1.164-5.198.46-1.84 1.272-1.84 3.925-.108 5.441.162.082.325.217.46.352.46-.243 1.164-.46 1.76-.704 1.164-.352 2.084-.568 2.897-.703.351-.46.812-1.165.703-2.437-.162-1.733-1.543-1.38-.514-2.41m18.87 28.102-5.55 9.258-6.47-1.976-5.686 8.69.244 2.789 31.024-5.686-1.84-19.33-5.09 10.64z" />
        </g>
      </g>
    </g>
  </g>
</svg>
