<?xml version="1.0" standalone="no"?>
<svg xmlns="http://www.w3.org/2000/svg" class="icon" viewBox="0 0 54 54">
  <g fill="none" fill-rule="evenodd" stroke="none" stroke-width="1">
    <g>
      <path d="M0 0H54V54H0z" />
      <g fill-rule="nonzero" transform="translate(5)">
        <path fill="#FCFBFB" d="M23.417 53.627c-6.153-1.536-11.63-7.195-16.97-17.5C-1.17 21.412-2.146 7.996 4.097 3.939c2.139-1.32 5.26-1.272 8.024.12 1.535.773 1.97 1.26 2.847 3.164 1.076 2.345 1.496 5.031 1.678 10.711l.167 5.22.862-1.971c.474-1.085 1.431-2.948 2.128-4.166.697-1.203 1.269-2.518 1.269-2.92 0-.401-.304-1.448-.678-2.332-.694-1.645-.805-2.538-.51-4.03.17-.845.171-.847 1.966-.847l1.794-.001 1.12-1.445c1.263-1.634 3.714-3.624 5.828-4.706C31.817.103 32.341 0 34.333 0c2.055 0 2.461.086 3.632.768.722.422 1.253.825 1.182.895s-.832-.077-1.697-.327c-2.152-.625-4.31-.4-6.506.676-5.204 2.554-10.49 12.172-8.43 15.31.28.427.96.809 1.94 1.093 1.595.462 2.365.34 1.034-.165-2.793-1.057-2.215-3.57 1.87-8.141l2.329-2.605-.155-1.49c-.14-1.35-.096-1.523.456-1.818.759-.406 1.998-.177 2.9.538.857.674 3.524.736 5.774.138.82-.22 2.25-.4 3.172-.403 1.578-.003 1.7.042 1.86.673.093.37.1.855.016 1.074s.103.974.415 1.68c.702 1.585.965 5.328.518 7.384-.173.806-.797 2.456-1.388 3.679-1.477 3.03-1.534 3.489-.686 5.49 1.456 3.436 2.519 10.009 2.245 13.823-.081 1.122-.472 3.624-.87 5.545-.76 3.705-.7 5.004.27 5.815.224.185.407.725.407 1.201 0 1.006-.759 1.815-2.141 2.275-1.296.433-4.094.384-5.449-.098-1.618-.57-2.955-.506-4.066.196-.835.527-1.37.606-4.473.665-2.394.045-4.04-.06-5.123-.33zm-4.12-9.521c-2.41-7.06-1.662-14.985 2.193-23.235l1.16-2.478-1.242-1.076-1.087 2.342c-4.418 9.521-5.096 17.907-1.93 24.155.838 1.655 1.597 2.948 1.738 2.948.037 0-.336-1.187-.83-2.637zm20.737-23.668.57-1.42-.124 1.182c-.07.674-.022 1.082.113.947.222-.221 1.618-3.706 1.618-4.057 0-.085-.369.157-.821.535-.838.703-2.342 1.247-3.47 1.25-.57.001-.607.089-.45 1.017.309 1.831.39 1.96 1.209 1.96.683 0 .846-.17 1.347-1.42z" />
        <path fill="#FBFBFB" d="M23.417 53.627c-6.153-1.536-11.63-7.195-16.97-17.5C.62 24.847-1.387 14.407 1.026 7.996 2.76 3.37 7.396 1.775 12.14 4.155c1.534.773 1.97 1.26 2.847 3.165 1.076 2.345 1.496 5.03 1.677 10.71l.168 5.221.862-1.972c.474-1.084 1.431-2.948 2.128-4.165.697-1.204 1.269-2.518 1.269-2.921 0-.4-.304-1.447-.678-2.332-.694-1.644-.805-2.537-.51-4.03.17-.844.171-.847 1.966-.847h1.794l1.12-1.445c1.263-1.634 3.714-3.625 5.828-4.707C31.836.2 32.36.097 34.352.097c2.055 0 2.461.086 3.632.768.722.422 1.253.825 1.182.895s-.832-.077-1.697-.327c-2.152-.625-4.31-.4-6.506.676-5.204 2.553-10.49 12.172-8.43 15.31.28.427.96.808 1.94 1.092 1.595.463 2.365.341 1.034-.164-2.793-1.058-2.215-3.57 1.87-8.142L29.706 7.6l-.155-1.49c-.14-1.35-.096-1.523.456-1.818.759-.405 1.998-.176 2.9.539.857.673 3.524.735 5.774.137.819-.22 2.25-.4 3.172-.403 1.578-.003 1.7.042 1.86.674.093.37.1.855.016 1.074s.103.973.415 1.68c.702 1.584.965 5.328.518 7.384-.173.806-.797 2.456-1.388 3.678-1.477 3.03-1.534 3.49-.686 5.491 1.456 3.435 2.519 10.008 2.245 13.822-.081 1.123-.472 3.625-.87 5.545-.76 3.706-.7 5.004.27 5.816.223.184.407.724.407 1.2 0 1.007-.759 1.816-2.141 2.275-1.296.433-4.094.384-5.449-.097-1.618-.571-2.955-.506-4.066.195-.835.528-1.37.606-4.473.666-2.394.045-4.04-.06-5.123-.33zm-4.12-9.521c-2.41-7.06-1.662-14.985 2.193-23.235l1.16-2.478-1.242-1.076-1.087 2.342c-4.418 9.521-5.096 17.907-1.93 24.155.838 1.655 1.597 2.948 1.738 2.948.037 0-.336-1.187-.83-2.637zm20.737-23.668.57-1.42-.124 1.182c-.07.674-.022 1.082.113.947.222-.221 1.618-3.706 1.618-4.057 0-.085-.369.157-.821.535-.838.703-2.342 1.247-3.47 1.25-.57.001-.607.089-.45 1.017.309 1.831.39 1.96 1.209 1.96.683 0 .846-.17 1.347-1.42z" />
        <path fill="#A08470" d="M23.417 53.627c-3.361-.841-7.346-3.543-10.193-6.924-4.77-5.654-9.867-15.743-11.981-23.641-.76-2.867-.879-3.787-.992-7.763-.115-4.03-.067-4.706.436-6.384.683-2.247 1.44-3.408 2.955-4.57 2.193-1.67 5.449-1.759 8.485-.233 1.534.773 1.97 1.26 2.846 3.165 1.076 2.345 1.496 5.03 1.678 10.71l.167 5.221.863-1.972c.474-1.084 1.43-2.948 2.127-4.165.697-1.204 1.27-2.518 1.27-2.921 0-.4-.304-1.447-.679-2.332-.694-1.644-.805-2.537-.51-4.03.17-.844.172-.847 1.966-.847h1.795l1.12-1.445c1.262-1.634 3.713-3.625 5.827-4.707 1.226-.633 1.749-.735 3.741-.735 2.055 0 2.462.086 3.633.768.721.422 1.252.825 1.182.895s-.832-.077-1.697-.327c-2.153-.625-4.31-.4-6.506.676-5.205 2.553-10.49 12.172-8.43 15.31.279.427.959.808 1.94 1.092 1.594.463 2.364.341 1.033-.164-2.792-1.058-2.215-3.57 1.87-8.142l2.33-2.605-.155-1.49c-.14-1.35-.097-1.523.455-1.818.76-.405 1.998-.176 2.9.539.857.673 3.525.735 5.775.137.818-.22 2.25-.4 3.171-.403 1.578-.003 1.7.042 1.86.674.094.37.101.855.017 1.074s.102.973.415 1.68c.702 1.584.965 5.328.517 7.384-.173.806-.797 2.456-1.388 3.678-1.477 3.03-1.534 3.49-.685 5.491 1.455 3.435 2.518 10.008 2.244 13.822-.08 1.123-.471 3.625-.87 5.545-.759 3.706-.7 5.004.271 5.816.223.184.407.724.407 1.2 0 1.007-.76 1.815-2.142 2.275-1.296.433-4.093.384-5.449-.097-1.618-.571-2.954-.506-4.066.195-.835.528-1.369.606-4.473.666-2.393.045-4.039-.06-5.123-.33zm-4.12-9.521c-2.41-7.06-1.662-14.985 2.193-23.235l1.16-2.478-1.242-1.076-1.087 2.342c-4.418 9.521-5.096 17.907-1.93 24.155.838 1.655 1.597 2.948 1.738 2.948.037 0-.336-1.187-.83-2.637zm20.737-23.668.57-1.42-.124 1.182c-.07.674-.022 1.082.113.947.222-.221 1.618-3.706 1.618-4.057 0-.085-.369.157-.821.535-.838.703-2.342 1.247-3.47 1.25-.57.001-.607.089-.45 1.017.309 1.831.39 1.96 1.209 1.96.683 0 .846-.17 1.347-1.42z" />
        <path fill="#45352F" d="M23.417 53.627c-6.072-1.66-11.63-7.6-16.861-17.987C2.137 26.876.266 19.897.565 13.487c.246-5.248 1.73-8.142 4.852-9.494 1.752-.752 4.256-.652 6.317.252 2.393 1.044 3.253 2.25 4.256 5.923.466 1.723.582 3.165.696 8.44l.138 6.356.466-1.352c.512-1.483 2.412-5.356 3.388-6.87.914-1.445.99-2.868.238-4.49-.401-.861-.632-1.862-.632-2.76-.004-2.175.067-2.25 2.128-2.27l1.8-.015 1.02-1.336c1.252-1.639 3.605-3.516 5.746-4.598 1.37-.687 1.903-.803 3.66-.793 1.678.01 2.282.138 3.28.693.672.373.976.603.678.508-3.85-1.211-7.238-.31-10.518 2.813-4.066 3.841-6.831 10.387-5.476 12.957q.777 1.5-.35.292l-.531-.57-.529 1.043c-1.182 2.332-3.063 7.439-3.768 10.252-.645 2.575-.745 3.516-.742 6.897.005 3.516.08 4.139.729 6.086.87 2.608 3.063 6.302 4.147 6.952.155.093-.016-.947-.38-2.313-.785-2.948-.964-8.007-.343-9.765l.37-1.05.836 1.456c1.428 2.494 5.557 6.167 7.455 6.654 1.415.354 1.382-1.49-.1-5.464-1.28-3.435-1.535-4.733-1.546-7.98-.01-3.218.393-4.679 2.234-8.006 1.258-2.285 1.347-3.273.545-5.815-.296-.944-.54-1.872-.542-2.061-.002-.19.637.13 1.42.714 2 1.493 4.636 2.759 6.127 2.921 1.106.13 1.388.056 2.13-.568.925-.776 1.971-3.165 1.971-4.49 0-.44.117-.8.259-.8.352 0 .634 1.644.51 2.948l-.104 1.079.751-.72c.415-.394.998-1.336 1.301-2.088L45 11.687l-.09 2.307c-.08 2.088-.21 2.564-1.36 5.03-.779 1.662-1.272 3.085-1.272 3.68 0 .538.366 1.89.813 3.002 1.906 4.76 2.413 12.09 1.22 17.609-.903 4.165-.892 5.545.044 6.654.591.7.678.982.474 1.547-.376 1.058-1.455 1.696-3.442 2.034-1.63.279-1.99.25-3.66-.287-2.356-.757-2.9-.746-4.446.081-1.181.628-1.528.674-4.879.652-2.114-.014-4.148-.176-4.934-.39zM39.574 21.98c.233-.186.566-.582.742-.88.301-.513.31-.51.151.069-.25.908.331.74.84-.247.627-1.21 1.497-3.814 1.332-3.977-.077-.076-.475.18-.881.568-.911.866-1.96 1.283-3.226 1.283h-.965l.129 1.344c.187 1.937.895 2.624 1.887 1.834zm-.456-12.199c-2.738-1.285-3.388-3.084-1.49-4.003 1.238-.603 4.553-1.166 5.502-.928.65.163.74.314.74 1.271 0 1.861-1.68 4.328-2.955 4.301-.24-.001-1.049-.29-1.794-.641zm-9.244-1.588c.32-.492.34-.822.092-1.736-.567-2.097.737-2.562 3.415-1.217l1.521.765-1.431.449c-.786.248-1.93.876-2.54 1.398-1.285 1.099-1.61 1.204-1.05.341z" />
      </g>
    </g>
  </g>
</svg>
