<?xml version="1.0" standalone="no"?>
<svg xmlns="http://www.w3.org/2000/svg" class="icon" viewBox="0 0 54 54">
  <g fill="none" fill-rule="evenodd" stroke="none" stroke-width="1">
    <g>
      <path d="M0 0H54V54H0z" />
      <path fill="#FF694A" fill-rule="nonzero" d="M51.705 2.246c1.27 1.22 2.1 2.832 2.295 4.59 0 .732-.195 1.22-.635 2.148-.44.927-5.859 10.302-7.47 12.89a9.84 9.84 0 0 0-1.416 5.077 9.7 9.7 0 0 0 1.416 5.078c1.611 2.588 7.03 12.01 7.47 12.938s.635 1.368.635 2.1c-.195 1.758-.977 3.369-2.246 4.54-1.22 1.27-2.832 2.1-4.54 2.247-.733 0-1.221-.196-2.1-.635-.879-.44-10.449-5.713-13.036-7.324-.196-.098-.39-.244-.635-.342l-12.792-7.567c.293 2.44 1.367 4.784 3.125 6.493.342.342.683.635 1.074.928-.293.146-.635.293-.928.488-2.587 1.611-12.01 7.03-12.938 7.47S7.617 54 6.835 54c-1.757-.195-3.368-.977-4.54-2.246-1.27-1.22-2.1-2.832-2.295-4.59.049-.732.244-1.464.635-2.099.44-.928 5.859-10.35 7.47-12.938a9.7 9.7 0 0 0 1.416-5.078 9.7 9.7 0 0 0-1.416-5.078C6.494 19.286 1.025 9.863.635 8.935.245 8.3.049 7.568 0 6.835a7.47 7.47 0 0 1 2.246-4.59A7.47 7.47 0 0 1 6.836 0a4.96 4.96 0 0 1 2.148.635c.78.341 7.665 4.345 11.327 6.493l.83.489q.44.292.732.44l.391.243L35.3 16.014c-.293-2.929-1.806-5.614-4.15-7.42.293-.147.635-.294.928-.49 2.587-1.61 12.01-7.079 12.938-7.47.635-.39 1.367-.585 2.149-.634a7.47 7.47 0 0 1 4.54 2.246m-24.021 28.22 2.783-2.782a.944.944 0 0 0 0-1.368l-2.783-2.783a.944.944 0 0 0-1.368 0l-2.783 2.783a.944.944 0 0 0 0 1.368l2.783 2.783c.342.341.977.341 1.368 0" />
    </g>
  </g>
</svg>
