<?xml version="1.0" standalone="no"?>
<svg xmlns="http://www.w3.org/2000/svg" class="icon" viewBox="0 0 1024 1024">
  <g fill="none" fill-rule="evenodd" stroke="none" stroke-width="1">
    <path d="M0 0H1024V1024H0z" />
    <path fill="#0AC185" d="m833.228 653.277 73.646 40.413c22.116 12.137 22.146 43.9.053 56.08L542.895 950.422a64 64 0 0 1-61.79 0L117.074 749.77c-22.093-12.179-22.063-43.942.053-56.079l73.645-40.413L464.195 803.99A99.296 99.296 0 0 0 512 816.291a99.284 99.284 0 0 0 47.806-12.303z" />
    <path fill="#006AFF" d="m190.772 443.086 273.423 150.712A99.29 99.29 0 0 0 512 606.1a99.302 99.302 0 0 0 47.804-12.301l273.424-150.712 73.646 40.412c22.116 12.137 22.146 43.9.053 56.08L542.895 740.231a64 64 0 0 1-61.79 0L117.074 539.578c-22.093-12.179-22.063-43.942.053-56.079zM542.789 283.71l224 122.92-237.878 131.119A35.016 35.016 0 0 1 512 542.1a35.016 35.016 0 0 1-16.911-4.351l-237.88-131.12L481.213 283.71a63.995 63.995 0 0 1 61.577 0" />
    <path fill="#006AFF" d="M481.106 530.04 117.074 329.388c-22.094-12.18-22.064-43.942.052-56.08L481.213 73.52a63.995 63.995 0 0 1 61.577 0l364.085 199.789c22.116 12.137 22.146 43.9.053 56.079L542.895 530.04a64 64 0 0 1-61.79 0" />
  </g>
</svg>
