<?xml version="1.0" standalone="no"?>
<svg xmlns="http://www.w3.org/2000/svg" class="icon" viewBox="0 0 54 54">
  <g fill="none" fill-rule="evenodd" stroke="none" stroke-width="1">
    <g>
      <path d="M0 0H54V54H0z" />
      <g fill-rule="nonzero" transform="translate(0 3)">
        <path fill="#85CDF0" d="M36.676 26.107H17.817c-2.557 0-4.653 2.236-4.653 4.967 0 1.034.298 1.994.81 2.791q.552-.137 1.079-.387l.031-.016.032-.012c1.201-.486 2.61-1.585 3.45-2.24.208-.16.387-.3.525-.403.135-.101.282-.22.439-.347.728-.592 1.729-1.398 3.131-1.59a6 6 0 0 1 .813-.057c1.245 0 2.312.412 3.055 1.162.22-.123.449-.258.662-.381.327-.189.634-.369.904-.517.282-.15.609-.233.944-.233.79 0 1.497.426 1.848 1.11.23.446.496 1.4-.301 2.733-.154.255-.317.542-.49.844a34 34 0 0 1-1.534 2.508h8.11c2.557 0 4.653-2.237 4.653-4.968 0-2.728-2.092-4.964-4.65-4.964" />
        <path fill="#0097E0" d="M6.965 19.319h1.189c.68 0 1.189-.545 1.189-1.27 0-.724-.508-1.27-1.189-1.27h-1.19c-2.547 0-4.586-2.176-4.586-4.9 0-2.662 1.948-4.801 4.417-4.896v2.719l3.398-3.629-3.398-3.811v2.183C3.131 4.542 0 7.77 0 11.882c-.003 4.17 3.056 7.437 6.965 7.437M47.035 17.142h-1.189c-.68 0-1.189.545-1.189 1.27 0 .724.508 1.269 1.189 1.269h1.19c2.547 0 4.586 2.177 4.586 4.901 0 2.662-1.948 4.8-4.417 4.895V26.76l-3.398 3.629 3.398 3.811v-2.183C50.869 31.92 54 28.69 54 24.58c.003-4.17-3.056-7.437-6.965-7.437" />
        <path fill="#85CDF0" d="M36.676 13.053H17.817c-2.557 0-4.653 2.237-4.653 4.968s2.093 4.967 4.653 4.967h18.859c2.557 0 4.652-2.236 4.652-4.967s-2.095-4.968-4.652-4.968M36.676 0H17.817c-2.557 0-4.653 2.236-4.653 4.968 0 2.73 2.093 4.967 4.653 4.967h18.859c2.557 0 4.652-2.236 4.652-4.967C41.325 2.236 39.233 0 36.676 0" />
        <path fill="#0097E0" d="M23.95 43.082c.283 1.701-.498 1.235-1.098.82-.382-.272-1.424-.895-2.12-1.305a20 20 0 0 0 2.513-1.673c.323.678.586 1.408.705 2.158m-1.38-10.15c-.138 0-.25.12-.25.269 0 .148.112.267.25.267s.251-.12.251-.267-.113-.268-.25-.268m7.062-.897c-1.023 1.698-2.155 4.237-5.61 7.444-.79.72-2.315 1.902-3.912 2.721a8.7 8.7 0 0 1-1.942.709c.433-.778.735-1.569.85-2.328l-.37-.063c-.844 2.948-2.92 5.412-5.534 6.325-1.547.542-1.249-.434-.96-1.194.22-.563.838-3.061 1.133-4.284l-.468-.122s-.044.22-.128.56c-.063.274-.148.624-.236 1.005-1.493-.457-2.924-1.298-4.075-2.668-1.647-1.972-2.381-4-2.664-7.443-.078-.926-.96-1.761-1.98-2.968-1.185-1.408-1.173-3.48-.508-3.628.537-.114 3.003 1.153 3.935 1.789.938-.81 2.462-1.994 2.917-1.629.342.278.465 1.55-.455 3.481-1.873 3.937.71 5.112 1.306 5.27 1.132.3 2.773.44 4.586-.425 1.647-.668 3.502-2.253 4.223-2.785.806-.602 1.7-1.543 3.062-1.726 1.572-.211 2.843.309 3.404 1.42.697-.314 1.713-.963 2.403-1.332.644-.346 2.037.18 1.023 1.871m-6.582 1.392c0-.396-.301-.718-.671-.718s-.675.322-.675.718c0 .397.301.719.675.719.373 0 .671-.318.671-.719" />
      </g>
    </g>
  </g>
</svg>
