<?xml version="1.0" standalone="no"?>
<svg xmlns="http://www.w3.org/2000/svg" xmlns:xlink="http://www.w3.org/1999/xlink" class="icon" viewBox="0 0 1024 1024">
  <defs>
    <path id="a" d="M-1.0658141e-14 0 620.654 0 620.654 686.8285-1.0658141e-14 686.8285z" />
    <path id="c" d="M0 0 541.654 0 541.654 577.9965 0 577.9965z" />
  </defs>
  <g fill="none" fill-rule="evenodd" stroke="none" stroke-width="1">
    <path d="M0 0H1024V1024H0z" />
    <g transform="translate(64 68.293) translate(0 200.585)">
      <mask id="b" fill="#fff"><use xlink:href="#a" /></mask>
      <path fill="#006AFF" d="M18.127 78.424 303.893.858a24.553 24.553 0 0 1 12.868 0l285.766 77.566a24.56 24.56 0 0 1 18.127 23.704v240.885c0 194.768-124.989 282.247-310.282 343.816C125.029 625.261 0 537.743 0 342.927V102.128a24.56 24.56 0 0 1 18.127-23.704" />
    </g>
    <g transform="translate(64 68.293) translate(354.345)">
      <mask id="d" fill="#fff"><use xlink:href="#c" /></mask>
      <path fill="#0AC185" d="M525.834 68.442 276.442.749a21.435 21.435 0 0 0-11.23 0L15.82 68.442A21.436 21.436 0 0 0 0 89.129v56.276l330.309 90.879V543.598a481.4 481.4 0 0 1-1.235 34.399c129.128-52.931 212.58-129.971 212.58-278.645V89.128a21.436 21.436 0 0 0-15.82-20.687" />
    </g>
    <path fill="#FFF" d="m260.019 633.714-85.842-85.842a8 8 0 0 1 0-11.313l33.94-33.942a7.999 7.999 0 0 1 11.315 0l63.214 63.215 118.576-118.577a8 8 0 0 1 11.314 0l33.94 33.942a8 8 0 0 1 0 11.314L305.275 633.714c-12.497 12.497-32.758 12.497-45.255 0" transform="translate(64 68.293)" />
  </g>
</svg>
