<svg viewBox="0 0 1024 1024" fill="none" xmlns="http://www.w3.org/2000/svg"><g transform="scale(64)">
<rect opacity="0.01" width="16" height="16" fill="black"/>
<path d="M10.1456 5.8456L10.5556 5.8526L11.6696 4.7386L11.7236 4.2666C10.84 3.4794 9.67344 3 8.39864 3C6.09064 3 4.14264 4.5704 3.56604 6.6976C3.68764 6.6128 3.94764 6.6764 3.94764 6.6764L6.17364 6.3104C6.17364 6.3104 6.28804 6.121 6.34604 6.1304C6.87236 5.55216 7.61814 5.2227 8.40004 5.223C9.06004 5.2244 9.66804 5.4576 10.1456 5.8434V5.8456Z" fill="#EA4335"/>
<path d="M13.234 6.702C12.9754 5.748 12.4424 4.9056 11.723 4.2666L10.1456 5.844C10.7776 6.354 11.183 7.1344 11.183 8.008V8.2864C11.9504 8.2864 12.5738 8.9112 12.5738 9.6772C12.5738 10.4446 11.949 11.068 11.183 11.068H8.40145L8.12305 11.348V13.0172L8.40145 13.2942H11.183C13.1794 13.2914 14.7972 11.6738 14.8 9.6774C14.7986 8.4464 14.18 7.3574 13.234 6.7022V6.702Z" fill="#4285F4"/>
<path d="M5.61704 13.296H8.39704V11.068H5.61704C5.41953 11.068 5.22432 11.0256 5.04464 10.9436L4.64324 11.0666L3.52924 12.1806L3.43164 12.5566C4.05942 13.0355 4.82724 13.2948 5.61684 13.2944L5.61704 13.296Z" fill="#34A853"/>
<path d="M5.617 6.06201C3.62061 6.06477 2.00286 7.68242 2 9.67881C2 10.8534 2.5626 11.8978 3.4332 12.5594L5.046 10.9466C4.54739 10.7218 4.22665 10.2258 4.2262 9.67881C4.2262 8.91141 4.851 8.28801 5.617 8.28801C6.181 8.28801 6.6658 8.62801 6.885 9.10801L8.4978 7.49521C7.8364 6.62461 6.7918 6.06201 5.6172 6.06201L5.617 6.06201Z" fill="#FBBC05"/>
</g></svg>
