<?xml version="1.0" standalone="no"?>
<svg xmlns="http://www.w3.org/2000/svg" class="icon" viewBox="0 0 1024 1024">
  <g fill="none" fill-rule="evenodd" stroke="none" stroke-width="1">
    <path d="M0 0H1024V1024H0z" />
    <path fill="#006AFF" d="m369.335 543.604 285.324.207c-5.965 195.118-66.305 348.92-140.292 352.138L512 896l-2.367-.051c-74.013-3.22-134.37-157.129-140.298-352.345m-240.067-.175 176.039.128c2.811 98.295 18.72 190.468 45.507 262.327 9.589 25.723 20.431 48.453 32.41 67.98l-3.961-1.424C242 821.874 141.583 695.138 129.273 543.494zm589.416.428 176.003.128C882.2 695.412 781.852 821.928 644.737 872.44l-3.961 1.424c11.979-19.527 22.821-42.257 32.41-67.98 26.76-71.785 42.663-163.845 45.498-262.027m-77.908-393.72 3.961 1.423c137.104 50.508 237.447 177.008 249.947 328.419l-176.008-.126c-2.858-98.073-18.757-190.022-45.49-261.736-9.589-25.724-20.432-48.454-32.41-67.98M512 128l2.367.051c73.938 3.216 134.248 156.819 140.28 351.755l-285.288-.208c6.068-194.837 66.362-348.332 140.274-351.547zm-128.776 22.136c-11.978 19.527-22.821 42.257-32.41 67.981-26.706 71.641-42.6 163.476-45.481 261.437l-175.97-.129c12.697-151.166 112.963-277.42 249.9-327.865Z" />
    <path
      fill="#0AC185"
      d="m718.685 543.856 175.991.126-.076 1.04c-.093 1.092-.191 2.182-.293 3.271l.293-3.27a385.87 385.87 0 0 1-.548 5.901l.255-2.63a385.4 385.4 0 0 1-.618 6.073l.363-3.443c-.2 1.986-.415 3.968-.646 5.946l.283-2.503a384.653 384.653 0 0 1-.701 5.96l.418-3.457c-.232 1.992-.479 3.98-.741 5.964l.323-2.507a384 384 0 0 1-.785 5.884l.462-3.377a383.744 383.744 0 0 1-.834 5.95l.372-2.573a383.405 383.405 0 0 1-.88 5.892l.508-3.32a383.18 383.18 0 0 1-.915 5.86l.407-2.54a382.871 382.871 0 0 1-2.94 16.379l.463-2.332a381.917 381.917 0 0 1-1.167 5.73l.704-3.398a381.814 381.814 0 0 1-1.264 6.004l.56-2.605a381.62 381.62 0 0 1-1.27 5.784l.71-3.18c-.42 1.921-.855 3.837-1.304 5.746l.594-2.566a381.399 381.399 0 0 1-1.345 5.7l.751-3.134c-.453 1.927-.92 3.847-1.402 5.762l.65-2.627c-.458 1.88-.931 3.755-1.418 5.625l.768-2.998a381.13 381.13 0 0 1-1.487 5.723l.72-2.725c-.496 1.903-1.006 3.8-1.53 5.692l.81-2.967c-.5 1.863-1.013 3.72-1.54 5.573l.73-2.606c-.523 1.89-1.06 3.775-1.612 5.654l.882-3.048a380.978 380.978 0 0 1-1.632 5.576l.75-2.528a380.943 380.943 0 0 1-1.691 5.603l.94-3.075a380.947 380.947 0 0 1-1.728 5.585l.788-2.51c-.575 1.853-1.164 3.7-1.766 5.541l.978-3.031a380.977 380.977 0 0 1-1.8 5.52l.822-2.489a380.977 380.977 0 0 1-1.913 5.695l1.09-3.206a381.026 381.026 0 0 1-1.872 5.457l.782-2.25a381.053 381.053 0 0 1-2.236 6.307l1.454-4.057a381.094 381.094 0 0 1-1.948 5.407l.494-1.35a381.182 381.182 0 0 1-2.497 6.66l2.003-5.31a381.248 381.248 0 0 1-2.966 7.782l.963-2.473a381.335 381.335 0 0 1-2.112 5.355l1.15-2.882a381.424 381.424 0 0 1-2.176 5.402l1.026-2.52a381.496 381.496 0 0 1-2.197 5.332l1.171-2.812a381.591 381.591 0 0 1-2.25 5.352l1.079-2.54a381.68 381.68 0 0 1-2.272 5.288l1.194-2.748a381.805 381.805 0 0 1-2.34 5.335l1.146-2.587a381.893 381.893 0 0 1-2.308 5.157l1.163-2.57a382.004 382.004 0 0 1-2.43 5.32l1.267-2.75a382.105 382.105 0 0 1-2.416 5.19l1.148-2.44c-.794 1.705-1.6 3.403-2.419 5.093l1.27-2.654a382.345 382.345 0 0 1-2.52 5.207l1.25-2.553a382.466 382.466 0 0 1-2.54 5.15l1.29-2.597a382.586 382.586 0 0 1-2.573 5.12l1.282-2.524a382.725 382.725 0 0 1-2.578 5.035l1.296-2.511a382.816 382.816 0 0 1-2.643 5.068l1.347-2.557a382.98 382.98 0 0 1-2.718 5.116l1.37-2.56a383.076 383.076 0 0 1-2.62 4.85l1.25-2.29a383.23 383.23 0 0 1-2.751 4.999l1.501-2.71a383.334 383.334 0 0 1-10.028 17.173l1.233-2a384.14 384.14 0 0 1-2.89 4.657l1.657-2.657c-.99 1.6-1.992 3.19-3.005 4.774l1.347-2.117a384.377 384.377 0 0 1-3.097 4.831l1.75-2.714a384.448 384.448 0 0 1-3.088 4.75l1.338-2.036a384.626 384.626 0 0 1-3.112 4.7l1.774-2.665a384.695 384.695 0 0 1-3.145 4.685l1.371-2.02a384.86 384.86 0 0 1-3.146 4.604l1.775-2.584a384.933 384.933 0 0 1-3.272 4.721l1.497-2.137a385.056 385.056 0 0 1-3.256 4.62l1.76-2.483a385.144 385.144 0 0 1-3.255 4.552l1.495-2.069c-1.11 1.55-2.23 3.091-3.363 4.624l1.868-2.555a385.342 385.342 0 0 1-3.312 4.492l1.444-1.937a385.47 385.47 0 0 1-3.4 4.533l1.956-2.596a385.527 385.527 0 0 1-3.406 4.483l1.45-1.887a385.643 385.643 0 0 1-3.439 4.448l1.99-2.561a385.688 385.688 0 0 1-3.46 4.418l1.47-1.857a385.798 385.798 0 0 1-3.539 4.441l2.068-2.584a385.85 385.85 0 0 1-16.489 19.395l1.073-1.18c-1.18 1.31-2.37 2.611-3.568 3.905l2.495-2.725a386.338 386.338 0 0 1-3.809 4.13l1.314-1.405a386.356 386.356 0 0 1-3.86 4.107l2.546-2.701a386.375 386.375 0 0 1-3.822 4.027l1.276-1.326a386.398 386.398 0 0 1-3.843 3.971l2.567-2.645c-1.31 1.36-2.63 2.71-3.959 4.051l1.392-1.406a386.418 386.418 0 0 1-3.872 3.89l2.48-2.484a386.401 386.401 0 0 1-4.026 4.002l1.546-1.517a386.411 386.411 0 0 1-4.026 3.93l2.48-2.413a386.391 386.391 0 0 1-3.967 3.83l1.487-1.418a386.382 386.382 0 0 1-4.11 3.897l2.623-2.48a386.36 386.36 0 0 1-4.032 3.783l1.408-1.303a386.328 386.328 0 0 1-4.143 3.814l2.735-2.511a386.295 386.295 0 0 1-3.989 3.637l1.254-1.126a386.252 386.252 0 0 1-4.194 3.75l2.94-2.624a386.239 386.239 0 0 1-19.797 16.639l.462-.358a385.69 385.69 0 0 1-3.863 3.002l3.4-2.644a385.645 385.645 0 0 1-4.456 3.445l1.056-.8a385.5 385.5 0 0 1-4.34 3.28l3.284-2.48a385.467 385.467 0 0 1-4.465 3.349l1.18-.869a385.333 385.333 0 0 1-4.39 3.222l3.21-2.353a385.263 385.263 0 0 1-4.564 3.32l1.353-.967c-1.48 1.07-2.968 2.13-4.464 3.18l3.111-2.213c-1.536 1.1-3.08 2.19-4.633 3.268l1.522-1.055a384.91 384.91 0 0 1-4.656 3.215l3.134-2.16a384.854 384.854 0 0 1-4.507 3.083l1.373-.923a384.684 384.684 0 0 1-4.69 3.138l3.317-2.215a384.625 384.625 0 0 1-4.61 3.057l1.294-.842a384.45 384.45 0 0 1-4.7 3.046l3.406-2.204c-1.51.985-3.026 1.96-4.55 2.924l1.145-.72a384.225 384.225 0 0 1-4.863 3.051l3.718-2.33a384.17 384.17 0 0 1-27.531 15.868l.409-.206c-1.509.79-3.023 1.571-4.544 2.342l4.135-2.136a382.752 382.752 0 0 1-5.04 2.586l.905-.45c-1.617.82-3.242 1.63-4.873 2.427l3.968-1.977c-1.68.846-3.366 1.68-5.059 2.502l1.091-.525c-1.65.808-3.307 1.604-4.97 2.388l3.879-1.863a382.273 382.273 0 0 1-5.07 2.414l1.191-.55c-1.699.8-3.404 1.59-5.116 2.366l3.926-1.816a382.04 382.04 0 0 1-5.075 2.327l1.149-.511c-1.697.77-3.4 1.527-5.11 2.273l3.96-1.762a381.841 381.841 0 0 1-5.136 2.265l1.176-.503c-1.731.755-3.47 1.498-5.215 2.228l4.039-1.725a381.647 381.647 0 0 1-4.964 2.103l.925-.378a381.5 381.5 0 0 1-5.32 2.18l4.395-1.802a381.5 381.5 0 0 1-18.432 7.103c11.972-19.532 22.813-42.26 32.401-67.979 26.76-71.786 42.663-163.846 45.499-262.028M383.22 150.14c-11.977 19.526-22.819 42.255-32.407 67.976-26.706 71.641-42.6 163.476-45.481 261.437l-175.961-.127.031-.491c.102-1.195.21-2.388.322-3.58l-.321 3.58c.174-2.046.365-4.089.571-6.126l-.25 2.546c.19-1.999.394-3.993.614-5.982l-.364 3.436c.203-1.997.42-3.988.653-5.975l-.29 2.54c.223-2.013.46-4.02.714-6.022l-.424 3.482c.237-2.018.489-4.031.756-6.04l-.332 2.558c.25-1.98.516-3.956.796-5.927l-.464 3.37c.264-1.981.543-3.957.837-5.928l-.373 2.558c.282-1.98.578-3.954.89-5.923l-.517 3.365c.298-2 .612-3.995.941-5.985l-.424 2.62c.313-1.977.64-3.948.983-5.914l-.559 3.294c.322-1.948.66-3.892 1.01-5.83l-.45 2.536c.357-2.052.731-4.099 1.122-6.14l-.671 3.604c.352-1.945.72-3.885 1.101-5.82l-.43 2.216c.38-1.989.776-3.972 1.186-5.95l-.756 3.735a381.911 381.911 0 0 1 4.213-18.829l-.355 1.429c.464-1.884.942-3.762 1.434-5.634l-1.079 4.205c.55-2.2 1.12-4.392 1.71-6.577l-.631 2.372c.5-1.905 1.014-3.804 1.543-5.697l-.912 3.325a381.033 381.033 0 0 1 1.583-5.697l-.671 2.372c.528-1.89 1.07-3.774 1.625-5.651l-.954 3.279a380.966 380.966 0 0 1 1.682-5.708l-.728 2.429c.556-1.88 1.126-3.753 1.71-5.62l-.982 3.19c.57-1.878 1.153-3.752 1.75-5.618l-.768 2.428a380.943 380.943 0 0 1 1.79-5.569l-1.021 3.14c.603-1.884 1.22-3.762 1.852-5.633l-.832 2.493a380.98 380.98 0 0 1 1.868-5.523l-1.036 3.03c.62-1.84 1.255-3.674 1.903-5.501l-.867 2.47a381.059 381.059 0 0 1 1.981-5.572l-1.114 3.102a381.103 381.103 0 0 1 1.98-5.456l-.866 2.354a381.17 381.17 0 0 1 2.035-5.454l-1.169 3.1a381.221 381.221 0 0 1 2.089-5.488l-.92 2.388c.692-1.815 1.399-3.624 2.118-5.426l-1.198 3.038a381.382 381.382 0 0 1 2.157-5.418l-.959 2.38c.721-1.806 1.455-3.605 2.203-5.397l-1.244 3.017c.73-1.791 1.472-3.575 2.227-5.353l-.983 2.336a381.633 381.633 0 0 1 2.34-5.491l-1.357 3.155c.756-1.779 1.524-3.55 2.306-5.315l-.948 2.16c.762-1.75 1.537-3.493 2.324-5.23l-1.376 3.07a381.95 381.95 0 0 1 2.41-5.33l-1.034 2.26a382.078 382.078 0 0 1 5.995-12.601l-2.074 4.226c.97-2.01 1.958-4.01 2.963-6l-.889 1.774c.85-1.705 1.711-3.402 2.585-5.091l-1.696 3.318a382.77 382.77 0 0 1 2.96-5.745l-1.264 2.427a382.899 382.899 0 0 1 2.662-5.056l-1.397 2.63c.933-1.775 1.88-3.54 2.84-5.298l-1.443 2.668c.9-1.677 1.81-3.346 2.733-5.007l-1.29 2.34c.9-1.647 1.81-3.287 2.734-4.919l-1.444 2.579c.944-1.7 1.9-3.392 2.87-5.076l-1.426 2.497c.945-1.67 1.902-3.333 2.87-4.988l-1.444 2.491a383.68 383.68 0 0 1 2.86-4.886l-1.415 2.395c.974-1.664 1.96-3.32 2.96-4.968l-1.545 2.573a383.939 383.939 0 0 1 2.98-4.92l-1.436 2.347c.994-1.64 2-3.27 3.016-4.894l-1.58 2.547a384.184 384.184 0 0 1 3.02-4.825l-1.44 2.278a384.338 384.338 0 0 1 3.055-4.796l-1.615 2.518a384.438 384.438 0 0 1 3.136-4.846l-1.521 2.328a384.586 384.586 0 0 1 3.174-4.823l-1.653 2.495a384.66 384.66 0 0 1 3.126-4.678l-1.473 2.183a384.799 384.799 0 0 1 3.194-4.698l-1.72 2.515a384.892 384.892 0 0 1 3.328-4.824l-1.608 2.309a385.02 385.02 0 0 1 3.281-4.678l-1.673 2.37a385.108 385.108 0 0 1 3.213-4.512l-1.54 2.142a385.235 385.235 0 0 1 3.382-4.67l-1.842 2.528c1.109-1.534 2.23-3.06 3.361-4.577l-1.52 2.048a385.434 385.434 0 0 1 3.39-4.538l-1.87 2.49a385.51 385.51 0 0 1 12.38-15.733l-1.609 1.95c1.233-1.506 2.476-3.001 3.73-4.487l-2.12 2.537c1.2-1.447 2.412-2.884 3.633-4.313l-1.512 1.776a386.122 386.122 0 0 1 3.77-4.398l-2.258 2.622a386.155 386.155 0 0 1 3.71-4.276l-1.451 1.654a386.21 386.21 0 0 1 3.734-4.228l-2.283 2.574a386.26 386.26 0 0 1 3.792-4.244l-1.509 1.67c1.25-1.395 2.511-2.78 3.782-4.157l-2.273 2.487a386.306 386.306 0 0 1 3.844-4.176l-1.571 1.689a386.37 386.37 0 0 1 3.941-4.207l-2.37 2.518c1.27-1.36 2.55-2.71 3.84-4.051l-1.47 1.533a386.391 386.391 0 0 1 3.948-4.09l-2.477 2.557a386.403 386.403 0 0 1 3.965-4.064l-1.488 1.506a386.412 386.412 0 0 1 3.974-3.998l-2.486 2.492a386.405 386.405 0 0 1 4.021-4.001l-1.535 1.51c1.341-1.331 2.693-2.651 4.054-3.962l-2.519 2.452a386.389 386.389 0 0 1 4.073-3.936l-1.554 1.484a386.38 386.38 0 0 1 4.084-3.876l-2.53 2.392a386.369 386.369 0 0 1 4.149-3.893l-1.619 1.5a386.33 386.33 0 0 1 4.197-3.867l-2.578 2.367a386.285 386.285 0 0 1 4.035-3.678l-1.457 1.311a386.258 386.258 0 0 1 4.268-3.817l-2.811 2.506a386.223 386.223 0 0 1 3.938-3.49l-1.127.984a386.164 386.164 0 0 1 4.297-3.73l-3.17 2.746a386.156 386.156 0 0 1 20.457-16.688l-.736.556a385.497 385.497 0 0 1 4.159-3.133l-3.423 2.577a385.44 385.44 0 0 1 4.549-3.405l-1.126.828a385.307 385.307 0 0 1 4.43-3.243l-3.304 2.415c1.52-1.12 3.048-2.23 4.585-3.328l-1.28.913a385.113 385.113 0 0 1 4.456-3.165l-3.176 2.252a385.064 385.064 0 0 1 4.695-3.304l-1.52 1.052a384.896 384.896 0 0 1 4.71-3.244l-3.19 2.192c1.525-1.056 3.058-2.1 4.599-3.135l-1.408.943a384.68 384.68 0 0 1 4.683-3.124l-3.275 2.18c1.58-1.06 3.168-2.109 4.764-3.146l-1.489.966a384.447 384.447 0 0 1 4.77-3.082l-3.281 2.116a384.36 384.36 0 0 1 4.723-3.022l-1.441.906a384.195 384.195 0 0 1 4.805-3.005l-3.364 2.1c1.588-1 3.184-1.989 4.788-2.966l-1.424.866c1.621-.997 3.25-1.983 4.887-2.956l-3.463 2.09a383.877 383.877 0 0 1 4.742-2.841l-1.279.75a383.672 383.672 0 0 1 4.933-2.884l-3.654 2.134c1.56-.92 3.126-1.829 4.7-2.727l-1.046.593a383.415 383.415 0 0 1 4.95-2.797l-3.904 2.204a383.383 383.383 0 0 1 34.021-17.227l-.69.301a381.803 381.803 0 0 1 4.889-2.147l-4.199 1.846c1.75-.779 3.506-1.545 5.27-2.298l-1.071.452a381.627 381.627 0 0 1 5.054-2.135l-3.984 1.683a381.605 381.605 0 0 1 5.318-2.225l-1.334.542a381.455 381.455 0 0 1 5.261-2.132l-3.927 1.59c1.76-.72 3.525-1.428 5.297-2.123l-1.37.533c1.79-.71 3.587-1.407 5.39-2.09l-4.02 1.557a381.273 381.273 0 0 1 5.263-2.02l-1.242.463c1.782-.676 3.57-1.34 5.365-1.989l-4.123 1.527c1.787-.67 3.58-1.328 5.38-1.973Z"
    />
  </g>
</svg>
