<svg width="16" height="16" viewBox="0 0 16 16" fill="none" xmlns="http://www.w3.org/2000/svg">
<path fill-rule="evenodd" clip-rule="evenodd" d="M11.4476 6.49323C12.2709 6.49323 13.0427 6.85342 13.5573 7.41944C14.6893 8.55148 14.6893 10.4554 13.5058 11.5874C12.9398 12.102 12.2709 12.3593 11.6019 12.4107C11.2932 12.4622 10.9845 12.4622 10.5728 12.4622H4.96405C4.70677 12.4622 4.39803 12.4622 4.14075 12.4107C4.14075 12.4107 8.566 8.08837 8.77183 7.88255C8.93333 7.68875 9.1151 7.5355 9.27897 7.39734C9.37616 7.31541 9.46705 7.23878 9.54367 7.16216C10.1097 6.75051 10.7272 6.49323 11.4476 6.49323ZM11.3446 11.2787C12.065 11.2787 12.4767 10.9699 12.6825 10.7641C13.4029 10.0952 13.4029 8.91168 12.6825 8.24274C12.3223 7.93401 11.9107 7.72818 11.3961 7.72818C11.0359 7.72818 10.6243 7.77964 10.1097 8.24274C9.85241 8.44857 9.59513 8.70585 9.49222 8.80876C9.44076 8.86022 9.13202 9.1561 8.6689 9.59992C8.20579 10.0437 7.58832 10.6355 6.91939 11.2787H10.5213H11.3446Z" fill="#00A3FF"/>
<path d="M6.35337 7.1107C5.78735 6.69905 5.22133 6.49323 4.5524 6.49323C3.72909 6.49323 2.95725 6.85342 2.44268 7.41944C1.31064 8.60294 1.31064 10.4554 2.49414 11.6389C3.0087 12.102 3.52327 12.3593 4.14074 12.4107L5.32424 11.2787C5.11842 11.2787 4.86113 11.2787 4.65531 11.2787C3.98637 11.2272 3.57472 11.0214 3.31744 10.7641C2.59705 10.0437 2.59705 8.91168 3.26598 8.19129C3.62618 7.83109 4.03783 7.67672 4.5524 7.67672C4.86113 7.67672 5.32424 7.72818 5.78735 8.19129C5.99318 8.39711 6.5592 8.80876 6.76502 9.01459H6.81648L7.58832 8.24274V8.19129C7.22813 7.83109 6.66211 7.36798 6.35337 7.1107Z" fill="#00C8DC"/>
<path d="M11.7562 5.82429C11.1902 4.2806 9.69798 3.20001 7.99992 3.20001C5.99312 3.20001 4.39797 4.69225 4.08923 6.54468C4.2436 6.54468 4.39797 6.49322 4.6038 6.49322C4.80962 6.49322 5.06691 6.54468 5.27273 6.54468C5.53001 5.25827 6.66205 4.33205 7.99992 4.33205C9.13196 4.33205 10.1096 5.00099 10.5727 5.97866C10.5727 5.97866 10.6242 6.03012 10.6242 5.97866C10.9844 5.9272 11.396 5.82429 11.7562 5.82429C11.7562 5.87575 11.7562 5.87575 11.7562 5.82429Z" fill="#006EFF"/>
</svg>
