<?xml version="1.0" standalone="no"?>
<svg xmlns="http://www.w3.org/2000/svg" class="icon" viewBox="0 0 54 54">
  <g fill="none" fill-rule="evenodd" stroke="none" stroke-width="1">
    <g fill="#00ACD7" fill-rule="nonzero">
      <g transform="translate(0 17)">
        <path d="M4.075 6.056c-.105 0-.131-.052-.079-.13l.552-.704c.053-.078.185-.13.29-.13h9.386c.105 0 .131.078.079.156l-.447.677c-.053.079-.184.157-.263.157zM.105 8.454c-.105 0-.131-.052-.079-.13l.552-.704c.053-.079.184-.13.29-.13h11.989c.105 0 .157.077.131.156l-.21.625c-.027.104-.132.157-.237.157zM6.468 10.852c-.105 0-.132-.079-.08-.157l.369-.651c.053-.079.158-.157.263-.157h5.258c.105 0 .158.078.158.183l-.053.625c0 .104-.105.183-.184.183z" />
        <g transform="translate(14.333)">
          <path d="M19.426 5.587c-1.657.417-2.787.73-4.417 1.146-.395.105-.421.13-.763-.26-.394-.443-.683-.73-1.236-.99-1.656-.809-3.26-.574-4.758.39C6.464 7.02 5.544 8.714 5.57 10.825c.026 2.086 1.472 3.806 3.55 4.093 1.787.234 3.286-.391 4.469-1.72.237-.287.447-.6.71-.965H9.224c-.552 0-.683-.339-.5-.782.343-.808.974-2.163 1.342-2.84.079-.157.263-.418.657-.418h9.57c-.052.704-.052 1.407-.157 2.111-.29 1.877-1 3.597-2.156 5.109-1.893 2.476-4.365 4.014-7.494 4.43-2.576.34-4.969-.156-7.072-1.72-1.946-1.46-3.05-3.388-3.339-5.786-.342-2.84.5-5.395 2.235-7.637C4.176 2.277 6.648.74 9.67.191 12.143-.252 14.51.035 16.64 1.47c1.393.912 2.392 2.163 3.05 3.675.157.234.052.364-.263.443" />
          <path d="M28.128 20c-2.392-.052-4.575-.73-6.415-2.294-1.551-1.329-2.524-3.023-2.84-5.03-.473-2.945.342-5.552 2.13-7.871 1.92-2.502 4.233-3.806 7.362-4.353 2.682-.47 5.206-.208 7.493 1.33 2.077 1.407 3.365 3.31 3.707 5.812.447 3.518-.578 6.385-3.023 8.835-1.736 1.747-3.865 2.841-6.31 3.336-.71.13-1.42.157-2.104.235m6.258-10.53c-.027-.339-.027-.6-.08-.86-.472-2.58-2.865-4.04-5.363-3.466-2.445.547-4.022 2.085-4.6 4.535-.474 2.033.525 4.092 2.418 4.926 1.446.625 2.892.547 4.286-.157 2.077-1.068 3.207-2.736 3.339-4.978" />
        </g>
      </g>
    </g>
  </g>
</svg>
