<?xml version="1.0" standalone="no"?>
<svg xmlns="http://www.w3.org/2000/svg" class="icon" viewBox="0 0 54 54">
  <defs>
    <linearGradient id="linearGradient-1" x1="50%" x2="50%" y1="30.418%" y2="101.012%">
      <stop offset="0%" stop-color="#EF5928" />
      <stop offset="100%" stop-color="#FBCA0A" />
    </linearGradient>
  </defs>
  <g fill="none" fill-rule="evenodd" stroke="none" stroke-width="1">
    <g>
      <path d="M0 0H54V54H0z" />
      <path fill="url(#linearGradient-1)" fill-rule="nonzero" d="M29.138 0c-4.087 2.574-4.85 6.174-4.85 6.174l-.045.208c-.224.06-.449.134-.673.193-.315.09-.63.208-.928.327-.315.12-.614.238-.928.372-.614.268-1.228.566-1.827.893-.583.327-1.152.684-1.706 1.056l-.15-.06c-5.658-2.142-10.672.432-10.672.432-.464 5.98 2.26 9.744 2.799 10.428a25.668 25.668 0 0 0-1.302 5.296c-.03.208-.06.417-.075.625C3.54 28.517 2 33.769 2 33.769c4.356 4.983 9.445 5.295 9.445 5.295l.015-.014a23 23 0 0 0 2.23 3.257c.36.432.719.833 1.108 1.235-1.587 4.522.225 8.271.225 8.271 4.85.179 8.038-2.112 8.711-2.633.48.164.973.313 1.467.432a21.6 21.6 0 0 0 4.55.669c.375.015.764.03 1.138.015h.54l.239-.015v.015C33.958 53.539 37.969 54 37.969 54c2.86-2.99 3.024-5.965 3.024-6.605v-.268a17 17 0 0 0 1.706-1.353 18.3 18.3 0 0 0 2.98-3.467l.224-.357c3.233.179 5.523-1.993 5.523-1.993-.539-3.347-2.455-4.983-2.859-5.296l-.075-.058v-.001a.1.1 0 0 0-.028-.02l-.015-.012.006.005.008.006-.046-.024.001-.011c-.057-.045-.037-.03 0 0 .015-.204.03-.394.044-.599.03-.357.03-.729.03-1.086v-.566l-.015-.222-.015-.298c0-.104-.015-.193-.03-.282-.015-.09-.015-.194-.03-.283l-.03-.283-.045-.282a14 14 0 0 0-.21-1.101 14.6 14.6 0 0 0-1.646-4.046 13.7 13.7 0 0 0-2.739-3.243 13.8 13.8 0 0 0-3.458-2.217 13.7 13.7 0 0 0-3.817-1.071 12 12 0 0 0-1.93-.104h-.48l-.239.015c-.09 0-.18.015-.254.015a10.695 10.695 0 0 0-4.535 1.473 10.9 10.9 0 0 0-2.74 2.32 10.6 10.6 0 0 0-1.736 2.916 10.2 10.2 0 0 0-.689 3.124c-.015.253-.015.52-.015.773v.194l.015.208c.015.119.015.253.03.372.045.52.15 1.026.284 1.502a8.2 8.2 0 0 0 1.288 2.589 8.4 8.4 0 0 0 1.93 1.844 8.1 8.1 0 0 0 2.216 1.042 7.7 7.7 0 0 0 2.2.312h.39c.044 0 .09 0 .134-.015.075 0 .15-.015.225-.015.015 0 .045 0 .06-.015l.074-.015c.045 0 .09-.014.135-.014l.255-.045c.09-.015.164-.03.24-.06.164-.03.313-.089.463-.133.3-.105.599-.224.853-.357.27-.134.51-.298.749-.447.06-.044.134-.089.194-.148a.563.563 0 0 0 .09-.789.554.554 0 0 0-.703-.134l-.18.09a5 5 0 0 1-.644.267 5 5 0 0 1-.703.179c-.12.015-.24.03-.374.044-.06 0-.12.015-.195.015h-.36c-.074 0-.149 0-.224-.015h-.09c-.03 0-.074 0-.104-.014-.075-.015-.135-.015-.21-.03a5.9 5.9 0 0 1-1.631-.476 5.7 5.7 0 0 1-1.512-.982 5.7 5.7 0 0 1-1.183-1.473 5.6 5.6 0 0 1-.643-1.844 5.6 5.6 0 0 1-.06-.997c0-.09.015-.179.015-.268v-.119c0-.045.015-.09.015-.134.015-.178.045-.357.074-.535a7.15 7.15 0 0 1 2.081-3.883c.285-.268.584-.506.898-.729a6 6 0 0 1 1.018-.58 7 7 0 0 1 1.108-.402 7.4 7.4 0 0 1 1.167-.208c.195-.015.39-.03.599-.03h.464l.165.015c.434.03.853.09 1.272.194.838.178 1.662.49 2.425.907 1.527.848 2.829 2.157 3.622 3.734.404.788.689 1.636.824 2.514.03.223.06.446.074.67l.015.163.015.164v.64c0 .103-.015.282-.015.386a11.824 11.824 0 0 1-.195 1.443 10 10 0 0 1-.164.7q-.18.69-.449 1.383c-.36.892-.838 1.755-1.407 2.543a11.56 11.56 0 0 1-4.52 3.675c-.899.401-1.842.699-2.815.848a9.6 9.6 0 0 1-1.466.149h-.749c-.27 0-.524-.015-.793-.045a15.7 15.7 0 0 1-3.099-.55 15.8 15.8 0 0 1-2.904-1.16c-1.84-.983-3.502-2.321-4.79-3.943a15.3 15.3 0 0 1-1.676-2.588 15.3 15.3 0 0 1-1.108-2.842 15.6 15.6 0 0 1-.509-2.99l-.015-.193v-1.324a18.157 18.157 0 0 1 .374-3.05c.105-.506.225-1.011.375-1.517.284-.997.644-1.964 1.063-2.871.853-1.815 1.96-3.437 3.293-4.73.33-.328.673-.626 1.033-.923q.538-.424 1.122-.803c.374-.253.779-.476 1.183-.685.194-.104.404-.208.613-.297l.315-.134.314-.134c.42-.179.853-.327 1.302-.461.105-.03.225-.06.33-.104.104-.03.224-.06.329-.09.225-.06.449-.119.674-.163.104-.03.224-.045.344-.075s.224-.044.344-.074c.12-.015.225-.045.344-.06l.165-.03.18-.029.344-.045c.135-.014.254-.03.39-.044.104-.015.284-.03.388-.045.075-.015.165-.015.24-.03l.164-.014.075-.015h.09c.135-.015.255-.015.39-.03l.194-.015h.15c.104 0 .224-.015.329-.015a17.75 17.75 0 0 1 3.862.283c1.661.312 3.218.833 4.64 1.532a18.4 18.4 0 0 1 3.787 2.455c.075.06.135.119.21.178.06.06.134.12.194.179.135.119.255.238.39.357.134.119.254.238.374.357s.239.238.359.372a19.18 19.18 0 0 1 3.188 4.448l.09.178.09.179c.06.119.12.238.164.357.06.119.105.223.165.342.045.119.105.223.15.342.18.446.359.878.494 1.28.224.654.389 1.234.524 1.74.044.208.24.342.449.312a.41.41 0 0 0 .389-.416 13 13 0 0 0 .005-.358v-.038c0-.446-.023-.951-.08-1.509-.09-.907-.24-1.948-.539-3.109-.3-1.145-.748-2.41-1.407-3.719a20.7 20.7 0 0 0-2.62-3.986 19 19 0 0 0-1.421-1.518c.763-3.02-.929-5.638-.929-5.638-2.918-.178-4.774.908-5.463 1.399-.12-.045-.225-.105-.344-.15a21 21 0 0 0-1.542-.55 26 26 0 0 0-1.617-.446 21 21 0 0 0-1.676-.327l-.3-.045C32.79 1.696 29.139 0 29.139 0m19.45 34.703c-.07-.04-.09-.08-.095-.098a.6.6 0 0 1 .1.1q-.002 0-.005-.002m-.17-.156.1.099-.1-.1" />
    </g>
  </g>
</svg>
