<?xml version="1.0" standalone="no"?>
<svg xmlns="http://www.w3.org/2000/svg" class="icon" viewBox="0 0 1024 1024">
  <g fill="none" fill-rule="evenodd" stroke="none" stroke-width="1">
    <path d="M0 0H1024V1024H0z" />
    <path fill="#0AC185" d="M648.004 834.4h-272c-4.418 0-8-3.98-8-8.889V779.29c0-4.909 3.582-8.889 8-8.889h272c4.418 0 8 3.98 8 8.889v46.222c0 4.909-3.582 8.889-8 8.889M590.404 926.4h-156.8c-4.418 0-8-3.98-8-8.889V871.29c0-4.909 3.582-8.889 8-8.889h156.8c4.418 0 8 3.98 8 8.889v46.222c0 4.909-3.582 8.889-8 8.889" />
    <path fill="#006AFF" d="M512 108.8c-158.808 0-288 129.192-288 288 0 126.745 57.586 180.52 99.633 219.347C352.784 643.063 368 658.348 368 684.8v49.6a8 8 0 0 0 8 8h272a8 8 0 0 0 8-8v-49.6c0-26.48 15.159-41.766 44.212-68.709C742.105 577.257 800 523.517 800 396.8c0-158.808-129.206-288-288-288" />
  </g>
</svg>
