<?xml version="1.0" standalone="no"?>
<svg xmlns="http://www.w3.org/2000/svg" class="icon" viewBox="0 0 1024 1024">
  <g fill="none" fill-rule="evenodd" stroke="none" stroke-width="1">
    <path d="M0 0H1024V1024H0z" />
    <path fill="#006AFF" d="M848.852 98.033H176.651c-17.124 0-31.006 13.882-31.006 31.006v169.946c0 17.124 13.882 31.006 31.006 31.006h672.201c17.124 0 31.005-13.882 31.005-31.006V129.039c0-17.124-13.881-31.006-31.005-31.006" />
    <path fill="#0AC185" d="M847.35 394.205H175.149c-17.124 0-31.006 13.882-31.006 31.006v169.946c0 17.124 13.882 31.006 31.006 31.006H847.35c17.124 0 31.005-13.882 31.005-31.006V425.211c0-17.124-13.881-31.006-31.005-31.006" />
    <path fill="#006AFF" d="M847.372 694.009H175.127c-17.112 0-30.984 13.872-30.984 30.984v169.99c0 17.112 13.872 30.984 30.984 30.984h672.245c17.111 0 30.983-13.872 30.983-30.984v-169.99c0-17.112-13.872-30.984-30.983-30.984" />
    <path fill="#FFF" d="M431.468 238.012a8 8 0 0 1-8 8h-176a8 8 0 0 1-8-8v-48a8 8 0 0 1 8-8h176a8 8 0 0 1 8 8zM431.468 534.184a8 8 0 0 1-8 8h-176a8 8 0 0 1-8-8v-48a8 8 0 0 1 8-8h176a8 8 0 0 1 8 8zM431.468 833.988a8 8 0 0 1-8 8h-176a8 8 0 0 1-8-8v-48a8 8 0 0 1 8-8h176a8 8 0 0 1 8 8z" />
  </g>
</svg>
