<?xml version="1.0" standalone="no"?>
<svg xmlns="http://www.w3.org/2000/svg" class="icon" viewBox="0 0 16 16">
  <defs>
    <radialGradient id="radialGradient-1" cx="155.093%" cy="-8.843%" r="200.192%" fx="155.093%" fy="-8.843%" gradientTransform="matrix(1 0 0 .79263 0 -.018)">
      <stop offset="0%" stop-color="#F7BFA4" />
      <stop offset="1.131%" stop-color="#F7BB9F" />
      <stop offset="42.7%" stop-color="#E60012" />
      <stop offset="66.28%" stop-color="#E50012" />
      <stop offset="75.74%" stop-color="#E10011" />
      <stop offset="82.68%" stop-color="#DA0010" />
      <stop offset="88.38%" stop-color="#CF000E" />
      <stop offset="93.31%" stop-color="#C00009" />
      <stop offset="97.65%" stop-color="#AE0003" />
      <stop offset="100%" stop-color="#A00000" />
    </radialGradient>
    <radialGradient id="radialGradient-2" cx="173.277%" cy="-532.24%" r="693.121%" fx="173.277%" fy="-532.24%" gradientTransform="matrix(.33442 0 0 1 1.153 0)">
      <stop offset="0%" stop-color="#F7BFA4" />
      <stop offset="1.131%" stop-color="#F7BB9F" />
      <stop offset="42.7%" stop-color="#E60012" />
      <stop offset="66.28%" stop-color="#E50012" />
      <stop offset="75.74%" stop-color="#E10011" />
      <stop offset="82.68%" stop-color="#DA0010" />
      <stop offset="88.38%" stop-color="#CF000E" />
      <stop offset="93.31%" stop-color="#C00009" />
      <stop offset="97.65%" stop-color="#AE0003" />
      <stop offset="100%" stop-color="#A00000" />
    </radialGradient>
    <radialGradient id="radialGradient-3" cx="154.911%" cy="-124.457%" r="304.433%" fx="154.911%" fy="-124.457%" gradientTransform="matrix(.58281 0 0 1 .646 0)">
      <stop offset="0%" stop-color="#F7BFA4" />
      <stop offset="1.131%" stop-color="#F7BB9F" />
      <stop offset="42.7%" stop-color="#E60012" />
      <stop offset="66.28%" stop-color="#E50012" />
      <stop offset="75.74%" stop-color="#E10011" />
      <stop offset="82.68%" stop-color="#DA0010" />
      <stop offset="88.38%" stop-color="#CF000E" />
      <stop offset="93.31%" stop-color="#C00009" />
      <stop offset="97.65%" stop-color="#AE0003" />
      <stop offset="100%" stop-color="#A00000" />
    </radialGradient>
    <radialGradient id="radialGradient-4" cx="10.587%" cy="-531.331%" r="692.205%" fx="10.587%" fy="-531.331%" gradientTransform="matrix(.33553 0 0 1 .07 0)">
      <stop offset="0%" stop-color="#F7BFA4" />
      <stop offset="1.131%" stop-color="#F7BB9F" />
      <stop offset="42.7%" stop-color="#E60012" />
      <stop offset="66.28%" stop-color="#E50012" />
      <stop offset="75.74%" stop-color="#E10011" />
      <stop offset="82.68%" stop-color="#DA0010" />
      <stop offset="88.38%" stop-color="#CF000E" />
      <stop offset="93.31%" stop-color="#C00009" />
      <stop offset="97.65%" stop-color="#AE0003" />
      <stop offset="100%" stop-color="#A00000" />
    </radialGradient>
    <radialGradient id="radialGradient-5" cx="17.285%" cy="-8.989%" r="200.715%" fx="17.285%" fy="-8.989%" gradientTransform="matrix(1 0 0 .79239 0 -.019)">
      <stop offset="0%" stop-color="#F7BFA4" />
      <stop offset="1.131%" stop-color="#F7BB9F" />
      <stop offset="42.7%" stop-color="#E60012" />
      <stop offset="66.28%" stop-color="#E50012" />
      <stop offset="75.74%" stop-color="#E10011" />
      <stop offset="82.68%" stop-color="#DA0010" />
      <stop offset="88.38%" stop-color="#CF000E" />
      <stop offset="93.31%" stop-color="#C00009" />
      <stop offset="97.65%" stop-color="#AE0003" />
      <stop offset="100%" stop-color="#A00000" />
    </radialGradient>
    <radialGradient id="radialGradient-6" cx="54.226%" cy="16.234%" r="335.684%" fx="54.226%" fy="16.234%" gradientTransform="matrix(1 0 0 .38341 0 .1)">
      <stop offset="0%" stop-color="#F7BFA4" />
      <stop offset="1.131%" stop-color="#F7BB9F" />
      <stop offset="42.7%" stop-color="#E60012" />
      <stop offset="66.28%" stop-color="#E50012" />
      <stop offset="75.74%" stop-color="#E10011" />
      <stop offset="82.68%" stop-color="#DA0010" />
      <stop offset="88.38%" stop-color="#CF000E" />
      <stop offset="93.31%" stop-color="#C00009" />
      <stop offset="97.65%" stop-color="#AE0003" />
      <stop offset="100%" stop-color="#A00000" />
    </radialGradient>
    <radialGradient id="radialGradient-7" cx="167.227%" cy="16.555%" r="335.648%" fx="167.227%" fy="16.555%" gradientTransform="matrix(1 0 0 .38335 0 .102)">
      <stop offset="0%" stop-color="#F7BFA4" />
      <stop offset="1.131%" stop-color="#F7BB9F" />
      <stop offset="42.7%" stop-color="#E60012" />
      <stop offset="66.28%" stop-color="#E50012" />
      <stop offset="75.74%" stop-color="#E10011" />
      <stop offset="82.68%" stop-color="#DA0010" />
      <stop offset="88.38%" stop-color="#CF000E" />
      <stop offset="93.31%" stop-color="#C00009" />
      <stop offset="97.65%" stop-color="#AE0003" />
      <stop offset="100%" stop-color="#A00000" />
    </radialGradient>
    <radialGradient id="radialGradient-8" cx="9.185%" cy="-124.191%" r="304.514%" fx="9.185%" fy="-124.191%" gradientTransform="matrix(.58293 0 0 1 .038 0)">
      <stop offset="0%" stop-color="#F7BFA4" />
      <stop offset="1.131%" stop-color="#F7BB9F" />
      <stop offset="42.7%" stop-color="#E60012" />
      <stop offset="66.28%" stop-color="#E50012" />
      <stop offset="75.74%" stop-color="#E10011" />
      <stop offset="82.68%" stop-color="#DA0010" />
      <stop offset="88.38%" stop-color="#CF000E" />
      <stop offset="93.31%" stop-color="#C00009" />
      <stop offset="97.65%" stop-color="#AE0003" />
      <stop offset="100%" stop-color="#A00000" />
    </radialGradient>
  </defs>
  <g fill="none" fill-rule="evenodd" stroke="none" stroke-width="1">
    <g>
      <path d="M0 0H16V16H0z" />
      <g fill-rule="nonzero" transform="translate(1.6 3.2)">
        <path id="Path" fill="url(#radialGradient-1)" d="M1.57 5.088c.976.947 3.34 2.143 3.888 2.414.007.003.035.013.054-.01 0 0 .022-.018.01-.046C4.015 4.175 1.96 1.694 1.96 1.694S.84 2.752.92 3.812c.042.8.65 1.276.65 1.276" />
        <path id="Path" fill="url(#radialGradient-2)" d="M5.143 8.305c-.009-.035-.05-.035-.05-.035l-3.935.136c.428.758 1.146 1.347 1.895 1.165.516-.13 1.687-.942 2.072-1.216.031-.028.018-.05.018-.05" />
        <path id="Path" fill="url(#radialGradient-3)" d="M1.46 7.817c.378.154.752.164.752.164.06.01 2.34 0 2.95-.003.026 0 .041-.026.041-.026.02-.031-.015-.06-.015-.06C3.462 6.732.113 4.95.113 4.95c-.306.938.107 1.694.107 1.694.425.9 1.24 1.174 1.24 1.174" />
        <path id="Path" fill="url(#radialGradient-4)" d="M11.638 8.406 7.7 8.27s-.035.003-.044.032c0 0-.01.034.015.053.378.268 1.518 1.064 2.069 1.219 0 0 1.017.343 1.898-1.168" />
        <path id="Path" fill="url(#radialGradient-5)" d="M7.284 7.43s-.019.038.01.063c0 0 .028.019.053.003.564-.28 2.91-1.467 3.882-2.408 0 0 .614-.492.648-1.282.07-1.099-1.038-2.112-1.038-2.112S8.789 4.165 7.284 7.43" />
        <path id="Path" fill="url(#radialGradient-6)" d="M6.736 7.137a.05.05 0 0 0 .032.044c.038.016.057-.022.057-.022.377-.545 2.077-3.054 2.424-4.584 0 0 .189-.74.006-1.243 0 0-.258-.957-1.3-1.21 0 0-.3-.075-.62-.119 0-.003-1.165 1.492-.599 7.134" />
        <path id="Path" fill="url(#radialGradient-7)" d="M5.975 7.165c.025.026.047.016.047.016.04-.013.038-.05.038-.05C6.626 1.492 5.465 0 5.465 0c-.17.016-.633.12-.633.12C3.79.387 3.544 1.329 3.544 1.329c-.189.591.006 1.243.006 1.243.347 1.536 2.056 4.061 2.425 4.593" />
        <path id="Path" fill="url(#radialGradient-8)" d="M12.687 4.943S9.343 6.73 7.615 7.893c0 0-.032.018-.02.056 0 0 .017.029.042.029.62 0 2.962.003 3.022-.007 0 0 .302-.012.677-.154 0 0 .834-.264 1.266-1.206-.004-.003.384-.771.085-1.668" />
      </g>
    </g>
  </g>
</svg>
