<?xml version="1.0" standalone="no"?>
<svg xmlns="http://www.w3.org/2000/svg" class="icon" viewBox="0 0 64 64">
  <path fill="#ff4d00" fill-rule="evenodd" stroke="none" stroke-width="1" d="M34.294323 45.02225 57.257024 58.0385 58.113075 48.14225 51.737575 41.25875 42.329024 39.684125z" transform="matrix(.83834 0 0 .82701 0 0)" />
  <path fill="#ff7d00" fill-rule="evenodd" stroke="none" stroke-width="1" d="M38.17028.00065 57.256703 58.03915 76.341523 38.6919z" transform="matrix(.83834 0 0 .82701 0 0)" />
  <path fill="#001aff" fill-rule="evenodd" stroke="none" stroke-width="1" d="M35.099877 30.740775 34.295124 45.0229 63.62531 38.693525z" transform="matrix(.83834 0 0 .82701 0 0)" />
  <path fill="#e23400" fill-rule="evenodd" stroke="none" stroke-width="1" d="M20.38076 59.353288 24.176883 54.200412 23.493966 48.009163 14.141523 41.856912.00064123711 38.694662z" transform="matrix(.83834 0 0 .82701 0 0)" />
  <path fill="#ff4d00" fill-rule="evenodd" stroke="none" stroke-width="1" d="M0 38.694012 23.493325 48.008513 36.106459 2.0957625z" transform="matrix(.83834 0 0 .82701 0 0)" />
  <path fill="#ff7d00" fill-rule="evenodd" stroke="none" stroke-width="1" d="M23.493966 48.009163 20.38076 59.353288 38.17028 77.387537 54.887332 60.443663z" transform="matrix(.83834 0 0 .82701 0 0)" />
</svg>
