<?xml version="1.0" standalone="no"?>
<svg xmlns="http://www.w3.org/2000/svg" class="icon" viewBox="0 0 54 54">
  <g fill="none" fill-rule="evenodd" stroke="none" stroke-width="1">
    <g>
      <path d="M0 0H54V54H0z" />
      <g fill-rule="nonzero" transform="translate(7)">
        <path fill="#5382A1" d="M12.882 41.761s-2.072 1.2 1.475 1.606c4.298.488 6.495.418 11.231-.474 0 0 1.245.777 2.984 1.45-10.617 4.531-24.029-.262-15.69-2.582m-1.297-5.912s-2.324 1.713 1.226 2.079c4.59.471 8.216.51 14.49-.693 0 0 .868.876 2.232 1.355-12.837 3.737-27.135.295-17.948-2.741" />
        <path fill="#E76F00" d="M22.522 25.82c2.616 2.999-.687 5.698-.687 5.698s6.643-3.415 3.592-7.69c-2.85-3.987-5.034-5.968 6.794-12.799 0 0-18.567 4.617-9.699 14.791" />
        <path fill="#5382A1" d="M36.565 46.134s1.533 1.259-1.69 2.232c-6.128 1.848-25.507 2.406-30.89.074-1.935-.839 1.694-2.002 2.835-2.246 1.19-.257 1.871-.21 1.871-.21C6.54 44.476-5.219 48.95 2.72 50.23c21.647 3.495 39.46-1.574 33.846-4.096m-22.686-16.41s-9.857 2.33-3.49 3.177c2.688.358 8.046.277 13.038-.14 4.08-.342 8.176-1.07 8.176-1.07s-1.439.613-2.48 1.32c-10.01 2.622-29.347 1.402-23.78-1.279 4.708-2.266 8.536-2.009 8.536-2.009m17.683 9.841c10.175-5.264 5.47-10.324 2.187-9.642-.805.167-1.164.312-1.164.312s.299-.467.87-.668c6.496-2.274 11.492 6.707-2.098 10.264 0 0 .158-.14.205-.266" />
        <path fill="#E76F00" d="M25.427 0s5.635 5.613-5.345 14.244c-8.805 6.923-2.008 10.87-.004 15.38-5.139-4.616-8.91-8.68-6.38-12.464C17.412 11.608 27.7 8.916 25.427 0" />
        <path fill="#5382A1" d="M14.879 53.83c9.767.623 24.766-.345 25.121-4.946 0 0-.683 1.744-8.072 3.13-8.336 1.561-18.619 1.379-24.717.378 0 0 1.249 1.028 7.668 1.438" />
      </g>
    </g>
  </g>
</svg>
