<?xml version="1.0" standalone="no"?>
<svg xmlns="http://www.w3.org/2000/svg" class="icon" viewBox="0 0 54 54">
  <g fill="none" fill-rule="evenodd" stroke="none" stroke-width="1">
    <g fill="#FF3C00" fill-rule="nonzero">
      <g transform="translate(7)"><path d="M19.515 0c1.734.097 3.127.115 4.504.251 3.204.31 6.352.987 9.35 2.264 1.732.754 3.372 1.662 4.636 3.152 1.261 1.508 1.337 3.056.15 4.545a9 9 0 0 1-1.64 1.566c-1.923 1.451-4.127 2.264-6.408 2.921-4.052 1.14-8.18 1.509-12.365 1.296-2.054-.098-4.09-.426-6.105-.736-2.3-.348-4.487-1.063-6.579-2.068-1.413-.658-2.695-1.47-3.732-2.631C.138 9.265-.144 7.892.646 6.519c.416-.736 1.039-1.393 1.68-1.935 1.526-1.296 3.335-2.127 5.22-2.708 1.677-.503 3.392-.91 5.108-1.296.68-.156 1.394-.214 2.092-.271C16.461.173 18.157.077 19.515 0M38.76 28.358c.02.27.056.464.056.658v4.486c0 1.799-.753 3.23-2.034 4.39-1.81 1.644-3.978 2.63-6.24 3.386-2.544.85-5.127 1.584-7.708 2.3-2.431.657-4.92 1.2-7.351 1.839-3.431.909-6.842 1.875-10.046 3.48q-.93.468-1.81 1.026c-.32.193-.583.211-.866-.02-.585-.522-1.244-1.007-1.772-1.586-1.282-1.431-1.206-3.153-.414-4.757.848-1.722 2.336-2.786 3.939-3.675 2.412-1.335 5.013-2.224 7.652-2.902 2.714-.715 5.447-1.353 8.18-2.05 2.149-.54 4.297-1.083 6.446-1.605 2.469-.6 4.918-1.335 7.237-2.397 1.376-.62 2.659-1.451 3.976-2.187.17-.097.322-.213.491-.308.056-.02.114-.04.264-.078m.057-9.516c0 .676-.02 1.354 0 2.03.113 2.225-.923 3.811-2.602 5.048-1.903 1.393-4.052 2.263-6.257 2.96-1.885.6-3.789 1.14-5.693 1.644-2.165.56-4.333 1.025-6.5 1.547-1.415.348-2.847.697-4.242 1.064-1.49.386-2.978.793-4.449 1.257-2.978.947-5.88 2.089-8.405 4.022-.152.117-.359.156-.529.233-.036-.193-.112-.387-.112-.6-.037-2.495.452-4.835 1.829-6.924 1.168-1.779 2.712-3.114 4.466-4.216 2.318-1.451 4.825-2.495 7.426-3.25 2.526-.734 5.09-1.411 7.634-2.069 2.639-.695 5.315-1.295 7.954-2.01 2.58-.698 5.145-1.471 7.463-2.865.49-.289.942-.637 1.413-.946.133-.098.301-.136.453-.194.056.154.132.31.151.483.019.91 0 1.838 0 2.786m-.075 21.971c.037.251.075.425.075.58v4.448c-.02 1.471-.848 2.476-1.866 3.384-1.32 1.162-2.846 1.915-4.448 2.553-1.923.775-3.92 1.278-5.937 1.626-2.658.444-5.335.658-8.011.58-.697-.02-1.375-.04-2.072-.097a37 37 0 0 1-7.559-1.238 32 32 0 0 1-1.81-.6v-.193c.397-.193.793-.406 1.208-.58 2.468-1.024 4.993-1.8 7.576-2.437 2.695-.676 5.39-1.333 8.086-2.03 3.11-.812 6.219-1.645 9.197-2.883 1.753-.715 3.45-1.546 4.958-2.746.15-.135.357-.213.603-.367" /></g>
    </g>
  </g>
</svg>
