<?xml version="1.0" standalone="no"?>
<svg xmlns="http://www.w3.org/2000/svg" class="icon" viewBox="0 0 16 16">
  <path fill="#01608A" fill-rule="nonzero" stroke="none" stroke-width="1" d="M13.984 1.333c.368 0 .666.298.666.666V6.71h.017V14a.666.666 0 0 1-.666.666H6.628a.651.651 0 0 1-.145-.017H2a.666.666 0 0 1-.667-.665V2c0-.369.298-.667.666-.667h11.985M6.267 4.208c-.666.116-1.575.623-1.886 1.307-.508.208-1.236.435-1.497.974-.223.492.795.659 1.129.721.148.016.839.112 1.73.364l.038.03.004.033c-.016.148.01.36.168.805.434.875 1.003 1.45 1.274 1.348.116-.053.113-.417.1-.789l-.002-.022-.001-.04-.001-.026c-.01-.252-.02-.497.002-.639 0 0 .03-.039.064-.043l.067-.008c1.37.657 2.517 1.806 3.06 3.347.24.643.357 1.307.365 1.964h1.31c.907-2.505.625-4.734-.523-6.585-.004-.033-.038-.029-.043-.063-.073-.318 1.19-.541 1.481-.758.164-.347-2.037-1.04-2.871-.834-.034.004-.148-.016-.182-.012-1.414-1.005-3.117-1.156-3.786-1.074" />
</svg>
