<?xml version="1.0" standalone="no"?>
<svg xmlns="http://www.w3.org/2000/svg" xmlns:xlink="http://www.w3.org/1999/xlink" class="icon" viewBox="0 0 256 256">
  <defs>
    <linearGradient x1="26.7963066%" y1="2.02934985%" x2="75.8654711%" y2="97.9706501%" id="linearGradient-1">
      <stop stop-color="#DBBB42" offset="0%"></stop>
      <stop stop-color="#F8D957" offset="37.7731643%"></stop>
      <stop stop-color="#FFE36C" offset="50.2431163%"></stop>
      <stop stop-color="#F5CC52" offset="66.6876093%"></stop>
      <stop stop-color="#C89225" offset="100%"></stop>
    </linearGradient>
    <path d="M113.952527,85.7769546 C117.086527,85.4679546 119.443527,82.8789546 119.541527,79.8169546 L119.540527,79.6099546 C119.497527,68.7069546 118.398527,57.7569546 116.261527,46.9739546 L115.370527,42.4769546 C113.645527,33.7759546 105.156527,28.0989546 96.4475271,29.8219546 C95.8335271,29.9439546 95.2245271,30.1009546 94.6375271,30.2879546 C74.2455271,37.3599546 56.9715271,50.4819546 44.6345271,68.2559546 C32.3545271,85.9489546 26.1025271,106.598955 26.5465271,127.986955 L26.6475271,129.327955 C26.7595271,130.096955 27.0095271,130.820955 27.3935271,131.479955 C30.2395271,136.377955 28.5725271,142.651955 23.6705271,145.494955 C18.7695271,148.337955 12.4885271,146.671955 9.64252712,141.774955 C7.81652712,138.630955 6.67252712,135.197955 6.24252712,131.568955 C6.22552712,131.423955 6.21152712,131.278955 6.20052712,131.132955 L6.05952712,129.249955 C6.04552712,129.073955 6.03752712,128.897955 6.03352712,128.720955 C5.43152712,102.873955 12.9465271,77.9249546 27.7675271,56.5719546 C42.6225271,35.1699546 63.4395271,19.3749546 87.9695271,10.8949546 C88.0285271,10.8749546 88.1405271,10.8369546 88.1995271,10.8169546 C89.5855271,10.3659546 91.0195271,9.99295457 92.4605271,9.70795457 C102.059527,7.80995457 111.820527,9.75795457 119.950527,15.1949546 C128.080527,20.6319546 133.604527,28.9069546 135.504527,38.4949546 L136.395527,42.9909546 C139.234527,57.3199546 140.437527,71.9209546 139.968527,86.3899546 C139.963527,86.5279546 139.956527,86.6649546 139.946527,86.8039546 L139.930527,87.0169546 C139.462527,97.0189546 131.633527,105.271955 121.630527,106.258955 C121.196527,106.302955 120.757527,106.331955 120.321527,106.346955 C120.074527,106.354955 119.826527,106.353955 119.578527,106.344955 L119.408527,106.337955 C117.750527,106.276955 116.061527,106.256955 114.391527,106.277955 L110.489527,106.636955 C110.297527,106.654955 110.104527,106.666955 109.910527,106.673955 C81.5035271,107.673955 57.9065271,128.834955 53.8025271,156.989955 C51.9425271,169.753955 54.2315271,182.457955 60.4255271,193.727955 C66.4225271,204.641955 75.9055271,213.535955 87.1275271,218.768955 L90.2505271,220.209955 C97.6425271,223.161955 105.423527,225.244955 113.383527,226.402955 C145.055527,231.010955 176.319527,220.783955 199.175527,198.340955 L200.248527,197.233955 C204.841527,192.437955 207.805527,186.357955 208.776527,179.695955 C209.747527,173.037955 208.643527,166.367955 205.583527,160.406955 L205.363527,159.977955 C194.745527,140.109955 177.627527,124.154955 157.156527,115.046955 C157.053527,115.000955 156.950527,114.953955 156.849527,114.904955 L156.345527,114.659955 C149.934527,111.550955 145.690527,105.467955 144.989527,98.3899546 C144.806527,96.5249546 144.878527,94.6509546 145.207527,92.8169546 C145.230527,92.6839546 145.256527,92.5519546 145.285527,92.4209546 L145.352527,92.1179546 C149.917527,71.2439546 157.926527,51.3769546 169.155527,33.0779546 C169.184527,33.0309546 169.214527,32.9839546 169.243527,32.9369546 L169.550527,32.4559546 C172.514527,27.7289546 177.349527,24.3989546 182.826527,23.3149546 C188.095527,22.2709546 193.457527,23.3219546 197.940527,26.2699546 L198.205527,26.4369546 C198.362527,26.5359546 198.517527,26.6389546 198.668527,26.7469546 C224.178527,44.8549546 241.575527,71.7229546 247.655527,102.402955 C249.501527,111.714955 250.263527,121.206955 249.919527,130.614955 L249.906527,130.944955 C249.899527,131.138955 249.886527,131.331955 249.868527,131.524955 C249.419527,136.222955 247.712527,140.734955 244.931527,144.570955 C241.607527,149.156955 235.190527,150.181955 230.600527,146.861955 C226.009527,143.540955 224.983527,137.130955 228.307527,132.544955 C228.900527,131.726955 229.279527,130.780955 229.410527,129.796955 C229.691527,122.008955 229.056527,114.126955 227.521527,106.385955 C222.942527,83.2809546 210.648527,62.7759546 192.615527,47.9259546 L192.474527,47.8159546 C191.259527,46.8599546 189.686527,46.3529546 188.026527,46.5169546 C185.948527,46.7219546 184.211527,47.9289546 183.248527,49.6129546 L183.149527,49.7739546 C175.780527,62.9389546 170.221527,76.9369546 166.569527,91.5269546 L166.545527,91.6859546 C166.440527,92.2489546 166.411527,92.8359546 166.470527,93.4349546 C166.682527,95.5729546 167.958527,97.3499546 169.722527,98.2929546 C169.781527,98.3239546 169.841527,98.3549546 169.901527,98.3839546 L170.020527,98.4379546 C192.669527,109.669955 211.545527,127.965955 223.513527,150.402955 C223.539527,150.451955 223.564527,150.499955 223.589527,150.547955 L223.848527,151.051955 C228.864527,160.824955 230.676527,171.752955 229.087527,182.650955 C227.497527,193.555955 222.638527,203.516955 215.034527,211.455955 L213.832527,212.695955 C213.776527,212.753955 213.720527,212.809955 213.662527,212.865955 C200.525527,225.794955 184.370527,235.735955 166.942527,241.613955 C154.343527,245.863955 141.393527,247.996956 128.271527,247.996956 C122.352527,247.996956 116.400527,247.563955 110.425527,246.693955 C100.770527,245.289955 91.3265271,242.747955 82.3535271,239.137955 C82.1955271,239.074955 82.0395271,239.007955 81.8855271,238.936955 L78.4845271,237.367955 C63.3025271,230.286955 50.5135271,218.299955 42.4335271,203.594955 C34.0745271,188.384955 30.9825271,171.246955 33.4915271,154.034955 C39.0115271,116.166955 70.6945271,87.6809546 108.887527,86.1929546 L112.904527,85.8229546 C113.160527,85.7989546 113.417527,85.7849546 113.675527,85.7809546 L113.952527,85.7769546 Z" id="path-2"></path>
    <filter x="-1.8%" y="-1.9%" width="103.7%" height="103.8%" filterUnits="objectBoundingBox" id="filter-3">
      <feOffset dx="0" dy="0" in="SourceAlpha" result="icon-colored-navicat-shadowOffsetOuter1"></feOffset>
      <feGaussianBlur stdDeviation="1.5" in="icon-colored-navicat-shadowOffsetOuter1" result="icon-colored-navicat-shadowBlurOuter1"></feGaussianBlur>
      <feColorMatrix values="0 0 0 0 0   0 0 0 0 0   0 0 0 0 0  0 0 0 0.5 0" type="matrix" in="icon-colored-navicat-shadowBlurOuter1"></feColorMatrix>
    </filter>
  </defs>
  <g stroke="none" stroke-width="1" fill="none" fill-rule="evenodd">
    <g>
      <use fill="black" fill-opacity="1" filter="url(#filter-3)" xlink:href="#path-2"></use>
      <use fill="url(#linearGradient-1)" fill-rule="evenodd" xlink:href="#path-2"></use>
    </g>
  </g>
</svg>
