<?xml version="1.0" standalone="no"?>
<svg xmlns="http://www.w3.org/2000/svg" class="icon" viewBox="0 0 1024 1024">
  <g fill="none" fill-rule="evenodd" stroke="none" stroke-width="1">
    <path d="M0 0H1024V1024H0z" />
    <path fill="#006AFF" d="M721.007 405.038V200.965a32 32 0 0 0-16.019-27.724L527.981 71.208a32.002 32.002 0 0 0-31.96-.001L318.982 173.24a32.002 32.002 0 0 0-16.02 27.725v204.073a32.002 32.002 0 0 0 16.02 27.725l177.02 102.022A32.009 32.009 0 0 0 512 539.074c5.541 0 11.051-1.44 15.998-4.29l176.99-102.022a32 32 0 0 0 16.02-27.724" />
    <path fill="#0AC185" d="M944.8 591.234 767.76 489.2a32 32 0 0 0-31.959 0L558.794 591.236a32.001 32.001 0 0 0-16.02 27.724v204.073c0 11.44 6.108 22.01 16.02 27.724l176.99 102.023a32.009 32.009 0 0 0 15.998 4.289c5.541 0 11.051-1.44 15.998-4.29L944.8 850.758a32 32 0 0 0 16.02-27.725V618.959a32 32 0 0 0-16.02-27.725" />
    <path fill="#006AFF" d="M465.175 591.235 288.168 489.202a32.003 32.003 0 0 0-31.962 0L79.199 591.235a31.998 31.998 0 0 0-16.02 27.724v204.073a32 32 0 0 0 16.02 27.724l176.99 102.023a32.02 32.02 0 0 0 15.998 4.29 32.025 32.025 0 0 0 15.998-4.29l176.99-102.023a32 32 0 0 0 16.019-27.724V618.96a31.998 31.998 0 0 0-16.02-27.724" />
  </g>
</svg>
