<?xml version="1.0" standalone="no"?>
<svg xmlns="http://www.w3.org/2000/svg" xmlns:xlink="http://www.w3.org/1999/xlink" class="icon" viewBox="0 0 240 240">
  <defs><rect id="a" width="240" height="240" x="0" y="0" rx="24" /></defs>
  <g fill="none" fill-rule="evenodd" stroke="none" stroke-width="1">
    <rect width="232" height="232" x="4" y="4" fill="#FFF" fill-rule="nonzero" stroke="#CED0D2" stroke-width="8" rx="24" />
    <mask id="b" fill="#fff"><use xlink:href="#a" /></mask>
    <path fill="#0181FD" fill-rule="nonzero" d="M115.835 159.28c-13.164 3.06-30.643 6.94-49.76 8.838-10.757 1.068-22.043 1.514-33.37.85-11.836-.694-23.714-2.624-35.103-6.327v81.72c0 8.745 5.518 15.912 12.25 15.912h220.046c6.742 0 12.25-7.157 12.25-15.912v-94.8c-44.386-13.724-96.636 2.81-126.334 9.719h.02Z" />
    <path fill="#FFF" fill-rule="nonzero" d="M220 164 220 228 207.108647 228 207.108647 187.474786 190.480203 215.668887 181.81058 215.668887 164.891353 187.190612 164.891353 228 152 228 152 164 164.891353 164 186.150776 200.638122 207.108647 164z" />
    <g fill-rule="nonzero">
      <path fill="#0181FD" d="M.022 39.501C66.086 48.695 97.993 7.431 180 16.637l-.022 61.906C113.914 69.349 82.007 110.612 0 101.713l.022-62.2V39.5Z" transform="translate(30 28)" />
      <path fill="#FFA005" d="M82.17.01C46.087 11.275 28.884 16.047.033 11.909v20.654l.717.098c30.591 4.258 53.94-2.823 78.647-10.332 2.98-.908 6.003-1.817 9.091-2.736L82.17 0v.01Z" transform="translate(30 28)" />
      <path fill="#07C846" d="M179.228 85.307c-30.634-4.269-54.026 2.867-78.777 10.42-2.937.897-5.916 1.806-8.95 2.703L97.808 118c36.105-11.274 53.308-16.046 82.17-11.908V85.416l-.75-.11Z" transform="translate(30 28)" />
    </g>
  </g>
</svg>
