<?xml version="1.0" standalone="no"?>
<svg xmlns="http://www.w3.org/2000/svg" class="icon" viewBox="0 0 1024 1024">
  <g fill="none" fill-rule="evenodd" stroke="none" stroke-width="1">
    <path d="M0 0H1024V1024H0z" />
    <path fill="#0AC185" fill-rule="nonzero" d="M825.932988 153.925378 871.180212 199.187822 199.067212 871.074822 153.819988 825.812378z" />
    <path fill="#0AC185" fill-rule="nonzero" d="M199.127417 153.872583 871.127417 825.872583 825.872583 871.127417 153.872583 199.127417z" />
    <path fill="#006AFF" d="M705 97c0-53.019 42.981-96 96-96s96 42.981 96 96-42.981 96-96 96-96-42.981-96-96" transform="translate(63.5 63.5)" />
    <path fill="#0AC185" d="M96 0c53.019 0 96 42.981 96 96s-42.981 96-96 96S0 149.019 0 96 42.981 0 96 0" transform="translate(63.5 63.5)" />
    <path fill="#006AFF" d="M1 801c0-53.019 42.981-96 96-96s96 42.981 96 96-42.981 96-96 96-96-42.981-96-96" transform="translate(63.5 63.5)" />
    <path fill="#0AC185" d="M705 801c0-53.019 42.981-96 96-96s96 42.981 96 96-42.981 96-96 96-96-42.981-96-96" transform="translate(63.5 63.5)" />
    <path fill="#006AFF" d="M257 449c0-106.039 85.961-192 192-192s192 85.961 192 192-85.961 192-192 192-192-85.961-192-192" transform="translate(63.5 63.5)" />
  </g>
</svg>
