<?xml version="1.0" standalone="no"?>
<svg xmlns="http://www.w3.org/2000/svg" class="icon" viewBox="0 0 1024 1024">
  <g fill="none" fill-rule="evenodd" stroke="none" stroke-width="1">
    <path fill="#0181FD" d="M805.393 71.059V354.87c-104.293-9.95-211.94-.752-317.998 30.079a851.354 851.354 0 0 0-38.9 12.292c-15.618 5.35-31.265 10.354-46.94 14.953C267.817 451.702 132.115 465.353 0 455.925V172.084c103.05 9.862 209.31.983 314.123-28.952 14.287-4.049 28.546-8.532 42.776-13.39 14.345-4.917 28.69-9.545 43.064-13.825 134.98-40.404 272.042-54.403 405.43-44.858" transform="translate(115.056 253.11)" />
    <path fill="#FFA005" d="M366.654 0a747.273 747.273 0 0 1-47.895 18.279 773.223 773.223 0 0 1-22.79 7.404 1024.56 1024.56 0 0 1-18.366 5.38C184.908 56.918 90.882 63.743.009 53.65v94.778c100.59 9.891 204.392 1.388 306.747-27.707a878.36 878.36 0 0 0 18.337-5.409 830.047 830.047 0 0 0 70.772-25.394L366.654 0Z" transform="translate(115.056 253.11)" />
    <path fill="#07C846" d="M438.74 526.975a747.273 747.273 0 0 1 47.894-18.279 773.225 773.225 0 0 1 22.79-7.404 1024.55 1024.55 0 0 1 18.366-5.38c92.696-25.856 186.721-32.681 277.595-22.588v-94.777c-100.591-9.892-204.393-1.389-306.748 27.707a878.358 878.358 0 0 0-18.337 5.408 830.046 830.046 0 0 0-70.772 25.394l29.211 89.919Z" transform="translate(115.056 253.11)" />
  </g>
</svg>
