<?xml version="1.0" standalone="no"?>
<svg xmlns="http://www.w3.org/2000/svg" class="icon" viewBox="0 0 1024 1024">
  <g fill="none" fill-rule="evenodd" stroke="none" stroke-width="1">
    <path fill="#006DFF" d="M333.445 536.008 132.339 419.755a46.811 46.811 0 0 0-47.037.106l-67.027 39.15C7.113 465.53 3.35 479.863 9.87 491.025a23.406 23.406 0 0 0 8.497 8.459l309.22 178.744a46.811 46.811 0 0 0 46.83.014l309.142-178.457c11.195-6.462 15.031-20.777 8.569-31.972a23.406 23.406 0 0 0-8.51-8.535L616.37 420.2a46.811 46.811 0 0 0-46.912-.075l-200.9 115.899a35.109 35.109 0 0 1-35.114-.016Z" transform="translate(162.793 167.882)" />
    <path fill="#006DFF" d="m332.416 273.623-92.5-53.472c-8.394-4.852-11.265-15.59-6.413-23.983a17.554 17.554 0 0 1 6.421-6.418l92.597-53.456a35.109 35.109 0 0 1 35.125.01l92.496 53.472c8.393 4.853 11.264 15.59 6.412 23.984a17.554 17.554 0 0 1-6.42 6.417l-92.593 53.456a35.109 35.109 0 0 1-35.125-.01Zm341.313-93.885L373.45 6.278a46.811 46.811 0 0 0-46.795-.021L26.349 179.384c-13.999 8.07-18.805 25.961-10.734 39.96a29.257 29.257 0 0 0 10.704 10.717l300.276 173.573a46.811 46.811 0 0 0 46.819.02l300.3-173.24c13.997-8.073 18.798-25.965 10.723-39.961a29.257 29.257 0 0 0-10.708-10.715Z" transform="translate(162.793 167.882)" />
    <path fill="#040D2B" d="m219.018 184.73-100.722-58.186L8.789 189.679C.39 194.52-2.493 205.255 2.35 213.654a17.554 17.554 0 0 0 6.423 6.43l109.503 63.298 100.731-58.11c11.197-6.46 15.038-20.774 8.578-31.97a23.406 23.406 0 0 0-8.566-8.572Z" transform="translate(162.793 167.882)" />
  </g>
</svg>
