<?xml version="1.0" standalone="no"?>
<svg xmlns="http://www.w3.org/2000/svg" class="icon" viewBox="0 0 1024 1024">
  <g fill="none" fill-rule="evenodd" stroke="none" stroke-width="1">
    <path fill="#006DFF" d="M35.114 139.592h500.754c19.39 0 35.109-15.719 35.109-35.109V35.11c0-19.39-15.72-35.109-35.109-35.109H35.114C15.724 0 .006 15.719.006 35.109v69.374c0 19.39 15.718 35.109 35.108 35.109ZM35.109 597.63h381.753c19.39 0 35.108-15.719 35.108-35.109v-69.374c0-19.39-15.718-35.109-35.108-35.109H35.109C15.719 458.038 0 473.757 0 493.147v69.374c0 19.39 15.719 35.109 35.109 35.109ZM35.109 371.636h214.7c19.39 0 35.109-15.719 35.109-35.109v-69.374c0-19.39-15.719-35.109-35.109-35.109H35.11C15.719 232.044 0 247.763 0 267.153v69.374c0 19.39 15.719 35.109 35.109 35.109Z" transform="translate(228.206 210.651)" />
    <path fill="#040D2B" d="M35.179 597.548h109.076V458.126H35.18c-19.39 0-35.109 15.719-35.109 35.108v69.205c0 19.39 15.719 35.109 35.109 35.109Z" transform="translate(228.206 210.651)" />
  </g>
</svg>
