<?xml version="1.0" standalone="no"?>
<svg xmlns="http://www.w3.org/2000/svg" class="icon" viewBox="0 0 1024 1024">
  <g fill="none" fill-rule="evenodd" stroke="none" stroke-width="1">
    <path fill="#006DFF" d="M557.044 0c19.39 0 35.109 15.719 35.109 35.109v80.071a70.217 70.217 0 0 1-20.634 49.719L336.57 399.213c-13.376 13.34-34.824 13.654-48.58.962l-1.175-1.135-57.986-58.637-53.615-53.661c-9.125-9.15-9.122-23.963.007-33.109l43.402-43.405c8.829-8.844 22.971-9.139 32.161-.892l.933.883c.002.003.005.005 0 .014l49.714 49.752 3.324-3.31c3.856.1 7.739-1.063 10.974-3.49l1.08-.883 112.205-112.357c4.567-4.574 4.562-11.983-.012-16.55a11.703 11.703 0 0 0-8.27-3.423l-277.353.005c-12.927 0-23.406 10.48-23.406 23.406v326.065c0 12.927 10.479 23.406 23.406 23.406h305.391c12.535.001 22.769-9.852 23.378-22.236l.027-1.17-.003-78.848a70.217 70.217 0 0 1 20.566-49.654l69.449-69.45c6.855-6.855 17.97-6.855 24.825 0a17.554 17.554 0 0 1 5.142 12.413v293.814c0 19.39-15.719 35.109-35.109 35.109H35.11C15.719 612.832 0 597.113 0 577.723V35.11C0 15.719 15.719 0 35.109 0h521.935Z" transform="translate(215.189 198)" />
    <path fill="#040D2B" d="m251.723 210.098 42.24 41.911.467.433a17.482 17.482 0 0 0 10.368 4.207l-3.12 3.112-.015-.016-77.77 77.96-49.24-50.976c-8.872-9.184-8.746-23.782.282-32.811l43.751-43.754c9.115-9.116 23.886-9.145 33.037-.066Z" transform="translate(215.189 198)" />
  </g>
</svg>
