<?xml version="1.0" standalone="no"?>
<svg xmlns="http://www.w3.org/2000/svg" class="icon" viewBox="0 0 1024 1024">
  <g fill="none" fill-rule="evenodd" stroke="none" stroke-width="1">
    <path fill="#040D2B" d="m131.782 244.33 71.848 71.848c13.71 13.71 13.71 35.94 0 49.651l-71.848 71.848c-13.71 13.71-35.94 13.71-49.65 0l-71.849-71.848c-13.71-13.71-13.71-35.94 0-49.651l71.848-71.848c13.71-13.71 35.94-13.71 49.651 0Z" transform="translate(172.531 168.408)" />
    <path fill="#006DFF" d="m365.913 10.274 305.96 305.838c13.367 13.352 13.714 34.798 1.042 48.575l-1.037 1.071-305.971 305.97c-13.711 13.71-35.94 13.71-49.651 0l-63.832-63.832c-13.71-13.71-13.71-35.94 0-49.651l200.692-200.696c8.836-8.836 9.13-22.979.883-32.168l-.883-.933-200.692-200.686c-13.36-13.359-13.702-34.806-1.028-48.58l1.028-1.071 63.833-63.832c13.714-13.703 35.94-13.706 49.656-.005Z" transform="translate(172.531 168.408)" />
  </g>
</svg>
