<svg viewBox="0 0 1024 1024" fill="none" xmlns="http://www.w3.org/2000/svg"><g transform="scale(64)">
<rect opacity="0.01" width="16" height="16" fill="black"/>
<path fill-rule="evenodd" clip-rule="evenodd" d="M13.7417 8.92118C14.0291 8.82539 14.3165 8.85733 14.5401 9.04892V9.0489C14.7317 9.20856 14.8275 9.43208 14.7955 9.68754C14.7636 9.81526 14.6997 9.943 14.6359 10.0707C14.3804 10.422 14.0291 10.6775 13.646 10.8371C13.167 11.0287 12.6241 11.1245 12.0813 11.0926H11.9855C11.9855 11.1245 11.9775 11.1564 11.9695 11.1884C11.9615 11.2203 11.9535 11.2522 11.9535 11.2842C11.9216 12.6572 11.73 13.5194 11.3149 14.0942C10.9636 14.5732 10.3889 14.8925 9.78214 14.9883C9.20736 15.116 8.60064 14.9564 8.15359 14.5413C7.93006 14.2858 7.7704 13.9984 7.70654 13.6791C7.54687 13.1362 7.45108 12.5934 7.48301 12.0186C7.45108 11.827 7.45108 11.6354 7.45108 11.4438C7.29142 11.5077 7.13176 11.5716 6.94017 11.6035C6.55698 11.6674 6.17378 11.6354 5.79059 11.5396C5.5032 11.4757 5.24775 11.348 5.05615 11.1245C4.83262 11.3161 4.57717 11.4438 4.28978 11.4438C3.90659 11.4119 3.55534 11.2522 3.29989 10.9968C2.78895 10.422 2.40576 9.71948 2.18223 8.98504C1.89486 8.18672 1.67133 7.38842 1.47973 6.55817C1.352 6.01533 1.2562 5.44054 1.19234 4.86576C1.1604 3.55653 1.44779 2.6305 2.02258 2.02379C2.56543 1.48093 3.33181 1.16161 4.09818 1.16161C4.92842 1.12967 5.79059 1.2574 6.55698 1.54479C7.09983 1.22547 7.73847 1.06581 8.34518 1.09775C8.66451 1.09775 9.01576 1.12967 9.33509 1.19354H9.36703C9.87793 1.06579 10.4208 0.970013 10.9637 0.970013H11.0594C12.3367 0.938091 13.5821 1.51287 14.3804 2.53472C14.6678 2.9179 14.7955 3.39689 14.7317 3.87587C14.7317 4.48259 14.6359 5.05737 14.4762 5.60022C14.1569 6.81365 13.6779 7.96322 13.0392 9.01697C13.2628 9.01697 13.5182 8.98504 13.7417 8.92118ZM13.5182 10.3901C13.8695 10.2623 14.1249 10.0707 14.3485 9.78336C14.3565 9.76739 14.3624 9.74943 14.3684 9.73146C14.3864 9.67758 14.4044 9.6237 14.4762 9.6237C14.4762 9.5279 14.4123 9.43211 14.3485 9.36823C14.1888 9.30437 13.9972 9.27243 13.8375 9.33631C13.3905 9.46403 12.9434 9.46403 12.4964 9.36823C12.4804 9.35227 12.4645 9.34429 12.4485 9.33631C12.4325 9.32833 12.4166 9.32034 12.4006 9.30437C13.167 8.12287 13.7418 6.84557 14.093 5.50442C14.2207 4.96157 14.3165 4.41872 14.3485 3.87587C14.3804 3.49268 14.2846 3.07756 14.093 2.75823C13.3266 1.80026 12.1771 1.28936 10.9637 1.32128C10.5485 1.35322 10.1653 1.38515 9.75022 1.48095L9.75006 1.48098C9.59044 1.51291 9.43085 1.54483 9.30315 1.60867C8.98383 1.54481 8.63258 1.48095 8.31325 1.48095C7.70654 1.48095 7.13176 1.64061 6.62084 1.95993C5.82253 1.64061 4.96036 1.48095 4.09818 1.51287C3.39568 1.54481 2.75703 1.80026 2.27803 2.27925C1.79906 2.79018 1.51167 3.58847 1.57553 4.8019C1.63939 5.34476 1.73518 5.85568 1.86292 6.39851C2.02258 7.19684 2.24611 7.99514 2.50156 8.82539C2.72509 9.49597 3.04442 10.1346 3.5234 10.6775C3.715 10.8691 3.97045 10.9968 4.25784 10.9968C4.57717 10.9649 4.83262 10.8052 5.02422 10.5497C5.599 9.87915 6.01414 9.43209 6.10992 9.33631L6.10997 9.33633C6.36542 9.43212 6.62086 9.5279 6.90823 9.5279V9.55984L6.90818 9.55991C6.8124 9.68761 6.71661 9.81531 6.5889 9.91109C6.36537 10.0069 6.14186 10.0707 5.91834 10.1027C5.72673 10.1346 5.56708 10.1985 5.4074 10.2943C5.35583 10.3201 5.32508 10.3875 5.29834 10.4461C5.29197 10.4601 5.28583 10.4736 5.27969 10.4859C5.24775 10.5497 5.27969 10.6455 5.31161 10.7094L5.31164 10.7094C5.3755 10.8052 5.43936 10.901 5.56708 10.9329C5.66287 10.9968 5.75867 11.0287 5.85447 11.0607C6.17378 11.1565 6.52504 11.1884 6.84437 11.1245C7.16368 11.0607 7.48301 10.901 7.73847 10.6775C7.73847 11.1565 7.73847 11.6354 7.7704 12.1464C7.7704 12.4017 7.80231 12.6889 7.83421 12.9761L7.83426 12.9766C7.8662 13.1682 7.89814 13.3278 7.962 13.5194C8.08973 13.8068 8.24939 14.0942 8.47292 14.2858C8.85611 14.5732 9.33509 14.669 9.81408 14.5413C10.2292 14.5093 10.6124 14.3177 10.9317 14.0304C11.1872 13.711 11.3788 13.3278 11.4107 12.9447C11.5305 12.3458 11.5963 11.7469 11.6622 11.1481C11.6841 10.9486 11.7061 10.7492 11.73 10.5497C11.9216 10.5817 12.1132 10.6136 12.3048 10.6136C12.7199 10.6136 13.135 10.5497 13.5182 10.3901Z" fill="black"/>
<path d="M10.9956 1.7364H10.8998C10.5805 1.7364 10.2292 1.76834 9.90991 1.86414C10.5486 2.15153 11.1233 2.63051 11.5704 3.17335C11.8258 3.5246 12.0494 3.87585 12.241 4.291C12.3048 4.45065 12.3687 4.57839 12.4006 4.67418C12.4006 4.73804 12.4326 4.76996 12.4326 4.83384V4.92964C12.4645 5.44056 12.3048 5.75989 12.3048 6.27079C12.3048 6.62204 12.4006 7.03717 12.4006 7.48423C12.4645 7.96321 12.3368 8.4422 12.0813 8.82539C12.1132 8.85732 12.1452 8.88925 12.1452 8.92117C12.8158 7.83548 13.3586 6.65398 13.6779 5.40862C13.8057 4.8977 13.9015 4.38679 13.9015 3.87587C13.9334 3.58848 13.8695 3.30109 13.7418 3.01368C13.1031 2.15153 12.0813 1.70446 10.9956 1.7364Z" fill="#306092"/>
<path d="M8.24939 1.8641C7.67461 1.83217 7.13176 2.02376 6.71664 2.37501C6.33345 2.69434 6.07798 3.1414 5.88639 3.58845C5.72673 4.03549 5.63094 4.51448 5.599 4.99346C5.85447 4.86574 6.10994 4.76995 6.39731 4.70607C6.6847 4.64221 7.00403 4.64221 7.29142 4.73801C7.61075 4.86574 7.83426 5.15313 7.89814 5.50438C8.31325 7.3884 7.77041 8.0909 7.57881 8.6657C7.48301 8.85729 7.41916 9.04888 7.38722 9.24048C7.41916 9.24048 7.45108 9.24048 7.48301 9.20854C7.57881 9.20854 7.70655 9.24048 7.80234 9.2724C7.99394 9.3682 8.15359 9.52787 8.21745 9.75138C8.24939 9.81526 8.24939 9.87912 8.24939 9.91106V10.0068C8.21746 10.7409 8.21746 11.4761 8.24939 12.2102C8.24939 12.4976 8.28133 12.753 8.31325 13.0404C8.31325 13.2001 8.34519 13.3278 8.40905 13.4875C8.47292 13.711 8.60064 13.9026 8.79223 14.0623C8.98383 14.2219 9.27123 14.3177 9.78214 14.2219C10.1015 14.19 10.4208 14.0303 10.6762 13.8068C10.8678 13.5513 10.9956 13.2639 11.0275 12.9446C11.1552 12.3379 11.3468 10.5497 11.3787 10.2304C11.3787 10.0388 11.4107 9.81526 11.5065 9.65559C11.5704 9.52787 11.6981 9.43207 11.8258 9.3682C11.8897 9.33627 11.9216 9.33627 11.9855 9.30434C11.9216 9.24048 11.8897 9.1766 11.8258 9.11274C11.6662 8.92115 11.5384 8.69762 11.4426 8.47409C11.3788 8.37831 11.3468 8.28249 11.283 8.1867C11.1872 8.02704 11.1233 7.86738 10.9956 7.67579C10.772 7.26067 10.5805 6.8136 10.4527 6.33463C10.325 5.85565 10.2931 5.40859 10.6124 5.05734C10.8678 4.76995 11.3468 4.61027 12.0493 4.70609C12.0174 4.64221 12.0174 4.57835 11.9855 4.51448C11.8577 4.13129 11.6342 3.78004 11.3788 3.49265C10.6762 2.53468 9.55861 1.99182 8.37712 1.9599L8.24939 1.8641Z" fill="#306092"/>
<path fill-rule="evenodd" clip-rule="evenodd" d="M4.35363 1.89606H4.13012C3.55534 1.89606 2.98054 2.11959 2.59735 2.53471C2.18224 2.94984 1.89485 3.65234 1.95871 4.83384C2.02257 5.34476 2.11837 5.85568 2.21418 6.36659C2.37384 7.1649 2.59735 7.93128 2.88474 8.69765C3.07634 9.33631 3.39568 9.91109 3.81079 10.422C3.90657 10.5497 4.06626 10.6136 4.25784 10.6136C4.44943 10.5817 4.60909 10.4859 4.73682 10.3262C5.08807 9.91109 5.43934 9.49596 5.79059 9.14471C5.24774 8.69765 4.99229 7.99514 5.12001 7.29264C5.15195 6.90945 5.18388 6.52626 5.18388 6.11114C5.18388 5.91552 5.1719 5.76784 5.16261 5.65341C5.15674 5.58104 5.15195 5.52197 5.15195 5.47248V5.44056C5.15195 4.76998 5.27968 4.0994 5.5032 3.46074C5.66287 3.0137 5.91832 2.59857 6.26957 2.24731C5.72673 2.05573 5.15195 1.95993 4.57717 1.92799C4.48137 1.89606 4.41751 1.89606 4.35363 1.89606ZM11.8897 6.23887C11.905 5.99413 11.9349 5.79335 11.962 5.61197L11.962 5.61196C11.9914 5.41469 12.0174 5.24036 12.0174 5.05737C11.8577 5.02543 11.73 5.02543 11.5704 5.02543C11.3149 4.99349 11.0594 5.08929 10.8359 5.24896C10.6762 5.40862 10.6762 5.75989 10.7401 6.17499C10.8678 6.62206 11.0275 7.03718 11.251 7.42035C11.2842 7.48676 11.3174 7.54933 11.3493 7.6094L11.3493 7.60944C11.4094 7.72265 11.4648 7.82696 11.5065 7.93129C11.5704 8.02707 11.6342 8.15481 11.6662 8.2506C11.6723 8.26287 11.6784 8.27632 11.6848 8.29026L11.6848 8.29034C11.7115 8.34897 11.7423 8.41641 11.7939 8.4422C11.9216 8.12287 11.9855 7.80354 11.9535 7.48423C11.9717 7.26684 11.9487 7.02889 11.9254 6.78787L11.9254 6.78786C11.9076 6.60405 11.8897 6.41847 11.8897 6.23887ZM11.6342 5.37668C11.6662 5.34476 11.6662 5.31282 11.6662 5.2809L11.6661 5.28089V5.18509C11.6502 5.18509 11.6342 5.17711 11.6182 5.16913C11.6023 5.16115 11.5863 5.15317 11.5704 5.15317H11.4107C11.3149 5.15317 11.1872 5.18509 11.0914 5.24896L11.0275 5.31284C10.9956 5.34476 10.9956 5.37668 10.9956 5.40862C10.9956 5.44056 10.9956 5.47248 11.0275 5.47248C11.0435 5.48845 11.0594 5.49643 11.0754 5.50442C11.0914 5.5124 11.1073 5.52039 11.1233 5.53635C11.1872 5.60021 11.251 5.60021 11.3468 5.60021C11.3619 5.59267 11.3788 5.58512 11.3966 5.57716C11.4542 5.55141 11.5216 5.52126 11.5704 5.47248C11.5863 5.45652 11.5943 5.44056 11.6023 5.42459C11.6103 5.40862 11.6182 5.39265 11.6342 5.37668Z" fill="#306092"/>
<path fill-rule="evenodd" clip-rule="evenodd" d="M7.09979 5.05737C7.32333 5.15319 7.45104 5.34478 7.48298 5.56831V5.5683C7.7958 7.08027 7.53403 7.67714 7.3231 8.15808C7.27565 8.26627 7.23078 8.36859 7.19559 8.47414C7.17141 8.64342 7.11059 8.8127 7.05477 8.96811C7.03688 9.01792 7.0195 9.0663 7.004 9.1128C6.94012 9.08087 6.9082 9.08087 6.84434 9.08087C5.98215 8.92119 5.40737 8.1229 5.56704 7.26072C5.6309 6.87753 5.6309 6.4624 5.6309 6.0473C5.6309 5.8651 5.61807 5.7214 5.60867 5.6162C5.60325 5.55546 5.59897 5.50756 5.59897 5.4725L5.59906 5.4724C5.6629 5.40858 5.72673 5.34476 5.79056 5.31286C6.01409 5.21705 6.23762 5.12125 6.46115 5.05739C6.52501 5.05739 6.58089 5.04941 6.63677 5.04142C6.69265 5.03344 6.74854 5.02545 6.8124 5.02545C6.9082 5.02545 7.004 5.02545 7.09979 5.05737ZM7.16367 5.69603L7.25945 5.60023C7.25945 5.5683 7.25945 5.53637 7.29139 5.50444C7.29139 5.44058 7.29137 5.40862 7.25945 5.3767C7.24349 5.36074 7.22753 5.35276 7.21156 5.34478C7.1956 5.3368 7.17962 5.32881 7.16365 5.31284C7.09979 5.24898 7.03594 5.21705 6.94012 5.21705H6.84434C6.8124 5.21705 6.74854 5.21705 6.68467 5.24898L6.68462 5.24901C6.62078 5.28094 6.55695 5.31286 6.55695 5.3767C6.55695 5.40864 6.55695 5.44058 6.62081 5.50445C6.62081 5.53634 6.65269 5.56823 6.68458 5.60014L6.68467 5.60023C6.74854 5.69603 6.8124 5.72797 6.9082 5.7599C7.00398 5.79183 7.09979 5.7599 7.16367 5.69603ZM12.1451 9.55984C12.0813 9.59178 12.0174 9.59178 11.9535 9.59178C11.8897 9.62372 11.8577 9.65564 11.7939 9.71951L11.7938 9.71966C11.7619 9.84733 11.73 9.97501 11.73 10.1027C11.7619 10.1346 11.7939 10.1346 11.8258 10.1346C11.9535 10.1666 12.1132 10.1985 12.2729 10.1985C12.656 10.1985 13.0073 10.1346 13.3585 10.0069L13.3586 10.0069C13.5501 9.91111 13.7417 9.81531 13.9014 9.65565C13.0712 9.81531 12.656 9.78337 12.3687 9.65565C12.2729 9.62372 12.209 9.59178 12.1451 9.55984ZM7.2914 9.75144C7.35528 9.62372 7.41914 9.62372 7.45106 9.62372H7.45108C7.483 9.62372 7.54686 9.62372 7.54686 9.71951C7.61073 9.75144 7.70653 9.84725 7.73845 9.94303C7.80233 10.0388 7.80233 10.1346 7.73845 10.2304C7.54686 10.5497 7.19561 10.7733 6.81242 10.8371C6.52503 10.8691 6.23764 10.8371 5.98217 10.7733C5.96088 10.752 5.91118 10.7307 5.86149 10.7094C5.83667 10.6988 5.81185 10.6881 5.79058 10.6775L5.75864 10.6455C5.82251 10.5817 5.91833 10.5497 6.01411 10.5497C6.33342 10.5178 6.58889 10.422 6.84436 10.2624C6.96902 10.1792 7.03961 10.0826 7.12651 9.96364C7.17315 9.89979 7.22449 9.82951 7.2914 9.75144Z" fill="#306092"/>
</g></svg>
