<?xml version="1.0" standalone="no"?>
<svg xmlns="http://www.w3.org/2000/svg" xmlns:xlink="http://www.w3.org/1999/xlink" class="icon" viewBox="0 0 54 54">
  <defs>
    <path id="path-1" d="M0 13.467C0 6.029 11.605 0 25.92 0s25.92 6.03 25.92 13.467-11.605 13.466-25.92 13.466S0 20.903 0 13.467" />
    <radialGradient id="radialGradient-3" cx="30.02%" cy="82.422%" r="126.375%" fx="30.02%" fy="82.422%" gradientTransform="matrix(.5195 0 0 1 .144 0)">
      <stop offset="0%" stop-color="#AEB2D5" />
      <stop offset="30%" stop-color="#AEB2D5" />
      <stop offset="75%" stop-color="#484C89" />
      <stop offset="100%" stop-color="#484C89" />
    </radialGradient>
    <path id="path-4" d="M0 30 54 30 54 0 0 0z" />
    <path id="path-6" d="M0 30 54 30 54 0 0 0z" />
  </defs>
  <g fill="none" fill-rule="evenodd" stroke="none" stroke-width="1">
    <g transform="translate(0 12)">
      <g transform="matrix(1 0 0 -1 0 30)">
        <g transform="translate(1.08 1.533)">
          <g>
            <mask id="mask-2" fill="#fff"><use xlink:href="#path-1" /></mask>
            <g>
              <g>
                <g fill="url(#radialGradient-3)" fill-rule="nonzero"><path id="path3462" d="M0 13.467C0 6.029 11.605 0 25.92 0s25.92 6.03 25.92 13.467-11.605 13.466-25.92 13.466S0 20.903 0 13.467" /></g>
              </g>
            </g>
          </g>
        </g>
        <g>
          <mask id="mask-5" fill="#fff"><use xlink:href="#path-4" /></mask>
          <g>
            <g transform="translate(2.092 2.533)"><path fill="#777BB3" fill-rule="nonzero" d="M24.908 0c13.755 0 24.907 5.582 24.907 12.467S38.663 24.934 24.908 24.934 0 19.352 0 12.467 11.152 0 24.908 0" /></g>
          </g>
        </g>
        <g>
          <mask id="mask-7" fill="#fff"><use xlink:href="#path-6" /></mask>
          <g>
            <g transform="translate(8.688 6.903)">
              <g transform="translate(.281 .278)"><path fill="#000" fill-rule="nonzero" d="M6.193 6.273c1.131 0 1.976.206 2.51.612.529.402.894 1.099 1.085 2.07.178.908.11 1.542-.202 1.884-.32.35-1.01.527-2.052.527H5.726L4.724 6.273zM.281 0a.28.28 0 0 0-.217.101.28.28 0 0 0-.059.23l2.656 13.495a.28.28 0 0 0 .276.225h5.724c1.799 0 3.138-.482 3.98-1.434.845-.957 1.107-2.294.776-3.974a6.3 6.3 0 0 0-.688-1.89 6.3 6.3 0 0 0-1.267-1.568 5.6 5.6 0 0 0-2.085-1.233c-.75-.242-1.714-.364-2.864-.364H4.196L3.534.225A.28.28 0 0 0 3.258 0z" /></g>
              <g><path fill="#FFF" fill-rule="nonzero" d="M6.24 11.366h1.575c1.258 0 1.695-.273 1.844-.435.246-.27.293-.84.134-1.646-.178-.902-.507-1.542-.98-1.902-.484-.368-1.27-.554-2.338-.554H5.346zm2.702 3.24H3.218a.56.56 0 0 1-.552-.45L.01.662A.55.55 0 0 1 .128.202.56.56 0 0 1 .562 0H3.54c.27 0 .5.189.552.45l.618 3.138h2.086c1.18 0 2.172.127 2.95.377.802.257 1.538.693 2.19 1.295.54.49.984 1.04 1.32 1.635s.579 1.259.72 1.973c.347 1.768.064 3.185-.842 4.21-.897 1.014-2.307 1.528-4.19 1.528M4.663 6.273h1.81q1.8 0 2.682.67.88.67 1.19 2.237.295 1.504-.27 2.123-.565.618-2.261.618h-2.04zm4.278 7.778q2.583 0 3.768-1.34 1.185-1.338.712-3.737a6 6 0 0 0-.658-1.808 6 6 0 0 0-1.211-1.498 5.3 5.3 0 0 0-1.981-1.174q-1.09-.35-2.777-.35h-2.55L3.539.556H.562L3.218 14.05z" /></g>
              <g transform="translate(12.953 3.866)"><path fill="#000" fill-rule="nonzero" d="M7.57 0a.28.28 0 0 0-.217.101.28.28 0 0 0-.059.23L8.47 6.3c.112.569.084.976-.078 1.149-.099.105-.396.281-1.275.281H4.988L3.51.225A.28.28 0 0 0 3.234 0H.281a.28.28 0 0 0-.217.101.28.28 0 0 0-.059.23l2.656 13.495a.28.28 0 0 0 .276.225H5.89a.28.28 0 0 0 .217-.101.28.28 0 0 0 .06-.23l-.642-3.257h2.29c1.744 0 2.927-.304 3.616-.929.702-.637.921-1.656.651-3.03L10.846.225A.28.28 0 0 0 10.57 0z" /></g>
              <g transform="translate(12.671 3.588)"><path fill="#FFF" fill-rule="nonzero" d="M6.171 14.606H3.218a.56.56 0 0 1-.552-.45L.01.662A.55.55 0 0 1 .128.202.56.56 0 0 1 .563 0h2.953c.269 0 .5.189.552.45L5.5 7.73h1.896c.878 0 1.062-.185 1.07-.193.053-.056.123-.318.007-.905L7.3.66a.55.55 0 0 1 .119-.459A.56.56 0 0 1 7.852 0h3c.269 0 .5.189.552.45l1.235 6.28c.29 1.474.042 2.58-.737 3.287-.743.674-1.988 1.002-3.806 1.002H6.148l.576 2.926a.55.55 0 0 1-.119.46.56.56 0 0 1-.434.201m0-.555-.706-3.588h2.631q2.483 0 3.426-.855.942-.856.565-2.772L10.852.556h-3l1.174 5.97q.201 1.02-.147 1.39t-1.482.371h-2.36L3.516.556H.563L3.218 14.05z" /></g>
              <g transform="translate(23.514 .278)"><path fill="#000" fill-rule="nonzero" d="M6.193 6.273c1.131 0 1.976.206 2.51.612.529.402.894 1.099 1.085 2.07.179.908.11 1.542-.202 1.884-.32.35-1.01.527-2.052.527H5.726L4.724 6.273zM.281 0a.28.28 0 0 0-.217.101.28.28 0 0 0-.059.23l2.656 13.495a.28.28 0 0 0 .276.225h5.724c1.799 0 3.138-.482 3.98-1.434.845-.957 1.107-2.294.776-3.974a6.3 6.3 0 0 0-.688-1.89 6.3 6.3 0 0 0-1.267-1.568 5.6 5.6 0 0 0-2.085-1.233c-.75-.242-1.714-.364-2.864-.364H4.196L3.534.225A.28.28 0 0 0 3.258 0z" /></g>
              <g transform="translate(23.233)"><path fill="#FFF" fill-rule="nonzero" d="M6.24 11.366h1.575c1.258 0 1.695-.273 1.844-.435.246-.27.293-.84.134-1.645-.178-.903-.508-1.543-.98-1.903-.484-.368-1.271-.554-2.338-.554H5.346zm2.702 3.24H3.218a.56.56 0 0 1-.552-.45L.01.662A.55.55 0 0 1 .128.202.56.56 0 0 1 .562 0H3.54c.27 0 .5.189.552.45l.618 3.138h2.086c1.18 0 2.172.127 2.95.377.801.257 1.538.693 2.19 1.295.54.49.984 1.04 1.32 1.635s.579 1.259.719 1.973c.348 1.769.065 3.185-.84 4.21-.898 1.014-2.308 1.528-4.192 1.528M4.664 6.273h1.81q1.8 0 2.682.67.88.67 1.19 2.237.295 1.504-.27 2.123-.565.618-2.261.618h-2.04zm4.278 7.778q2.583 0 3.768-1.34 1.185-1.338.712-3.737a6 6 0 0 0-.658-1.808 6 6 0 0 0-1.211-1.498 5.3 5.3 0 0 0-1.981-1.174q-1.09-.35-2.777-.35h-2.55L3.539.556H.562L3.218 14.05z" /></g>
            </g>
          </g>
        </g>
      </g>
    </g>
  </g>
</svg>
