<?xml version="1.0" standalone="no"?>
<svg xmlns="http://www.w3.org/2000/svg" class="icon" viewBox="0 0 16 16">
  <g fill="#FF6A00" fill-rule="nonzero" stroke="none" stroke-width="1">
    <path d="M6.742 0H0v6.152l1.06-.667a1.11 1.11 0 0 1 .205-1.288 1.12 1.12 0 0 1 1.576 0l.106.106.758-.477c.303-.258 1.12-.53 1.515-.553H6.87l.803-.318a.814.814 0 0 1 .591.12l1.083.72s1.425-.378 1.728-.227c.098.046.326.75.363 1.28a.765.765 0 0 1-.34.682l-.091.06-.152.902s-2.848 2.099-4.204 4.652c-.546 1.03-.993 2.25-1.334 3.348H6.75c4 0 7.25-3.242 7.25-7.25C13.992 3.25 10.742 0 6.742 0" transform="translate(1 .75)" />
    <path d="m5.235 4.69 1.629-.152-.334-.41a.318.318 0 0 0-.432-.052l-.863.613m3.848-.319.099.303a.409.409 0 0 0 .348.28l.94.114.553-.44a.345.345 0 0 0 .106-.393l-.16-.394a.158.158 0 0 0-.174-.091l-1.606.424a.149.149 0 0 0-.106.197M1.606 5.985c-.159-.16-.34-.31-.454-.508-.235-.424-.114-.962.25-1.272a1.017 1.017 0 0 1 1.295 0c.151.12.288.272.424.409.084.083.22-.046.129-.13-.227-.226-.44-.484-.735-.613a1.217 1.217 0 0 0-1.28.22c-.303.28-.447.704-.371 1.114.075.393.34.636.606.909.083.083.22-.046.136-.13m7.038-2.326.098.288.599-.152-.591-.234c-.06-.023-.129.037-.106.098M4.886 14.5l.705-.705c.015-.053.038-.106.053-.159l-.864.864h.106m-.394 0 1.311-1.31c.023-.054.038-.114.06-.167L4.387 14.5h.106m-.378 0 1.909-1.91c.022-.06.045-.113.068-.173L4.008 14.5h.106m-.38 0 2.546-2.545c.03-.069.06-.137.091-.197L3.63 14.5h.106m-.386 0 3.326-3.326c.053-.09.106-.182.16-.265l-3.6 3.599.114-.008m4.22-4.705L2.864 14.5h.106l4.47-4.47M2.41 14.5h.105l8.462-8.462.038-.144L2.41 14.5m8.128-8.553L1.985 14.5h.106l8.644-8.652c-.06.03-.129.061-.197.099m-.652.197L1.538 14.5h.106l8.394-8.402c-.046.016-.099.03-.152.046m-.788.348-7.62 7.622a3.31 3.31 0 0 0-.122.227l7.947-7.947c-.068.03-.136.068-.205.098m-.901.463L2.091 13.06c-.053.09-.114.181-.167.272l6.508-6.507c-.084.038-.16.083-.235.129m-5.31 1.197.054.11.056-.055-.11-.055" transform="translate(1 .75)" />
    <path d="m2.905 8.16-.011.01.066.1.044-.045-.099-.066m.277.18-.114.122.038.068.144-.144-.068-.045m.28.183-.227.227.038.068.257-.25-.068-.045m.288.19-.333.317c.015.023.038.038.053.053l.34-.34c-.015-.008-.037-.023-.06-.03m.31.135-.4.402c.022.015.045.023.067.038l.417-.417c-.023-.015-.053-.015-.083-.023m.569-.015a.568.568 0 0 1-.121.03l-.516.516c.03.007.061.007.091.015l.569-.568-.023.007m.538-.174-.697.697c.053-.015.113-.038.166-.06l.69-.69-.16.053m.674-.204-.41.401.243-.136L6 8.402l-.16.053m.598-.188-.068.07.197-.11-.129.04" transform="translate(1 .75)" />
  </g>
</svg>
