<?xml version="1.0" standalone="no"?>
<svg xmlns="http://www.w3.org/2000/svg" class="icon" viewBox="0 0 16 16">
  <g fill="none" fill-rule="nonzero" stroke="none" stroke-width="1">
    <path fill="#000" d="M14.54 9.049c-.223-.192-.51-.224-.798-.128a2.66 2.66 0 0 1-.703.096A12.922 12.922 0 0 0 14.476 5.6c.16-.543.256-1.117.256-1.724a1.828 1.828 0 0 0-.352-1.341A4.098 4.098 0 0 0 11.06.97h-.096c-.543 0-1.086.096-1.597.224h-.032a5.198 5.198 0 0 0-.99-.096 3.245 3.245 0 0 0-1.788.447 6.405 6.405 0 0 0-2.459-.383c-.766 0-1.533.319-2.075.862-.575.606-.863 1.533-.83 2.842.063.575.159 1.15.287 1.692.191.83.415 1.629.702 2.427A5.431 5.431 0 0 0 3.3 10.997c.255.255.607.415.99.447.287 0 .543-.128.766-.32.192.224.447.352.735.416.383.095.766.127 1.15.063.19-.031.35-.095.51-.16 0 .192 0 .384.032.576-.032.574.064 1.117.224 1.66.063.32.223.607.447.862a1.81 1.81 0 0 0 1.628.447c.607-.095 1.182-.415 1.533-.894.415-.575.607-1.437.639-2.81 0-.064.031-.128.031-.191h.096a3.671 3.671 0 0 0 1.565-.256c.383-.16.734-.415.99-.766.064-.128.128-.256.16-.383a.694.694 0 0 0-.256-.64m-.192.734a1.764 1.764 0 0 1-.83.607c-.383.16-.798.224-1.213.224-.192 0-.383-.032-.575-.064-.096.798-.16 1.596-.32 2.395-.031.383-.223.766-.478 1.085-.32.288-.703.48-1.118.511a1.54 1.54 0 0 1-1.341-.255c-.224-.192-.383-.48-.511-.767a3.342 3.342 0 0 1-.128-.542c-.032-.288-.064-.575-.064-.83-.032-.512-.032-.99-.032-1.47a1.976 1.976 0 0 1-.894.447c-.319.064-.67.032-.99-.063a1.135 1.135 0 0 1-.287-.128c-.128-.032-.192-.128-.255-.224-.032-.063-.064-.16-.032-.223.032-.064.064-.16.127-.192.16-.096.32-.16.511-.191.224-.032.447-.096.67-.192.129-.096.224-.223.32-.351v-.032c-.287 0-.543-.096-.798-.192-.096.096-.511.543-1.086 1.214a1.068 1.068 0 0 1-.766.447 1.04 1.04 0 0 1-.735-.32c-.479-.542-.798-1.181-1.021-1.852a24.846 24.846 0 0 1-.64-2.426 13.965 13.965 0 0 1-.286-1.597c-.064-1.214.223-2.012.702-2.523.479-.479 1.118-.734 1.82-.766a6.195 6.195 0 0 1 2.523.447 3.156 3.156 0 0 1 1.692-.48c.32 0 .67.065.99.129.128-.064.288-.096.447-.128.415-.096.799-.128 1.214-.16a3.843 3.843 0 0 1 3.129 1.437c.192.32.287.735.255 1.118a9.592 9.592 0 0 1-.255 1.628 13.069 13.069 0 0 1-1.692 3.8c.032.032.063.032.095.064.447.096.894.096 1.342-.032.16-.064.35-.032.51.032.064.064.128.16.128.256-.096 0-.096.095-.128.16" />
    <path fill="#306092" d="M10.996 1.736H10.9c-.32 0-.67.032-.99.128.639.288 1.213.767 1.66 1.31.256.35.48.702.67 1.117.065.16.129.287.16.383 0 .064.033.096.033.16v.096c.031.51-.128.83-.128 1.34 0 .352.096.767.096 1.214.063.48-.064.958-.32 1.341.032.032.064.064.064.096.67-1.086 1.214-2.267 1.533-3.512.128-.511.223-1.022.223-1.533.032-.288-.032-.575-.16-.862-.638-.862-1.66-1.31-2.745-1.278" />
    <path fill="#306092" d="M8.25 1.864a2.179 2.179 0 0 0-1.533.511c-.384.32-.639.766-.83 1.213-.16.448-.256.926-.288 1.405.255-.127.51-.223.798-.287.288-.064.607-.064.894.032.32.128.543.415.607.766.415 1.884-.128 2.587-.32 3.162a2.03 2.03 0 0 0-.19.575c.031 0 .063 0 .095-.032.096 0 .224.032.32.063a.777.777 0 0 1 .414.48.347.347 0 0 1 .032.16v.095a25.35 25.35 0 0 0 0 2.203c0 .288.032.543.064.83 0 .16.032.288.096.448.064.223.192.415.383.574.192.16.48.256.99.16.32-.032.639-.192.894-.415.192-.256.32-.543.351-.862.128-.607.32-2.395.352-2.715 0-.191.032-.415.127-.574a.7.7 0 0 1 .32-.288c.064-.032.096-.032.16-.064-.064-.063-.096-.127-.16-.191a2.61 2.61 0 0 1-.383-.639c-.064-.096-.096-.191-.16-.287-.096-.16-.16-.32-.287-.511a6.209 6.209 0 0 1-.543-1.341c-.128-.48-.16-.926.16-1.278.255-.287.734-.447 1.436-.35-.032-.065-.032-.129-.064-.192a2.995 2.995 0 0 0-.606-1.022c-.703-.958-1.82-1.501-3.002-1.533l-.128-.096" />
    <path fill="#306092" d="M4.354 1.896H4.13c-.575 0-1.15.224-1.533.639-.415.415-.702 1.117-.638 2.299.064.51.16 1.022.255 1.533.16.798.383 1.564.67 2.33a5.01 5.01 0 0 0 .927 1.725c.096.128.255.192.447.192a.757.757 0 0 0 .479-.288c.351-.415.702-.83 1.054-1.181a1.937 1.937 0 0 1-.671-1.852c.032-.384.064-.767.064-1.182 0-.32-.032-.51-.032-.639v-.031c0-.671.128-1.342.351-1.98.16-.447.415-.862.767-1.214a6.104 6.104 0 0 0-1.693-.319c-.096-.032-.16-.032-.223-.032m7.536 4.343c.032-.511.127-.83.127-1.182-.16-.032-.287-.032-.447-.032-.255-.032-.51.064-.734.224-.16.16-.16.51-.096.926.128.447.287.862.511 1.245.096.192.192.352.256.511.063.096.127.224.16.32.031.063.063.16.127.191.128-.32.191-.638.16-.958.031-.383-.064-.83-.064-1.245m-.224-.958c0 .032 0 .064-.032.096s-.032.064-.064.095c-.064.064-.16.096-.223.128-.096 0-.16 0-.224-.064-.032-.032-.064-.032-.095-.064-.032 0-.032-.031-.032-.063s0-.064.031-.096l.064-.064a.616.616 0 0 1 .32-.096h.16c.031 0 .063.032.095.032v.096" />
    <path fill="#306092" d="M7.483 5.568a.634.634 0 0 0-.383-.51c-.096-.033-.192-.033-.288-.033-.127 0-.223.032-.35.032-.224.064-.448.16-.671.256-.064.032-.128.096-.192.16 0 .095.032.287.032.574 0 .415 0 .83-.064 1.214-.16.862.415 1.66 1.277 1.82.064 0 .096 0 .16.032.064-.192.16-.415.192-.639.191-.575.67-1.054.287-2.906m-.224.032-.095.096c-.064.064-.16.096-.256.064a.37.37 0 0 1-.223-.16c-.032-.032-.064-.064-.064-.096-.064-.063-.064-.095-.064-.127 0-.064.064-.096.128-.128s.127-.032.16-.032h.095a.29.29 0 0 1 .224.096c.032.032.064.032.095.064.032.032.032.064.032.127-.032.032-.032.064-.032.096m4.886 3.96c-.064.032-.128.032-.191.032a.56.56 0 0 0-.16.127c-.032.128-.064.256-.064.384.032.032.064.032.096.032.128.032.287.063.447.063a3.11 3.11 0 0 0 1.086-.191c.191-.096.383-.192.542-.351-.83.16-1.245.127-1.532 0a1.556 1.556 0 0 1-.224-.096m-4.694.064c-.032 0-.096 0-.16.127-.191.224-.255.384-.447.511-.255.16-.51.256-.83.288a.363.363 0 0 0-.255.096l.032.031c.063.032.16.064.191.096.256.064.543.096.83.064.384-.064.735-.287.926-.607a.24.24 0 0 0 0-.287.45.45 0 0 0-.191-.224c0-.095-.064-.095-.096-.095" />
  </g>
</svg>
