<?xml version="1.0" standalone="no"?>
<svg xmlns="http://www.w3.org/2000/svg" class="icon" viewBox="0 0 1024 1024">
  <g fill="none" fill-rule="evenodd" stroke="none" stroke-width="1">
    <path fill="#006AFF" d="M864 895.046H160c-17.673 0-32-14.328-32-32V160.954c0-17.674 14.327-32 32-32h704c17.673 0 32 14.326 32 32v702.09c0 17.673-14.327 32-32 32" />
    <path fill="#FFF" d="M726 351.545H426c-5.523 0-10-3.582-10-8v-48c0-4.418 4.477-8 10-8h300c5.523 0 10 3.582 10 8v48c0 4.418-4.477 8-10 8M726 543.545H426c-5.523 0-10-3.582-10-8v-48c0-4.418 4.477-8 10-8h300c5.523 0 10 3.582 10 8v48c0 4.418-4.477 8-10 8M726 737.374H426c-5.523 0-10-3.582-10-8v-48c0-4.418 4.477-8 10-8h300c5.523 0 10 3.582 10 8v48c0 4.418-4.477 8-10 8M344 351.545h-48a8 8 0 0 1-8-8v-48a8 8 0 0 1 8-8h48a8 8 0 0 1 8 8v48a8 8 0 0 1-8 8M344 543.545h-48a8 8 0 0 1-8-8v-48a8 8 0 0 1 8-8h48a8 8 0 0 1 8 8v48a8 8 0 0 1-8 8M344 737.374h-48a8 8 0 0 1-8-8v-48a8 8 0 0 1 8-8h48a8 8 0 0 1 8 8v48a8 8 0 0 1-8 8" />
  </g>
</svg>
