<?xml version="1.0" standalone="no"?>
<svg xmlns="http://www.w3.org/2000/svg" class="icon" viewBox="0 0 54 54">
  <g fill="none" fill-rule="evenodd" stroke="none" stroke-width="1">
    <g>
      <path d="M0 0H54V54H0z" />
      <g fill="#E6522C" fill-rule="nonzero"><path d="M27 0C12.09 0 0 12.088 0 27 0 41.91 12.089 54 27 54s27-12.089 27-27C54 12.088 41.911 0 27 0m0 50.533c-4.242 0-7.682-2.834-7.682-6.329h15.364c0 3.495-3.44 6.33-7.682 6.33m12.689-8.425H14.31v-4.602h25.38zm-.091-6.97H14.383c-.084-.097-.17-.192-.25-.29-2.599-3.155-3.21-4.802-3.805-6.48-.01-.055 3.15.646 5.391 1.15 0 0 1.153.267 2.84.574-1.62-1.897-2.58-4.31-2.58-6.774 0-5.413 4.15-10.142 2.653-13.965 1.457.118 3.017 3.076 3.122 7.7 1.55-2.141 2.198-6.052 2.198-8.45 0-2.482 1.635-5.365 3.272-5.464-1.459 2.404.378 4.465 2.01 9.577.612 1.92.534 5.152 1.007 7.2.156-4.256.888-10.466 3.589-12.61-1.192 2.7.176 6.079 1.111 7.703 1.51 2.62 2.424 4.606 2.424 8.361 0 2.518-.93 4.889-2.498 6.742a62 62 0 0 0 3.014-.636l5.79-1.13c.001 0-.84 3.46-4.073 6.792" /></g>
    </g>
  </g>
</svg>
