<?xml version="1.0" standalone="no"?>
<svg xmlns="http://www.w3.org/2000/svg" class="icon" viewBox="0 0 54 54">
  <defs>
    <linearGradient id="linearGradient-1" x1="13.343%" x2="79.332%" y1="12.039%" y2="78.201%">
      <stop offset="0%" stop-color="#387EB8" />
      <stop offset="100%" stop-color="#366994" />
    </linearGradient>
    <linearGradient id="linearGradient-2" x1="19.448%" x2="90.319%" y1="20.579%" y2="88.429%">
      <stop offset="0%" stop-color="#FFE052" />
      <stop offset="100%" stop-color="#FFC331" />
    </linearGradient>
  </defs>
  <g fill="none" fill-rule="evenodd" stroke="none" stroke-width="1">
    <g>
      <path d="M0 0H54V54H0z" />
      <g fill-rule="nonzero">
        <path fill="url(#linearGradient-1)" d="M26.805 0C13.097 0 13.953 5.976 13.953 5.976l.015 6.191H27.05v1.859H8.772S0 13.026 0 26.93s7.657 13.412 7.657 13.412h4.569v-6.453s-.246-7.696 7.534-7.696h12.975s7.29.118 7.29-7.082V7.205S41.132 0 26.805 0m-7.213 4.163c.624 0 1.223.249 1.665.693a2.37 2.37 0 0 1 .689 1.673 2.37 2.37 0 0 1-.69 1.674 2.345 2.345 0 0 1-3.329 0 2.37 2.37 0 0 1-.688-1.674c0-.627.247-1.23.688-1.673a2.35 2.35 0 0 1 1.665-.693" />
        <path fill="url(#linearGradient-2)" d="M27.195 54c13.708 0 12.852-5.976 12.852-5.976l-.015-6.191H26.95v-1.859h18.278S54 40.974 54 27.07s-7.657-13.412-7.657-13.412h-4.569v6.453s.246 7.696-7.534 7.696H21.265s-7.29-.118-7.29 7.082v11.906S12.868 54 27.195 54m7.213-4.163a2.35 2.35 0 0 1-1.665-.692 2.37 2.37 0 0 1-.688-1.674c-.001-.627.247-1.23.688-1.673a2.345 2.345 0 0 1 3.33 0 2.37 2.37 0 0 1 .688 1.673 2.37 2.37 0 0 1-.688 1.673 2.35 2.35 0 0 1-1.665.693" />
      </g>
    </g>
  </g>
</svg>
