<?xml version="1.0" standalone="no"?>
<svg xmlns="http://www.w3.org/2000/svg" class="icon" viewBox="0 0 16 16">
  <path fill="#FF5800" fill-rule="nonzero" stroke="none" stroke-width="1" d="M8 16c-1.26-1.17-1.209-2.495-1.209-2.495H9.21S9.26 14.83 8 16M8 1.325C6.937 2.73 4.871 5.921 4.871 9.52c0 1.042.196 1.914.393 2.529h5.472a8.323 8.323 0 0 0 .393-2.529c0-3.598-2.066-6.79-3.129-8.194m3.967 8.194c0 2.371-.909 3.936-.909 3.936l-.972-.569H5.914l-.972.569s-.909-1.565-.909-3.936C4.033 4.297 8 .001 8 0c.001.001 3.967 4.297 3.967 9.52m.548 1.557c0 .909-.403 1.897-.681 2.313h1.926l-.213-1.31-1.032-1.003M2.453 12.08l-.213 1.31h1.926c-.279-.417-.681-1.405-.681-2.313L2.453 12.08Zm4.792-3.781a.187.187 0 1 0-.032.372.187.187 0 0 0 .032-.372m.596 0a.187.187 0 1 0-.031.372.187.187 0 0 0 .031-.372m.597 0a.187.187 0 1 0-.032.372.187.187 0 0 0 .032-.372m2.039 2.354a.963.963 0 1 1-1.8-.479l-.241-.329a1.48 1.48 0 0 1-1.557-.23l-.268.234a.577.577 0 1 1-.368-.42l.286-.248a1.478 1.478 0 0 1 .13-1.594l-.301-.326c-.022.002-.043.006-.065.006a.49.49 0 1 1 .477-.382l.303.33a1.478 1.478 0 0 1 1.498-.024l.257-.257a.763.763 0 1 1 .473.473l-.235.236a1.479 1.479 0 0 1-.092 1.802l.22.3a.965.965 0 0 1 1.283.909M7.84 9.654a1.17 1.17 0 1 0 .056-2.338 1.17 1.17 0 0 0-.056 2.338" />
</svg>
