<?xml version="1.0" standalone="no"?>
<svg xmlns="http://www.w3.org/2000/svg" class="icon" viewBox="0 0 54 54">
  <g fill="none" fill-rule="evenodd" stroke="none" stroke-width="1">
    <g>
      <path d="M0 0H54V54H0z" />
      <g fill-rule="nonzero" transform="translate(0 13)">
        <path fill="#484848" d="M40.124 0c-4.63 0-8.895 2.624-13.017 7.208C23.057 2.552 18.72 0 13.876 0 5.854 0 0 5.766 0 13.529s5.854 13.457 13.876 13.457c4.93 0 8.752-2.328 13.017-6.97C31.015 24.672 35.208 27 40.124 27 48.146 26.986 54 21.313 54 13.529S48.146 0 40.124 0M13.933 18.84c-3.4 0-5.424-2.255-5.424-5.24 0-2.983 2.025-5.304 5.424-5.304 2.862 0 5.202 2.32 7.736 5.45-2.39 2.911-4.917 5.095-7.736 5.095m25.948 0c-2.82 0-5.202-2.255-7.736-5.24 2.605-3.127 4.845-5.304 7.736-5.304 3.4 0 5.403 2.35 5.403 5.305s-2.004 5.24-5.403 5.24" />
        <path fill="#20A7C9" d="m32.932 25.061 5.396-6.487c-2.147-.648-4.129-2.595-6.183-5.01l-5.252 6.452a23.6 23.6 0 0 0 6.04 5.045M27.107 7.2a24.3 24.3 0 0 0-6.004-5.16l-5.402 6.559c2.053.72 3.871 2.58 5.803 4.951l.215.152z" />
      </g>
    </g>
  </g>
</svg>
