<?xml version="1.0" standalone="no"?>
<svg xmlns="http://www.w3.org/2000/svg" class="icon" viewBox="0 0 1024 1024">
  <g fill="none" fill-rule="evenodd" stroke="none" stroke-width="1">
    <path d="M0 0H1024V1024H0z" />
    <path fill="#0AC185" d="M536 656H72a8 8 0 0 0-8 8v80a8 8 0 0 0 8 8h464a8 8 0 0 0 8-8v-80a8 8 0 0 0-8-8M952 656H608v96h344a8 8 0 0 0 8-8v-80a8 8 0 0 0-8-8" />
    <path fill="#006AFF" d="M416 272H72a8 8 0 0 0-8 8v80a8 8 0 0 0 8 8h344zM952 272H488a8 8 0 0 0-8 8v80a8 8 0 0 0 8 8h464a8 8 0 0 0 8-8v-80a8 8 0 0 0-8-8" />
    <path fill="#006AFF" d="M384 512H224.2c-17.673 0-32-14.327-32-32V160c0-17.673 14.327-32 32-32H384c17.673 0 32 14.327 32 32v320c0 17.673-14.327 32-32 32" />
    <path fill="#0AC185" d="M800 896H640c-17.673 0-32-14.327-32-32V544c0-17.673 14.327-32 32-32h160c17.673 0 32 14.327 32 32v320c0 17.673-14.327 32-32 32" />
  </g>
</svg>
