<?xml version="1.0" standalone="no"?>
<svg xmlns="http://www.w3.org/2000/svg" class="icon" viewBox="0 0 54 54">
  <g fill="none" fill-rule="evenodd" stroke="none" stroke-width="1">
    <g>
      <path d="M0 0H54V54H0z" />
      <g>
        <path fill="#E8762D" fill-rule="nonzero" d="M25.5223881 35.8084034 28.4776119 35.8084034 28.4776119 27.7915966 35.9104478 27.7915966 35.9104478 24.9411765 28.4776119 24.9411765 28.4776119 16.9243697 25.5223881 16.9243697 25.5223881 24.9411765 18.1791045 24.9411765 18.1791045 27.7915966 25.5223881 27.7915966z" />
        <path fill="#C72037" fill-rule="nonzero" d="M11.8208955 47.3882353 14.3283582 47.3882353 14.3283582 40.2621849 20.9552239 40.2621849 20.9552239 38.0352941 14.3283582 38.0352941 14.3283582 30.8201681 11.8208955 30.8201681 11.8208955 38.0352941 5.19402985 38.0352941 5.19402985 40.2621849 11.8208955 40.2621849z" />
        <path fill="#5B879B" fill-rule="nonzero" d="M39.6716418 21.6453782 42.1791045 21.6453782 42.1791045 14.5193277 48.8955224 14.5193277 48.8955224 12.3815126 42.1791045 12.3815126 42.1791045 5.16638655 39.6716418 5.16638655 39.6716418 12.3815126 33.0447761 12.3815126 33.0447761 14.5193277 39.6716418 14.5193277z" />
        <path fill="#5C6692" fill-rule="nonzero" d="M25.9701493 53 28.119403 53 28.119403 47.9226891 32.6865672 47.9226891 32.6865672 46.0521008 28.119403 46.0521008 28.119403 40.9747899 25.9701493 40.9747899 25.9701493 46.0521008 21.4925373 46.0521008 21.4925373 47.9226891 25.9701493 47.9226891z" />
        <path fill="#EB9129" fill-rule="nonzero" d="M11.9104478 21.6453782 14.238806 21.6453782 14.238806 14.4302521 20.9552239 14.4302521 20.9552239 12.3815126 14.238806 12.3815126 14.238806 5.16638655 11.9104478 5.16638655 11.9104478 12.3815126 5.19402985 12.3815126 5.19402985 14.4302521 11.9104478 14.4302521z" />
        <path fill="#5C6692" fill-rule="nonzero" d="M47.2835821 32.3344538 49.4328358 32.3344538 49.4328358 27.3462185 54 27.3462185 54 25.3865546 49.4328358 25.3865546 49.4328358 20.3983193 47.2835821 20.3983193 47.2835821 25.3865546 42.8059701 25.3865546 42.8059701 27.3462185 47.2835821 27.3462185z" />
        <path fill="#1F457E" d="M39.6716418 47.3882353 42.1791045 47.3882353 42.1791045 40.2621849 48.8955224 40.2621849 48.8955224 38.0352941 42.1791045 38.0352941 42.1791045 30.8201681 39.6716418 30.8201681 39.6716418 38.0352941 33.0447761 38.0352941 33.0447761 40.2621849 39.6716418 40.2621849z" />
        <path fill="#7199A6" fill-rule="nonzero" d="M32.328 6.413V4.9h-4.477V0h-1.612v4.9H21.76v1.513h4.478v4.9h1.612v-4.9zM4.478 31.978H6.09V27.08h4.477v-1.514H6.09v-4.81H4.478v4.81H0v1.603l4.478-.089z" />
      </g>
    </g>
  </g>
</svg>
