<?xml version="1.0" standalone="no"?>
<svg xmlns="http://www.w3.org/2000/svg" class="icon" viewBox="0 0 1024 1024">
  <g fill="none" fill-rule="evenodd" stroke="none" stroke-width="1">
    <path d="M0 0H1024V1024H0z" />
    <path fill="#006AFF" d="M864 895.045H160c-17.673 0-32-14.327-32-32v-503.5a8 8 0 0 1 8-8h752a8 8 0 0 1 8 8v503.5c0 17.673-14.327 32-32 32" />
    <path fill="#0AC185" d="M888 287.545H136a8 8 0 0 1-8-8v-118.59c0-17.673 14.327-32 32-32h704c17.673 0 32 14.327 32 32v118.59a8 8 0 0 1-8 8" />
    <path fill="#FFF" d="M726 543.313H426c-5.523 0-10-3.582-10-8v-48c0-4.418 4.477-8 10-8h300c5.523 0 10 3.582 10 8v48c0 4.418-4.477 8-10 8M726 736.687H426c-5.523 0-10-3.582-10-8v-48c0-4.418 4.477-8 10-8h300c5.523 0 10 3.582 10 8v48c0 4.418-4.477 8-10 8M344 543.313h-48a8 8 0 0 1-8-8v-48a8 8 0 0 1 8-8h48a8 8 0 0 1 8 8v48a8 8 0 0 1-8 8M344 736.687h-48a8 8 0 0 1-8-8v-48a8 8 0 0 1 8-8h48a8 8 0 0 1 8 8v48a8 8 0 0 1-8 8" />
  </g>
</svg>
