<?xml version="1.0" standalone="no"?>
<svg xmlns="http://www.w3.org/2000/svg" class="icon" viewBox="0 0 16 16">
  <g fill="none" fill-rule="evenodd" stroke="none" stroke-width="1">
    <g>
      <path d="M0 0H16V16H0z" />
      <g id="XMLID_19_" fill-rule="nonzero" transform="translate(1.6 3.2)">
        <path id="XMLID_22_" fill="#00A3FF" d="M11.083 7.564c-.206.206-.618.515-1.338.515H5.319c1.338-1.287 2.47-2.367 2.573-2.47s.36-.36.618-.566c.514-.463.926-.515 1.286-.515.515 0 .926.206 1.287.515a1.74 1.74 0 0 1 0 2.521m.874-3.345a2.87 2.87 0 0 0-2.11-.926c-.72 0-1.337.257-1.903.67-.206.205-.515.41-.772.72C6.966 4.888 2.54 9.21 2.54 9.21c.257.051.566.051.823.051h5.609c.411 0 .72 0 1.029-.051a3.16 3.16 0 0 0 1.904-.824 2.935 2.935 0 0 0 .051-4.168" />
        <path id="XMLID_2_" fill="#00C8DC" d="M4.753 3.91c-.566-.411-1.132-.617-1.8-.617-.824 0-1.596.36-2.11.926a3 3 0 0 0 .051 4.22c.515.463 1.03.72 1.647.772l1.183-1.132h-.669c-.669-.052-1.08-.258-1.338-.515a1.85 1.85 0 0 1-.051-2.573c.36-.36.772-.514 1.286-.514.31 0 .772.051 1.235.514.206.206.772.618.978.824h.052l.771-.772V4.99c-.36-.36-.926-.823-1.235-1.08" />
        <path id="XMLID_1_" fill="#006EFF" d="M10.156 2.624A4.02 4.02 0 0 0 6.4 0C4.393 0 2.798 1.492 2.49 3.345c.154 0 .308-.052.514-.052s.463.052.669.052A2.76 2.76 0 0 1 6.4 1.132c1.132 0 2.11.669 2.573 1.647 0 0 .051.051.051 0 .36-.052.772-.155 1.132-.155q0 .078 0 0" />
      </g>
    </g>
  </g>
</svg>
