<?xml version="1.0" standalone="no"?>
<svg xmlns="http://www.w3.org/2000/svg" class="icon" viewBox="0 0 1024 1024">
  <g fill="none" fill-rule="evenodd" stroke="none" stroke-width="1">
    <path d="M0 0H1024V1024H0z" />
    <path fill="#006AFF" d="M862 192h-70.643c-17.673 0-32 14.249-32 31.827v79.568c0 8.788-7.164 15.913-16 15.913H281.643c-8.836 0-16-7.125-16-15.913v-79.568c0-17.578-14.327-31.827-32-31.827H162c-17.673 0-32 14.249-32 31.827v672.346C130 913.751 144.327 928 162 928h700c17.673 0 32-14.249 32-31.827V223.827C894 206.249 879.673 192 862 192" />
    <path fill="#0AC185" d="M663.857 256H362.143c-17.673 0-32-14.327-32-32v-96c0-17.673 14.327-32 32-32h301.714c17.673 0 32 14.327 32 32v96c0 17.673-14.327 32-32 32" />
    <path fill="#FFF" d="M696.5 570.157h-368a8 8 0 0 1-8-8v-48a8 8 0 0 1 8-8h368a8 8 0 0 1 8 8v48a8 8 0 0 1-8 8M696.5 752h-368a8 8 0 0 1-8-8v-48a8 8 0 0 1 8-8h368a8 8 0 0 1 8 8v48a8 8 0 0 1-8 8" />
  </g>
</svg>
