<?xml version="1.0" standalone="no"?>
<svg xmlns="http://www.w3.org/2000/svg" class="icon" viewBox="0 0 16 16">
  <path fill="#FB0020" fill-rule="nonzero" stroke="none" stroke-width="1" d="M7.675.838A.67.67 0 0 1 8.31.822l5.856 3.315c.195.115.32.318.334.541v6.63a.647.647 0 0 1-.318.541l-5.855 3.315a.63.63 0 0 1-.637 0L1.82 11.849c-.184-.132-.319-.328-.319-.542V4.678a.6.6 0 0 1 .319-.525L7.675.838Zm.298 2.495-4.15 2.248v1.804L6.03 6.122l-.117 5.416 1.672.886.034-7.04 2.092-1.116-1.74-.935Zm4.076 2.386-1.723.902v4.742l1.723-.805v-4.84" />
</svg>
