<?xml version="1.0" standalone="no"?>
<svg xmlns="http://www.w3.org/2000/svg" class="icon" viewBox="0 0 1024 1024">
  <g fill="none" fill-rule="evenodd" stroke="none" stroke-width="1">
    <path d="M0 0H1024V1024H0z" />
    <path fill="#006AFF" d="M864 896H160c-17.673 0-32-14.327-32-32V160c0-17.673 14.327-32 32-32h704c17.673 0 32 14.327 32 32v704c0 17.673-14.327 32-32 32" />
    <path fill="#FFF" d="M649.079 401.052c0 75.742-61.401 137.143-137.143 137.143-75.742 0-137.143-61.401-137.143-137.143 0-75.742 61.4-137.143 137.143-137.143 75.742 0 137.143 61.4 137.143 137.143" />
    <path fill="#FFF" d="M752.564 786.891c4.498 0 8.146-3.708 8.004-8.203C756.236 645.134 646.607 538.194 512 538.194c-134.606 0-244.235 106.94-248.568 240.494-.141 4.495 3.507 8.203 8.004 8.203z" />
  </g>
</svg>
