<?xml version="1.0" standalone="no"?>
<svg xmlns="http://www.w3.org/2000/svg" class="icon" viewBox="0 0 1024 1024">
  <g fill="none" fill-rule="evenodd" stroke="none" stroke-width="1">
    <path d="M0 0H1024V1024H0z" />
    <path fill="#006AFF" d="M864 896H160c-17.673 0-32-14.327-32-32V160c0-17.673 14.327-32 32-32h704c17.673 0 32 14.327 32 32v704c0 17.673-14.327 32-32 32" />
    <path fill="#FFF" d="M561 263.245v491.618H257.388c-8.837 0-16-7.163-16-16V349.89a16 16 0 0 1 11.385-15.32l287.612-86.645c10.269-3.094 20.615 4.594 20.615 15.32M466.378 594h-128v64h128zm0-128h-128v64h128z" />
    <path fill="#0AC185" d="M768 755H561V406.137l211.222 57.778A16 16 0 0 1 784 479.348V739c0 8.837-7.163 16-16 16" />
  </g>
</svg>
