<?xml version="1.0" standalone="no"?>
<svg xmlns="http://www.w3.org/2000/svg" class="icon" viewBox="0 0 1024 1024">
  <g fill="none" fill-rule="evenodd" stroke="none" stroke-width="1">
    <path d="M0 0H1024V1024H0z" />
    <path fill="#006AFF" d="M832 703.916H192c-17.673 0-32-14.327-32-32v-448c0-17.673 14.327-32 32-32h640c17.673 0 32 14.327 32 32v448c0 17.673-14.327 32-32 32" />
    <path fill="#FFF" d="m342.756 576.9-29.187-38.106a7.999 7.999 0 0 1 1.487-11.215l104.007-79.663-104.007-79.662a8 8 0 0 1-1.487-11.216l29.187-38.107a8 8 0 0 1 11.216-1.486l137.175 105.067c16.722 12.808 16.722 38 0 50.809L353.972 578.388a8 8 0 0 1-11.216-1.487M671.159 580.037h-144a8 8 0 0 1-8-8v-48a8 8 0 0 1 8-8h144a8 8 0 0 1 8 8v48a8 8 0 0 1-8 8" />
    <path fill="#0AC185" d="M952 831.748H72c-4.418 0-8-3.563-8-7.958v-48.084c0-4.395 3.582-7.958 8-7.958h880c4.418 0 8 3.563 8 7.958v48.084c0 4.395-3.582 7.958-8 7.958" />
  </g>
</svg>
