<?xml version="1.0" standalone="no"?>
<svg xmlns="http://www.w3.org/2000/svg" class="icon" viewBox="0 0 16 16">
  <g fill="none" fill-rule="evenodd" stroke="none" stroke-width="1">
    <g>
      <path fill="#5C6B8A" d="M12.625 1.188a.5.5 0 0 1 .5.5v4.919l-1.073-.377A.2.2 0 0 0 12 6.222a.2.2 0 0 0-.052.008l-3.84 1.348A.16.16 0 0 0 8 7.73v5.073c0 .05.022.097.062.128l1.907 1.507H2.625a.5.5 0 0 1-.492-.41l-.008-.09V1.688a.5.5 0 0 1 .5-.5ZM7.5 6.156H4.625a.125.125 0 0 0-.125.125v.75c0 .069.056.125.125.125H7.5a.125.125 0 0 0 .125-.125v-.75a.125.125 0 0 0-.125-.125m3.125-2.25h-6a.125.125 0 0 0-.125.125v.75c0 .069.056.125.125.125h6a.125.125 0 0 0 .125-.125v-.75a.125.125 0 0 0-.125-.125" />
      <path fill="#8592AD" d="m12 7.534 2.76.97v3.772L12 14.456l-2.76-2.18V8.504zm1.878 1.636h-.886c-.052 0-.1.025-.13.067l-1.27 1.774-.458-.644a.16.16 0 0 0-.13-.067h-.884c-.13 0-.206.15-.13.256l1.476 2.064a.158.158 0 0 0 .258 0l2.284-3.193a.162.162 0 0 0-.13-.257" />
    </g>
  </g>
</svg>
