<?xml version="1.0" standalone="no"?>
<svg xmlns="http://www.w3.org/2000/svg" class="icon" viewBox="0 0 16 16">
  <g fill="none" fill-rule="evenodd" stroke="none" stroke-width="1">
    <path fill="#5C6B8A" d="M.889 12.05c0 .463.33.839.735.839h12.752c.405 0 .735-.376.735-.839V6.667H.89zm8-2.105c0-.092.08-.167.178-.167h4.09c.098 0 .176.075.176.167v1c0 .091-.08.166-.176.166H9.069c-.099 0-.179-.075-.179-.167v-1z" />
    <path fill="#8592AD" d="M14.375 3.111H1.624c-.408 0-.735.398-.735.888v1.779H15.11v-1.78c-.001-.49-.332-.887-.736-.887" />
  </g>
</svg>
