<?xml version="1.0" standalone="no"?>
<svg xmlns="http://www.w3.org/2000/svg" class="icon" viewBox="0 0 16 16">
  <g fill="none" fill-rule="evenodd" stroke="none" stroke-width="1">
    <g>
      <path fill="#5C6B8A" d="M7.111 10.968q0-.303.046-.594H5.871l.034.175c.377 1.844 1.09 3.085 1.8 3.085q.188 0 .373-.112a3.84 3.84 0 0 1-.967-2.554m-1.087 2.426c-.48-.735-.846-1.785-1.062-3.02H2.411a5.94 5.94 0 0 0 3.613 3.02M4.741 7.706q0-.606.042-1.186H1.897a5.96 5.96 0 0 0 .153 2.964h2.786l-.034-.343a17 17 0 0 1-.06-1.435M9.774 7.3q-.01-.39-.04-.781H5.676l-.02.29c-.052.892-.025 1.787.078 2.675h1.673a3.87 3.87 0 0 1 2.367-2.184m3.857.405q0-.61-.118-1.186h-2.886l.023.39.008.216a3.84 3.84 0 0 1 2.956 1.045q.018-.232.017-.465m-.373-2.075a5.94 5.94 0 0 0-3.872-3.613l.064.1.096.164c.472.84.817 2.006.992 3.349zm-8.35-.26c.206-1.38.594-2.553 1.116-3.353l-.072.022-.18.06c-1.672.578-3 1.873-3.621 3.53h2.721l.036-.26m4.702.073c-.338-2.159-1.124-3.666-1.905-3.666-.804 0-1.613 1.595-1.933 3.853h3.864z" />
      <path fill="#8592AD" fill-rule="nonzero" d="M12.335 8.388a2.889 2.889 0 1 0-2.892 5.002 2.889 2.889 0 0 0 2.892-5.002m-1.372 2.58h1.185a.296.296 0 0 1 0 .593h-1.481a.296.296 0 0 1-.296-.291V9.485a.296.296 0 1 1 .592 0z" />
    </g>
  </g>
</svg>
