<?xml version="1.0" standalone="no"?>
<svg xmlns="http://www.w3.org/2000/svg" xmlns:xlink="http://www.w3.org/1999/xlink" class="icon" viewBox="0 0 1024 1024">
  <defs><path id="a" d="m117.73 321.565 196.212 114.932v187.44l198.056 114.15 198.055-114.15-.001-187.44 196.216-114.931.001 399.24a31.999 31.999 0 0 1-15.607 27.482l-.411.24-362.269 208.849a32.002 32.002 0 0 1-31.964 0L133.749 748.529a31.999 31.999 0 0 1-16.018-27.723zm394.268 38.217 134.055 77.263v149.91L511.998 664.22l-134.055-77.263V437.045zm-15.98-293.158a31.997 31.997 0 0 1 31.964 0l346.184 199.575L677.58 381.347l-165.582-95.434-165.584 95.434-196.581-115.15Z" /></defs>
  <g fill="none" fill-rule="evenodd" stroke="none" stroke-width="1">
    <mask id="b" fill="#fff"><use xlink:href="#a" /></mask>
    <use xlink:href="#a" fill="#5C6B8A" />
    <path fill="#8592AD" d="m532 480 374.269-170.122v-6.684c0-11.44-6.107-22.01-16.018-27.723L527.98 66.624a31.997 31.997 0 0 0-31.963 0l-362.27 208.847c-9.7 5.592-15.717 15.845-15.97 27.006z" />
    <path fill="#5C6B8A" d="M377.942 578.52V445.48a16 16 0 0 1 8.01-13.863l118.056-68.042a16 16 0 0 1 15.98 0l118.054 68.042a15.998 15.998 0 0 1 8.011 13.862V578.52a15.997 15.997 0 0 1-8.01 13.862l-118.056 68.042a16 16 0 0 1-15.979 0l-118.056-68.042a15.998 15.998 0 0 1-8.01-13.862" />
  </g>
</svg>
