<?xml version="1.0" standalone="no"?>
<svg xmlns="http://www.w3.org/2000/svg" class="icon" viewBox="0 0 1024 1024">
  <g fill="none" fill-rule="evenodd" stroke="none" stroke-width="1">
    <path fill="#5C6B8A" d="M288 896H96c-17.673 0-32-14.327-32-32V544c0-17.673 14.327-32 32-32h192c17.673 0 32 14.327 32 32v320c0 17.673-14.327 32-32 32M608 896H416c-17.673 0-32-14.327-32-32V352c0-17.673 14.327-32 32-32h192c17.673 0 32 14.327 32 32v512c0 17.673-14.327 32-32 32" />
    <path fill="#8592AD" d="M928 896H736c-17.673 0-32-14.327-32-32V160c0-17.673 14.327-32 32-32h192c17.673 0 32 14.327 32 32v704c0 17.673-14.327 32-32 32" />
  </g>
</svg>
