<?xml version="1.0" standalone="no"?>
<svg xmlns="http://www.w3.org/2000/svg" class="icon" viewBox="0 0 1024 1024">
  <g fill="none" fill-rule="evenodd" stroke="none" stroke-width="1">
    <path fill="#8592AD" d="M662.857 256H361.143c-17.673 0-32-14.327-32-32v-96c0-17.673 14.327-32 32-32h301.714c17.673 0 32 14.327 32 32v96c0 17.673-14.327 32-32 32" />
    <path fill="#5C6B8A" d="M864 160h-73.143c-17.673 0-32 14.327-32 32v128H265.143V192c0-17.673-14.327-32-32-32H160c-17.673 0-32 14.327-32 32v704c0 17.673 14.327 32 32 32h704c17.673 0 32-14.327 32-32V192c0-17.673-14.327-32-32-32" />
    <path fill="#FFF" d="m304.736 749.705-33.73-34.153a8 8 0 0 1 .072-11.313L444.653 532.82c12.23-12.077 31.818-12.338 44.362-.586l71.282 66.772L707.5 450.288a8 8 0 0 1 11.313-.058l34.115 33.768a8 8 0 0 1 .058 11.313L583.883 666.155c-12.191 12.316-31.972 12.69-44.62.843l-71.538-67.014-151.676 149.792a8 8 0 0 1-11.313-.07" />
  </g>
</svg>
