<?xml version="1.0" standalone="no"?>
<svg xmlns="http://www.w3.org/2000/svg" xmlns:xlink="http://www.w3.org/1999/xlink" class="icon" viewBox="0 0 1024 1024">
  <defs>
    <path id="a" d="M0-1.13686838e-13 448-1.13686838e-13 448 447.9997 0 447.9997z" />
    <path id="c" d="M0-5.68434189e-14 600.673-5.68434189e-14 600.673 415.178 0 415.178z" />
  </defs>
  <g fill="none" fill-rule="evenodd" stroke="none" stroke-width="1">
    <g transform="translate(288.17 65.233)">
      <mask id="b" fill="#fff"><use xlink:href="#a" /></mask>
      <path fill="#5C6B8A" d="M448 224c0 123.712-100.288 224-224 224S0 347.712 0 224 100.288 0 224 0s224 100.288 224 224" />
    </g>
    <path fill="#8592AD" d="m842.75 958.082-43.047-57.452c-25.638 5.112-52.086 3.624-77.304-4.444-30.648-9.804-57.077-28.64-76.43-54.468-19.353-25.83-30.005-56.484-30.807-88.652-.783-31.442 7.834-61.943 24.92-88.207a20.774 20.774 0 0 1 34.04-1.13l59.82 79.839c8.33 11.117 24.148 13.385 35.265 5.054 11.117-8.33 13.385-24.15 5.056-35.267l-60.623-80.908a15.26 15.26 0 0 1-2.52-5.101c-3.323-12.14 3.581-23.058 13.97-26.181 30.004-9.018 61.698-8.72 91.654.863 30.648 9.805 57.077 28.64 76.43 54.468 19.352 25.829 30.004 56.484 30.806 88.652.66 26.47-5.343 52.27-17.45 75.44l52.114 69.065v61.114a8 8 0 0 1-8.05 8z" />
    <g transform="translate(65.356 543.006)">
      <mask id="d" fill="#fff"><use xlink:href="#c" /></mask>
      <path fill="#5C6B8A" d="M469.4 205.577c0-77.971 38.324-146.984 97.155-189.253C528.283 5.688 487.95 0 446.289 0 212.837 0 21.082 178.493.034 406.45c-.432 4.685 3.271 8.728 7.975 8.728h592.664C522.969 377.436 469.4 297.765 469.4 205.577" />
    </g>
  </g>
</svg>
