<?xml version="1.0" encoding="UTF-8"?>
<svg id="_图层_1" data-name="图层 1" xmlns="http://www.w3.org/2000/svg" viewBox="0 0 236.65 33.91">
  <defs>
    <style>
      .cls-1 {
        fill: #fff;
      }
    </style>
  </defs>
  <g>
    <path class="cls-1" d="M127.14,6.7l-11.48,21.29h5.71l1.86-3.7h7.65l.6,3.7h5.71l-4.21-21.29h-5.85Zm-1.77,13.38l3.62-7.09,1.2,7.09h-4.81Z"/>
    <path class="cls-1" d="M79.45,9.35c-.84-1.02-1.91-1.81-3.22-2.39-1.31-.57-2.79-.86-4.45-.86s-3.26,.29-4.75,.86c-1.49,.58-2.83,1.37-4,2.39-1.18,1.02-2.16,2.21-2.96,3.57-.8,1.36-1.33,2.84-1.6,4.42-.27,1.58-.24,3.05,.09,4.42,.33,1.36,.91,2.55,1.74,3.57,.83,1.02,1.89,1.81,3.19,2.39,1.3,.57,2.78,.86,4.46,.86s3.24-.29,4.74-.86c1.5-.57,2.85-1.37,4.03-2.39,1.19-1.02,2.18-2.21,2.97-3.57,.8-1.37,1.33-2.84,1.6-4.42,.27-1.58,.24-3.05-.09-4.42-.33-1.36-.92-2.55-1.76-3.57m-4.62,10.33c-.43,.72-.96,1.34-1.59,1.86-.63,.53-1.32,.94-2.07,1.23-.75,.29-1.52,.44-2.3,.44s-1.5-.15-2.15-.44c-.65-.29-1.2-.7-1.63-1.23-.44-.53-.75-1.15-.94-1.86-.19-.71-.21-1.5-.06-2.34,.14-.85,.43-1.63,.87-2.34,.43-.71,.96-1.34,1.58-1.86,.62-.53,1.3-.94,2.05-1.23,.75-.29,1.52-.44,2.3-.44s1.5,.15,2.15,.44c.65,.29,1.2,.7,1.65,1.23,.45,.53,.77,1.15,.95,1.86,.19,.72,.21,1.5,.06,2.34-.14,.85-.43,1.63-.86,2.34"/>
    <polygon class="cls-1" points="115.59 23.3 104.74 23.3 105.37 19.63 115.86 19.63 116.66 14.94 106.17 14.94 106.78 11.38 117.62 11.38 118.42 6.7 102.22 6.7 98.58 27.98 114.8 27.98 115.59 23.3"/>
    <polygon class="cls-1" points="152.92 19.47 146.66 6.7 141.3 6.7 137.66 27.98 143.02 27.98 145.24 15.21 151.5 27.98 156.84 27.98 160.47 6.7 155.14 6.7 152.92 19.47"/>
    <path class="cls-1" d="M176.84,21.8c.11-.64,.14-1.24,.09-1.81-.05-.56-.2-1.07-.46-1.52-.26-.45-.63-.83-1.12-1.14-.48-.31-1.1-.54-1.84-.69,.85-.49,1.52-1.09,2.02-1.79,.49-.71,.83-1.6,1.02-2.67,.3-1.77,.04-3.12-.78-4.07-.82-.94-2.18-1.41-4.08-1.41h-8.69l-3.63,21.29h9.32c1.09,0,2.1-.13,3.02-.4,.92-.26,1.73-.66,2.43-1.18,.7-.53,1.28-1.18,1.75-1.95,.47-.77,.79-1.66,.96-2.65m-9.21-10.87h1.69c1.68,0,2.4,.69,2.16,2.06-.23,1.37-1.19,2.06-2.87,2.06h-1.69l.7-4.12Zm2.69,12.22c-.65,.36-1.64,.54-2.99,.54h-1.88l.77-4.52h1.88c1.35,0,2.28,.18,2.81,.54,.52,.36,.72,.93,.58,1.72-.13,.79-.52,1.37-1.17,1.72"/>
    <path class="cls-1" d="M208.78,15c-.41-.15-.83-.29-1.25-.42-.42-.13-.8-.29-1.12-.47-.33-.18-.58-.39-.75-.64-.18-.24-.23-.55-.17-.93,.09-.55,.39-.99,.88-1.33,.49-.34,1.09-.51,1.78-.51,.55,0,1.09,.12,1.63,.35,.54,.24,1.06,.6,1.56,1.09l2.87-4.32c-.92-.56-1.92-.99-2.98-1.28-1.06-.29-2.1-.44-3.12-.44-1.09,0-2.11,.17-3.05,.51-.94,.34-1.77,.81-2.49,1.43-.72,.61-1.31,1.35-1.8,2.2-.48,.86-.82,1.81-.99,2.87-.18,1.05-.17,1.92,.03,2.61,.2,.69,.52,1.26,.97,1.71,.44,.45,.97,.81,1.59,1.09,.62,.27,1.25,.52,1.91,.75,.55,.21,1.01,.4,1.39,.56,.38,.17,.68,.35,.9,.55,.22,.2,.37,.41,.44,.65,.07,.24,.08,.51,.02,.83-.09,.53-.38,1-.88,1.41-.5,.41-1.19,.62-2.06,.62-.77,0-1.51-.18-2.23-.54-.72-.36-1.42-.9-2.1-1.64l-3.06,4.46c1.95,1.6,4.23,2.4,6.83,2.4,1.26,0,2.41-.17,3.47-.52,1.05-.35,1.98-.84,2.77-1.47,.79-.63,1.44-1.39,1.95-2.27,.51-.89,.85-1.87,1.04-2.96,.28-1.62,.09-2.93-.54-3.94-.64-1.01-1.78-1.81-3.43-2.41"/>
    <path class="cls-1" d="M94.95,6.1c-1.44,0-2.86,.28-4.27,.83-1.41,.56-2.69,1.33-3.85,2.32-1.16,.99-2.16,2.16-2.98,3.53-.83,1.37-1.38,2.87-1.66,4.5-.28,1.64-.24,3.15,.13,4.53,.37,1.38,.96,2.58,1.78,3.59,.82,1.01,1.84,1.79,3.05,2.34,1.21,.56,2.52,.83,3.95,.83,.69,0,1.41-.07,2.14-.21,.74-.14,1.54-.36,2.41-.66l.58-.2,1.12-6.55c-1.62,1.51-3.29,2.26-5.01,2.26-.78,0-1.49-.15-2.11-.45-.62-.3-1.14-.71-1.55-1.24-.41-.53-.7-1.15-.86-1.86-.16-.71-.17-1.5-.02-2.34,.14-.83,.41-1.6,.82-2.32,.4-.71,.9-1.33,1.48-1.85,.58-.52,1.24-.93,1.97-1.23,.74-.3,1.5-.45,2.31-.45,1.82,0,3.22,.78,4.19,2.34l1.13-6.61c-.81-.38-1.6-.65-2.36-.83-.76-.18-1.55-.27-2.37-.27"/>
    <path class="cls-1" d="M195.6,23.51c-.87-.17-2.57-.27-5.46,.42l.66,4.13h5.71l-.91-4.55Z"/>
    <path class="cls-1" d="M195.36,22.27l-.93-4.69c-1.38,.02-3.11,.23-5.26,.78-.24,.06-.47,.12-.72,.19-1.19,.33-2.29,.55-3.29,.7l3.14-6.17,.67,4.13c2.15-.54,3.88-.75,5.26-.78l-1.93-9.65h-5.85l-11.48,21.29h5.71l2.06-4.05c1.72-.12,3.8-.42,6.17-1.07,.34-.09,.67-.18,.99-.25,2.9-.69,4.59-.59,5.46-.42"/>
    <g>
      <path class="cls-1" d="M224.04,15.11c-4.25,1.11-7.49,1.01-8.9,.87l-.76,4.58c.4,.03,.87,.06,1.41,.07,2.1,.04,5.17-.15,8.88-1.12,3.52-.92,5.59-.86,6.65-.69l.76-4.59c-1.79-.19-4.38-.07-8.05,.89"/>
      <path class="cls-1" d="M225.14,6.88c-4.06,1.06-7.2,1.02-8.7,.89l-1.13,7.02c.99,.09,2.88,.17,5.39-.17l.4-2.45c1.4-.17,2.97-.45,4.68-.9,3.75-.98,5.86-.85,6.85-.65l.76-4.61c-1.79-.22-4.44-.13-8.25,.86"/>
      <path class="cls-1" d="M223.02,23.05c-1.34,.35-2.58,.58-3.7,.73l.37-2.25c-1.56,.18-2.91,.22-4,.2-.52,0-.99-.03-1.38-.06l-1.14,6.82c.44,.04,.98,.07,1.61,.08,2.1,.04,5.17-.15,8.88-1.12,3.32-.87,5.35-.87,6.46-.72l.76-4.58c-1.78-.16-4.32-.02-7.85,.9"/>
    </g>
  </g>
  <g>
    <path class="cls-1" d="M29.13,32.35c.9-.38,1.81-.73,2.75-1.05,.44-.15,.87-.29,1.31-.42,.35-.11,.7-.21,1.05-.31,5.32-1.48,10.71-1.87,15.92-1.3v-5.43c-5.77-.57-11.72-.08-17.59,1.59-.35,.1-.7,.2-1.05,.31-.46,.14-.93,.29-1.39,.45-.91,.31-1.8,.65-2.67,1l1.68,5.16Z"/>
    <path class="cls-1" d="M50.15,6.21V22.49c-5.98-.57-12.15-.04-18.23,1.72-.75,.22-1.49,.45-2.23,.71-.89,.31-1.79,.59-2.69,.86-7.67,2.27-15.45,3.05-23.02,2.51V12c5.91,.57,12,.06,18.01-1.66,.82-.23,1.64-.49,2.45-.77,.82-.28,1.64-.55,2.47-.79,7.74-2.32,15.6-3.12,23.24-2.57Z"/>
    <path class="cls-1" d="M25,2.14c-.9,.38-1.81,.73-2.75,1.05-.44,.15-.87,.29-1.31,.42-.35,.11-.7,.21-1.05,.31-5.32,1.48-10.71,1.87-15.92,1.3v5.43c5.77,.57,11.72,.08,17.59-1.59,.35-.1,.7-.2,1.05-.31,.46-.14,.93-.29,1.39-.45,.91-.31,1.8-.65,2.67-1l-1.68-5.16Z"/>
  </g>
</svg>