<?xml version="1.0" standalone="no"?>
<svg xmlns="http://www.w3.org/2000/svg" class="icon" viewBox="0 0 1024 1024">
  <path d="M183.117913 703.042783a480.300522 480.300522 0 0 0 153.644522 50.131478 522.284522 522.284522 0 0 0 78.447304 152.041739 387.695304 387.695304 0 0 1-232.091826-202.173217z m206.848 54.984347a476.827826 476.827826 0 0 0 159.254261-21.103304l-3.383652 4.585739a426.518261 426.518261 0 0 1-112.773565 103.869218 473.933913 473.933913 0 0 1-43.097044-87.307131z m291.483826-300.254608a387.33913 387.33913 0 0 0 131.116522-30.987131 436.357565 436.357565 0 0 1-60.772174 111.526957 428.432696 428.432696 0 0 1-93.273044 90.779826c17.808696-55.02887 25.733565-113.085217 22.928696-171.319652zM416.857043 373.893565a389.965913 389.965913 0 0 0 215.79687 83.478261 435.689739 435.689739 0 0 1-24.486956 168.158609h-0.75687a69.453913 69.453913 0 0 0-69.721044 63.933217l15.582609-5.209043a429.501217 429.501217 0 0 1-178.621217 24.175304 462.937043 462.937043 0 0 1-10.863305-163.483826 69.587478 69.587478 0 0 0 30.408348-122.301217l-4.897391 12.82226a451.005217 451.005217 0 0 1 27.558956-61.573565zM301.145043 222.029913c6.054957 13.935304 12.911304 27.692522 20.747131 41.182609l1.691826 2.982956c16.161391 27.38087 35.08313 52.090435 56.275478 73.906087-12.288 21.682087-22.884174 44.076522-31.877565 67.227826a69.542957 69.542957 0 0 0-32.189217 129.78087 515.784348 515.784348 0 0 0 7.43513 164.10713 432.528696 432.528696 0 0 1-102.845217-34.192695l-2.849392-1.335653a436.624696 436.624696 0 0 1-61.039304-36.196173 390.188522 390.188522 0 0 1 144.695652-407.462957z m294.155131-32.189217c17.942261-10.329043 36.285217-19.456 55.162435-27.247305a387.116522 387.116522 0 0 1 188.505043 129.024 431.816348 431.816348 0 0 1-8.45913 71.68l-1.113044 0.623305a338.009043 338.009043 0 0 1-152.754087 45.32313 469.74887 469.74887 0 0 0-12.822261-59.347478 69.587478 69.587478 0 1 0-52.802782-120.164174l6.366609 10.551652c-8.45913-14.692174-17.630609-28.716522-27.336348-42.206609l-2.582261-3.561739c2.582261-1.602783 5.209043-3.116522 7.835826-4.674782z m-48.172522 31.788521c6.945391 9.260522 13.490087 18.788174 19.678609 28.627479a69.587478 69.587478 0 0 0 51.689739 118.383304l-4.630261-16.205913c5.698783 18.253913 10.150957 36.819478 13.356522 55.696696a342.594783 342.594783 0 0 1-56.409044-10.24 339.122087 339.122087 0 0 1-128.53426-66.070261 464.673391 464.673391 0 0 1 104.893217-110.191305z m-204.710956-26.445913a388.36313 388.36313 0 0 1 230.177391-48.528695l-1.602783 0.890434a518.678261 518.678261 0 0 0-68.563478 47.193044A512.890435 512.890435 0 0 0 406.483478 297.850435a345.35513 345.35513 0 0 1-64.111304-102.622609z" fill="#333333" p-id="12707"></path>
  <path d="M881.664 356.841739a389.743304 389.743304 0 0 1-152.353391 514.626783 388.229565 388.229565 0 0 1-236.321392 50.086956c-11.130435-11.575652-21.815652-23.774609-31.788521-36.507826a478.608696 478.608696 0 0 0 138.195478-134.722782 54.806261 54.806261 0 0 0 61.395478-64.556522 479.632696 479.632696 0 0 0 220.872348-328.926609z" fill="#E6E6E6"></path>
</svg>
