<?xml version="1.0" standalone="no"?>
<svg xmlns="http://www.w3.org/2000/svg" class="icon" viewBox="0 0 1024 1024">
  <path d="M879.104 273.7664l31.8464 64.768a102.4 102.4 0 0 1 9.5232 59.8016l-59.8016 416.6656a92.2624 92.2624 0 0 1-90.9824 80.9984H256a92.2624 92.2624 0 0 1-90.9824-80.6912l-61.44-416.8192a102.4 102.4 0 0 1 9.472-60.16l31.744-64.5632V366.592H879.104V273.7664z m-258.7136 391.4752A51.2 51.2 0 0 0 665.6 614.4v-76.8a25.6 25.6 0 1 0-51.2 0V614.4H409.6v-76.8a25.6 25.6 0 1 0-51.2 0V614.4a51.2 51.2 0 0 0 51.2 51.2h204.8z" fill="#333333" p-id="12387"></path>
  <path d="M295.3216 128h437.6576a102.4 102.4 0 0 1 102.4 102.4v84.0192H192.9216V230.4a102.4 102.4 0 0 1 102.4-102.4z" fill="#E6E6E6"></path>
</svg>
