<?xml version="1.0" standalone="no"?>
<svg xmlns="http://www.w3.org/2000/svg" class="icon" viewBox="0 0 1024 1024">
  <path d="M786.432 506.5216a41.5744 41.5744 0 0 1-42.1376 42.1376H680.96c-10.496 31.6416-26.3168 58.0096-47.4112 84.3264l31.6416 52.736c10.5472 21.0432 5.2736 47.4112-15.872 57.9584l-100.096 57.9584c-21.0944 10.5472-47.4624 5.2736-57.9584-15.7696l-31.6416-52.736c-15.8208 5.2736-31.6416 5.2736-47.4624 5.2736-15.7696 0-31.5904 0-47.4112-5.2736l-31.6416 52.736c-10.5472 21.0432-36.864 26.3168-57.9584 15.7696l-100.1472-57.9584c-21.0944-15.8208-26.368-36.864-15.8208-57.9584l31.6416-52.736c-21.0944-21.0944-36.864-52.736-47.4624-84.3264H80.1792c-21.0944 0-42.1376-21.0944-47.4112-42.1376V390.5536c0-26.368 21.0432-42.1888 42.1376-42.1888H138.24a455.168 455.168 0 0 1 52.6848-84.3264l-31.6416-52.736c-10.5472-20.992-5.2736-47.4112 15.872-57.9072l100.096-58.0096c21.0944-10.5472 47.4112-5.2736 57.9584 15.872L364.8 163.84c15.8208-5.2224 31.6416-5.2224 47.4112-5.2224 15.872 0 31.6416 5.2224 47.4624 5.2224l31.6416-52.6848c15.7696-21.0944 36.864-26.368 57.9584-15.8208l100.1472 58.0096c21.0944 10.496 26.368 36.864 15.8208 57.9584l-31.6416 52.736c21.0944 26.3168 36.864 52.6848 47.4112 84.2752h63.2832c21.0944 0 42.1376 21.0944 42.1376 42.1888zM533.504 448.512c0-68.5056-52.736-121.1904-121.2928-121.1904-68.5056 0-121.1904 52.736-121.1904 121.1904 0 68.5568 52.736 121.2416 121.1904 121.2416 68.5568 0 121.2416-52.736 121.2416-121.2416z" fill="#333333"></path>
  <path d="M884.992 583.68c11.264 0 18.0736 9.0112 18.0736 18.0736v27.136c13.568 4.5056 24.8832 11.264 36.1472 20.2752l22.5792-13.5168c9.0624-4.5568 20.3264-2.2528 24.8832 6.7584l24.832 42.9056c4.5056 9.0624 2.2528 20.3264-6.7584 24.8832l-22.6304 13.5168c2.2528 6.8096 2.2528 13.568 2.2528 20.3264 0 6.8096 0 13.568-2.2528 20.3264l22.6304 13.568c9.0112 4.5056 11.264 15.8208 6.7584 24.832l-24.832 42.9568c-6.8096 9.0112-15.872 11.264-24.8832 6.7584l-22.528-13.568c-9.0624 9.0624-22.6304 15.872-36.1984 20.3264v27.136c0 9.0112-9.0112 18.0736-18.0736 20.3264h-49.664a17.8176 17.8176 0 0 1-18.0736-18.0736v-27.136a195.072 195.072 0 0 1-36.1472-22.528l-22.5792 13.5168c-9.0624 4.5056-20.3264 2.2528-24.8832-6.7584l-24.832-42.9568c-4.5056-9.0112-2.2528-20.3264 6.7584-24.832l22.6304-13.568c-2.2528-6.7584-2.2528-13.5168-2.2528-20.3264 0-6.7584 2.2528-13.5168 2.2528-20.3264l-22.6304-13.5168c-9.0112-6.8096-11.264-15.872-6.7584-24.8832l24.832-42.9056c4.5568-9.0112 15.872-11.264 24.8832-6.7584l22.528 13.5168c11.3152-9.0112 22.6304-15.7696 36.1984-20.3264v-27.136a19.456 19.456 0 0 1 18.0736-18.0224z m-24.832 108.4416a51.0976 51.0976 0 0 0-51.968 51.9168 51.0976 51.0976 0 0 0 51.968 51.968 51.0976 51.0976 0 0 0 51.968-51.968 51.0976 51.0976 0 0 0-51.968-51.9168z" fill="#E6E6E6"></path>
</svg>
