<?xml version="1.0" standalone="no"?>
<svg xmlns="http://www.w3.org/2000/svg" class="icon" viewBox="0 0 1024 1024">
  <path d="M0 0m128 0l768 0q128 0 128 128l0 768q0 128-128 128l-768 0q-128 0-128-128l0-768q0-128 128-128Z" fill="#333333" p-id="16778"></path>
  <path d="M602.656 448a90.592 90.592 0 0 0 90.688-90.656 90.592 90.592 0 0 0-90.688-90.688A90.592 90.592 0 0 0 512 357.344 90.592 90.592 0 0 0 602.656 448z m36.288 21.344h-71.488c-72.512 0-130.112 57.6-130.112 129.056 0 28.8 23.456 52.256 52.256 52.256h227.2c28.8 0 52.256-23.456 52.256-52.256-1.056-71.456-58.656-129.056-130.112-129.056z" fill="#E6E6E6"></path>
  <path d="M448 512c58.656 0 106.656-48 106.656-106.656 0-58.688-48-106.688-106.656-106.688a106.976 106.976 0 0 0-106.656 106.688C341.344 464 389.344 512 448 512z m39.456 21.344h-78.912A152.512 152.512 0 0 0 256 685.856a60.8 60.8 0 0 0 60.8 60.8h262.4a60.8 60.8 0 0 0 60.8-60.8 152.512 152.512 0 0 0-152.544-152.512z" fill="#ffffff"></path>
</svg>
