<svg width="16" height="16" viewBox="0 0 16 16" fill="none" xmlns="http://www.w3.org/2000/svg">
<path fill-rule="evenodd" clip-rule="evenodd" d="M10.3503 0.749512C11.5501 0.749566 12.7004 1.05059 13.6003 2.00049C15.2205 3.71921 15.1991 6.49733 13.5876 8.20654C14.4503 8.94172 14.9997 10.0351 14.9997 11.2505C14.9996 13.4504 13.1996 15.2505 10.9997 15.2505C8.81548 15.2504 7.02614 13.4758 7.00066 11.2974L4.29949 14.0005C4.19949 14.15 4.04978 14.1509 3.94988 14.1509C3.84996 14.1508 3.7002 14.1003 3.60027 14.0005L1.49968 11.9009C1.29989 11.701 1.30012 11.4007 1.49968 11.2007L2.19988 10.5005L1.15008 9.45068C0.950199 9.25079 0.950402 8.95048 1.15008 8.75049L3.60027 6.30029C3.7002 6.15087 3.84998 6.15088 3.94988 6.15088C4.04972 6.15088 4.19949 6.20061 4.29949 6.30029L5.35027 7.35107L6.04949 6.65088C5.54954 5.10101 5.90034 3.30028 7.15007 2.05029C8.04999 1.20051 9.20045 0.749552 10.3503 0.749512ZM10.9997 8.25049C9.34975 8.25057 7.99968 9.60054 7.99968 11.2505C7.99982 12.9003 9.34984 14.2504 10.9997 14.2505C12.6496 14.2505 13.9996 12.9004 13.9997 11.2505C13.9997 9.60049 12.6497 8.25049 10.9997 8.25049ZM11.4001 9.25049C11.7 9.3005 11.9501 9.40034 12.1501 9.55029C12.0001 9.70029 12.0001 9.9501 12.1501 10.1001C12.2501 10.2001 12.3499 10.2007 12.4499 10.2007C12.5499 10.2007 12.5999 10.1501 12.6999 10.1001C12.8498 10.35 12.9497 10.6002 12.9997 10.8501C12.7998 10.8502 12.6501 11.0505 12.6501 11.2505C12.6502 11.4504 12.7998 11.6498 12.9997 11.6499C12.9497 11.9498 12.8498 12.1999 12.6999 12.3999C12.6498 12.3002 12.5498 12.3003 12.4499 12.3003C12.35 12.3003 12.25 12.3002 12.1501 12.3999C12.0001 12.5499 12.0001 12.8007 12.1501 12.9507C11.9001 13.1006 11.65 13.2005 11.4001 13.2505C11.4001 13.0505 11.1997 12.8999 10.9997 12.8999C10.7997 12.9 10.6003 13.0505 10.6003 13.2505C10.3005 13.2005 10.0502 13.1005 9.85027 12.9507C10.0003 12.8007 10.0002 12.5499 9.85027 12.3999C9.75027 12.2999 9.64949 12.3003 9.54949 12.3003C9.44972 12.3004 9.39937 12.35 9.29949 12.3999C9.14962 12.15 9.04966 11.8998 8.99968 11.6499C9.1996 11.6499 9.35015 11.4504 9.35027 11.2505C9.35027 11.0505 9.19968 10.8501 8.99968 10.8501C9.04969 10.5502 9.14954 10.3001 9.29949 10.1001C9.34943 10.2 9.44961 10.2007 9.54949 10.2007C9.64949 10.2007 9.75027 10.2001 9.85027 10.1001C9.99991 9.95014 9.99995 9.70022 9.85027 9.55029C10.1002 9.40039 10.3504 9.30047 10.6003 9.25049C10.6004 9.45031 10.7998 9.60002 10.9997 9.6001C11.1996 9.6001 11.3999 9.45037 11.4001 9.25049ZM10.2497 1.80029C9.34982 1.80041 8.44939 2.20117 7.79949 2.85107C6.85005 3.80104 6.50004 5.20102 6.94988 6.45068L7.15007 7.05029L5.29949 8.90088L4.60027 8.20068L3.90008 7.50049L2.15008 9.25049L2.85027 9.95068L3.54949 10.6509L2.85027 11.3511L2.49968 11.7007L3.90008 13.1011L7.3239 9.67627C7.93812 8.25289 9.35769 7.25055 10.9997 7.25049C11.6636 7.25049 12.2908 7.41517 12.8434 7.70459C14.1478 6.39843 14.1355 4.18584 12.9001 2.85107C12.2906 2.19477 11.5931 1.84613 10.6843 1.80518L10.2497 1.80029ZM10.9997 10.5005C10.5498 10.5006 10.1999 10.8503 10.1999 11.3003C10.1999 11.7502 10.5498 12.1 10.9997 12.1001C11.4497 12.1001 11.7995 11.7503 11.7995 11.3003C11.7995 10.8503 11.4497 10.5005 10.9997 10.5005ZM10.3503 3.50049C10.8001 3.50057 11.2504 3.6506 11.6003 4.00049C12.2999 4.65045 12.3 5.75076 11.6003 6.45068C11.2504 6.80036 10.8 6.9506 10.3503 6.95068C9.90047 6.95065 9.45018 6.8004 9.10027 6.45068C8.40039 5.80078 8.4006 4.7005 9.10027 4.00049C9.45019 3.65075 9.90045 3.50052 10.3503 3.50049ZM10.3503 4.45068C10.1503 4.45071 9.92506 4.50019 9.79949 4.65088C9.67423 4.80152 9.60029 5.00099 9.60027 5.20068C9.60035 5.40037 9.64988 5.60065 9.79949 5.75049C9.94944 5.85043 10.1504 5.95063 10.3503 5.95068C10.55 5.95062 10.7502 5.90015 10.9001 5.75049C11.1997 5.45055 11.1258 4.90161 10.9001 4.70068C10.6743 4.50003 10.55 4.45074 10.3503 4.45068Z" fill="#5C6B8A"/>
</svg>
