<svg viewBox="0 0 1024 1024" xmlns="http://www.w3.org/2000/svg"><g transform="scale(64)">
<path d="M10.082 10C9.23052 8.36347 7.71417 7.50965 6.27441 7.5C4.28255 7.51316 2.2479 9.06258 1.84961 12H6.2998C6.53142 10.8589 7.54051 10 8.75 10H10.082ZM13.0059 10.0127C14.2664 10.1408 15.25 11.2057 15.25 12.5C15.25 13.7943 14.2664 14.8592 13.0059 14.9873L12.75 15H11.25V14H12.75C13.5784 14 14.25 13.3284 14.25 12.5C14.25 11.6716 13.5784 11 12.75 11H11.25V10H12.75L13.0059 10.0127ZM13.25 13H8.25V12H13.25V13ZM6.2998 1C7.6998 1 8.7998 2.1 8.7998 3.5C8.7998 4.9 7.6998 6 6.2998 6C4.8999 5.9999 3.7998 4.89994 3.7998 3.5C3.7998 2.10007 4.8999 1.0001 6.2998 1ZM6.2998 2C5.4499 2.0001 4.7998 2.65007 4.7998 3.5C4.7998 4.34993 5.4499 4.9999 6.2998 5C7.1498 5 7.7998 4.35 7.7998 3.5C7.7998 2.65 7.1498 2 6.2998 2ZM10.25 11H8.75C7.92157 11 7.25 11.6716 7.25 12.5C7.25 13.3284 7.92157 14 8.75 14H10.25V15H8.75C7.49245 15 6.45397 14.0712 6.27832 12.8623C6.28501 12.9085 6.2906 12.9547 6.2998 13H0.75C0.75 8.65 3.7 6.5 6.25 6.5C8.12286 6.5 10.2093 7.66066 11.1865 10H10.25V11Z" fill="currentColor"/>
</g></svg>
