<svg width="16" height="16" viewBox="0 0 16 16" fill="none" xmlns="http://www.w3.org/2000/svg">
<path d="M11 1.18164C11.5523 1.18164 12 1.62936 12 2.18164V7.24902C11.9534 7.23511 11.9058 7.22356 11.8574 7.21387C12.5871 7.3608 13.122 7.99368 13.1221 8.77246C13.1221 9.66337 12.4221 10.3633 11.5312 10.3633C10.6405 10.3631 9.94043 9.66328 9.94043 8.77246C9.94047 8.06414 10.3835 7.47768 11.0127 7.2666C11.0085 7.26801 11.0042 7.26907 11 7.27051V2.18164H2V12.1816H8.75391C8.74588 12.1932 8.73839 12.2051 8.73047 12.2168C9.4259 11.1912 10.5101 10.6816 11.5 10.6816C13.1226 10.6817 15 12.0503 15 14.8184H8C8 14.2039 8.09318 13.6585 8.25488 13.1816H2C1.44772 13.1816 1 12.7339 1 12.1816V2.18164C1 1.62936 1.44772 1.18164 2 1.18164H11ZM11.2783 11.4932C10.298 11.5953 9.14832 12.3723 8.86523 14.0186H14.1348C13.83 12.2464 12.521 11.4815 11.5 11.4814L11.2783 11.4932ZM8.6416 12.3545C8.62475 12.3818 8.60809 12.4095 8.5918 12.4375C8.60812 12.4095 8.62474 12.3818 8.6416 12.3545ZM11.5312 7.98145C11.0822 7.98158 10.7403 8.32364 10.7402 8.77246C10.7402 9.22127 11.0822 9.56334 11.5312 9.56348C11.9803 9.56348 12.3223 9.22153 12.3223 8.77246C12.3222 8.32338 11.9802 7.98145 11.5312 7.98145ZM6.5 8.68164H3.5V7.68164H6.5V8.68164ZM11.1602 7.22461C11.1402 7.22928 11.1202 7.23387 11.1006 7.23926C11.1203 7.2339 11.1402 7.22924 11.1602 7.22461ZM11.8477 7.21191C11.8075 7.20414 11.7668 7.19814 11.7256 7.19336C11.7668 7.19819 11.8075 7.20409 11.8477 7.21191ZM11.3008 7.19922C11.2802 7.20215 11.2596 7.20432 11.2393 7.20801C11.2596 7.20436 11.2802 7.20211 11.3008 7.19922ZM11.5312 7.18164C11.4814 7.18165 11.4323 7.1841 11.3838 7.18848C11.4323 7.18418 11.4815 7.18165 11.5312 7.18164ZM11.6787 7.18848C11.6302 7.18424 11.581 7.18164 11.5312 7.18164C11.581 7.18164 11.6302 7.18419 11.6787 7.18848ZM9.5 6.68164H3.5V5.68164H9.5V6.68164ZM9.5 4.68164H3.5V3.68164H9.5V4.68164Z" fill="#5C6B8A"/>
</svg>
