<svg width="16" height="16" viewBox="0 0 16 16" fill="none" xmlns="http://www.w3.org/2000/svg">
<path d="M4.00293 5.5H1.125C1.05597 5.5 1 5.44403 1 5.375V4.625C1 4.55597 1.05597 4.5 1.125 4.5H4.00293V5.5ZM14.875 4.5C14.944 4.5 15 4.55597 15 4.625V5.375C15 5.44403 14.944 5.5 14.875 5.5H5.5V4.5H14.875Z" fill="#5C6B8A"/>
<path d="M10.5 11.5H1.125C1.05597 11.5 1 11.444 1 11.375V10.625C1 10.556 1.05597 10.5 1.125 10.5H10.5V11.5ZM14.875 10.5C14.944 10.5 15 10.556 15 10.625V11.375C15 11.444 14.944 11.5 14.875 11.5H12V10.5H14.875Z" fill="#5C6B8A"/>
<path fill-rule="evenodd" clip-rule="evenodd" d="M6.00005 2H3.50317C3.22703 2 3.00317 2.22386 3.00317 2.5V7.5C3.00317 7.77614 3.22703 8 3.50317 8H6.00005C6.27619 8 6.50005 7.77614 6.50005 7.5V2.5C6.50005 2.22386 6.27619 2 6.00005 2ZM4.00317 7H5.50005V3H4.00317V7Z" fill="#5C6B8A"/>
<path fill-rule="evenodd" clip-rule="evenodd" d="M12.5 8H10C9.72386 8 9.5 8.22386 9.5 8.5V13.5C9.5 13.7761 9.72386 14 10 14H12.5C12.7761 14 13 13.7761 13 13.5V8.5C13 8.22386 12.7761 8 12.5 8ZM10.5 13H12V9H10.5V13Z" fill="#5C6B8A"/>
</svg>
