<?xml version="1.0" standalone="no"?>
<svg xmlns="http://www.w3.org/2000/svg" class="icon" viewBox="0 0 1024 1024">
  <g fill="currentColor" fill-rule="evenodd">
    <path d="M512 129.283c-211.369 0-382.718 171.349-382.718 382.718 0 211.369 171.349 382.717 382.718 382.717 211.369 0 382.718-171.348 382.718-382.717 0-211.37-171.349-382.718-382.718-382.718m0 64c43.055 0 84.788 8.418 124.04 25.02 37.945 16.05 72.037 39.039 101.328 68.33 29.291 29.29 52.28 63.382 68.329 101.328 16.603 39.251 25.021 80.984 25.021 124.04 0 43.053-8.418 84.787-25.021 124.039-16.049 37.945-39.038 72.037-68.329 101.327-29.291 29.292-63.383 52.28-101.328 68.33-39.252 16.602-80.985 25.02-124.04 25.02-43.055 0-84.788-8.418-124.04-25.02-37.945-16.05-72.037-39.038-101.328-68.33-29.291-29.29-52.28-63.382-68.329-101.327-16.603-39.252-25.021-80.985-25.021-124.04 0-43.055 8.418-84.788 25.021-124.04 16.049-37.945 39.038-72.036 68.329-101.327 29.291-29.291 63.383-52.28 101.328-68.33 39.252-16.602 80.985-25.02 124.04-25.02" />
    <path d="M536 64h-48a8 8 0 0 0-8 8v176a8 8 0 0 0 8 8h48a8 8 0 0 0 8-8V72a8 8 0 0 0-8-8M536 768h-48a8 8 0 0 0-8 8v176a8 8 0 0 0 8 8h48a8 8 0 0 0 8-8V776a8 8 0 0 0-8-8M952 480H776a8 8 0 0 0-8 8v48a8 8 0 0 0 8 8h176a8 8 0 0 0 8-8v-48a8 8 0 0 0-8-8M248 480H72a8 8 0 0 0-8 8v48a8 8 0 0 0 8 8h176a8 8 0 0 0 8-8v-48a8 8 0 0 0-8-8" />
  </g>
</svg>
