<svg viewBox="0 0 1024 1024" xmlns="http://www.w3.org/2000/svg"><g transform="scale(64)">
<path d="M8 1C11.8656 1 15 4.13438 15 8C15 11.8656 11.8656 15 8 15C4.13438 15 1 11.8656 1 8C1 4.13438 4.13438 1 8 1ZM8 2.1875C4.79063 2.1875 2.1875 4.79063 2.1875 8C2.1875 11.2094 4.79063 13.8125 8 13.8125C11.2094 13.8125 13.8125 11.2094 13.8125 8C13.8125 4.79063 11.2094 2.1875 8 2.1875ZM8 10C8.41421 10 8.75 10.3358 8.75 10.75C8.75 11.1642 8.41421 11.5 8 11.5C7.58579 11.5 7.25 11.1642 7.25 10.75C7.25 10.3358 7.58579 10 8 10ZM8.375 4.5C8.44375 4.5 8.5 4.55625 8.5 4.625V8.875C8.5 8.94375 8.44375 9 8.375 9H7.625C7.55625 9 7.5 8.94375 7.5 8.875V4.625C7.5 4.55625 7.55625 4.5 7.625 4.5H8.375Z" fill="currentColor"/>
</g></svg>
