<?xml version="1.0" standalone="no"?>
<svg xmlns="http://www.w3.org/2000/svg" class="icon" viewBox="0 0 1024 1024">
  <path d="M484.467 737.18V360.15l-147.88 147.881a8.084 8.084 0 0 1-13.804-5.72v-62.895c0-2.137 0.854-4.186 2.364-5.699l175.63-175.65a20.11 20.11 0 0 1 10.732-5.598l2.384-0.282h2.385a20.13 20.13 0 0 1 13.097 5.86l175.023 175.084a8.084 8.084 0 0 1 2.385 5.7v62.875a8.084 8.084 0 1 1-13.804 5.72l-147.88-147.881V737.18c0 4.446-3.638 8.084-8.084 8.084H492.55c-4.446 0-8.084-3.639-8.084-8.085z" p-id="46417"></path>
  <path d="M512 64C264.6 64 64 264.6 64 512s200.6 448 448 448 448-200.6 448-448S759.4 64 512 64z m0 820c-205.4 0-372-166.6-372-372s166.6-372 372-372 372 166.6 372 372-166.6 372-372 372z" p-id="46418"></path>
</svg>
