<svg width="16" height="16" viewBox="0 0 16 16" fill="none" xmlns="http://www.w3.org/2000/svg">
<path fill-rule="evenodd" clip-rule="evenodd" d="M2.37461 8.59374L11.5168 8.59374L6.04492 13.3437C5.95742 13.4203 6.01055 13.5625 6.12617 13.5625L7.50898 13.5625C7.56992 13.5625 7.62773 13.5406 7.67305 13.5016L13.5777 8.37811C13.8074 8.17811 13.8074 7.82186 13.5777 7.62343L7.63867 2.46874C7.61523 2.44843 7.58711 2.43749 7.55742 2.43749L6.12773 2.43749C6.01211 2.43749 5.95898 2.58124 6.04648 2.65624L11.5168 7.40624L2.37461 7.40624C2.30586 7.40624 2.24961 7.46249 2.24961 7.53124V8.46874C2.24961 8.53749 2.30586 8.59374 2.37461 8.59374Z" fill="#5C6B8A"/>
</svg>
