<svg width="16" height="16" viewBox="0 0 16 16" fill="none" xmlns="http://www.w3.org/2000/svg">
<path fill-rule="evenodd" clip-rule="evenodd" d="M13.625 8.59374L4.48284 8.59374L9.95471 13.3437C10.0422 13.4203 9.98909 13.5625 9.87346 13.5625L8.49065 13.5625C8.42971 13.5625 8.3719 13.5406 8.32659 13.5016L2.4219 8.37811C2.19221 8.17811 2.19221 7.82186 2.4219 7.62343L8.36096 2.46874C8.3844 2.44843 8.41252 2.43749 8.44221 2.43749L9.8719 2.43749C9.98752 2.43749 10.0406 2.58124 9.95315 2.65624L4.48284 7.40624L13.625 7.40624C13.6938 7.40624 13.75 7.46249 13.75 7.53124V8.46874C13.75 8.53749 13.6938 8.59374 13.625 8.59374Z" fill="#5C6B8A"/>
</svg>
