<svg viewBox="0 0 1024 1024" xmlns="http://www.w3.org/2000/svg"><g transform="scale(64)">
<path d="M11 2C11.5523 2 12 2.44772 12 3V8.03516C13.6962 8.27775 15 9.73675 15 11.5C15 13.433 13.433 15 11.5 15C10.5467 15 9.68297 14.6182 9.05176 14H2C1.44772 14 1 13.5523 1 13V3C1 2.44772 1.44772 2 2 2H11ZM11.5 9C10.1193 9 9 10.1193 9 11.5C9 12.8807 10.1193 14 11.5 14C12.8807 14 14 12.8807 14 11.5C14 10.1193 12.8807 9 11.5 9ZM2 13H8.33691C8.12093 12.5454 8 12.0368 8 11.5C8 9.73675 9.30383 8.27775 11 8.03516V3H2V13ZM11.75 11.3438L12.6406 12.2344L12.1094 12.7656L11.1094 11.7656L11 11.6553V10H11.75V11.3438ZM6.5 9.5H3.5V8.5H6.5V9.5ZM9.5 7.5H3.5V6.5H9.5V7.5ZM9.5 5.5H3.5V4.5H9.5V5.5Z" fill="currentColor"/>
</g></svg>
