<svg viewBox="0 0 1024 1024" xmlns="http://www.w3.org/2000/svg"><g transform="scale(64)">
<rect opacity="0.01" width="16" height="16" fill="currentColor"/>
<path d="M6.00046 2.50013H9.55137L5.86518 13.1252C5.7875 13.3491 5.5717 13.4998 5.32882 13.4999H2.56534C2.38326 13.4999 2.21233 13.4146 2.10612 13.2707C1.99992 13.1268 1.97146 12.942 2.02966 12.7742L5.46397 2.87479C5.54162 2.65082 5.7575 2.50001 6.00046 2.5V2.50013Z" fill="currentColor"/>
<path d="M11.1605 9.62671H5.52959C5.42245 9.62659 5.32616 9.69027 5.28686 9.78722C5.24755 9.88418 5.27324 9.99466 5.35162 10.0657L8.96989 13.3511C9.07524 13.4467 9.21395 13.4999 9.35801 13.4999H12.5464L11.1605 9.62671Z" fill="currentColor"/>
<path d="M6.00047 2.50013C5.75461 2.49921 5.53672 2.65398 5.46275 2.88208L2.0339 12.7651C1.97176 12.9336 1.99793 13.121 2.10403 13.2673C2.21012 13.4136 2.38284 13.5003 2.56685 13.4999H5.40166C5.61661 13.4625 5.79426 13.3155 5.86669 13.1151L6.55047 11.1547L8.99293 13.3709C9.09528 13.4533 9.22368 13.4988 9.3565 13.4999H12.5331L11.1399 9.62672L7.07851 9.62765L9.5642 2.50013H6.00047Z" fill="currentColor"/>
<path d="M10.5358 2.87425C10.4583 2.65064 10.2427 2.50009 10.0002 2.50012H6.04272C6.28529 2.50014 6.50082 2.65067 6.5784 2.87425L10.0128 12.774C10.0711 12.9419 10.0427 13.1268 9.93645 13.2707C9.83025 13.4146 9.65929 13.5 9.47717 13.5H13.4347C13.6168 13.4999 13.7878 13.4146 13.8939 13.2706C14.0001 13.1267 14.0285 12.9419 13.9703 12.774L10.5358 2.87425Z" fill="currentColor"/>
<defs>
<linearGradient id="paint0_linear_2255_5153" x1="3.65677" y1="0.629376" x2="-2.70855" y2="9.25088" gradientUnits="userSpaceOnUse">
<stop stop-color="#114A8B"/>
<stop offset="1" stop-color="#0669BC"/>
</linearGradient>
<linearGradient id="paint1_linear_2255_5153" x1="8.31228" y1="7.80895" x2="7.45281" y2="8.06815" gradientUnits="userSpaceOnUse">
<stop stop-opacity="0.3"/>
<stop offset="0.071" stop-opacity="0.2"/>
<stop offset="0.321" stop-opacity="0.1"/>
<stop offset="0.623" stop-opacity="0.05"/>
<stop offset="1" stop-opacity="0.01"/>
</linearGradient>
<linearGradient id="paint2_linear_2255_5153" x1="4.18267" y1="5.80403" x2="10.6195" y2="14.5343" gradientUnits="userSpaceOnUse">
<stop stop-color="#3CCBF4"/>
<stop offset="1" stop-color="#2892DF"/>
</linearGradient>
</defs>
</g></svg>
