<svg width="16" height="16" viewBox="0 0 16 16" fill="none" xmlns="http://www.w3.org/2000/svg">
<path fill-rule="evenodd" clip-rule="evenodd" d="M14.5 1H7C6.72386 1 6.5 1.22386 6.5 1.5V5.394C6.5 5.46303 6.55597 5.519 6.625 5.519H7.375C7.44403 5.519 7.5 5.46303 7.5 5.394V2H14V8.5H10.6165C10.5475 8.5 10.4915 8.55597 10.4915 8.625V9.375C10.4915 9.44403 10.5475 9.5 10.6165 9.5H14.5C14.7761 9.5 15 9.27614 15 9V1.5C15 1.22386 14.7761 1 14.5 1Z" fill="#5C6B8A"/>
<path fill-rule="evenodd" clip-rule="evenodd" d="M9 6.5H1.5C1.22386 6.5 1 6.72386 1 7V14.5C1 14.7761 1.22386 15 1.5 15H9C9.27614 15 9.5 14.7761 9.5 14.5V7C9.5 6.72386 9.27614 6.5 9 6.5ZM2 14H8.5V7.5H2V14Z" fill="#5C6B8A"/>
</svg>
