<?xml version="1.0" standalone="no"?>
<svg xmlns="http://www.w3.org/2000/svg" class="icon" viewBox="0 0 1024 1024">
  <g fill="currentColor" fill-rule="evenodd">
    <path d="M928 64H448c-17.673 0-32 14.327-32 32v249.216a8 8 0 0 0 8 8h48a8 8 0 0 0 8-8V128h416v416H679.458a8 8 0 0 0-8 8v48a8 8 0 0 0 8 8H928c17.673 0 32-14.327 32-32V96c0-17.673-14.327-32-32-32" />
    <path d="M576 416H96c-17.673 0-32 14.327-32 32v480c0 17.673 14.327 32 32 32h480c17.673 0 32-14.327 32-32V448c0-17.673-14.327-32-32-32M128 896h416V480H128z" />
  </g>
</svg>
