<?xml version="1.0" standalone="no"?>
<svg xmlns="http://www.w3.org/2000/svg" class="icon" viewBox="0 0 1024 1024">
  <path d="M831.936 272H704V186.624c0-32.96-28.8-42.624-63.872-42.624H383.872c-35.072 0-63.872 9.536-63.872 42.624V272H192.064A63.872 63.872 0 0 0 128 336v480c0 35.2 28.8 64 64.064 64H832a63.872 63.872 0 0 0 64.064-64v-480c0-35.2-28.8-64-64.064-64zM384 208h256v64H384v-64z m-191.936 128S832 336.128 832 336v129.536c-2.496-0.64-4.928-1.536-7.68-1.536H192l0.064-128z m375.04 192a63.744 63.744 0 0 1-55.104 32 63.744 63.744 0 0 1-55.104-32H567.04zM832 816S192 815.872 192 816v-288h196.48c14.336 55.104 64 96 123.52 96 59.52 0 109.184-40.896 123.52-96h188.8c2.752 0 5.184-0.896 7.68-1.536L832 816z"></path>
</svg>
