<?xml version="1.0" standalone="no"?>
<svg xmlns="http://www.w3.org/2000/svg" class="icon" viewBox="0 0 16 16">
  <g fill="none" fill-rule="evenodd" stroke="none" stroke-width="1">
    <g>
      <path fill="#5C6B8A" d="M14.222 3.111H1.778c-.451 0-.89.438-.89.889v8c0 .444.445.889.89.889h12.444c.445 0 .89-.445.89-.889V4c0-.444-.445-.889-.89-.889M2.044 4.267h11.912v1.666H2.044zm11.912 7.466H2.044v-4.64h11.912zm-4.845-.622h4c.222 0 .222-.222.222-.222V10s0-.222-.222-.222h-4s-.222 0-.222.222v.889s0 .222.222.222" />
    </g>
  </g>
</svg>
