<svg viewBox="0 0 1024 1024" xmlns="http://www.w3.org/2000/svg"><g transform="scale(64)">
<path d="M8 2.33325C10.6 2.33325 12.75 4.48325 12.75 7.08325C12.75 9.68325 11.9 10.2332 10.5 11.1332L10 11.4332V12.3333H6V11.4332L5.5 11.1332C4.1 10.2832 3.25 8.73325 3.25 7.08325C3.25 4.48325 5.4 2.33325 8 2.33325ZM8 1.33325C4.8 1.33325 2.25 3.88325 2.25 7.08325C2.25 10.2833 3.35 10.9832 5 11.9832V13.3333H11V11.9832C12.65 10.9832 13.75 9.18325 13.75 7.08325C13.75 3.88325 11.2 1.33325 8 1.33325Z" fill="currentColor"/>
<path d="M11 14.3333H5V14.8333C5 15.1333 5.2 15.3333 5.5 15.3333H10.5C10.8 15.3333 11 15.1333 11 14.8333V14.3333Z" fill="currentColor"/>
</g></svg>
