<?xml version="1.0" standalone="no"?>
<svg xmlns="http://www.w3.org/2000/svg" class="icon" viewBox="0 0 1024 1024">
  <path d="M228.736 573.184a294.656 294.656 0 0 0 148.48 180.8 138.688 138.688 0 1 1 3.584 77.44 364.16 364.16 0 0 1-218.752-239.104 34.688 34.688 0 0 1 66.688-19.136zM512 717.312a69.312 69.312 0 1 0 0 138.624 69.312 69.312 0 0 0 0-138.624z m277.312-520a138.624 138.624 0 0 1 83.84 249.152 362.688 362.688 0 0 1-88.704 286.912 34.688 34.688 0 1 1-51.84-46.016 293.376 293.376 0 0 0 73.536-213.76 138.688 138.688 0 1 1-16.832-276.288zM512 128c26.24 0 52.032 2.752 77.184 8.192a34.688 34.688 0 0 1-14.656 67.776 295.936 295.936 0 0 0-230.912 46.208 138.688 138.688 0 1 1-57.984-43.2A363.2 363.2 0 0 1 512 128z m277.312 138.688a69.312 69.312 0 1 0 0 138.624 69.312 69.312 0 0 0 0-138.624z m-554.624 0a69.312 69.312 0 1 0 0 138.624 69.312 69.312 0 0 0 0-138.624z"></path>
</svg>
