<svg viewBox="0 0 1024 1024" xmlns="http://www.w3.org/2000/svg"><g transform="scale(64)">
<path fill-rule="evenodd" clip-rule="evenodd" d="M8.80938 8L12.9109 3.11094C12.9797 3.02969 12.9219 2.90625 12.8156 2.90625H11.5688C11.4953 2.90625 11.425 2.93906 11.3766 2.99531L7.99375 7.02812L4.61094 2.99531C4.56407 2.93906 4.49375 2.90625 4.41875 2.90625H3.17188C3.06563 2.90625 3.00782 3.02969 3.07657 3.11094L7.17813 8L3.07657 12.8891C3.00782 12.9703 3.06563 13.0938 3.17188 13.0938H4.41875C4.49219 13.0938 4.5625 13.0609 4.61094 13.0047L7.99375 8.97188L11.3766 13.0047C11.4234 13.0609 11.4938 13.0938 11.5688 13.0938H12.8156C12.9219 13.0938 12.9797 12.9703 12.9109 12.8891L8.80938 8Z" fill="currentColor"/>
</g></svg>
