<svg width="16" height="16" viewBox="0 0 16 16" fill="none" xmlns="http://www.w3.org/2000/svg">
<path fill-rule="evenodd" clip-rule="evenodd" d="M10.9843 10.375C11.0562 10.375 11.1124 10.4346 11.1093 10.5049C11.0405 12.1703 9.67199 13.4998 7.99406 13.5C7.055 13.5 6.21438 13.084 5.6425 12.4277L5.27922 12.7129C5.19648 12.7779 5.0782 12.7186 5.07805 12.6143L5.08391 11.0293C5.08416 10.9498 5.16118 10.8905 5.23918 10.9092L6.77336 11.2842C6.87492 11.3092 6.90305 11.4408 6.82024 11.5049L6.42961 11.8105L6.43352 11.8154C6.45385 11.8372 6.47356 11.8574 6.49406 11.8779C6.89562 12.2795 7.42846 12.5 7.99406 12.5C8.55646 12.4999 9.09726 12.2763 9.49406 11.8779C9.8657 11.5046 10.083 11.0173 10.1113 10.4941C10.1159 10.427 10.1706 10.375 10.2363 10.375H10.9843ZM8.00285 2.53125C10.1386 2.53125 11.9619 3.87487 12.6777 5.76367C14.0198 6.11992 15.0093 7.3502 14.9999 8.80957C14.9889 10.4376 13.7266 11.7625 12.1376 11.9062C12.0642 11.9125 11.9999 11.8547 11.9999 11.7812V10.8359C11.9999 10.7736 12.0451 10.7209 12.1073 10.7129C12.5292 10.6598 12.9267 10.4737 13.2314 10.1738C13.6064 9.80664 13.8124 9.31406 13.8124 8.78906C13.8124 7.90938 13.2198 7.13906 12.373 6.91406L11.7831 6.75781L11.5673 6.18555C11.4329 5.82941 11.2456 5.49484 11.0097 5.19336C10.7769 4.8934 10.5013 4.63084 10.1904 4.41211C9.54825 3.95916 8.79176 3.7207 8.00285 3.7207C7.21389 3.72076 6.45746 3.95963 5.81535 4.41113C5.50609 4.62984 5.22974 4.89247 4.99699 5.19238C4.76108 5.49393 4.57374 5.82835 4.43938 6.18457L4.2216 6.75781L3.62981 6.91406C3.22512 7.02031 2.85754 7.2623 2.5966 7.59668C2.32942 7.94043 2.18742 8.35352 2.18742 8.79102C2.18753 9.31419 2.39373 9.80773 2.76848 10.1748C3.07473 10.4764 3.47356 10.6607 3.89543 10.7139C3.95789 10.7217 4.00481 10.7754 4.00481 10.8379V11.7812C4.00481 11.8546 3.94237 11.9123 3.86906 11.9062C2.27544 11.7641 1.0095 10.4377 0.999924 8.80664C0.992112 7.34731 1.9828 6.11743 3.32805 5.7627C4.04364 3.87372 5.86704 2.53137 8.00285 2.53125ZM8.00774 7.25195C8.94672 7.25195 9.78743 7.66708 10.3593 8.32324L10.7216 8.03906C10.8044 7.97344 10.9238 8.03301 10.9238 8.1377L10.9159 9.7207C10.9157 9.80019 10.8387 9.85954 10.7607 9.84082L9.22649 9.46582C9.12496 9.44079 9.09681 9.30917 9.17961 9.24512L9.57024 8.93945L9.56633 8.93457C9.546 8.91278 9.52629 8.89257 9.50578 8.87207C9.10424 8.4706 8.57134 8.25 8.00578 8.25C7.44346 8.25013 6.90254 8.47375 6.50578 8.87207C6.1342 9.24538 5.91679 9.73272 5.8886 10.2559C5.88547 10.323 5.83117 10.3754 5.76555 10.377H5.0175C4.94569 10.377 4.88948 10.3173 4.8925 10.2471C4.96125 8.58148 6.32965 7.252 8.00774 7.25195Z" fill="#5C6B8A"/>
</svg>
