<svg viewBox="0 0 1024 1024" xmlns="http://www.w3.org/2000/svg"><g transform="scale(64)">
<path d="M4.25 7.5C4.3 7.5 4.3375 7.51289 4.375 7.52539C4.41246 7.53788 4.45005 7.5498 4.5 7.5498L7.25 9.15039C7.3998 9.25033 7.49987 9.39989 7.5 9.59961V12.8496C7.5 13.0496 7.39995 13.1998 7.25 13.2998L4.5 14.9004C4.44994 14.9502 4.34987 14.9502 4.25 14.9502C4.2 14.9502 4.1625 14.9373 4.125 14.9248C4.08752 14.9123 4.04997 14.9004 4 14.9004L1.25 13.2998C1.10005 13.1998 1 13.0496 1 12.8496V9.59961C1.00013 9.39989 1.1002 9.25033 1.25 9.15039L4 7.5498C4.05003 7.4999 4.15007 7.5 4.25 7.5ZM11.75 7.5C11.8 7.5 11.8375 7.51289 11.875 7.52539C11.9125 7.53788 11.9501 7.5498 12 7.5498L14.75 9.15039C14.8998 9.25033 14.9999 9.39989 15 9.59961V12.8496C15 13.0496 14.9 13.1998 14.75 13.2998L12 14.9004C11.9499 14.9502 11.8499 14.9502 11.75 14.9502C11.7 14.9502 11.6625 14.9373 11.625 14.9248C11.5875 14.9123 11.55 14.9004 11.5 14.9004L8.75 13.2998C8.60005 13.1998 8.5 13.0496 8.5 12.8496V9.59961C8.50013 9.39989 8.6002 9.25033 8.75 9.15039L11.5 7.5498C11.55 7.4999 11.6501 7.5 11.75 7.5ZM2 9.9502V12.6504L4.25 14L6.5 12.6504V9.9502L4.25 8.59961L2 9.9502ZM9.5 9.9502V12.6504L11.75 14L14 12.6504V9.9502L11.75 8.59961L9.5 9.9502ZM8 1C8.05 1 8.0875 1.01289 8.125 1.02539C8.16246 1.03788 8.20005 1.0498 8.25 1.0498L11 2.65039C11.1498 2.75033 11.2499 2.89988 11.25 3.09961V6.34961C11.25 6.54957 11.15 6.6998 11 6.7998L8.25 8.40039C8.19994 8.4502 8.09987 8.4502 8 8.4502C7.95 8.4502 7.9125 8.4373 7.875 8.4248C7.83752 8.41231 7.79997 8.40039 7.75 8.40039L5 6.7998C4.85005 6.6998 4.75 6.54957 4.75 6.34961V3.09961C4.75013 2.89988 4.8502 2.75033 5 2.65039L7.75 1.0498C7.80003 0.999902 7.90006 1 8 1ZM5.75 3.4502V6.15039L8 7.5L10.25 6.15039V3.4502L8 2.09961L5.75 3.4502Z" fill="currentColor"/>
</g></svg>
