<?xml version="1.0" standalone="no"?>
<svg xmlns="http://www.w3.org/2000/svg" xmlns:xlink="http://www.w3.org/1999/xlink" class="icon" viewBox="0 0 1024 1024">
  <defs><path id="a" d="M0 0 304.400503 0 304.400503 617.970791 0 617.970791z" /></defs>
  <g fill="none" fill-rule="evenodd" stroke="none" stroke-width="1">
    <g transform="translate(16 203.015) translate(343.8)">
      <mask id="b" fill="#fff"><use xlink:href="#a" /></mask>
      <path fill="#181818" d="M80.202 617.468 5.215 589.593a8 8 0 0 1-4.711-10.286L213.913 5.215A8 8 0 0 1 224.199.504l74.987 27.874a8 8 0 0 1 4.71 10.285L90.489 612.758a8 8 0 0 1-10.286 4.71" />
    </g>
    <path fill="#181818" d="M255.393 514.558a8 8 0 0 1-11.312.193L14.644 293.015a48.002 48.002 0 0 1 0-69.031L244.081 2.247a8 8 0 0 1 11.312.193l55.594 57.526a8 8 0 0 1-.193 11.312L117.072 258.5 310.794 445.72a8 8 0 0 1 .193 11.312z" transform="translate(16 203.015) translate(0 50.486)" />
    <path fill="#181818" d="M57.841 514.558 2.247 457.032a8 8 0 0 1 .193-11.312L196.162 258.5 2.44 71.277a8 8 0 0 1-.193-11.312L57.841 2.44a8 8 0 0 1 11.312-.193L298.59 223.984a48.002 48.002 0 0 1 0 69.031L69.153 514.751a8 8 0 0 1-11.312-.193" transform="translate(16 203.015) translate(678.767 50.486)" />
  </g>
</svg>
