<?xml version="1.0" standalone="no"?>
<svg xmlns="http://www.w3.org/2000/svg" class="icon" viewBox="0 0 1024 1024">
  <path d="M438.4 849.088l222.72-646.656c0.192-0.512 0.256-1.152 0.384-1.6L438.4 849.152z m222.784-680.384H593.728a8.064 8.064 0 0 0-7.68 5.376L354.752 846.08a8 8 0 0 0 7.616 10.624h67.84a8.064 8.064 0 0 0 7.552-5.44l0.704-2.112 223.104-648.32 7.424-21.376a8.128 8.128 0 0 0-7.68-10.688z m293.44 333.44a17.28 17.28 0 0 0-2.752-2.752l-218.944-171.264a7.936 7.936 0 0 0-12.928 6.272v81.28c0 2.56 1.088 4.8 3.072 6.336L838.08 512l-115.008 89.984a8.064 8.064 0 0 0-3.072 6.336v81.28a8 8 0 0 0 12.928 6.272l218.944-171.264a16 16 0 0 0 2.752-22.528zM291.072 328L72.128 499.456a16.128 16.128 0 0 0 0 25.216l218.944 171.264a8 8 0 0 0 12.928-6.272v-81.28a7.744 7.744 0 0 0-3.072-6.336L185.92 512l115.008-89.984a8.064 8.064 0 0 0 3.072-6.336v-81.28a7.936 7.936 0 0 0-12.928-6.272z" p-id="40565"></path>
</svg>
