<svg viewBox="0 0 1024 1024" xmlns="http://www.w3.org/2000/svg"><g transform="scale(64)">
<path fill-rule="evenodd" clip-rule="evenodd" d="M6.99223 12.8636L5.58624 12.3409C5.52152 12.3169 5.48857 12.2449 5.51263 12.1802L8.84715 3.21002C8.87121 3.14532 8.94316 3.11235 9.00787 3.13641L10.4139 3.65907C10.4786 3.68313 10.5115 3.75508 10.4875 3.81979L7.15295 12.79C7.1289 12.8547 7.05693 12.8877 6.99223 12.8636Z" fill="currentColor"/>
<path fill-rule="evenodd" clip-rule="evenodd" d="M4.15363 12.0908C4.10566 12.1404 4.02652 12.1418 3.97688 12.0938L0.391937 8.62918C0.221328 8.46432 0.125 8.23724 0.125 7.99999C0.125 7.76274 0.221328 7.53566 0.391937 7.3708L3.97688 3.90618C4.02652 3.85821 4.10566 3.85955 4.15363 3.90919L5.19603 4.98779C5.244 5.03743 5.24266 5.11657 5.19302 5.16454L2.25911 7.99999L5.19302 10.8354C5.24266 10.8834 5.244 10.9626 5.19603 11.0122L4.15363 12.0908Z" fill="currentColor"/>
<path fill-rule="evenodd" clip-rule="evenodd" d="M11.8463 12.0908L10.8039 11.0122C10.7559 10.9626 10.7573 10.8834 10.8069 10.8354L13.7408 7.99999L10.8069 5.16454C10.7573 5.11657 10.7559 5.03743 10.8039 4.98779L11.8463 3.90919C11.8943 3.85955 11.9734 3.85821 12.0231 3.90618L15.608 7.3708C15.7786 7.53566 15.8749 7.76274 15.8749 7.99999C15.8749 8.23724 15.7786 8.46432 15.608 8.62918L12.0231 12.0938C11.9734 12.1418 11.8943 12.1404 11.8463 12.0908Z" fill="currentColor"/>
</g></svg>
