<?xml version="1.0" standalone="no"?>
<svg xmlns="http://www.w3.org/2000/svg" class="icon" viewBox="0 0 1024 1024">
  <path d="M356.62506667 171.008c-9.69386667 21.0944-20.82133333 56.79786667-27.4432 77.4144H251.6992c-37.6832 0-58.50453333 21.0944-58.50453333 58.70933333v331.63946667c0 37.6832 20.82133333 49.152 58.50453333 49.152h89.22453333v115.02933333l146.09066667-115.02933333h268.76586667c24.23466667 0 35.84-5.80266667 43.008-27.92106667 17.95413333-3.54986667 48.67413333-16.7936 92.16-39.7312 0 89.56586667-65.1264 145.27146667-135.168 145.27146667H531.93386667L336.55466667 911.83786667a48.7424 48.7424 0 0 1-78.0288-38.98026667v-107.3152h-29.21813334A126.7712 126.7712 0 0 1 102.4 638.7712V307.2c0-70.0416 56.5248-136.192 126.5664-136.192h127.65866667zM682.66666667 68.26666667a273.06666667 273.06666667 0 1 1 0 546.13333333 273.06666667 273.06666667 0 0 1 0-546.13333333zM853.33333333 307.2H512v68.26666667h341.33333333V307.2z" p-id="40265"></path>
</svg>
