<?xml version="1.0" standalone="no"?>
<svg xmlns="http://www.w3.org/2000/svg" class="icon" viewBox="0 0 1024 1024">
  <path d="M701.76 128L896 320v576h-194.24v-76.8h116.544V351.872L669.568 204.8l-319.232 0.448v243.2H272.704v-320L701.76 128zM473.6 477.12L379.008 896H295.04l94.528-418.88h83.968z m58.368 69.76c1.536 0 3.072 0.576 4.16 1.472l163.84 133.504a10.752 10.752 0 0 1 4.096 8.512c0 3.2-1.664 6.272-4.352 8.32l-163.84 126.144a6.784 6.784 0 0 1-6.656 0.832 5.632 5.632 0 0 1-3.648-5.12v-76.16c0-0.832 0.448-1.664 1.216-2.176l79.808-55.872-79.616-55.936a2.688 2.688 0 0 1-1.216-2.176V552.512c0-3.072 2.816-5.632 6.208-5.632zM128 128h64v320H128V128z m108.096 418.88c3.392 0 6.208 2.56 6.208 5.632v75.712a2.688 2.688 0 0 1-1.216 2.176l-79.616 55.936 79.808 55.872a2.688 2.688 0 0 1 1.216 2.24v76.16a5.632 5.632 0 0 1-3.648 5.056 6.784 6.784 0 0 1-6.592-0.832l-163.84-126.08A10.816 10.816 0 0 1 64 690.304c0-3.2 1.472-6.4 4.096-8.512l163.84-133.504a6.592 6.592 0 0 1 4.16-1.472z" p-id="38314"></path>
</svg>
