<?xml version="1.0" standalone="no"?>
<svg xmlns="http://www.w3.org/2000/svg" class="icon" viewBox="0 0 1024 1024">
  <g fill="currentColor" fill-rule="evenodd">
    <path d="M864 128H160c-17.673 0-32 14.327-32 32v704c0 17.673 14.327 32 32 32h704c17.673 0 32-14.327 32-32V160c0-17.673-14.327-32-32-32M192 832h640V192H192z" />
    <path d="M544 128v120c0 21.87-17.553 39.641-39.339 39.995L504 288h-56c-35.346 0-64 28.654-64 64 0 34.992 28.084 63.426 62.942 63.991L448 416h56c21.87 0 39.641 17.553 39.995 39.339L544 456v88h32c69.985 0 126.853 56.167 127.983 125.883L704 672c0 69.985-56.167 126.853-125.883 127.983L576 800h-32v96h-64V776c0-21.87 17.553-39.641 39.339-39.995L520 736h56c35.346 0 64-28.654 64-64 0-34.992-28.084-63.426-62.942-63.991L576 608h-56c-21.87 0-39.641-17.553-39.995-39.339L480 568v-88h-32c-69.985 0-126.853-56.167-127.983-125.883L320 352c0-69.985 56.167-126.853 125.883-127.983L448 224h32v-96z" />
  </g>
</svg>
