<?xml version="1.0" standalone="no"?>
<svg xmlns="http://www.w3.org/2000/svg" class="icon" viewBox="0 0 1024 1024">
  <path d="M704.192 128l192 192v576h-192v-76.8h115.2V351.872L672.32 204.8H204.992V448h-76.8V128h576zM473.728 448l-94.528 448H295.232L389.76 448h83.968z m-237.44 74.688c3.392 0 6.208 2.688 6.208 5.952v80.96a2.944 2.944 0 0 1-1.216 2.368l-79.552 59.776 79.744 59.776a2.944 2.944 0 0 1 1.216 2.368v81.472c0 2.304-1.408 4.48-3.584 5.44a6.4 6.4 0 0 1-6.656-0.896l-163.84-134.912a11.84 11.84 0 0 1-4.416-8.96c0-3.392 1.472-6.72 4.096-9.024l163.84-142.784a6.4 6.4 0 0 1 4.16-1.536z m295.808 0a6.4 6.4 0 0 1 4.224 1.536l163.84 142.72a11.776 11.776 0 0 1 4.032 9.088 11.84 11.84 0 0 1-4.352 8.96l-163.84 134.912a6.4 6.4 0 0 1-6.656 0.896 6.016 6.016 0 0 1-3.648-5.44v-81.472c0-0.896 0.448-1.792 1.28-2.368l79.744-59.776-79.616-59.776a2.944 2.944 0 0 1-1.216-2.368V528.64c0-3.264 2.816-5.952 6.208-5.952z" p-id="38464"></path>
</svg>
