<?xml version="1.0" standalone="no"?>
<svg xmlns="http://www.w3.org/2000/svg" class="icon" viewBox="0 0 1024 1024">
  <path d="M928 140c17.523 0 31.714 14.015 32 31.47V668c0 17.523-14.015 31.714-31.47 31.996L928 700H548v112h172c8.695 0 15.828 7.03 15.997 15.686L736 828v48c0 4.317-3.465 7.864-7.752 8H296c-4.317 0-7.864-3.465-7.996-7.752L288 876v-48c0-8.695 7.03-15.828 15.686-15.997L304 812h172V700H96c-17.523 0-31.714-14.015-32-31.47V172c0-17.523 14.015-31.714 31.47-32H928z m-40 72H136v416h752V212zM595.749 323v176.33h109.618v49.77H538.103V323h57.646z m-171.223 0c14.541 0 27.151 2.172 37.479 6.455 10.372 4.305 18.964 10.101 25.538 17.229 6.569 7.133 11.422 15.372 14.425 24.491 2.958 8.987 4.458 18.425 4.458 28.055 0 9.423-1.498 18.805-4.454 27.886-3.003 9.233-7.857 17.53-14.428 24.659-6.565 7.125-15.158 12.922-25.538 17.23-10.329 4.284-22.939 6.456-37.48 6.456h-47.88V549H319V323z m-13.545 46.62h-34.335v59.22h34.335c5.437 0 10.73-0.407 15.732-1.208 4.699-0.75 8.866-2.211 12.387-4.343 3.391-2.05 6.052-4.897 8.137-8.702 2.069-3.782 3.118-8.95 3.118-15.357s-1.049-11.574-3.12-15.359c-2.08-3.796-4.742-6.644-8.137-8.702-3.518-2.125-7.687-3.586-12.386-4.34-5.032-0.802-10.327-1.209-15.731-1.209z" p-id="47768"></path>
</svg>
