<svg viewBox="0 0 1024 1024" xmlns="http://www.w3.org/2000/svg"><g transform="scale(64)">
<path fill-rule="evenodd" clip-rule="evenodd" d="M13 1H4.625C4.55625 1 4.5 1.05625 4.5 1.125V2C4.5 2.06875 4.55625 2.125 4.625 2.125H12.375V12.875C12.375 12.9438 12.4312 13 12.5 13H13.375C13.4438 13 13.5 12.9438 13.5 12.875V1.5C13.5 1.22344 13.2766 1 13 1ZM11 3H3C2.72344 3 2.5 3.22344 2.5 3.5V11.7922C2.5 11.925 2.55312 12.0516 2.64687 12.1453L5.35469 14.8531C5.38906 14.8875 5.42813 14.9156 5.47031 14.9391V14.9688H5.53594C5.59063 14.9891 5.64844 15 5.70781 15H11C11.2766 15 11.5 14.7766 11.5 14.5V3.5C11.5 3.22344 11.2766 3 11 3ZM5.46875 13.3781L4.12344 12.0312H5.46875V13.3781ZM10.375 13.875H6.46875V11.6562C6.46875 11.3109 6.18906 11.0312 5.84375 11.0312H3.625V4.125H10.375V13.875Z" fill="currentColor"/>
</g></svg>
