<svg viewBox="0 0 1024 1024" xmlns="http://www.w3.org/2000/svg"><g transform="scale(64)">
<path d="M14.5 2C14.7761 2 15 2.22386 15 2.5V13.5L14.9902 13.6006C14.9503 13.7961 14.7961 13.9503 14.6006 13.9902L14.5 14H1.5L1.39941 13.9902C1.20392 13.9503 1.04966 13.7961 1.00977 13.6006L1 13.5V2.5C1 2.22386 1.22386 2 1.5 2H14.5ZM2 13H14V10H9.5L9.24414 9.9873C8.06772 9.86773 7.13227 8.93228 7.0127 7.75586L7 7.5C7 6.11929 8.11929 5 9.5 5H14V3H2V13ZM9.5 6C8.67157 6 8 6.67157 8 7.5C8 8.32843 8.67157 9 9.5 9H14V6H9.5ZM9.5 7C9.77614 7 10 7.22386 10 7.5C10 7.77614 9.77614 8 9.5 8C9.22386 8 9 7.77614 9 7.5C9 7.22386 9.22386 7 9.5 7Z" fill="currentColor"/>
</g></svg>
