<?xml version="1.0" standalone="no"?>
<svg xmlns="http://www.w3.org/2000/svg" class="icon" viewBox="0 0 1024 1024">
  <path d="M855.267 487.556V252.225c0-90.846-188.5-132.225-363.633-132.225C316.5 120 128 161.38 128 252.225V715.04c0 90.855 188.501 132.234 363.634 132.234 1.291 0 2.593-0.029 3.884-0.029C541.455 892.211 604.251 920 673.455 920 813.812 920.01 928 805.819 928 665.459c0-69.187-27.788-131.974-72.733-177.903z m-1.397 158.201h-93.35l-83.43-89.853-92.608 89.853h-91.605c0.106-0.906 0.183-1.821 0.299-2.728 0.328-2.506 0.713-5.002 1.147-7.48 5.744-34.641 21.224-65.91 43.614-90.99 1.186-1.33 2.352-2.64 3.576-3.932a177.582 177.582 0 0 1 7.894-7.817c1.812-1.696 3.624-3.383 5.513-5.012a189.888 189.888 0 0 1 6.275-5.167c2.178-1.725 4.424-3.373 6.69-5.002a174.22 174.22 0 0 1 7.826-5.311 169 169 0 0 1 7.17-4.357 170.38 170.38 0 0 1 7.606-4.154c2.94-1.513 5.918-2.96 8.944-4.309 1.571-0.713 3.123-1.446 4.723-2.11 4.183-1.736 8.463-3.268 12.79-4.685 1.417-0.463 2.825-0.925 4.26-1.36a186.927 186.927 0 0 1 13.986-3.604c1.176-0.25 2.352-0.482 3.538-0.713 5.04-0.983 10.15-1.793 15.344-2.343 0.771-0.086 1.542-0.125 2.323-0.202 5.639-0.52 11.306-0.858 17.07-0.858 5.571 0 11.065 0.338 16.51 0.839 1.235 0.106 2.468 0.221 3.692 0.356 5.147 0.57 10.237 1.33 15.249 2.323 1.272 0.251 2.515 0.56 3.768 0.849 4.03 0.886 8 1.908 11.923 3.065 1.398 0.405 2.824 0.78 4.212 1.214 4.367 1.398 8.636 2.988 12.858 4.704 1.89 0.761 3.769 1.58 5.62 2.41a187.054 187.054 0 0 1 9.185 4.424c53.04 27.326 90.66 79.963 97.388 141.95zM491.634 186.112c191.643 0 290.747 47.414 297.407 66.123-6.66 18.699-105.764 66.112-297.407 66.112-191.644 0-290.747-47.413-297.417-66.122 6.68-18.7 105.773-66.113 297.417-66.113zM191.644 715.05V563.991c54.544 28.136 142.746 44.368 231.315 49.794-3.45 16.695-4.665 33.977-4.665 51.674 0 41.273 9.012 80.243 26.516 114.76-163.557-6.738-244.077-48.773-253.167-65.169z m0-231.408V332.583c72.722 35.269 187.826 51.886 298.766 51.886 110.93 0 227.797-16.637 298.14-51.895l0.317 106.287c-34.747-17.822-73.908-27.943-115.566-27.943-98.342 0-184.944 56.098-227.315 137.95-164.174-6.631-245.253-48.801-254.343-65.226z m613.089 307.391c-1.408 1.475-2.805 2.96-4.26 4.395-2.863 2.805-5.842 5.466-8.878 8.068a192.21 192.21 0 0 1-4.81 4 179.702 179.702 0 0 1-9.763 7.297c-1.571 1.089-3.181 2.14-4.79 3.18a185.805 185.805 0 0 1-10.314 6.266c-1.532 0.858-3.104 1.658-4.655 2.467a178.041 178.041 0 0 1-10.497 5.05c-1.185 0.521-2.323 1.08-3.518 1.582-4.395 1.84-8.915 3.44-13.484 4.935-1.253 0.414-2.487 0.829-3.76 1.205a177.412 177.412 0 0 1-14.293 3.672c-1.138 0.24-2.265 0.463-3.412 0.694-5.07 0.993-10.207 1.802-15.422 2.352-0.8 0.087-1.6 0.135-2.4 0.212-5.62 0.52-11.277 0.858-17.022 0.858-5.503 0-10.92-0.338-16.298-0.83-1.976-0.173-3.923-0.423-5.87-0.664a173.065 173.065 0 0 1-9.774-1.494c-2.37-0.415-4.742-0.82-7.084-1.33-2.901-0.646-5.745-1.437-8.598-2.208-46.15-12.51-84.906-42.651-108.723-82.835-0.636-1.07-1.33-2.111-1.937-3.19-1.716-3.037-3.267-6.16-4.81-9.312-0.915-1.86-1.85-3.71-2.698-5.61-1.282-2.853-2.458-5.754-3.596-8.684a180.067 180.067 0 0 1-2.612-7.143c-0.616-1.821-1.175-3.662-1.744-5.503h114.246l60.424-58.623 54.438 58.623h118.41c-7.499 24.453-19.913 46.767-36.231 65.659a164.526 164.526 0 0 1-6.265 6.911z" p-id="43565"></path>
</svg>
