<?xml version="1.0" standalone="no"?>
<svg xmlns="http://www.w3.org/2000/svg" xmlns:xlink="http://www.w3.org/1999/xlink" class="icon" viewBox="0 0 1024 1024">
  <defs><path id="a" d="M0 1.13686838e-13 179.7512 1.13686838e-13 179.7512 179.7514 0 179.7514z" /></defs>
  <g fill="none" fill-rule="evenodd" stroke="none" stroke-width="1">
    <path fill="#181818" d="M296.458 470.64c-8.19 0-16.379 3.123-22.627 9.372l-112.45 112.451c-74.603 74.601-74.603 195.554 0 270.156 37.304 37.306 86.183 55.952 135.077 55.952 48.883 0 97.782-18.655 135.078-55.95l112.451-112.453c12.497-12.496 12.497-32.758 0-45.254l-224.9-224.902c-6.25-6.249-14.439-9.373-22.629-9.373m0 77.254 179.647 179.647-89.824 89.824c-23.992 23.992-55.892 37.206-89.823 37.206-33.93 0-65.83-13.214-89.824-37.207-23.992-23.992-37.206-55.892-37.206-89.823 0-33.93 13.214-65.83 37.206-89.823zM727.542 105.428c-48.89 0-97.777 18.65-135.078 55.951L480.013 273.83c-12.497 12.497-12.497 32.758 0 45.255l224.902 224.902c6.248 6.248 14.438 9.373 22.627 9.373 8.19 0 16.379-3.125 22.627-9.373l112.452-112.45c74.6-74.603 74.6-195.556 0-270.158h-.001c-37.301-37.3-86.19-55.95-135.078-55.95m0 64c33.93 0 65.83 13.213 89.824 37.205 23.992 23.993 37.206 55.893 37.206 89.824 0 33.93-13.214 65.83-37.206 89.823l-89.824 89.824-179.647-179.647 89.824-89.824c23.992-23.993 55.892-37.206 89.823-37.206" />
    <path fill="#181818" d="m512.747 673.673-45.255-45.255 83.612-83.612a8 8 0 0 1 11.314 0l33.941 33.941a8 8 0 0 1 0 11.314zM395.581 556.508l-45.255-45.255 83.613-83.613a8 8 0 0 1 11.314 0l33.941 33.942a8 8 0 0 1 0 11.313zM47.97 1009.97l-33.94-33.94a8 8 0 0 1 0-11.315l130.079-130.079 45.255 45.255-130.08 130.08a8 8 0 0 1-11.313 0" />
    <g transform="translate(832.562 11.687)">
      <mask id="b" fill="#fff"><use xlink:href="#a" /></mask>
      <path fill="#181818" d="m36.284 177.408-33.941-33.94a8 8 0 0 1 0-11.315L132.154 2.343a8 8 0 0 1 11.313 0l33.942 33.94a8 8 0 0 1 0 11.314L47.598 177.408a8 8 0 0 1-11.314 0" />
    </g>
  </g>
</svg>
