<svg width="16" height="16" viewBox="0 0 16 16" fill="none" xmlns="http://www.w3.org/2000/svg">
<path fill-rule="evenodd" clip-rule="evenodd" d="M4.63217 7.38498C4.50421 7.38498 4.37625 7.43379 4.27863 7.53143L2.52158 9.28848C1.35592 10.4541 1.35592 12.344 2.52158 13.5097C3.10447 14.0926 3.86821 14.3839 4.63217 14.3839C5.39597 14.3839 6.16002 14.0924 6.74277 13.5097L8.49982 11.7526C8.69508 11.5574 8.69508 11.2408 8.49982 11.0455L4.98574 7.53143C4.8881 7.43379 4.76014 7.38498 4.63217 7.38498ZM4.63217 8.59209L7.43916 11.3991L6.03566 12.8026C5.66078 13.1774 5.16235 13.3839 4.63217 13.3839C4.102 13.3839 3.60357 13.1774 3.22867 12.8026C2.8538 12.4277 2.64733 11.9292 2.64733 11.3991C2.64733 10.8689 2.8538 10.3705 3.22867 9.99559L4.63217 8.59209Z" fill="#5C6B8A"/>
<path fill-rule="evenodd" clip-rule="evenodd" d="M9.25726 2.55279L7.50021 4.30984C7.30494 4.50511 7.30494 4.82168 7.50021 5.01695L11.0143 8.53104C11.1119 8.62867 11.2399 8.6775 11.3678 8.6775C11.4958 8.6775 11.6238 8.62867 11.7214 8.53104L13.4785 6.774C14.6441 5.60834 14.6441 3.71845 13.4785 2.55279C12.8956 1.96996 12.1317 1.67856 11.3678 1.67856C10.604 1.67856 9.84008 1.96996 9.25726 2.55279ZM11.3678 2.67856C11.898 2.67856 12.3965 2.88503 12.7713 3.2599C13.1462 3.63479 13.3527 4.13323 13.3527 4.6634C13.3527 5.19356 13.1462 5.692 12.7713 6.06689L11.3678 7.47039L8.56087 4.6634L9.96437 3.2599C10.3392 2.88501 10.8377 2.67856 11.3678 2.67856Z" fill="#5C6B8A"/>
<path fill-rule="evenodd" clip-rule="evenodd" d="M8.01167 10.5574L7.30457 9.85028L8.611 8.54384C8.65983 8.49503 8.73897 8.49503 8.78778 8.54384L9.31811 9.07417C9.36692 9.12298 9.36692 9.20214 9.31811 9.25095L8.01167 10.5574Z" fill="#5C6B8A"/>
<path fill-rule="evenodd" clip-rule="evenodd" d="M6.18099 8.72669L5.47388 8.01958L6.78033 6.71312C6.82914 6.66431 6.90828 6.66431 6.95711 6.71312L7.48744 7.24347C7.53625 7.29228 7.53625 7.37142 7.48744 7.42023L6.18099 8.72669Z" fill="#5C6B8A"/>
<path fill-rule="evenodd" clip-rule="evenodd" d="M0.749555 15.812L0.219227 15.2817C0.170414 15.2329 0.170414 15.1537 0.219227 15.1049L2.25171 13.0724L2.95882 13.7796L0.926336 15.812C0.877523 15.8609 0.798367 15.8609 0.749555 15.812Z" fill="#5C6B8A"/>
<path fill-rule="evenodd" clip-rule="evenodd" d="M13.5757 2.98585L13.0454 2.45552C12.9966 2.40671 12.9966 2.32756 13.0454 2.27874L15.0737 0.250446C15.1225 0.201634 15.2016 0.201634 15.2505 0.250446L15.7808 0.780774C15.8296 0.829602 15.8296 0.908743 15.7808 0.957555L13.7525 2.98585C13.7037 3.03466 13.6245 3.03466 13.5757 2.98585Z" fill="#5C6B8A"/>
</svg>
