<?xml version="1.0" standalone="no"?>
<svg xmlns="http://www.w3.org/2000/svg" class="icon" viewBox="0 0 1024 1024">
  <g fill="currentColor" fill-rule="evenodd">
    <path d="M737.994 508.256V669.54c0 48.22-102.037 87.31-227.905 87.31s-227.905-39.09-227.905-87.31V508.256h29.866v7.488c0 4.013 8.566 18.674 46.415 33.401l1.156.446c21.219 8.13 47.05 14.38 75.256 18.398h-92.959v92.774c6.127 4.836 20.634 13.323 47.522 21.106 33.973 9.833 76.82 15.248 120.65 15.248 43.828 0 86.675-5.415 120.648-15.25 26.888-7.781 41.395-16.268 47.523-21.104v-92.774h-92.96c28.206-4.019 54.038-10.269 75.257-18.398 38.83-14.876 47.57-29.794 47.57-33.847v-7.489z" />
    <path d="M737.994 354.46v161.284c0 48.22-102.037 87.31-227.905 87.31s-227.905-39.09-227.905-87.31V354.46h29.867c0 4.053 8.739 18.971 47.57 33.847 39.143 14.996 93.986 23.597 150.468 23.597 56.482 0 111.326-8.6 150.469-23.597 38.83-14.876 47.57-29.794 47.57-33.847zm-59.733 59.732H341.918v92.774c6.127 4.836 20.634 13.324 47.522 21.106 33.973 9.834 76.82 15.25 120.65 15.25 43.828 0 86.675-5.416 120.648-15.25 26.888-7.782 41.396-16.27 47.523-21.106z" />
    <path d="M510.09 267.15c-125.869 0-227.906 39.09-227.906 87.31s102.037 87.31 227.905 87.31 227.905-39.09 227.905-87.31-102.037-87.31-227.905-87.31m0 59.732c43.83 0 86.676 5.416 120.65 15.25 14.26 4.127 25.038 8.453 32.931 12.327-7.893 3.874-18.672 8.201-32.932 12.328-33.973 9.834-76.82 15.25-120.649 15.25-43.829 0-86.676-5.416-120.649-15.25-14.26-4.127-25.039-8.454-32.93-12.328 7.891-3.874 18.67-8.2 32.93-12.328 33.973-9.833 76.82-15.249 120.65-15.249" />
    <path d="M170.155 0c247.427.21 447.61 200.575 447.61 448.002 0 73.378-17.642 142.634-48.915 203.761-10.832-17.539-28.712-30.281-49.658-34.247a389.658 389.658 0 0 0 8.353-18.404c20.23-47.829 30.488-98.67 30.488-151.113 0-52.44-10.258-103.283-30.488-151.112-19.552-46.227-47.556-87.757-83.233-123.433-35.677-35.678-77.206-63.68-123.433-83.234-47.83-20.23-98.671-30.487-151.113-30.487-48.055 0-94.765 8.614-139.045 25.621-3.91 1.501-8.302-.479-9.706-4.425A163.469 163.469 0 0 0 1.353 42.623c-2.741-3.955-1.157-9.445 3.316-11.219C55.873 11.094 111.709-.05 170.155 0" transform="translate(342.235 64)" />
    <path d="M86.92 0c12.931 15.896 32.26 26.389 54.025 27.518-20.578 26.502-37.565 55.486-50.724 86.599-20.23 47.828-30.487 98.67-30.487 151.112 0 52.442 10.257 103.284 30.487 151.113 19.552 46.227 47.556 87.756 83.233 123.433 35.677 35.677 77.206 63.68 123.433 83.233 47.829 20.23 98.671 30.488 151.113 30.488 52.442 0 103.284-10.258 151.113-30.488a387.586 387.586 0 0 0 42.049-20.876c3.294-1.892 7.495-1.028 9.728 2.046a165.271 165.271 0 0 0 30.407 31.864c4.03 3.226 3.661 9.494-.749 12.178-68.184 41.489-148.321 65.285-234.036 65.01C199.411 712.423 0 512.33 0 265.227 0 166.112 32.19 74.517 86.682.32Z" transform="translate(64 246.77)" />
    <path d="M208.858 95.19c-57.732 0-104.533 46.8-104.533 104.533 0 57.733 46.801 104.533 104.533 104.533s104.533-46.8 104.533-104.533c0-57.732-46.8-104.533-104.533-104.533m0 59.733c24.703 0 44.8 20.098 44.8 44.8 0 24.703-20.097 44.8-44.8 44.8-24.703 0-44.8-20.097-44.8-44.8 0-24.702 20.097-44.8 44.8-44.8M847.508 650.348c-57.732 0-104.533 46.801-104.533 104.533 0 57.733 46.8 104.533 104.533 104.533 57.732 0 104.533-46.8 104.533-104.533 0-57.732-46.801-104.533-104.533-104.533m0 59.733c24.703 0 44.8 20.097 44.8 44.8 0 24.703-20.097 44.8-44.8 44.8-24.703 0-44.8-20.097-44.8-44.8 0-24.703 20.097-44.8 44.8-44.8" />
  </g>
</svg>
