<svg viewBox="0 0 1024 1024" xmlns="http://www.w3.org/2000/svg"><g transform="scale(64)">
<path d="M8 1.5C11.05 1.5 13.5 2.4 13.5 3.5V12.5C13.5 13.6 11.05 14.5 8 14.5C4.95 14.5 2.5 13.6 2.5 12.5V3.5C2.5 2.4 4.95 1.5 8 1.5ZM3.5 12.4502C3.75029 12.7503 5.25035 13.5 8 13.5C10.7497 13.5 12.2497 12.8002 12.5 12.4502V10.1475C11.5069 10.661 9.86627 11 8 11C6.13348 11 4.4931 10.6602 3.5 10.1465V12.4502ZM3.5 8.9502C3.75029 9.25027 5.25035 10 8 10C10.7497 10 12.2497 9.30024 12.5 8.9502V6.64746C11.5069 7.16103 9.86627 7.5 8 7.5C6.13348 7.5 4.4931 7.16017 3.5 6.64648V8.9502ZM8 2.5C5.25034 2.5 3.75028 3.19976 3.5 3.5498V5.4502C3.75029 5.75027 5.25035 6.5 8 6.5C10.7497 6.5 12.2497 5.80024 12.5 5.4502V3.5498C12.2497 3.24973 10.7496 2.5 8 2.5Z" fill="currentColor"/>
</g></svg>
