<svg viewBox="0 0 1024 1024" xmlns="http://www.w3.org/2000/svg"><g transform="scale(64)">
<path fill-rule="evenodd" clip-rule="evenodd" d="M14.4374 8C14.5077 8 14.5639 8.0577 14.5624 8.12793C14.4952 11.692 11.5841 14.5625 8.00284 14.5625C5.90308 14.5624 4.03444 13.5767 2.83291 12.041L1.95108 12.7295C1.86983 12.7949 1.74991 12.7355 1.74991 12.6309L1.76065 9.80273C1.7609 9.72324 1.83792 9.6639 1.91592 9.68262L4.66104 10.3545C4.76254 10.3795 4.7907 10.5111 4.70791 10.5752L3.76748 11.3096C3.9017 11.4812 4.04659 11.6453 4.20108 11.7998C4.69477 12.2951 5.27011 12.6828 5.90909 12.9531C6.57159 13.2328 7.2753 13.375 8.00186 13.375C8.72829 13.375 9.43127 13.2328 10.0937 12.9531C10.7342 12.6828 11.3089 12.2935 11.8026 11.7998C12.2964 11.3061 12.6847 10.7314 12.955 10.0908C13.219 9.46744 13.3593 8.80481 13.3749 8.12207C13.3765 8.0549 13.4312 8.00003 13.4999 8H14.4374ZM7.99698 1.4375C10.0969 1.43754 11.9654 2.42354 13.1669 3.96094L14.0487 3.27148C14.1299 3.2064 14.2498 3.26572 14.2499 3.37012L14.2372 6.19727C14.237 6.2767 14.1609 6.33598 14.0829 6.31738L11.3378 5.64551C11.2362 5.62051 11.2081 5.48887 11.2909 5.4248L12.2314 4.69043C12.097 4.5186 11.9514 4.35485 11.7968 4.2002C11.303 3.70488 10.7278 3.31719 10.0888 3.04688C9.4279 2.76725 8.72443 2.625 7.99795 2.625C7.27155 2.62506 6.56852 2.76725 5.90616 3.04688C5.26558 3.31717 4.69089 3.70493 4.19717 4.2002C3.70342 4.69551 3.31514 5.26856 3.04483 5.90918C2.78079 6.53256 2.64055 7.19519 2.62491 7.87793C2.62334 7.94512 2.56866 8 2.49991 8H1.56241C1.49219 7.99997 1.43595 7.94227 1.43741 7.87207C1.50459 4.30645 4.41729 1.4375 7.99698 1.4375Z" fill="currentColor"/>
</g></svg>
