<?xml version="1.0" standalone="no"?>
<svg xmlns="http://www.w3.org/2000/svg" class="icon" viewBox="0 0 1024 1024">
  <path d="M512.128 402.88c-174.528 0-363.648-47.232-363.648-145.408 0-98.176 189.12-145.472 363.648-145.472 174.528 0 363.648 47.296 363.648 145.472 0 98.176-189.12 145.408-363.648 145.408z m0-218.176c-189.12 0-290.944 54.592-290.944 72.768 0 18.176 101.824 72.704 290.944 72.704 189.056 0 290.88-54.528 290.88-72.704 0-18.176-101.76-72.768-290.88-72.768z m0 472.768C337.6 657.472 148.48 610.176 148.48 512c0-21.76 14.528-36.352 36.352-36.352 21.824 0 36.352 14.528 36.352 36.352 0 18.176 90.88 72.704 290.944 72.704 200 0 290.88-54.528 290.88-72.704 0-21.76 14.592-36.352 36.352-36.352 21.824 0 36.416 14.528 36.416 36.352 0 98.176-189.12 145.472-363.648 145.472z m0 254.528c-174.528 0-363.648-47.296-363.648-145.472V257.472c0-21.824 14.528-36.352 36.352-36.352 21.824 0 36.352 14.528 36.352 36.352v509.056c0 18.176 90.88 72.768 290.944 72.768 200 0 290.88-54.592 290.88-72.768V257.472c0-21.824 14.592-36.352 36.352-36.352 21.824 0 36.416 14.528 36.416 36.352v509.056c0 98.176-189.12 145.472-363.648 145.472z"></path>
</svg>
