<?xml version="1.0" standalone="no"?>
<svg xmlns="http://www.w3.org/2000/svg" class="icon" viewBox="0 0 1024 1024">
  <path d="M880 912H144a32 32 0 0 1-32-32V144a32 32 0 0 1 32-32h360c4.416 0 8 3.584 8 8v56a8 8 0 0 1-8 8h-320v656h656v-320c0-4.416 3.584-8 8-8h56c4.416 0 8 3.584 8 8v360a32 32 0 0 1-32 32zM770.88 199.104l-52.224-52.16a8 8 0 0 1 4.736-13.632l179.392-20.992c5.12-0.64 9.472 3.712 8.896 8.96l-20.992 179.328a8 8 0 0 1-13.632 4.736l-52.416-52.416-256.192 256.192a8 8 0 0 1-11.264 0l-42.432-42.368a8 8 0 0 1 0-11.328l256.128-256.32z" p-id="44615"></path>
</svg>
