<?xml version="1.0" standalone="no"?>
<svg xmlns="http://www.w3.org/2000/svg" xmlns:xlink="http://www.w3.org/1999/xlink" class="icon" viewBox="0 0 1024 1024">
  <defs><path id="a" d="M1.24344979e-14 5.68434189e-14 880.948789 5.68434189e-14 880.948789 284.004395 1.24344979e-14 284.004395z" /></defs>
  <g fill="none" fill-rule="evenodd" stroke="none" stroke-width="1" transform="translate(0 2)">
    <g transform="translate(71.526 659.792)">
      <mask id="b" fill="#fff"><use xlink:href="#a" /></mask>
      <path fill="#181818" d="M440.474 284.004c-15.917 0-31.833-3.999-46.34-11.995L4.138 57.044A8 8 0 0 1 .995 46.176L24.166 4.14A8 8 0 0 1 35.034.995L425.027 215.96c9.672 5.33 21.222 5.332 30.895 0L845.914.995a8 8 0 0 1 10.868 3.144l23.171 42.037a8 8 0 0 1-3.144 10.868L486.816 272.008c-14.509 7.997-30.426 11.996-46.342 11.996" mask="url(#b)" />
    </g>
    <path fill="#181818" d="M512 763.103c-15.917 0-31.833-4-46.341-11.995L75.665 536.143a8 8 0 0 1-3.144-10.868l23.171-42.037a8 8 0 0 1 10.868-3.144l389.993 214.964c9.672 5.33 21.222 5.332 30.895 0L917.44 480.094a8 8 0 0 1 10.868 3.144l23.171 42.037a8 8 0 0 1-3.144 10.868L558.342 751.107c-14.509 7.997-30.426 11.996-46.342 11.996" />
    <path fill="#181818" d="M448.7 0c-10.6 0-21.2 2.631-30.79 7.893L16.607 228.107c-22.117 12.137-22.147 43.9-.053 56.079l401.253 221.17a63.967 63.967 0 0 0 30.894 7.95 63.967 63.967 0 0 0 30.894-7.95l401.253-221.17c22.094-12.179 22.064-43.942-.053-56.079L479.489 7.893A63.965 63.965 0 0 0 448.699 0m0 64 350.297 192.224L448.7 449.307 98.403 256.223 448.693 64z" transform="translate(63.3 80.204)" />
  </g>
</svg>
