<svg width="16" height="16" viewBox="0 0 16 16" fill="none" xmlns="http://www.w3.org/2000/svg">
<path fill-rule="evenodd" clip-rule="evenodd" d="M7.99997 14.7781C7.75126 14.7781 7.50258 14.7156 7.27589 14.5907L1.18223 11.2318C1.12178 11.1985 1.09978 11.1225 1.13311 11.062L1.49515 10.4052C1.52848 10.3447 1.6045 10.3227 1.66497 10.3561L7.75861 13.7149C7.90973 13.7982 8.0902 13.7982 8.24134 13.7149L14.335 10.3561C14.3954 10.3227 14.4715 10.3447 14.5048 10.4052L14.8668 11.062C14.9002 11.1225 14.8782 11.1985 14.8177 11.2318L8.72406 14.5906C8.49736 14.7156 8.24865 14.7781 7.99997 14.7781Z" fill="#5C6B8A"/>
<path fill-rule="evenodd" clip-rule="evenodd" d="M7.99997 11.9547C7.75126 11.9547 7.50258 11.8922 7.27589 11.7673L1.18223 8.40847C1.12178 8.37514 1.09978 8.29911 1.13311 8.23866L1.49515 7.58183C1.52848 7.52138 1.6045 7.49938 1.66497 7.5327L7.75861 10.8915C7.90973 10.9748 8.0902 10.9748 8.24134 10.8915L14.335 7.5327C14.3954 7.49938 14.4715 7.52138 14.5048 7.58183L14.8668 8.23866C14.9002 8.29911 14.8782 8.37514 14.8177 8.40847L8.72406 11.7673C8.49736 11.8922 8.24865 11.9547 7.99997 11.9547Z" fill="#5C6B8A"/>
<path fill-rule="evenodd" clip-rule="evenodd" d="M7.99995 1.28442C7.83432 1.28442 7.6687 1.32553 7.51887 1.40775L1.24848 4.8486C0.902899 5.03824 0.90243 5.53453 1.24765 5.72483L7.51723 9.18061C7.66748 9.26342 7.83371 9.30483 7.99995 9.30483C8.16618 9.30483 8.33241 9.26342 8.48266 9.18061L14.7522 5.72483C15.0975 5.53453 15.097 5.03824 14.7514 4.8486L8.48102 1.40775C8.3312 1.32553 8.16557 1.28442 7.99995 1.28442ZM7.99995 2.28442L13.4733 5.28792L7.99995 8.30485L2.52655 5.28791L7.99985 2.28442C7.99985 2.28442 7.9999 2.28442 7.99995 2.28442Z" fill="#5C6B8A"/>
</svg>
