<svg width="16" height="16" viewBox="0 0 16 16" fill="none" xmlns="http://www.w3.org/2000/svg">
<path d="M8.00004 4.66667C8.00004 3.95942 7.71909 3.28115 7.21899 2.78105C6.7189 2.28095 6.04062 2 5.33337 2H1.33337V12H6.00004C6.53047 12 7.03918 12.2107 7.41425 12.5858C7.78933 12.9609 8.00004 13.4696 8.00004 14M8.00004 4.66667V14M8.00004 4.66667C8.00004 3.95942 8.28099 3.28115 8.78109 2.78105C9.28119 2.28095 9.95946 2 10.6667 2H14.6667V12H10C9.46961 12 8.9609 12.2107 8.58583 12.5858C8.21075 12.9609 8.00004 13.4696 8.00004 14" stroke="#5C6B8A" stroke-linecap="round" stroke-linejoin="round"/>
</svg>
