<?xml version="1.0" standalone="no"?>
<svg xmlns="http://www.w3.org/2000/svg" xmlns:xlink="http://www.w3.org/1999/xlink" class="icon" viewBox="0 0 1024 1024">
  <defs>
    <path id="a" d="M0 0 620.655 0 620.655 686.8287 0 686.8287z" />
    <path id="c" d="M0 0 541.6538 0 541.6538 577.9963 0 577.9963z" />
  </defs>
  <g fill="none" fill-rule="evenodd" stroke="none" stroke-width="1" transform="translate(0 2)">
    <g transform="translate(64 68.293) translate(0 200.585)">
      <mask id="b" fill="#fff"><use xlink:href="#a" /></mask>
      <path fill="#181818" d="M310.327 0c-2.164 0-4.327.286-6.434.858L18.127 78.424A24.562 24.562 0 0 0 0 102.128v240.799c0 194.816 125.029 282.334 310.372 343.902 185.293-61.569 310.283-149.048 310.283-343.816V102.128c0-11.087-7.428-20.8-18.128-23.704L316.761.858A24.547 24.547 0 0 0 310.327 0m0 65.427 246.328 66.861v210.725c0 75.253-21.196 131.303-66.703 176.395-38.715 38.361-96.094 70.295-179.583 99.776-83.509-29.481-140.909-61.424-179.64-99.8C85.203 474.275 64 418.204 64 342.927V132.288z" />
    </g>
    <g transform="translate(64 68.293) translate(354.346)">
      <mask id="d" fill="#fff"><use xlink:href="#c" /></mask>
      <path fill="#181818" d="M525.834 68.441 276.442.748a21.434 21.434 0 0 0-11.23 0L15.82 68.441A21.436 21.436 0 0 0 0 89.128v56.2L64 162.7v-41.02l206.827-56.14 206.827 56.14V299.35c0 63.357-17.731 110.435-55.8 148.156-22.366 22.162-52.216 41.854-91.545 60.141v35.95a481.4 481.4 0 0 1-1.235 34.398c129.128-52.932 212.58-129.97 212.58-278.645V89.128a21.436 21.436 0 0 0-15.82-20.687" />
    </g>
    <path fill="#181818" d="m260.02 633.714-85.843-85.842a8 8 0 0 1 0-11.313l33.941-33.942a7.999 7.999 0 0 1 11.314 0l63.214 63.215 118.576-118.577a8 8 0 0 1 11.314 0l33.941 33.942a8 8 0 0 1 0 11.314L305.274 633.714c-12.497 12.497-32.758 12.497-45.255 0" transform="translate(64 68.293)" />
  </g>
</svg>
