<?xml version="1.0" standalone="no"?>
<svg xmlns="http://www.w3.org/2000/svg" class="icon" viewBox="0 0 1024 1024">
  <g fill="currentColor" fill-rule="evenodd">
    <path d="M379.7 287.828H123.857C107.368 287.828 94 300.795 94 316.79v550.27c0 15.996 13.368 28.96 29.857 28.96h776.286c16.49 0 29.857-12.964 29.857-28.96V432.45c0-15.994-13.367-28.961-29.857-28.961H511.201L400.822 296.32c-5.6-5.438-13.198-8.493-21.122-8.493m-13.583 64 100.502 97.579a63.999 63.999 0 0 0 44.582 18.082H866V832.02H158V351.828z" />
    <path d="M776 183.639a8 8 0 0 1-8 8H420a31.997 31.997 0 0 1-22.595-9.341L278.772 64H8a8 8 0 0 1-8-8V8a8 8 0 0 1 8-8h284c8.471 0 16.597 3.36 22.596 9.341l118.633 118.298H768a8 8 0 0 1 8 8z" transform="translate(154 127.979)" />
  </g>
</svg>
