<svg viewBox="0 0 1024 1024" xmlns="http://www.w3.org/2000/svg"><g transform="scale(64)">
<path fill-rule="evenodd" clip-rule="evenodd" d="M9.75 11.0359H8.59219V7.25C8.59219 7.18125 8.53594 7.125 8.46719 7.125H7.52969C7.46094 7.125 7.40469 7.18125 7.40469 7.25V11.0359H6.25C6.14531 11.0359 6.0875 11.1562 6.15156 11.2375L7.90156 13.4516C7.95156 13.5156 8.04844 13.5156 8.09844 13.4516L9.84844 11.2375C9.9125 11.1562 9.85469 11.0359 9.75 11.0359ZM12.6781 5.72969C11.9625 3.84219 10.1391 2.5 8.00313 2.5C5.86719 2.5 4.04375 3.84063 3.32812 5.72813C1.98906 6.07969 1 7.3 1 8.75C1 10.4766 2.39844 11.875 4.12344 11.875H4.75C4.81875 11.875 4.875 11.8188 4.875 11.75V10.8125C4.875 10.7437 4.81875 10.6875 4.75 10.6875H4.12344C3.59687 10.6875 3.10156 10.4781 2.73281 10.0984C2.36563 9.72031 2.17031 9.21094 2.1875 8.68281C2.20156 8.27031 2.34219 7.88281 2.59687 7.55625C2.85781 7.22344 3.22344 6.98125 3.62969 6.87344L4.22187 6.71875L4.43906 6.14687C4.57344 5.79062 4.76094 5.45781 4.99688 5.15625C5.22969 4.85625 5.50625 4.59531 5.81563 4.37656C6.45781 3.925 7.21406 3.68594 8.00313 3.68594C8.79219 3.68594 9.54844 3.925 10.1906 4.37656C10.5016 4.59531 10.7766 4.85781 11.0094 5.15625C11.2453 5.45781 11.4328 5.79219 11.5672 6.14687L11.7828 6.71719L12.3734 6.87344C13.2203 7.10156 13.8125 7.87187 13.8125 8.75C13.8125 9.26719 13.6109 9.75469 13.2453 10.1203C12.8797 10.4859 12.3937 10.6875 11.8766 10.6875H11.25C11.1812 10.6875 11.125 10.7437 11.125 10.8125V11.75C11.125 11.8188 11.1812 11.875 11.25 11.875H11.8766C13.6016 11.875 15 10.4766 15 8.75C15 7.30156 14.0141 6.08281 12.6781 5.72969Z" fill="currentColor"/>
<mask id="mask0_2088_3380" maskUnits="userSpaceOnUse" x="1" y="2" width="14" height="12">
<path fill-rule="evenodd" clip-rule="evenodd" d="M9.75 11.0359H8.59219V7.25C8.59219 7.18125 8.53594 7.125 8.46719 7.125H7.52969C7.46094 7.125 7.40469 7.18125 7.40469 7.25V11.0359H6.25C6.14531 11.0359 6.0875 11.1562 6.15156 11.2375L7.90156 13.4516C7.95156 13.5156 8.04844 13.5156 8.09844 13.4516L9.84844 11.2375C9.9125 11.1562 9.85469 11.0359 9.75 11.0359ZM12.6781 5.72969C11.9625 3.84219 10.1391 2.5 8.00313 2.5C5.86719 2.5 4.04375 3.84063 3.32812 5.72813C1.98906 6.07969 1 7.3 1 8.75C1 10.4766 2.39844 11.875 4.12344 11.875H4.75C4.81875 11.875 4.875 11.8188 4.875 11.75V10.8125C4.875 10.7437 4.81875 10.6875 4.75 10.6875H4.12344C3.59687 10.6875 3.10156 10.4781 2.73281 10.0984C2.36563 9.72031 2.17031 9.21094 2.1875 8.68281C2.20156 8.27031 2.34219 7.88281 2.59687 7.55625C2.85781 7.22344 3.22344 6.98125 3.62969 6.87344L4.22187 6.71875L4.43906 6.14687C4.57344 5.79062 4.76094 5.45781 4.99688 5.15625C5.22969 4.85625 5.50625 4.59531 5.81563 4.37656C6.45781 3.925 7.21406 3.68594 8.00313 3.68594C8.79219 3.68594 9.54844 3.925 10.1906 4.37656C10.5016 4.59531 10.7766 4.85781 11.0094 5.15625C11.2453 5.45781 11.4328 5.79219 11.5672 6.14687L11.7828 6.71719L12.3734 6.87344C13.2203 7.10156 13.8125 7.87187 13.8125 8.75C13.8125 9.26719 13.6109 9.75469 13.2453 10.1203C12.8797 10.4859 12.3937 10.6875 11.8766 10.6875H11.25C11.1812 10.6875 11.125 10.7437 11.125 10.8125V11.75C11.125 11.8188 11.1812 11.875 11.25 11.875H11.8766C13.6016 11.875 15 10.4766 15 8.75C15 7.30156 14.0141 6.08281 12.6781 5.72969Z" fill="currentColor"/>
</mask>
<g mask="url(#mask0_2088_3380)">
</g>
</g></svg>
