<svg viewBox="0 0 1024 1024" xmlns="http://www.w3.org/2000/svg"><g transform="scale(64)">
<path d="M13.75 1.75C14.0266 1.75 14.25 1.97344 14.25 2.25V13.75C14.25 14.0266 14.0266 14.25 13.75 14.25H2.25C1.97344 14.25 1.75 14.0266 1.75 13.75V2.25C1.75 1.97344 1.97344 1.75 2.25 1.75H13.75ZM2.875 13.125H13.125V2.875H2.875V13.125ZM5.95117 6.25C6.11209 6.25 6.26269 6.32639 6.35645 6.45605L8 8.72852L9.64258 6.45605C9.73635 6.32656 9.88763 6.25 10.0469 6.25H10.7793C10.8809 6.25 10.9402 6.36543 10.8809 6.44824L8.09961 10.292C8.04959 10.3607 7.94842 10.3607 7.89844 10.292L5.11719 6.44824C5.05797 6.36544 5.11724 6.25 5.21875 6.25H5.95117Z" fill="currentColor"/>
</g></svg>
