<svg width="16" height="16" viewBox="0 0 16 16" fill="none" xmlns="http://www.w3.org/2000/svg">
<path fill-rule="evenodd" clip-rule="evenodd" d="M13.914 1.19844L8.40465 8.79375C8.20466 9.06875 7.79528 9.06875 7.59684 8.79375L2.0859 1.19844C2.02653 1.11563 2.08434 1 2.18747 1H3.35934C3.43903 1 3.51403 1.03906 3.5609 1.10313L7.99997 7.22187L12.439 1.10313C12.4859 1.03906 12.5609 1 12.6406 1H13.8125C13.914 1 13.9734 1.11563 13.914 1.19844Z" fill="#5C6B8A"/>
<path fill-rule="evenodd" clip-rule="evenodd" d="M13.914 7.19844L8.40465 14.7938C8.20466 15.0688 7.79528 15.0688 7.59684 14.7938L2.0859 7.19844C2.02653 7.11563 2.08434 7 2.18747 7H3.35934C3.43903 7 3.51403 7.03906 3.5609 7.10313L7.99997 13.2219L12.439 7.10313C12.4859 7.03906 12.5609 7 12.6406 7H13.8125C13.914 7 13.9734 7.11563 13.914 7.19844Z" fill="#5C6B8A"/>
</svg>
