<?xml version="1.0" standalone="no"?>
<svg xmlns="http://www.w3.org/2000/svg" class="icon" viewBox="0 0 1024 1024">
  <path d="M232 149.75C232 102.392 270.392 64 317.75 64s85.75 38.392 85.75 85.75-38.392 85.75-85.75 85.75S232 197.108 232 149.75zM232 512c0-47.358 38.392-85.75 85.75-85.75S403.5 464.642 403.5 512s-38.392 85.75-85.75 85.75S232 559.358 232 512z m0 362.25c0-47.359 38.392-85.75 85.75-85.75s85.75 38.391 85.75 85.75S365.108 960 317.75 960 232 921.609 232 874.25z m388.5-724.5c0-47.358 38.392-85.75 85.75-85.75 47.359 0 85.75 38.392 85.75 85.75s-38.391 85.75-85.75 85.75c-47.358 0-85.75-38.392-85.75-85.75z m0 362.25c0-47.358 38.392-85.75 85.75-85.75 47.359 0 85.75 38.392 85.75 85.75s-38.391 85.75-85.75 85.75c-47.358 0-85.75-38.392-85.75-85.75z m0 362.25c0-47.359 38.392-85.75 85.75-85.75 47.359 0 85.75 38.391 85.75 85.75S753.609 960 706.25 960c-47.358 0-85.75-38.391-85.75-85.75z" p-id="47918"></path>
</svg>
