<svg viewBox="0 0 1024 1024" xmlns="http://www.w3.org/2000/svg"><g transform="scale(64)">
<path fill-rule="evenodd" clip-rule="evenodd" d="M3.625 2.33984C3.625 1.59987 4.22487 1 4.96484 1C5.70481 1 6.30469 1.59987 6.30469 2.33984C6.30469 3.07981 5.70481 3.67969 4.96484 3.67969C4.22487 3.67969 3.625 3.07981 3.625 2.33984ZM3.625 8C3.625 7.26003 4.22487 6.66016 4.96484 6.66016C5.70481 6.66016 6.30469 7.26003 6.30469 8C6.30469 8.73997 5.70481 9.33984 4.96484 9.33984C4.22487 9.33984 3.625 8.73997 3.625 8ZM3.625 13.6602C3.625 12.9202 4.22487 12.3203 4.96484 12.3203C5.70481 12.3203 6.30469 12.9202 6.30469 13.6602C6.30469 14.4001 5.70481 15 4.96484 15C4.22487 15 3.625 14.4001 3.625 13.6602ZM9.69531 2.33984C9.69531 1.59987 10.2952 1 11.0352 1C11.7751 1 12.375 1.59987 12.375 2.33984C12.375 3.07981 11.7751 3.67969 11.0352 3.67969C10.2952 3.67969 9.69531 3.07981 9.69531 2.33984ZM9.69531 8C9.69531 7.26003 10.2952 6.66016 11.0352 6.66016C11.7751 6.66016 12.375 7.26003 12.375 8C12.375 8.73997 11.7751 9.33984 11.0352 9.33984C10.2952 9.33984 9.69531 8.73997 9.69531 8ZM9.69531 13.6602C9.69531 12.9202 10.2952 12.3203 11.0352 12.3203C11.7751 12.3203 12.375 12.9202 12.375 13.6602C12.375 14.4001 11.7751 15 11.0352 15C10.2952 15 9.69531 14.4001 9.69531 13.6602Z" fill="currentColor"/>
</g></svg>
