<svg viewBox="0 0 1024 1024" xmlns="http://www.w3.org/2000/svg"><g transform="scale(64)">
<path d="M8 1C11.866 1 15 4.13401 15 8C15 11.866 11.866 15 8 15C4.13401 15 1 11.866 1 8C1 4.13401 4.13401 1 8 1ZM8 2.1875C4.78984 2.1875 2.1875 4.78984 2.1875 8C2.1875 11.2102 4.78984 13.8125 8 13.8125C11.2102 13.8125 13.8125 11.2102 13.8125 8C13.8125 4.78984 11.2102 2.1875 8 2.1875ZM10.4375 5.63965C10.544 5.63913 10.6026 5.76415 10.5342 5.8457L8.50195 8.2666L10.5342 10.6885C10.6025 10.77 10.5439 10.8941 10.4375 10.8936L9.40625 10.8887L7.85352 9.03906L6.30176 10.8887L5.26953 10.8936C5.16323 10.8939 5.10544 10.77 5.17383 10.6885L7.20508 8.2666L5.17383 5.8457C5.10544 5.76422 5.16323 5.63934 5.26953 5.63965L6.30176 5.64453L7.85352 7.49414L9.40625 5.64453L10.4375 5.63965Z" fill="currentColor"/>
</g></svg>
