<svg width="16" height="16" viewBox="0 0 16 16" fill="none" xmlns="http://www.w3.org/2000/svg">
<path d="M8 1C11.8656 1 15 4.13438 15 8C15 11.8656 11.8656 15 8 15C4.13438 15 1 11.8656 1 8C1 4.13438 4.13438 1 8 1ZM8 2.1875C4.79063 2.1875 2.1875 4.79063 2.1875 8C2.1875 11.2094 4.79063 13.8125 8 13.8125C11.2094 13.8125 13.8125 11.2094 13.8125 8C13.8125 4.79063 11.2094 2.1875 8 2.1875ZM10.584 5.40332C10.6527 5.40332 10.709 5.45957 10.709 5.52832C10.7089 5.55786 10.7002 5.58757 10.6816 5.60938L8.64844 8.03125L10.6777 10.4512C10.6965 10.4746 10.708 10.5035 10.708 10.5332C10.7078 10.6033 10.6515 10.6581 10.583 10.6582L9.55176 10.6533L8 8.80273L6.44824 10.6543L5.41602 10.6592C5.34727 10.6592 5.29102 10.6029 5.29102 10.5342C5.29106 10.5046 5.3016 10.4765 5.32031 10.4531L7.35352 8.0332L5.32031 5.61133C5.30156 5.58789 5.29102 5.55898 5.29102 5.5293C5.29122 5.45917 5.34739 5.4043 5.41602 5.4043L6.44824 5.40918L8 7.25977L9.55273 5.4082L10.584 5.40332Z" fill="#EB4242"/>
</svg>
