<svg width="16" height="16" viewBox="0 0 16 16" fill="none" xmlns="http://www.w3.org/2000/svg">
<path d="M12.5 1.95001C12.8 1.95001 13 2.15001 13 2.45001V8.17462L15 8.8504V13.9998L11 15.4998L7 13.9998H2.5C2.2 13.9998 2 13.7998 2 13.4998V2.49982C2.00009 2.19993 2.20007 1.99982 2.5 1.99982H12.5V1.95001ZM8 9.54962V13.2996L11 14.4002L14 13.2996V9.54962L11 8.54962L8 9.54962ZM3 12.9998H7V8.74982L7.7002 8.54962L10.7002 7.6004L11 7.49982L11.2998 7.6004L11.332 7.61212L12 7.83673V2.99982H3V12.9998ZM12.8496 10.6502L10.5 12.9998L9.15039 11.6502L9.84961 10.9002L10.5 11.5496L12.1504 9.90021L12.8496 10.6502ZM7 7.49982H4V6.49982H7V7.49982ZM10 5.49982H4V4.49982H10V5.49982Z" fill="#5C6B8A"/>
</svg>
