<svg width="16" height="16" viewBox="0 0 16 16" fill="none" xmlns="http://www.w3.org/2000/svg">
<g clip-path="url(#clip0_2317_399)">
<path fill-rule="evenodd" clip-rule="evenodd" d="M13.75 14.25H2.25C1.97386 14.25 1.75 14.0261 1.75 13.75V2.25C1.75 1.97386 1.97386 1.75 2.25 1.75H7.875C7.944 1.75 8 1.806 8 1.875V2.75C8 2.81904 7.94404 2.875 7.875 2.875H2.875V13.125H13.125V8.125C13.125 8.056 13.181 8 13.25 8H14.125C14.194 8 14.25 8.056 14.25 8.125V13.75C14.25 14.0261 14.0261 14.25 13.75 14.25ZM12.045 3.111L11.229 2.296C11.1948 2.26213 11.1831 2.21165 11.1989 2.16619C11.2147 2.12074 11.2552 2.08839 11.303 2.083L14.106 1.755C14.186 1.745 14.254 1.813 14.245 1.895L13.917 4.697C13.9116 4.74482 13.8793 4.7853 13.8338 4.80109C13.7884 4.81688 13.7379 4.80518 13.704 4.771L12.885 3.952L8.882 7.955C8.83327 8.0033 8.75473 8.0033 8.706 7.955L8.043 7.293C8.01949 7.26955 8.00628 7.23771 8.00628 7.2045C8.00628 7.17129 8.01949 7.13945 8.043 7.116L12.045 3.111Z" fill="#5C6B8A"/>
</g>
<defs>
<clipPath id="clip0_2317_399">
<rect width="16" height="16" fill="white"/>
</clipPath>
</defs>
</svg>
