<svg width="16" height="16" viewBox="0 0 16 16" fill="none" xmlns="http://www.w3.org/2000/svg">
<path fill-rule="evenodd" clip-rule="evenodd" d="M14.7234 7.59999L14.7219 7.59843L14.7203 7.59687C14.1515 6.39843 13.4703 5.42968 12.6781 4.69062L11.8859 5.48437C12.5687 6.11249 13.1594 6.94843 13.6687 7.99843C12.3672 10.6906 10.5219 11.9687 7.99998 11.9687C7.19841 11.9687 6.46404 11.8391 5.79373 11.5766L4.93904 12.4312C5.8531 12.8719 6.87185 13.0937 7.99998 13.0937C11.0031 13.0937 13.2406 11.5234 14.7219 8.40156C14.8422 8.14843 14.8422 7.85468 14.7234 7.59999ZM13.7234 2.40937L13.0609 1.74687C13.0125 1.69843 12.9328 1.69843 12.8844 1.74687L11.0594 3.57031C10.1469 3.12812 9.1281 2.90624 7.99998 2.90624C4.99685 2.90624 2.75935 4.47656 1.2781 7.59843V7.59999C1.15779 7.85312 1.15779 8.14999 1.2781 8.40468C1.84685 9.60312 2.5281 10.5719 3.32029 11.3125L1.74685 12.8828C1.69841 12.9312 1.69841 13.0109 1.74685 13.0594L2.40935 13.7219C2.45779 13.7703 2.53748 13.7703 2.58591 13.7219L13.7234 2.58437C13.7719 2.53749 13.7719 2.45781 13.7234 2.40937ZM6.23279 8.39687C6.2031 8.26874 6.18748 8.13593 6.18748 7.99999C6.18748 7.03281 6.97029 6.24999 7.93748 6.24999C8.07341 6.24999 8.20779 6.26562 8.33435 6.29531L6.23279 8.39687ZM9.1156 5.51406C8.75779 5.34531 8.35935 5.24999 7.93748 5.24999C6.41873 5.24999 5.18748 6.48124 5.18748 7.99999C5.18748 8.42187 5.28279 8.82031 5.45154 9.17812L4.11404 10.5156C3.43123 9.88749 2.8406 9.05156 2.33123 8.00156C3.63435 5.30937 5.47966 4.03124 7.99998 4.03124C8.80154 4.03124 9.53591 4.16093 10.2062 4.42343L9.1156 5.51406ZM7.93748 9.74999C7.83748 9.74999 7.73904 9.74218 7.64373 9.72499L6.84529 10.5234C7.17966 10.6687 7.54998 10.7484 7.93748 10.7484C9.45623 10.7484 10.6875 9.51718 10.6875 7.99843C10.6875 7.61093 10.6078 7.24062 10.4625 6.90624L9.66404 7.70468C9.67966 7.79999 9.68904 7.89843 9.68904 7.99843C9.68748 8.96718 8.90466 9.74999 7.93748 9.74999Z" fill="#5C6B8A"/>
</svg>
