<svg viewBox="0 0 1024 1024" xmlns="http://www.w3.org/2000/svg"><g transform="scale(64)">
<path fill-rule="evenodd" clip-rule="evenodd" d="M14.7219 7.59688C13.2406 4.47656 11.0015 2.90625 7.99998 2.90625C4.99685 2.90625 2.75935 4.47656 1.2781 7.59844C1.15779 7.85156 1.15779 8.14844 1.2781 8.40312C2.75935 11.5234 4.99841 13.0938 7.99998 13.0938C11.0031 13.0938 13.2406 11.5234 14.7219 8.40156C14.8422 8.14844 14.8422 7.85469 14.7219 7.59688ZM7.99998 11.9688C5.47966 11.9688 3.63435 10.6906 2.33279 8C3.63435 5.30938 5.47966 4.03125 7.99998 4.03125C10.5203 4.03125 12.3656 5.30938 13.6672 8C12.3672 10.6906 10.5219 11.9688 7.99998 11.9688ZM7.93748 5.25C6.41873 5.25 5.18748 6.48125 5.18748 8C5.18748 9.51875 6.41873 10.75 7.93748 10.75C9.45623 10.75 10.6875 9.51875 10.6875 8C10.6875 6.48125 9.45623 5.25 7.93748 5.25ZM7.93748 9.75C6.97029 9.75 6.18748 8.96719 6.18748 8C6.18748 7.03281 6.97029 6.25 7.93748 6.25C8.90466 6.25 9.68748 7.03281 9.68748 8C9.68748 8.96719 8.90466 9.75 7.93748 9.75Z" fill="currentColor"/>
</g></svg>
