<svg width="16" height="16" viewBox="0 0 16 16" fill="none" xmlns="http://www.w3.org/2000/svg">
<path d="M5.84961 3C5.94961 3 6.05039 3.04961 6.15039 3.09961L7.15039 3.90039C7.25026 4 7.35033 4 7.4502 4H13.5C13.8 4 14 4.2 14 4.5V6.5H15C15.35 6.5 15.6 6.85039 15.5 7.15039L13.6504 13.6504C13.5504 13.8502 13.3502 13.9998 13.1504 14H1.5C1.2 14 1 13.8 1 13.5V3.5C1 3.2 1.2 3 1.5 3H5.84961ZM2 13H2.75L3.84863 9.45801L4.5 6.5H13V5H7.4502C7.10028 5 6.74999 4.85031 6.5 4.65039L5.65039 4H2V13ZM4.63965 10.2939L4.0498 13H12.7002L14.2998 7.5H5.5L4.63965 10.2939Z" fill="#5C6B8A"/>
</svg>
