<svg viewBox="0 0 1024 1024" xmlns="http://www.w3.org/2000/svg"><g transform="scale(64)">
<path fill-rule="evenodd" clip-rule="evenodd" d="M14.5 6.9375H12.8125V5.1625C12.8125 4.88594 12.5891 4.6625 12.3125 4.6625H7.39062L5.55781 2.90938C5.53438 2.8875 5.50313 2.875 5.47188 2.875H1.5C1.22344 2.875 1 3.09844 1 3.375V12.625C1 12.9016 1.22344 13.125 1.5 13.125H12.4062C12.6094 13.125 12.7937 13.0016 12.8703 12.8125L14.9641 7.625C14.9875 7.56563 15 7.50156 15 7.4375C15 7.16094 14.7766 6.9375 14.5 6.9375ZM2.125 4H5.07031L6.93906 5.7875H11.6875V6.9375H3.71875C3.51562 6.9375 3.33125 7.06094 3.25469 7.25L2.125 10.05V4ZM12.0516 12H2.48438L4.09844 8H13.6672L12.0516 12Z" fill="currentColor"/>
<mask id="mask0_2088_3342" maskUnits="userSpaceOnUse" x="1" y="2" width="14" height="12">
<path fill-rule="evenodd" clip-rule="evenodd" d="M14.5 6.9375H12.8125V5.1625C12.8125 4.88594 12.5891 4.6625 12.3125 4.6625H7.39062L5.55781 2.90938C5.53438 2.8875 5.50313 2.875 5.47188 2.875H1.5C1.22344 2.875 1 3.09844 1 3.375V12.625C1 12.9016 1.22344 13.125 1.5 13.125H12.4062C12.6094 13.125 12.7937 13.0016 12.8703 12.8125L14.9641 7.625C14.9875 7.56563 15 7.50156 15 7.4375C15 7.16094 14.7766 6.9375 14.5 6.9375ZM2.125 4H5.07031L6.93906 5.7875H11.6875V6.9375H3.71875C3.51562 6.9375 3.33125 7.06094 3.25469 7.25L2.125 10.05V4ZM12.0516 12H2.48438L4.09844 8H13.6672L12.0516 12Z" fill="currentColor"/>
</mask>
<g mask="url(#mask0_2088_3342)">
</g>
</g></svg>
