<svg viewBox="0 0 1024 1024" xmlns="http://www.w3.org/2000/svg"><g transform="scale(64)">
<path fill-rule="evenodd" clip-rule="evenodd" d="M13.3531 4.51094L9.99062 1.14687C9.89687 1.05312 9.76875 1 9.63594 1H3C2.72344 1 2.5 1.22344 2.5 1.5V14.5C2.5 14.7766 2.72344 15 3 15H13C13.2766 15 13.5 14.7766 13.5 14.5V4.86406C13.5 4.73125 13.4469 4.60469 13.3531 4.51094ZM12.3469 5.09375H9.40625V2.15313L12.3469 5.09375ZM12.375 13.875H3.625V2.125H8.34375V5.5C8.34375 5.8625 8.6375 6.15625 9 6.15625H12.375V13.875Z" fill="currentColor"/>
<mask id="mask0_2088_3358" maskUnits="userSpaceOnUse" x="2" y="1" width="12" height="14">
<path fill-rule="evenodd" clip-rule="evenodd" d="M13.3531 4.51094L9.99062 1.14687C9.89687 1.05312 9.76875 1 9.63594 1H3C2.72344 1 2.5 1.22344 2.5 1.5V14.5C2.5 14.7766 2.72344 15 3 15H13C13.2766 15 13.5 14.7766 13.5 14.5V4.86406C13.5 4.73125 13.4469 4.60469 13.3531 4.51094ZM12.3469 5.09375H9.40625V2.15313L12.3469 5.09375ZM12.375 13.875H3.625V2.125H8.34375V5.5C8.34375 5.8625 8.6375 6.15625 9 6.15625H12.375V13.875Z" fill="currentColor"/>
</mask>
<g mask="url(#mask0_2088_3358)">
</g>
</g></svg>
