<svg viewBox="0 0 1024 1024" xmlns="http://www.w3.org/2000/svg"><g transform="scale(64)">
<path fill-rule="evenodd" clip-rule="evenodd" d="M10.0416 9.37986C10.0901 9.33142 10.17 9.33142 10.2184 9.37986L12.3073 11.4668L12.9909 10.7842C13.0642 10.7111 13.1901 10.7546 13.2028 10.8574L13.4987 13.3603C13.508 13.4416 13.4387 13.5094 13.359 13.5L10.8561 13.2041C10.7531 13.1915 10.7094 13.0656 10.7828 12.9922L11.4684 12.3056L9.37953 10.2168C9.33128 10.1683 9.33116 10.0884 9.37953 10.04L10.0416 9.37986ZM5.7809 9.37986C5.82933 9.33142 5.90922 9.33142 5.95765 9.37986L6.61976 10.042C6.6682 10.0904 6.6682 10.1703 6.61976 10.2187L4.5309 12.3056L5.21742 12.9902C5.29085 13.0636 5.24633 13.1906 5.1432 13.2031L2.64027 13.498C2.55917 13.5072 2.49229 13.4389 2.5016 13.3594L2.79652 10.8574C2.8092 10.7545 2.93603 10.7108 3.00941 10.7842L3.69203 11.4668L5.7809 9.37986ZM5.1432 2.7949C5.24628 2.80739 5.29072 2.93434 5.21742 3.00779L4.5309 3.69334L6.61976 5.7822C6.6682 5.83064 6.6682 5.91052 6.61976 5.95896L5.95765 6.62009C5.90922 6.66853 5.82933 6.66853 5.7809 6.62009L3.69203 4.5322L3.00941 5.2158C2.93596 5.2891 2.80902 5.24466 2.79652 5.14158L2.5016 2.63865C2.49242 2.55761 2.56079 2.4908 2.64027 2.49998L5.1432 2.7949ZM13.359 2.50095C13.4403 2.49158 13.508 2.56091 13.4987 2.6406L13.2028 5.14158C13.1903 5.24456 13.0643 5.28882 12.9909 5.2158L12.3073 4.5322L10.2184 6.62009C10.1699 6.66843 10.09 6.6685 10.0416 6.62009L9.37953 5.95798C9.33112 5.90958 9.33119 5.82967 9.37953 5.78123L11.4684 3.69529L10.7828 3.00876C10.7097 2.93532 10.7531 2.80941 10.8561 2.79685L13.359 2.50095Z" fill="currentColor"/>
</g></svg>
