<svg viewBox="0 0 1024 1024" xmlns="http://www.w3.org/2000/svg"><g transform="scale(64)">
<path fill-rule="evenodd" clip-rule="evenodd" d="M12.2381 9.88915C12.3408 9.90192 12.3842 10.0277 12.3113 10.1011L11.6248 10.7876L13.7146 12.8765C13.7628 12.9249 13.7629 13.0048 13.7146 13.0532L13.0515 13.7143C13.0031 13.7625 12.9231 13.7627 12.8748 13.7143L10.7859 11.6265L10.1033 12.3091C10.0299 12.3825 9.9029 12.339 9.89041 12.2358L9.59548 9.7329C9.58613 9.6518 9.65465 9.58417 9.73416 9.59326L12.2381 9.88915ZM6.26736 9.59521C6.34705 9.58583 6.41443 9.65322 6.40505 9.7329L6.10916 12.2339C6.09667 12.3369 5.97072 12.3811 5.89724 12.3081L5.21462 11.6245L3.12478 13.7124C3.07639 13.7606 2.99739 13.7606 2.949 13.7124L2.28591 13.0513C2.23767 13.0028 2.23754 12.9229 2.28591 12.8745L4.37478 10.7886L3.68923 10.103C3.61583 10.0296 3.65945 9.90273 3.76248 9.89013L6.26736 9.59521ZM2.949 2.28564C2.99737 2.23759 3.07641 2.23759 3.12478 2.28564L5.21462 4.37353L5.89724 3.69091C5.97068 3.61747 6.09666 3.66103 6.10916 3.76415L6.40505 6.26708C6.41441 6.34832 6.34509 6.41513 6.26541 6.40576L3.76248 6.11083C3.65949 6.0982 3.61584 5.97134 3.68923 5.89794L4.37478 5.2124L2.28591 3.12353C2.23751 3.07512 2.23757 2.99522 2.28591 2.94677L2.949 2.28564ZM12.8748 2.28759C12.9232 2.23915 13.0031 2.23915 13.0515 2.28759L13.7146 2.94872C13.7625 2.99707 13.7625 3.07616 13.7146 3.12451L11.6248 5.2124L12.3113 5.89697C12.3844 5.97033 12.3408 6.09609 12.2381 6.10888L9.73318 6.40478C9.65349 6.41415 9.58611 6.34638 9.59548 6.26513L9.89041 3.76415C9.9029 3.66103 10.0299 3.61747 10.1033 3.69091L10.7859 4.37353L12.8748 2.28759Z" fill="currentColor"/>
</g></svg>
