<?xml version="1.0" standalone="no"?>
<svg xmlns="http://www.w3.org/2000/svg" class="icon" viewBox="0 0 1024 1024">
  <path d="M520.77866667 73.9552C520.77866667 56.6688 506.51733333 42.66666667 488.912 42.66666667h-95.59466667c-114.3968 0-207.12426667 91.05066667-207.12426666 203.37813333V371.2h-79.66186667C88.92586667 371.2 74.66666667 385.20213333 74.66666667 402.48853333v93.86666667c0 17.28746667 14.2592 31.2896 31.8656 31.2896h79.66186666v250.3104c0 25.81333333-21.50826667 46.93333333-47.79733333 46.93333333h-31.86453333c-17.6064 0-31.8656 14.00213333-31.8656 31.2896v93.86666667C74.66666667 967.3312 88.92586667 981.33333333 106.53226667 981.33333333h31.86453333c114.39573333 0 207.1232-91.05066667 207.1232-203.37813333V527.6448h79.66293333c17.60533333 0 31.86453333-14.00213333 31.86453334-31.2896v-93.86666667c0-17.2864-14.2592-31.28853333-31.86453334-31.28853333h-79.66293333V246.0448c0-25.81333333 21.50826667-46.93333333 47.79733333-46.93333333h95.59466667c17.6064 0 31.8656-14.00213333 31.8656-31.2896v-93.86666667zM823.30666667 747.2l114.38613333-112.33813333a38.53226667 38.53226667 0 0 0 0-55.1936l-56.17493333-55.168c-15.52106667-15.2448-40.6784-15.2448-56.19946667 0L710.93333333 636.83626667 596.54826667 524.4992c-15.52106667-15.24266667-40.6784-15.24266667-56.19946667 0l-56.17493333 55.16906667a38.53226667 38.53226667 0 0 0 0 55.1936L598.56 747.2 484.17386667 859.53813333a38.53226667 38.53226667 0 0 0 0 55.1936l56.17493333 55.168c15.52106667 15.2448 40.6784 15.2448 56.19946667 0L710.93333333 857.56373333l114.38506667 112.33813334c15.52106667 15.24266667 40.6784 15.24266667 56.19946667 0l56.17493333-55.16906667a38.53226667 38.53226667 0 0 0 0-55.1936L823.30666667 747.2z" p-id="42365"></path>
</svg>
