<?xml version="1.0" standalone="no"?>
<svg xmlns="http://www.w3.org/2000/svg" class="icon" viewBox="0 0 1024 1024">
  <g>
    <path d="M384.125 0C171.979 0 0 171.978 0 384.124 0 596.27 171.979 768.249 384.125 768.249S768.249 596.27 768.249 384.124 596.271 0 384.125 0m0 64c43.245 0 85.162 8.455 124.587 25.131 38.113 16.12 72.355 39.211 101.775 68.631s52.511 63.662 68.632 101.775c16.675 39.424 25.13 81.342 25.13 124.587 0 43.245-8.455 85.162-25.131 124.587-16.12 38.113-39.211 72.355-68.631 101.775-29.421 29.421-63.662 52.512-101.775 68.632-39.425 16.675-81.342 25.131-124.587 25.131-43.245 0-85.162-8.456-124.587-25.131-38.113-16.12-72.355-39.211-101.775-68.632-29.421-29.42-52.512-63.662-68.632-101.775C72.456 469.286 64 427.369 64 384.124c0-43.245 8.456-85.162 25.131-124.587 16.12-38.113 39.211-72.355 68.632-101.775 29.42-29.42 63.662-52.511 101.775-68.631C298.963 72.455 340.88 64 384.125 64" transform="translate(127.875 127.876)" />
    <path d="M172.022 0C77.017 0 0 171.978 0 384.124 0 596.27 77.017 768.249 172.022 768.249S344.044 596.27 344.044 384.124 267.027 0 172.022 0m0 64c8.311 0 17.986 7.966 23.014 12.714 9.859 9.312 24.838 27.618 40.214 61.951 13.565 30.292 24.767 67.586 32.394 107.851 8.228 43.44 12.4 89.737 12.4 137.608 0 47.87-4.172 94.168-12.4 137.608-7.627 40.265-18.829 77.559-32.394 107.851-15.376 34.334-30.355 52.639-40.214 61.951-5.028 4.749-14.703 12.715-23.014 12.715s-17.986-7.966-23.014-12.715c-9.859-9.312-24.839-27.617-40.214-61.951-13.565-30.292-24.767-67.586-32.394-107.851-8.229-43.44-12.4-89.738-12.4-137.608 0-47.871 4.171-94.168 12.4-137.608 7.626-40.265 18.829-77.559 32.394-107.851 15.375-34.333 30.355-52.639 40.214-61.951C154.036 71.966 163.711 64 172.022 64" transform="translate(339.978 127.876)" />
    <path d="M894.81 479.998A389.276 389.276 0 0 1 896.124 512c0 10.776-.444 21.449-1.314 32H129.19a389.274 389.274 0 0 1-1.315-32c0-10.777.444-21.45 1.314-32.002Z" />
  </g>
</svg>
