<?xml version="1.0" standalone="no"?>
<svg xmlns="http://www.w3.org/2000/svg" class="icon" viewBox="0 0 1024 1024">
  <path d="M819.84 128H204.16C162.176 128 128 162.176 128 204.16v615.232c0 41.984 34.176 76.16 76.16 76.16h615.68c41.984 0 76.16-34.176 76.16-76.16V204.16C896 162.176 861.824 128 819.84 128zM429.888 593.92V429.696h164.224V593.92H429.888z m164.224 68.736v164.224H429.888v-164.224h164.224z m-397.44-232.96h164.48V593.92h-164.48V429.696z m466.176 0h164.48V593.92h-164.48V429.696zM204.16 196.736h615.68c4.096 0 7.424 3.328 7.424 7.424v156.8H196.736V204.16c0-4.096 3.328-7.424 7.424-7.424z m-7.424 622.72v-156.8h164.48v164.224H204.16a7.36 7.36 0 0 1-7.424-7.424z m623.104 7.488h-156.992v-164.288h164.48v156.8a7.488 7.488 0 0 1-7.488 7.488z" p-id="38914"></path>
</svg>
