<?xml version="1.0" standalone="no"?>
<svg xmlns="http://www.w3.org/2000/svg" class="icon" viewBox="0 0 1024 1024">
  <g>
    <path d="M652.51 810.169H371.49a8 8 0 0 1-8-8v-48a8 8 0 0 1 8-8h281.02a8 8 0 0 1 8 8v48a8 8 0 0 1-8 8M593.106 928.977H430.894a8 8 0 0 1-8-8v-48a8 8 0 0 1 8-8h162.212a8 8 0 0 1 8 8v48a8 8 0 0 1-8 8" />
    <path d="m299.02 0 4.937.04C466.567 2.686 598.04 135.787 598.04 299.02c0 60.158-12.416 108.058-35.523 148.069-9.437 16.341-20.492 31.126-33.602 45.58a365.209 365.209 0 0 1-7.609 8.15l-.766.793a357.001 357.001 0 0 1-3.535 3.593l-1.203 1.201-1.194 1.182-1.638 1.606-2.134 2.072-2.246 2.156-3.363 3.194-2.58 2.429-3.317 3.102-7.443 6.918-3.05 2.85-2.287 2.152-1.631 1.545-1.562 1.488-1.98 1.902-1.867 1.814-1.762 1.733-.844.839-.713.714-.59.593-1.141 1.16-1.096 1.13c-.18.185-.356.37-.532.553l-1.032 1.086c-.337.358-.668.711-.992 1.061l-.956 1.04-.921 1.02-.45.503-.874.996-.847.984c-.278.326-.552.65-.822.974l-.8.967c-.525.643-1.038 1.284-1.54 1.926l-.748.963c-7.532 9.821-11.591 18.924-12.874 29.405l-.075.644c-.554 4.99-4.679 8.792-9.658 8.932h-43.859c-5.753 0-10.355-4.842-9.985-10.566 1.485-22.967 8.892-42.71 21.923-61.374l.848-1.202.904-1.26.603-.83.604-.82.91-1.22.61-.804.921-1.198.932-1.188.944-1.181.957-1.177.648-.783.655-.783 1-1.176.678-.786.688-.789.699-.791 1.07-1.195.729-.803.742-.808 1.139-1.225.777-.826 1.195-1.255 1.231-1.276.842-.863 1.298-1.317 1.339-1.344.918-.913 1.897-1.87 2.494-2.424 2.1-2.018 1.638-1.563 1.697-1.608 2.96-2.787 3.787-3.535 7.696-7.153 3.01-2.816 2.771-2.61 2.147-2.038 2.015-1.93 2.268-2.196 1.783-1.749 1.703-1.692 1.315-1.324 1.282-1.307.956-.984a290.73 290.73 0 0 0 2.834-2.975l.627-.669c.835-.895 1.673-1.803 2.525-2.736 10.681-11.697 19.369-23.302 26.635-36.05 17.307-30.358 26.293-67.086 26.293-115.232 0-129.915-105.701-235.616-235.616-235.616-129.915 0-235.616 105.7-235.616 235.616 0 48.16 8.924 84.881 26.124 115.196 7.24 12.758 15.903 24.368 26.548 36.041a303.66 303.66 0 0 0 5.105 5.467l1.693 1.753 1.363 1.39 1.399 1.409 1.442 1.434 1.494 1.47 1.953 1.898 2.492 2.391 1.315 1.25 2.785 2.628 4.077 3.81 9.003 8.34 3.593 3.354 3.36 3.165 2.12 2.014 1.528 1.464 2.44 2.358 1.857 1.819 1.78 1.764.863.863 1.26 1.273 1.223 1.25 1.187 1.226.772.807 1.131 1.196.737.789.724.781 1.063 1.163.693.768 1.02 1.146.667.76.983 1.135.963 1.132.945 1.131.621.755.615.755.632.787a178.43 178.43 0 0 1 6.117 8.138c13.419 18.904 21.039 38.883 22.549 62.182.365 5.632-4.084 10.41-9.707 10.567h-43.861c-5.008 0-9.213-3.709-9.9-8.651l-.035-.276c-1.198-10.74-5.283-20.007-12.995-30.021a120.283 120.283 0 0 0-4.415-5.398l-.88-1.005a148.091 148.091 0 0 0-1.851-2.055l-.979-1.057c-.166-.178-.333-.357-.503-.537l-1.037-1.092-1.079-1.12-1.124-1.15c-.383-.39-.774-.784-1.173-1.184l-1.54-1.534-1.295-1.274-1.352-1.318-1.896-1.828-1.496-1.429-2.098-1.988-2.798-2.628-3.632-3.381-6.43-5.952-2.394-2.226-3.908-3.659-2.594-2.451-1.971-1.879-2.348-2.259-1.354-1.315-1.75-1.714-1.693-1.679-1.238-1.24-1.617-1.638-1.586-1.627-.784-.813-1.236-1.29-.82-.865a372.567 372.567 0 0 1-5.349-5.784c-13.084-14.438-24.123-29.235-33.54-45.595C12.364 407.139 0 359.219 0 299.02 0 135.783 131.465 2.686 294.083.04z" transform="translate(212.98 93.023)" />
  </g>
</svg>
