<svg width="16" height="16" viewBox="0 0 16 16" fill="none" xmlns="http://www.w3.org/2000/svg">
<path d="M10.3335 15L10.2949 14.998C10.2187 14.9905 10.1462 14.9607 10.0869 14.9121L10.0581 14.8862C9.99429 14.8224 9.9551 14.7385 9.94629 14.6494L9.94434 14.6113V9.94434H6.05566V14.6113L6.05371 14.6494C6.0449 14.7385 6.00571 14.8224 5.94189 14.8862L5.91309 14.9121C5.8439 14.9688 5.7567 15 5.6665 15H1.38867C1.36321 15 1.33784 14.9976 1.31299 14.9927L1.24023 14.9702C1.21667 14.9605 1.19396 14.9487 1.17285 14.9346L1.11377 14.8862C1.0957 14.8682 1.07956 14.8483 1.06543 14.8271L1.02979 14.7598C1.02003 14.7362 1.01228 14.7119 1.00732 14.687L1 14.6113V6.05566C1.00005 5.99342 1.01484 5.93174 1.04346 5.87646C1.07208 5.82124 1.11378 5.77374 1.16455 5.73779L7.77539 1.07129C7.84105 1.02497 7.91965 1 8 1C8.08035 1 8.15895 1.02497 8.22461 1.07129L14.8354 5.73779C14.8862 5.77374 14.9279 5.82124 14.9565 5.87646C14.9852 5.93174 15 5.99342 15 6.05566V14.6113L14.998 14.6494C14.9892 14.7385 14.9501 14.8224 14.8862 14.8862L14.8574 14.9121C14.7981 14.9607 14.7257 14.9905 14.6494 14.998L14.6113 15H10.3335ZM10.9443 14H14V6.37158L7.99951 2.13623L2 6.37158V14H5.05566V8.94434H10.9443V14Z" fill="#5C6B8A"/>
</svg>
