<?xml version="1.0" standalone="no"?>
<svg xmlns="http://www.w3.org/2000/svg" class="icon" viewBox="0 0 1024 1024">
  <g fill="currentColor" fill-rule="evenodd">
    <path d="M820.41 157.28V864.9H205.22V157.28zm-646.74-63.1c-17.42 0-31.55 14.13-31.55 31.55v770.72c0 17.42 14.13 31.55 31.55 31.55h678.29c17.42 0 31.55-14.13 31.55-31.55V125.73c0-17.42-14.13-31.55-31.55-31.55z" />
    <path d="M857.03 344.77 857.03 409.11 168.6 409.11 168.6 344.77z" />
    <path d="M857.03 613.07 857.03 677.41 168.6 677.41 168.6 613.07z" />
    <rect width="190.19" height="63.62" x="276.1" y="214.2" rx="8" />
    <rect width="190.19" height="63.62" x="276.1" y="478.37" rx="8" />
    <rect width="190.19" height="63.62" x="277.23" y="736.69" rx="8" />
  </g>
</svg>
