<?xml version="1.0" standalone="no"?>
<svg xmlns="http://www.w3.org/2000/svg" class="icon" viewBox="0 0 1024 1024">
  <path d="M863.808 57.6l6.4 6.4v78.976l-6.4 6.4h-51.968v70.016a203.84 203.84 0 0 1-40.384 122.304l-9.216 11.456-9.088 9.856-131.2 132.992a22.784 22.784 0 0 0-3.2 27.712l3.2 4.096 131.2 133.12c34.56 35.008 55.104 81.28 58.304 130.24l0.448 13.44-0.064 70.016h52.16l6.4 6.4V960l-6.4 6.4H160L153.6 960v-78.976l6.4-6.4 51.84-0.064v-69.952a204.224 204.224 0 0 1 40.448-122.368l9.216-11.456 9.088-9.856 131.2-133.12a22.656 22.656 0 0 0 3.2-27.712l-3.2-4.096-131.2-132.992a204.352 204.352 0 0 1-58.304-130.176l-0.448-13.44V149.376H160l-6.4-6.4V64L160 57.6h703.808zM731.008 139.84H293.12v79.168c-0.064 28.48 9.856 56 27.904 77.824l7.168 7.936 131.264 133.248c37.76 38.784 39.936 98.816 6.656 140.16l-6.656 7.488-58.88 59.648h222.72l-58.752-59.648a105.088 105.088 0 0 1-6.528-139.776l6.656-7.488 131.2-133.12c20.16-20.48 32.256-46.784 34.688-75.072l0.448-10.688V139.84z" p-id="45366"></path>
</svg>
