<svg viewBox="0 0 1024 1024" xmlns="http://www.w3.org/2000/svg"><g transform="scale(64)">
<path d="M6 1.5C6.27614 1.5 6.5 1.72386 6.5 2V3.5H12.0498C13.3998 3.5 14.5498 4.6 14.5498 6C14.5498 7.4 13.4498 8.5 12.0498 8.5H4.0498C3.24989 8.50011 2.5498 9.15007 2.5498 10C2.5498 10.8499 3.1999 11.4999 4.0498 11.5H9.5V10C9.5 9.72386 9.72386 9.5 10 9.5H14C14.2761 9.5 14.5 9.72386 14.5 10V14C14.5 14.2761 14.2761 14.5 14 14.5H10C9.72386 14.5 9.5 14.2761 9.5 14V12.5H4.0498C2.69989 12.4999 1.5498 11.3999 1.5498 10C1.5498 8.60007 2.6499 7.5001 4.0498 7.5H12.0498C12.8498 7.5 13.5498 6.85 13.5498 6C13.5498 5.15 12.8998 4.5 12.0498 4.5H6.5V6C6.5 6.27614 6.27614 6.5 6 6.5H2C1.72386 6.5 1.5 6.27614 1.5 6V2C1.5 1.72386 1.72386 1.5 2 1.5H6Z" fill="currentColor"/>
</g></svg>
