<?xml version="1.0" standalone="no"?>
<svg xmlns="http://www.w3.org/2000/svg" xmlns:xlink="http://www.w3.org/1999/xlink" class="icon" viewBox="0 0 16 16">
  <defs><path id="path-1" d="M0 0 5.59473125 0 5.59473125 5.62095178 0 5.62095178z" /></defs>
  <g fill="none" fill-rule="evenodd" stroke="none" stroke-width="1">
    <g transform="translate(-886 -1289)">
      <g transform="translate(886 1289)">
        <g transform="translate(1.697 1.7)">
          <mask fill="#fff"><use xlink:href="#path-1" /></mask>
          <path fill="#000" d="M4.885 5.621.036.741a.125.125 0 0 1 0-.176L.57.036a.125.125 0 0 1 .177 0l4.849 4.88z" mask="url(#mask-2)" />
          <path fill="#000" d="M5.303 5.768H.428a.125.125 0 0 1-.125-.125v-.75c0-.069.056-.125.125-.125h4.375V.426c0-.07.056-.125.125-.125h.75c.069 0 .125.056.125.125v4.842a.5.5 0 0 1-.5.5" />
          <path fill="#000" d="m.597 12.565-.532-.529a.125.125 0 0 1 0-.176l4.849-4.88.71.705-4.85 4.88a.125.125 0 0 1-.177 0" />
          <path fill="#000" d="M5.678 12.3h-.75a.125.125 0 0 1-.125-.124V7.833H.456a.125.125 0 0 1-.125-.125v-.75c0-.07.056-.125.125-.125h4.847a.5.5 0 0 1 .5.5v4.843a.125.125 0 0 1-.125.125" />
          <path fill="#000" d="M11.86 12.564 7.011 7.685l.71-.705 4.848 4.88a.125.125 0 0 1 0 .176l-.532.529a.125.125 0 0 1-.177 0" />
          <path fill="#000" d="M6.928 12.3a.125.125 0 0 1-.125-.124V7.333a.5.5 0 0 1 .5-.5h4.875c.069 0 .125.056.125.125v.75a.125.125 0 0 1-.125.125H7.803v4.343a.125.125 0 0 1-.125.125z" />
          <path fill="#000" d="m7.692 5.621-.71-.705 4.85-4.88a.125.125 0 0 1 .176 0l.532.529a.125.125 0 0 1 0 .177z" />
          <path fill="#000" d="M7.303 5.768a.5.5 0 0 1-.5-.5V.426c0-.07.056-.125.125-.125h.75c.069 0 .125.056.125.125v4.342h4.346c.07 0 .125.056.125.125v.75a.125.125 0 0 1-.125.125z" />
        </g>
      </g>
    </g>
  </g>
</svg>
