<svg width="16" height="16" viewBox="0 0 16 16" fill="none" xmlns="http://www.w3.org/2000/svg">
<path fill-rule="evenodd" clip-rule="evenodd" d="M11.8066 5.46045C12.0342 5.46047 12.2957 5.48814 12.5908 5.54346C12.8892 5.59576 13.1772 5.7055 13.4541 5.87158C13.7342 6.03778 13.9667 6.28905 14.1514 6.62451C14.336 6.95995 14.4287 7.40906 14.4287 7.97217V12.644H13.3389V11.6841H13.2832C13.2093 11.8379 13.0863 12.0029 12.9141 12.1782C12.7418 12.3535 12.5125 12.5025 12.2266 12.6255C11.9404 12.7486 11.591 12.81 11.1787 12.8101C10.7294 12.8101 10.3213 12.7254 9.95508 12.5562C9.58895 12.3838 9.29841 12.1361 9.08301 11.813C8.86758 11.4868 8.75978 11.093 8.75977 10.6313C8.75977 10.2251 8.83996 9.89543 9 9.64307C9.16001 9.38781 9.37398 9.18803 9.6416 9.04346C9.90923 8.89889 10.2044 8.79099 10.5273 8.72021C10.8535 8.64636 11.1815 8.58752 11.5107 8.54443C11.9414 8.48906 12.2909 8.44811 12.5586 8.42041C12.8291 8.38967 13.0263 8.33871 13.1494 8.26807C13.2756 8.19728 13.3389 8.07338 13.3389 7.89795V7.86182C13.3389 7.40632 13.2141 7.05168 12.9648 6.79932C12.7187 6.54721 12.345 6.42146 11.8438 6.42139C11.3238 6.42139 10.9155 6.53462 10.6201 6.76221C10.3248 6.98983 10.1171 7.23334 9.99707 7.4917L8.96289 7.12256C9.14749 6.69192 9.39358 6.3567 9.70117 6.1167C10.012 5.87361 10.3506 5.7043 10.7168 5.60889C11.0861 5.5104 11.4496 5.46045 11.8066 5.46045ZM6.94531 9.94775C6.94531 10.5509 6.83385 11.0633 6.6123 11.4849C6.39072 11.9065 6.07894 12.2273 5.67578 12.4458C5.27261 12.6643 4.79685 12.7729 4.24902 12.7729C3.73214 12.7729 3.27222 12.6793 2.86914 12.4917C2.46602 12.3009 2.14879 12.03 1.91797 11.6792C1.68717 11.3284 1.57131 10.9114 1.57129 10.4282H2.69824C2.69826 10.6958 2.76429 10.9294 2.89648 11.1294C3.03185 11.3263 3.21641 11.4805 3.4502 11.5913C3.68408 11.7021 3.95052 11.7573 4.24902 11.7573C4.5781 11.7573 4.85814 11.6886 5.08887 11.5503C5.31956 11.4119 5.49521 11.2084 5.61523 10.9409C5.73834 10.6701 5.7998 10.3386 5.7998 9.94775V3.18994H6.94531V9.94775ZM13.3389 9.08057C13.2926 9.13583 13.1908 9.18684 13.0342 9.23291C12.8804 9.27596 12.702 9.31432 12.499 9.34814C12.299 9.37892 12.1029 9.40653 11.9121 9.43115C11.7246 9.45267 11.5719 9.47144 11.4551 9.48682C11.1721 9.52375 10.9072 9.58346 10.6611 9.6665C10.4182 9.74652 10.221 9.86775 10.0703 10.0308C9.92259 10.1908 9.84863 10.41 9.84863 10.687C9.84872 11.0654 9.98955 11.3516 10.2695 11.5454C10.5526 11.7361 10.911 11.8315 11.3447 11.8315C11.7756 11.8315 12.1391 11.7469 12.4346 11.5776C12.7329 11.4084 12.9576 11.19 13.1084 10.9224C13.2622 10.6547 13.3388 10.373 13.3389 10.0776V9.08057Z" fill="#5C6B8A"/>
</svg>
