<?xml version="1.0" standalone="no"?>
<svg xmlns="http://www.w3.org/2000/svg" class="icon" viewBox="0 0 16 16">
  <path fill-rule="evenodd" stroke="none" stroke-width="1" d="M7.272 12.254a.746.746 0 0 1-.746.746H3a1 1 0 0 1-1-1V5a1 1 0 0 1 1-1h3.312a.74.74 0 0 1 0 1.478H3.61v2.18h2.488a.707.707 0 1 1 0 1.413H3.61v2.438h2.916c.412 0 .746.333.746.745Zm5.526-6.413c.418 0 .758.078 1.04.182.283.104.51.255.683.454.172.199.295.443.368.733.074.29.111.62.111.992v4.03a.768.768 0 0 1-1.536 0V8.656c0-.493-.074-.856-.221-1.09-.148-.233-.455-.35-.922-.35-.393 0-.65.078-.918.26-.268.181-.565.449-.704.89v3.866a.768.768 0 1 1-1.536 0V6.765c0-.424.344-.768.768-.768h.237a.53.53 0 0 1 .53.53c.265-.22.469-.348.871-.504.403-.156.77-.182 1.229-.182Z" />
</svg>
