<?xml version="1.0" standalone="no"?>
<svg xmlns="http://www.w3.org/2000/svg" class="icon" viewBox="0 0 16 16">
  <path fill-rule="evenodd" stroke="none" stroke-width="1" d="M12.948 5.714a.78.78 0 0 0-.24-.428.9.9 0 0 0-.463-.194 4.217 4.217 0 0 0-.601-.036H8.66v-1.41c0-.22-.064-.386-.19-.494-.118-.1-.286-.152-.499-.152-.232 0-.403.05-.523.152-.125.107-.189.274-.189.495v1.409H4.333c-.248 0-.448.016-.61.05a.977.977 0 0 0-.443.202.744.744 0 0 0-.235.428c-.03.147-.045.327-.045.549V9.77c0 .215.015.39.045.534a.82.82 0 0 0 .217.42c.11.112.265.188.457.226.163.033.364.049.614.049H7.26v2.365c0 .203.045.353.136.46.137.158.388.176.565.176.25 0 .427-.06.541-.181a.628.628 0 0 0 .159-.444V11h2.995c.25 0 .452-.016.613-.049a.91.91 0 0 0 .46-.221.801.801 0 0 0 .227-.425c.03-.144.045-.32.045-.534V6.296c0-.237-.017-.427-.052-.582Zm-1.326.641v3.34H8.66V6.36l2.962-.005ZM7.26 6.36v3.335H4.378V6.36h2.881Zm-2.854-.229v.226c-.011 0-.024.002-.035.004l.035-.23Z" />
</svg>
