<svg viewBox="0 0 1024 1024" xmlns="http://www.w3.org/2000/svg"><g transform="scale(64)">
<path fill-rule="evenodd" clip-rule="evenodd" d="M7.51611 4.29102L2.57666 11.5332H7.56982V12.5H1.25244V11.709L6.19189 4.4668H1.19873V3.5H7.51611V4.29102ZM10.3442 6.80469H10.4341C10.5952 6.45603 10.8365 6.17872 11.1587 5.97363C11.4838 5.76566 11.9167 5.66211 12.4565 5.66211C12.9247 5.66215 13.3351 5.75394 13.687 5.93848C14.0389 6.12013 14.3115 6.40044 14.5054 6.77832C14.7022 7.15332 14.8013 7.63091 14.8013 8.21094V12.5H13.7446V8.28125C13.7446 7.74508 13.6032 7.3301 13.3198 7.03711C13.0394 6.74126 12.65 6.59375 12.1519 6.59375C11.8059 6.59377 11.4956 6.66505 11.2212 6.80859C10.9497 6.95216 10.7348 7.16209 10.5767 7.4375C10.4217 7.71285 10.3442 8.047 10.3442 8.43945V12.5H9.28857V3.5H10.3442V6.80469Z" fill="currentColor"/>
</g></svg>
