<svg viewBox="0 0 1024 1024" xmlns="http://www.w3.org/2000/svg"><g transform="scale(64)">
<path fill-rule="evenodd" clip-rule="evenodd" d="M6.69014 8.03655C6.88865 8.17716 6.93936 8.45751 6.80338 8.66275C6.77418 8.70682 6.73777 8.74498 6.69595 8.77564L6.62942 8.81578L7.56691 8.80914L8.53007 8.78923C8.90677 8.61221 9.27064 8.43077 9.62166 8.2449L9.96231 8.05511C10.0055 8.03017 10.0504 8.00394 10.0971 7.97643C10.3855 7.80651 10.7511 7.88452 10.9508 8.1586C11.1167 8.38616 11.0727 8.70962 10.8526 8.88106L10.8142 8.90817L10.7132 8.96182L11.5331 9.59535L11.9584 9.92721L12.4071 10.2957C12.464 10.3435 12.5232 10.3934 12.5848 10.4456C12.8458 10.667 12.9101 11.0527 12.7359 11.3516C12.6005 11.5839 12.3085 11.6588 12.0837 11.5188C12.0557 11.5014 12.0295 11.481 12.0056 11.458L11.8947 11.3516L11.5523 11.3634L11.1427 11.3663L10.6747 11.3781L11.8305 11.8577L12.6187 12.1996L13.0629 12.3991C13.4055 12.5556 13.5757 12.9566 13.4551 13.3231C13.3502 13.6417 13.0155 13.812 12.7073 13.7037L12.6429 13.6766L12.4277 13.5687C12.1323 13.4183 11.8284 13.2678 11.5159 13.1173C11.2034 12.9669 10.8909 12.823 10.5784 12.6858C10.1262 12.4877 9.896 11.9819 10.0199 11.5088L10.0583 11.3914L9.75971 11.3931L9.45471 11.398C9.24923 11.4025 9.03948 11.4047 8.82544 11.4047V12.3871C8.82544 12.6704 8.80404 12.9093 8.76123 13.104C8.71842 13.2988 8.64137 13.4559 8.53007 13.5754C8.41877 13.6948 8.27109 13.7856 8.08701 13.8475C7.90294 13.9095 7.66964 13.9537 7.38711 13.9803L7.21961 13.9963C6.86787 14.0298 6.53769 13.834 6.3847 13.5139L6.33669 13.391C6.24499 13.1066 6.39366 12.7993 6.66873 12.7045L6.72545 12.6885L6.78353 12.6792C7.04894 12.6527 7.21588 12.5929 7.28438 12.5C7.35287 12.407 7.38711 12.2676 7.38711 12.0818V11.4445L5.84605 11.4843L5.91609 11.6252C6.11765 12.0308 5.99274 12.5208 5.6409 12.7748L5.51215 12.8518L4.62604 13.2766C4.32639 13.4183 4.02674 13.551 3.72709 13.6749L3.53882 13.7503C3.16614 13.8954 2.74742 13.7288 2.56487 13.3629C2.41753 13.0676 2.52966 12.7048 2.81531 12.5524L2.85351 12.5339L2.94371 12.5C3.20056 12.407 3.46168 12.3053 3.72709 12.1946C3.99249 12.084 4.25362 11.9689 4.51046 11.8494C4.76731 11.7299 5.00703 11.6127 5.22962 11.4976L4.16256 11.5438C3.83967 11.5585 3.55666 11.3225 3.50235 10.9931C3.45415 10.7008 3.6443 10.4234 3.92706 10.3736L3.97608 10.3675L4.11878 10.3558L4.37562 10.3227L4.50244 10.2978L4.63888 10.2629C4.73734 10.2408 4.84703 10.2126 4.96797 10.1783L5.36447 10.0571C5.65128 9.96419 5.96591 9.85576 6.30837 9.73185L5.8803 9.74365L5.6791 9.74513C5.48219 9.74513 5.3024 9.74955 5.13973 9.7584L4.79727 9.76136L4.63888 9.76504C4.37759 9.77255 4.14835 9.58617 4.09385 9.32188L4.08667 9.28709C4.03761 9.04936 4.16252 8.81509 4.37257 8.72589L4.46295 8.69788L4.7171 8.64214L4.80583 8.61664C4.97706 8.54583 5.18254 8.44183 5.42226 8.30464L5.75534 8.1092L5.90059 8.0156C6.14299 7.8594 6.45636 7.86771 6.69014 8.03655ZM10.6105 9.01493C10.3451 9.14769 10.069 9.28267 9.78218 9.41986C9.49537 9.55705 9.20857 9.68538 8.92176 9.80487C8.63495 9.92436 8.35456 10.035 8.08059 10.1368C7.80663 10.2386 7.55406 10.3204 7.3229 10.3824L8.92818 10.3226C9.47611 10.3005 10.0412 10.2718 10.6233 10.2364L10.2702 9.95091C10.1172 9.82792 10.0897 9.60002 10.2086 9.44189L10.2351 9.41062L10.6105 9.01493ZM10.3665 2.13777C10.6301 2.18319 10.8082 2.44093 10.7643 2.71345L10.7499 2.77687L10.7261 2.84142H12.8964C13.2298 2.84142 13.5 3.12079 13.5 3.46541C13.5 3.81003 13.2298 4.0894 12.8964 4.0894H12.8194C12.6995 4.52309 12.5561 4.91474 12.3892 5.26435C12.2222 5.61397 12.006 5.94366 11.7406 6.25344C11.9975 6.43046 12.2886 6.60306 12.6139 6.77122L12.8215 6.87182L13.0946 6.99288C13.389 7.1192 13.526 7.48292 13.4551 7.7935L13.4294 7.88644C13.2887 8.19674 12.953 8.34804 12.6441 8.25738L12.5232 8.20841C11.701 7.77618 11.1233 7.4166 10.7903 7.12968C10.5677 7.289 10.3194 7.45053 10.0454 7.61427L9.70046 7.8097C9.38115 7.98449 8.98563 7.87976 8.78691 7.5678C8.61904 7.30427 8.6896 6.94994 8.94452 6.77639L9.00239 6.74191L9.38075 6.54244L9.68563 6.37076L9.91703 6.22689C9.77148 6.04102 9.63878 5.85073 9.51892 5.65601C9.39906 5.46129 9.29204 5.25772 9.19786 5.0453C8.96718 5.15019 8.69471 5.05691 8.57672 4.83264L8.55938 4.79968C8.38279 4.43458 8.50877 4.02169 8.79242 3.68835C8.946 3.50987 9.06402 3.3559 9.1465 3.22643L9.20575 3.12964L9.33719 2.89311L9.48588 2.59933C9.65009 2.26283 10.0069 2.07581 10.3665 2.13777ZM4.67741 2.02492L4.93748 2.08802C5.09368 2.12592 5.19058 2.28755 5.15393 2.44902L5.14276 2.48683L5.12689 2.52279H8.24754C8.51706 2.52279 8.73554 2.74866 8.73554 3.02729C8.73554 3.30592 8.51706 3.53179 8.24754 3.53179H4.45909L4.3708 3.63966L4.28572 3.75085C4.23007 3.82608 4.168 3.8991 4.09951 3.96991H7.06583C7.65687 3.96991 8.13601 4.46525 8.13601 5.07627L8.13369 5.14918L8.11912 5.3772L8.57143 5.37747C8.80994 5.37761 9.00366 5.57018 9.00523 5.80869C9.00523 6.04699 8.81837 6.24017 8.58786 6.24017H8.05491L8.01638 6.86416C8.25044 6.86416 8.44017 7.06031 8.44017 7.30228V7.32883C8.44017 7.58546 8.23894 7.7935 7.9907 7.7935H7.95217C7.94498 7.94958 7.82048 8.07231 7.66934 8.07231H7.02875C6.89271 8.07231 6.78242 7.95829 6.78242 7.81765L6.78353 7.7935H4.21916C3.62811 7.7935 3.14898 7.29817 3.14898 6.68714C3.14898 6.6339 3.15269 6.58074 3.1601 6.52806L3.20056 6.24017H2.93729C2.70678 6.24017 2.51992 6.04699 2.51992 5.80869C2.51992 5.57039 2.70678 5.3772 2.93729 5.3772H3.32898L3.41888 4.70011C3.32379 4.79085 3.17795 4.79329 3.08008 4.70578L2.77677 4.43458C2.54468 4.22707 2.51926 3.86435 2.71998 3.62442L2.75963 3.58167C3.01471 3.33375 3.20663 3.12683 3.3354 2.96091L3.42219 2.8456L3.61069 2.57498C3.64376 2.52543 3.67766 2.47365 3.71239 2.41966C3.92272 2.09259 4.30756 1.93519 4.67741 2.02492ZM5.07552 6.24017H4.48478L4.38204 6.86416H5.71763L5.16684 6.58609C5.07103 6.53657 5.0227 6.42794 5.04252 6.32433L5.06883 6.25154L5.07552 6.24017ZM6.89911 6.24017H5.84605L6.18637 6.43268C6.32 6.50451 6.372 6.67475 6.30251 6.8129L6.26984 6.86416H6.84774L6.89911 6.24017ZM11.5994 4.0894H10.0454C10.1396 4.34607 10.2509 4.58283 10.3793 4.79968C10.5078 5.01653 10.6576 5.22674 10.8288 5.43031C11.1627 5.04972 11.4196 4.60275 11.5994 4.0894ZM5.28099 4.83287H4.70309L4.6132 5.3772H5.71763L5.48905 5.23216C5.44602 5.20576 5.40052 5.17824 5.35256 5.1496C5.27007 5.10032 5.23096 5.00321 5.24911 4.91174L5.28099 4.83287ZM7.00185 4.83287H6.05153L6.20403 4.93577L6.42698 5.07766C6.50338 5.12441 6.53889 5.2153 6.52111 5.30033L6.49303 5.36982L6.48816 5.3772H6.96332L7.00185 4.83287Z" fill="currentColor"/>
</g></svg>
