<?xml version="1.0" standalone="no"?>
<svg xmlns="http://www.w3.org/2000/svg" class="icon" viewBox="0 0 16 16">
  <path fill-rule="evenodd" stroke="none" stroke-width="1" d="M6.69 8.037a.46.46 0 0 1 .006.739l-.067.04.938-.007.963-.02c.377-.177.74-.358 1.092-.544l.34-.19.135-.079a.646.646 0 0 1 .854.183.527.527 0 0 1-.098.722l-.039.027-.1.054.82.633.424.332.45.369.177.15a.72.72 0 0 1 .15.906.466.466 0 0 1-.73.106l-.11-.106-.343.011-.41.003-.467.012 1.156.48.788.342.444.2a.756.756 0 0 1 .392.923.585.585 0 0 1-.748.38l-.064-.026-.215-.108c-.296-.15-.6-.301-.912-.452-.313-.15-.625-.294-.938-.431a1.006 1.006 0 0 1-.558-1.177l.038-.118-.298.002-.305.005c-.206.004-.416.007-.63.007v.982a3.4 3.4 0 0 1-.064.717.986.986 0 0 1-.23.471c-.112.12-.26.21-.444.273a3.165 3.165 0 0 1-.7.132l-.167.016a.84.84 0 0 1-.835-.482l-.048-.123a.547.547 0 0 1 .332-.687l.056-.015.059-.01c.265-.026.432-.086.5-.179.069-.093.103-.232.103-.418v-.637l-1.54.04.07.14a.92.92 0 0 1-.276 1.15l-.129.077-.886.425c-.3.141-.6.274-.899.398l-.188.075a.774.774 0 0 1-.974-.387.612.612 0 0 1 .25-.81l.039-.02.09-.033c.257-.093.518-.195.783-.305a21.148 21.148 0 0 0 1.503-.697l-1.067.046a.646.646 0 0 1-.66-.55.535.535 0 0 1 .424-.62l.05-.007.142-.011.257-.033.126-.025.137-.035c.098-.022.208-.05.329-.085l.396-.12c.287-.094.602-.202.944-.326l-.428.012-.2.001c-.198 0-.378.005-.54.013l-.343.003-.158.004a.546.546 0 0 1-.545-.443l-.007-.035a.5.5 0 0 1 .286-.561l.09-.028.254-.056.089-.025c.171-.071.377-.175.616-.312l.333-.196.146-.093a.7.7 0 0 1 .79.02Zm3.92.978c-.265.133-.541.268-.828.405-.287.137-.573.265-.86.385-.287.12-.567.23-.841.332a8.55 8.55 0 0 1-.758.245l1.605-.06a83.36 83.36 0 0 0 1.695-.086l-.353-.285a.371.371 0 0 1-.061-.51l.026-.03.376-.396Zm-.243-6.877a.499.499 0 0 1 .397.575l-.014.064-.024.064h2.17c.334 0 .604.28.604.624 0 .345-.27.624-.604.624h-.077a7.14 7.14 0 0 1-.43 1.175c-.167.35-.383.68-.648.99.256.176.548.35.873.517l.207.1.274.122c.294.126.431.49.36.8l-.026.093a.66.66 0 0 1-.785.371l-.12-.049c-.823-.432-1.4-.791-1.734-1.078-.222.159-.47.32-.745.484L9.7 7.81a.688.688 0 0 1-.913-.242.583.583 0 0 1 .158-.792l.057-.034.379-.2.305-.171.231-.144a6.184 6.184 0 0 1-.398-.571 5.13 5.13 0 0 1-.321-.61.478.478 0 0 1-.621-.213L8.559 4.8c-.176-.365-.05-.778.233-1.112a4.2 4.2 0 0 0 .354-.462l.06-.096.131-.237.149-.294a.826.826 0 0 1 .88-.461Zm-5.69-.113.26.063a.3.3 0 0 1 .217.361l-.011.038-.016.036h3.12c.27 0 .489.226.489.504a.496.496 0 0 1-.488.505H4.459l-.088.108-.085.11a2.18 2.18 0 0 1-.186.22h2.966c.59 0 1.07.495 1.07 1.106l-.002.073-.015.228h.452c.239 0 .433.193.434.432a.425.425 0 0 1-.417.431h-.533l-.039.624c.234 0 .424.196.424.438v.027a.457.457 0 0 1-.45.465h-.038a.288.288 0 0 1-.283.278h-.64a.25.25 0 0 1-.247-.254l.002-.024H4.219c-.59 0-1.07-.496-1.07-1.107 0-.053.004-.106.011-.159l.04-.288h-.263a.425.425 0 0 1-.417-.431c0-.239.187-.432.417-.432h.392l.09-.677a.248.248 0 0 1-.339.006l-.303-.271a.588.588 0 0 1-.057-.81l.04-.043c.255-.248.447-.455.575-.621l.087-.115.189-.271.101-.155a.896.896 0 0 1 .965-.395Zm.399 4.215h-.591l-.103.624h1.336l-.551-.278a.243.243 0 0 1-.124-.262l.026-.072.007-.012Zm1.823 0H5.846l.34.193a.287.287 0 0 1 .117.38l-.033.051h.578l.051-.624Zm4.7-2.15h-1.554a4.29 4.29 0 0 0 .784 1.34c.334-.38.59-.827.77-1.34Zm-6.318.743h-.578l-.09.544h1.105l-.229-.145a13.16 13.16 0 0 0-.136-.082.226.226 0 0 1-.104-.238l.032-.08Zm1.72 0h-.95l.153.103.223.142a.21.21 0 0 1 .094.222l-.028.07-.005.007h.475l.039-.544Z" />
</svg>
