<svg width="16" height="16" viewBox="0 0 16 16" fill="none" xmlns="http://www.w3.org/2000/svg">
<path fill-rule="evenodd" clip-rule="evenodd" d="M8.80144 13.9142L1.20613 8.40481C0.931128 8.20481 0.931128 7.79543 1.20613 7.59699L8.80144 2.08606C8.88425 2.02668 8.99988 2.0845 8.99988 2.18762V3.3595C8.99988 3.43918 8.96082 3.51418 8.89675 3.56106L2.778 8.00012L8.89675 12.4392C8.96082 12.4861 8.99988 12.5611 8.99988 12.6407V13.8126C8.99988 13.9142 8.88425 13.9736 8.80144 13.9142Z" fill="#5C6B8A"/>
<path fill-rule="evenodd" clip-rule="evenodd" d="M14.8014 13.9142L7.20613 8.40481C6.93113 8.20481 6.93113 7.79543 7.20613 7.59699L14.8014 2.08606C14.8843 2.02668 14.9999 2.0845 14.9999 2.18762V3.3595C14.9999 3.43918 14.9608 3.51418 14.8968 3.56106L8.778 8.00012L14.8968 12.4392C14.9608 12.4861 14.9999 12.5611 14.9999 12.6407V13.8126C14.9999 13.9142 14.8843 13.9736 14.8014 13.9142Z" fill="#5C6B8A"/>
</svg>
