<svg width="16" height="16" viewBox="0 0 16 16" fill="none" xmlns="http://www.w3.org/2000/svg">
<path d="M13.75 1.75C14.0266 1.75 14.25 1.97344 14.25 2.25V13.75C14.25 14.0266 14.0266 14.25 13.75 14.25H2.25C1.97344 14.25 1.75 14.0266 1.75 13.75V2.25C1.75 1.97344 1.97344 1.75 2.25 1.75H13.75ZM2.875 13.125H13.125V2.875H2.875V13.125ZM9.64551 5.41504C9.72832 5.35571 9.84375 5.41505 9.84375 5.5166V6.24902C9.84375 6.40996 9.76738 6.56055 9.6377 6.6543L7.36523 8.29785L9.6377 9.93945C9.76738 10.0332 9.84375 10.1854 9.84375 10.3447V11.0771C9.84375 11.1787 9.72832 11.238 9.64551 11.1787L5.80176 8.39746C5.73301 8.34746 5.73301 8.24629 5.80176 8.19629L9.64551 5.41504Z" fill="#5C6B8A"/>
</svg>
