<?xml version="1.0" standalone="no"?>
<svg xmlns="http://www.w3.org/2000/svg" class="icon" viewBox="0 0 1024 1024">
  <path d="M385.21904747 199.92380907c3.2768 0 6.3195424 1.5603808 8.2700192 3.90095253l1.5603808 2.73066667 167.2728384 456.41142933c7.09973333-33.31413333 25.20015253-60.23070507 55.00342826-80.2816 32.14384747-22.8595808 75.83451413-36.2788576 131.072-40.17981013l21.2992-1.01424747 97.28975254-2.57462827v-17.16419093c0-58.43626667-31.83177173-86.7571808-95.57333334-86.7571808-27.54072427 0-49.0739808 4.29104747-65.3799616 14.5895616a76.22460907 76.22460907 0 0 0-34.3283808 41.97424747l-2.73066666 9.59634346-97.28975254-7.80190506c9.51832427-48.9179424 33.54819093-85.0407616 72.32365654-107.35420907 32.768-20.59702827 77.47291413-30.03733333 134.2707808-30.03733333 65.4579808 0 114.5319616 16.384 145.50552426 48.9959616 24.4979808 25.12213333 38.07329493 60.5427808 40.8039616 106.10590506l0.54613334 17.55428587v283.4432h-91.28228587v-58.43626667c-17.16419093 22.31344747-38.69744747 38.69744747-63.6635424 50.7123808-28.39893333 12.8731424-62.0251424 19.7388192-100.72259093 19.7388192-40.10179093 0-72.47969493-8.89417173-97.75786667-26.2144l4.9932192 13.26323734c1.95047573 5.1492576-0.93622827 10.68860907-6.3975616 12.48304746l-1.5603808 0.3120768-1.7944384 0.1560384H512a10.61059093 10.61059093 0 0 1-8.4260576-4.05699093l-1.4823616-2.73066667-56.64182827-166.02453333H211.86072427l-57.18796267 166.02453333a10.14247573 10.14247573 0 0 1-6.6316192 6.24152427L144.7643424 824.07619093h-90.50209493c-5.77340907 0-10.45455253-4.36906667-10.37653334-9.67436266l0.0780192-1.6384 0.46811414-1.5603808 222.04221013-604.6476192a9.8304 9.8304 0 0 1 6.5536-6.163504L276.2264384 199.92380907h108.99260907z m481.45554346 407.10339093l-87.38133333 2.57462827c-75.75649493 1.7164192-113.2056384 29.2571424-113.2056384 82.54415253 0 15.44777173 5.77340907 28.32091413 19.11466667 38.61942827 13.2632384 10.29851413 29.95931413 16.384 50.7123808 16.384 36.66895253 0 67.48647573-11.2347424 92.45257173-32.6899808 21.84533333-19.5047616 34.79649493-43.69066667 37.6832-72.47969494l0.62415253-12.56106666v-22.39146667z m-535.21066666-299.5931424h-4.29104854l-90.19001813 263.7043808H420.71771413l-89.25378986-263.7043808z" p-id="40715"></path>
</svg>
