<?xml version="1.0" standalone="no"?>
<svg xmlns="http://www.w3.org/2000/svg" class="icon" viewBox="0 0 1024 1024">
  <path d="M472.21028587 824.07619093c-5.22727573 0-9.44030507-3.90095253-9.36228587-8.73813333l0.0780192-1.48236267 0.39009493-1.4043424 19.27070507-52.4288-37.13706667-108.75855253H211.86072427l-57.18796267 166.02453333a10.14247573 10.14247573 0 0 1-6.6316192 6.24152427L144.7643424 824.07619093h-90.50209493c-5.77340907 0-10.45455253-4.36906667-10.37653334-9.67436266l0.0780192-1.6384 0.46811414-1.5603808 222.04221013-604.6476192a9.8304 9.8304 0 0 1 6.5536-6.163504L276.2264384 199.92380907h108.99260907c3.2768 0 6.3195424 1.5603808 8.2700192 3.90095253l1.5603808 2.73066667 145.27146666 396.25874346 123.27009494-335.40388586a8.89417173 8.89417173 0 0 1 5.92944853-5.46133334l2.886704-0.46811413h98.304c2.96472427 0 5.77340907 1.32632427 7.48982933 3.51085653l1.4043424 2.41859094 199.9628192 545.04106666c1.7164192 4.60312427-0.85820907 9.51832427-5.77341013 11.1567232l-1.4823616 0.3120768-1.5603808 0.1560384h-85.66491413a9.5963424 9.5963424 0 0 1-7.56784747-3.666896l-1.32632427-2.49660906-51.18049493-149.64053334h-210.65142827l-24.26392426 70.3731808 26.60449493 72.55771414c1.95047573 5.0712384-0.93622827 10.61059093-6.3975616 12.40502826l-1.5603808 0.3120768-1.7944384 0.1560384H472.21028587z m249.34887573-465.92975253h-3.97897067l-82.70019093 239.51847573h168.5211424l-81.8419808-239.51847573z m-390.09523733-50.7123808h-4.29104854l-90.19001813 263.7043808H420.71771413l-89.25378986-263.7043808z" p-id="40865"></path>
</svg>
