<?xml version="1.0" standalone="no"?>
<svg xmlns="http://www.w3.org/2000/svg" class="icon" viewBox="0 0 1024 1024">
  <path d="M275.21219093 277.9428576c68.9688384 0 120.69546667 17.16419093 153.30742827 51.57058987 29.10110507 29.88129493 43.61264747 73.33790507 43.61264747 130.36982826v298.81295254H375.9347808v-61.63504747a183.11070507 183.11070507 0 0 1-67.0963808 53.44304747c-29.95931413 13.57531413-65.3799616 20.83108587-106.18392427 20.83108586-48.9959616 0-87.0692576-12.71710507-115.23413333-37.13706666A121.4756576 121.4756576 0 0 1 43.88571413 638.2348192c0-52.5068192 19.97287573-93.2327616 61.63504747-121.3196192 38.22933333-27.15062827 91.6723808-41.58415253 160.6412192-43.45660907l102.51702827-2.65264853v-18.17843733c0-61.55702827-33.54819093-91.36030507-100.64457067-91.36030507-29.10110507 0-51.80464747 4.52510507-69.0468576 15.36975253-19.8948576 11.7028576-33.54819093 29.88129493-39.0095232 54.30125654l-102.51702933-8.1139808c9.9864384-51.64860907 35.42064747-89.72190507 76.22461013-113.1276192C168.1700576 287.7732576 215.3715808 277.9428576 275.21219093 277.9428576zM368.44495253 542.58346667l-92.0624768 2.73066666c-79.89150507 1.7944384-119.3691424 30.81752427-119.3691424 86.9132192 0 16.384 6.16350507 29.88129493 20.20693334 40.8039616 14.04342827 10.84464747 31.51969493 17.16419093 53.52106666 17.16419094 38.54140907 0 70.99733333-11.7028576 97.36777174-34.4064 26.2924192-23.56175253 40.33584747-53.44304747 40.33584746-89.72190507v-23.48373333zM783.27222827 277.9428576c68.8908192 0 120.61744747 17.16419093 153.30742933 51.57058987 29.02308587 29.88129493 43.53462827 73.33790507 43.53462827 130.36982826v298.81295254h-96.19748587v-61.63504747a183.11070507 183.11070507 0 0 1-67.0963808 53.44304747c-29.95931413 13.57531413-65.3019424 20.83108587-106.10590507 20.83108586-49.0739808 0-87.14727573-12.71710507-115.23413333-37.13706666a121.4756576 121.4756576 0 0 1-43.61264747-95.96342827c0-52.5068192 19.97287573-93.2327616 61.71306667-121.3196192 38.07329493-27.15062827 91.6723808-41.58415253 160.5632-43.45660907l102.51702827-2.65264853v-18.17843733c0-61.55702827-33.54819093-91.36030507-100.64457067-91.36030507-29.10110507 0-51.72662827 4.52510507-68.9688384 15.36975253-19.97287573 11.7028576-33.54819093 29.88129493-39.00952427 54.30125654l-102.51702826-8.1139808c9.9864384-51.64860907 35.34262827-89.72190507 76.22460906-113.1276192C676.15207573 287.7732576 723.3536 277.9428576 783.27222827 277.9428576z m93.07672426 264.64060907l-92.0624768 2.73066666c-79.89150507 1.7944384-119.3691424 30.81752427-119.3691424 86.9132192 0 16.384 6.16350507 29.88129493 20.20693334 40.8039616 14.04342827 10.84464747 31.59771413 17.16419093 53.52106666 17.16419094 38.61942827 0 70.99733333-11.7028576 97.36777174-34.4064 26.3704384-23.56175253 40.33584747-53.44304747 40.33584746-89.72190507v-23.48373333z" p-id="41015"></path>
</svg>
