<svg width="16" height="16" viewBox="0 0 16 16" fill="none" xmlns="http://www.w3.org/2000/svg">
<path fill-rule="evenodd" clip-rule="evenodd" d="M15.5 2.15381C15.5 1.83519 15.2414 1.57666 14.9229 1.57666H1.07715L0.960938 1.58838C0.697909 1.64207 0.5 1.87492 0.5 2.15381V4.46143H1.07715V13.8462L1.08887 13.9624C1.13509 14.1877 1.31267 14.3656 1.53809 14.4116L1.6543 14.4233H14.3467L14.4629 14.4116C14.6879 14.3654 14.865 14.1875 14.9111 13.9624L14.9229 13.8462V4.46143H15.5V2.15381ZM8 5.3999C9.10549 5.3999 10.0918 5.9133 10.7324 6.7124L10.7603 6.74237L11.0244 6.53564C11.065 6.50316 11.1249 6.53327 11.125 6.58545L11.1191 7.99854C11.119 8.03828 11.08 8.06747 11.041 8.05811L9.66895 7.72217C9.61822 7.70966 9.60422 7.64485 9.64551 7.61279L9.96069 7.36642L9.95215 7.3374C9.49317 6.76489 8.78924 6.3999 8 6.3999C6.61932 6.3999 5.50005 7.51924 5.5 8.8999H4.5C4.50005 6.96695 6.06704 5.3999 8 5.3999ZM8 12.3999C9.933 12.3999 11.5 10.8329 11.5 8.8999H10.5C10.5 10.2806 9.38071 11.3999 8 11.3999C7.2005 11.3999 6.48966 11.0244 6.03125 10.439L6.35449 10.188C6.39552 10.156 6.38124 10.0905 6.33105 10.0776L4.95801 9.7417C4.91899 9.73237 4.88092 9.76247 4.88086 9.80225L4.875 11.2163C4.87556 11.2681 4.93516 11.2974 4.97559 11.2651L5.24316 11.0552C5.88301 11.8726 6.87976 12.3999 8 12.3999Z" fill="#0D6CF2"/>
</svg>
