<svg width="16" height="16" viewBox="0 0 16 16" fill="none" xmlns="http://www.w3.org/2000/svg">
<path fill-rule="evenodd" clip-rule="evenodd" d="M12.1766 3.07188C10.7047 1.6 8.30781 1.6 6.8375 3.07188L2.75937 7.14688C2.73281 7.17344 2.71875 7.20938 2.71875 7.24688C2.71875 7.28438 2.73281 7.32032 2.75937 7.34688L3.33594 7.92344C3.39062 7.97813 3.47969 7.97813 3.53438 7.92344L7.6125 3.84844C8.11875 3.34219 8.79219 3.06407 9.50781 3.06407C10.2234 3.06407 10.8969 3.34219 11.4016 3.84844C11.9078 4.35469 12.1859 5.02813 12.1859 5.74219C12.1859 6.45782 11.9078 7.12969 11.4016 7.63594L7.24531 11.7906L6.57188 12.4641C5.94219 13.0938 4.91875 13.0938 4.28906 12.4641C3.98438 12.1594 3.81719 11.7547 3.81719 11.3234C3.81719 10.8922 3.98438 10.4875 4.28906 10.1828L8.4125 6.06094C8.51719 5.95782 8.65469 5.9 8.80156 5.9H8.80312C8.95 5.9 9.08594 5.95782 9.18906 6.06094C9.29375 6.16563 9.35 6.30313 9.35 6.45C9.35 6.59532 9.29219 6.73282 9.18906 6.83594L5.81875 10.2031C5.79219 10.2297 5.77813 10.2656 5.77813 10.3031C5.77813 10.3406 5.79219 10.3766 5.81875 10.4031L6.39531 10.9797C6.45 11.0344 6.53906 11.0344 6.59375 10.9797L9.9625 7.61094C10.2734 7.3 10.4437 6.8875 10.4437 6.44844C10.4437 6.00938 10.2719 5.59532 9.9625 5.28594C9.32031 4.64375 8.27656 4.64532 7.63438 5.28594L7.23438 5.6875L3.5125 9.40782C3 9.92032 2.71875 10.6 2.71875 11.325C2.71875 12.0484 3.00156 12.7281 3.5125 13.2391C4.04219 13.7672 4.73594 14.0313 5.42969 14.0313C6.12344 14.0313 6.81719 13.7672 7.34531 13.2391L12.1766 8.41094C12.8875 7.69844 13.2812 6.75 13.2812 5.74219C13.2828 4.73282 12.8891 3.78438 12.1766 3.07188Z" fill="#5C6B8A"/>
<mask id="mask0_2088_3348" style="mask-type:luminance" maskUnits="userSpaceOnUse" x="2" y="1" width="12" height="14">
<path fill-rule="evenodd" clip-rule="evenodd" d="M12.1766 3.07188C10.7047 1.6 8.30781 1.6 6.8375 3.07188L2.75937 7.14688C2.73281 7.17344 2.71875 7.20938 2.71875 7.24688C2.71875 7.28438 2.73281 7.32032 2.75937 7.34688L3.33594 7.92344C3.39062 7.97813 3.47969 7.97813 3.53438 7.92344L7.6125 3.84844C8.11875 3.34219 8.79219 3.06407 9.50781 3.06407C10.2234 3.06407 10.8969 3.34219 11.4016 3.84844C11.9078 4.35469 12.1859 5.02813 12.1859 5.74219C12.1859 6.45782 11.9078 7.12969 11.4016 7.63594L7.24531 11.7906L6.57188 12.4641C5.94219 13.0938 4.91875 13.0938 4.28906 12.4641C3.98438 12.1594 3.81719 11.7547 3.81719 11.3234C3.81719 10.8922 3.98438 10.4875 4.28906 10.1828L8.4125 6.06094C8.51719 5.95782 8.65469 5.9 8.80156 5.9H8.80312C8.95 5.9 9.08594 5.95782 9.18906 6.06094C9.29375 6.16563 9.35 6.30313 9.35 6.45C9.35 6.59532 9.29219 6.73282 9.18906 6.83594L5.81875 10.2031C5.79219 10.2297 5.77813 10.2656 5.77813 10.3031C5.77813 10.3406 5.79219 10.3766 5.81875 10.4031L6.39531 10.9797C6.45 11.0344 6.53906 11.0344 6.59375 10.9797L9.9625 7.61094C10.2734 7.3 10.4437 6.8875 10.4437 6.44844C10.4437 6.00938 10.2719 5.59532 9.9625 5.28594C9.32031 4.64375 8.27656 4.64532 7.63438 5.28594L7.23438 5.6875L3.5125 9.40782C3 9.92032 2.71875 10.6 2.71875 11.325C2.71875 12.0484 3.00156 12.7281 3.5125 13.2391C4.04219 13.7672 4.73594 14.0313 5.42969 14.0313C6.12344 14.0313 6.81719 13.7672 7.34531 13.2391L12.1766 8.41094C12.8875 7.69844 13.2812 6.75 13.2812 5.74219C13.2828 4.73282 12.8891 3.78438 12.1766 3.07188Z" fill="white"/>
</mask>
<g mask="url(#mask0_2088_3348)">
</g>
</svg>
