<svg viewBox="0 0 1024 1024" xmlns="http://www.w3.org/2000/svg"><g transform="scale(64)">
<path fill-rule="evenodd" clip-rule="evenodd" d="M8.9688 10.3969C8.92036 10.3484 8.84067 10.3484 8.79224 10.3969L6.97661 12.2125C6.13599 13.0531 4.71724 13.1422 3.78911 12.2125C2.85942 11.2828 2.94849 9.86563 3.78911 9.025L5.60474 7.20938C5.65317 7.16094 5.65317 7.08125 5.60474 7.03282L4.98286 6.41094C4.93442 6.3625 4.85474 6.3625 4.8063 6.41094L2.99067 8.22657C1.6688 9.54844 1.6688 11.6875 2.99067 13.0078C4.31255 14.3281 6.45161 14.3297 7.77192 13.0078L9.58755 11.1922C9.63599 11.1438 9.63599 11.0641 9.58755 11.0156L8.9688 10.3969ZM13.0094 2.99063C11.6875 1.66875 9.54849 1.66875 8.22817 2.99063L6.41099 4.80625C6.36255 4.85469 6.36255 4.93438 6.41099 4.98282L7.0313 5.60313C7.07974 5.65157 7.15942 5.65157 7.20786 5.60313L9.02349 3.7875C9.86411 2.94688 11.2829 2.85782 12.211 3.7875C13.1407 4.71719 13.0516 6.13438 12.211 6.975L10.3954 8.79063C10.3469 8.83907 10.3469 8.91875 10.3954 8.96719L11.0172 9.58907C11.0657 9.6375 11.1454 9.6375 11.1938 9.58907L13.0094 7.77344C14.3297 6.45157 14.3297 4.3125 13.0094 2.99063ZM9.53286 5.81719C9.48442 5.76875 9.40474 5.76875 9.3563 5.81719L5.81724 9.35469C5.7688 9.40313 5.7688 9.48282 5.81724 9.53125L6.43599 10.15C6.48442 10.1984 6.56411 10.1984 6.61255 10.15L10.15 6.6125C10.1985 6.56407 10.1985 6.48438 10.15 6.43594L9.53286 5.81719Z" fill="currentColor"/>
<mask id="mask0_2088_3349" maskUnits="userSpaceOnUse" x="1" y="1" width="13" height="13">
<path fill-rule="evenodd" clip-rule="evenodd" d="M8.9688 10.3969C8.92036 10.3484 8.84067 10.3484 8.79224 10.3969L6.97661 12.2125C6.13599 13.0531 4.71724 13.1422 3.78911 12.2125C2.85942 11.2828 2.94849 9.86563 3.78911 9.025L5.60474 7.20938C5.65317 7.16094 5.65317 7.08125 5.60474 7.03282L4.98286 6.41094C4.93442 6.3625 4.85474 6.3625 4.8063 6.41094L2.99067 8.22657C1.6688 9.54844 1.6688 11.6875 2.99067 13.0078C4.31255 14.3281 6.45161 14.3297 7.77192 13.0078L9.58755 11.1922C9.63599 11.1438 9.63599 11.0641 9.58755 11.0156L8.9688 10.3969ZM13.0094 2.99063C11.6875 1.66875 9.54849 1.66875 8.22817 2.99063L6.41099 4.80625C6.36255 4.85469 6.36255 4.93438 6.41099 4.98282L7.0313 5.60313C7.07974 5.65157 7.15942 5.65157 7.20786 5.60313L9.02349 3.7875C9.86411 2.94688 11.2829 2.85782 12.211 3.7875C13.1407 4.71719 13.0516 6.13438 12.211 6.975L10.3954 8.79063C10.3469 8.83907 10.3469 8.91875 10.3954 8.96719L11.0172 9.58907C11.0657 9.6375 11.1454 9.6375 11.1938 9.58907L13.0094 7.77344C14.3297 6.45157 14.3297 4.3125 13.0094 2.99063ZM9.53286 5.81719C9.48442 5.76875 9.40474 5.76875 9.3563 5.81719L5.81724 9.35469C5.7688 9.40313 5.7688 9.48282 5.81724 9.53125L6.43599 10.15C6.48442 10.1984 6.56411 10.1984 6.61255 10.15L10.15 6.6125C10.1985 6.56407 10.1985 6.48438 10.15 6.43594L9.53286 5.81719Z" fill="currentColor"/>
</mask>
<g mask="url(#mask0_2088_3349)">
</g>
</g></svg>
