<?xml version="1.0" standalone="no"?>
<svg xmlns="http://www.w3.org/2000/svg" class="icon" viewBox="0 0 1024 1024">
  <path d="M180 478.5h228a8 8 0 0 1 8 8v52a8 8 0 0 1-8 8H180V766h228a8 8 0 0 1 8 8v52a8 8 0 0 1-8 8H154c-23.196 0-42-18.804-42-42V232c0-23.196 18.804-42 42-42h126.122a8 8 0 0 1 8 8v52a8 8 0 0 1-8 8H180v220.5zM392 160h512a8 8 0 0 1 8 8v112a8 8 0 0 1-8 8H392a8 8 0 0 1-8-8V168a8 8 0 0 1 8-8z m128 288h384a8 8 0 0 1 8 8v112a8 8 0 0 1-8 8H520a8 8 0 0 1-8-8V456a8 8 0 0 1 8-8z m0 288h384a8 8 0 0 1 8 8v112a8 8 0 0 1-8 8H520a8 8 0 0 1-8-8V744a8 8 0 0 1 8-8z" p-id="43415"></path>
</svg>
