<svg viewBox="0 0 1024 1024" xmlns="http://www.w3.org/2000/svg"><g transform="scale(64)">
<path fill-rule="evenodd" clip-rule="evenodd" d="M14.25 3H5.125C5.05625 3 5 3.05625 5 3.125V4C5 4.06875 5.05625 4.125 5.125 4.125H14.25C14.3188 4.125 14.375 4.06875 14.375 4V3.125C14.375 3.05625 14.3188 3 14.25 3ZM14.25 7.4375H5.125C5.05625 7.4375 5 7.49375 5 7.5625V8.4375C5 8.50625 5.05625 8.5625 5.125 8.5625H14.25C14.3188 8.5625 14.375 8.50625 14.375 8.4375V7.5625C14.375 7.49375 14.3188 7.4375 14.25 7.4375ZM14.25 11.875H5.125C5.05625 11.875 5 11.9312 5 12V12.875C5 12.9438 5.05625 13 5.125 13H14.25C14.3188 13 14.375 12.9438 14.375 12.875V12C14.375 11.9312 14.3188 11.875 14.25 11.875ZM1.625 3.5625C1.625 3.87511 1.79177 4.16397 2.0625 4.32027C2.33323 4.47658 2.66677 4.47658 2.9375 4.32027C3.20823 4.16397 3.375 3.87511 3.375 3.5625C3.375 3.24989 3.20823 2.96103 2.9375 2.80473C2.66677 2.64842 2.33323 2.64842 2.0625 2.80473C1.79177 2.96103 1.625 3.24989 1.625 3.5625ZM1.625 8C1.625 8.31261 1.79177 8.60147 2.0625 8.75777C2.33323 8.91408 2.66677 8.91408 2.9375 8.75777C3.20823 8.60147 3.375 8.31261 3.375 8C3.375 7.68739 3.20823 7.39853 2.9375 7.24223C2.66677 7.08592 2.33323 7.08592 2.0625 7.24223C1.79177 7.39853 1.625 7.68739 1.625 8ZM1.625 12.4375C1.625 12.7501 1.79177 13.039 2.0625 13.1953C2.33323 13.3516 2.66677 13.3516 2.9375 13.1953C3.20823 13.039 3.375 12.7501 3.375 12.4375C3.375 12.1249 3.20823 11.836 2.9375 11.6797C2.66677 11.5234 2.33323 11.5234 2.0625 11.6797C1.79177 11.836 1.625 12.1249 1.625 12.4375Z" fill="currentColor"/>
</g></svg>
