<svg viewBox="0 0 1024 1024" xmlns="http://www.w3.org/2000/svg"><g transform="scale(64)">
<path fill-rule="evenodd" clip-rule="evenodd" d="M3.71269 3.44787C5.12688 2.03368 7.05146 1.43931 8.89433 1.66467L8.89335 1.66858C9.19135 1.71367 9.41967 1.96933 9.41972 2.2799C9.41972 2.62232 9.14202 2.90002 8.7996 2.90002C8.78074 2.90001 8.76237 2.89582 8.74394 2.89416L8.74296 2.9049C8.54192 2.88061 8.33709 2.86877 8.13163 2.86877C7.48216 2.86883 6.84945 2.99199 6.25077 3.23498C5.63095 3.48578 5.07475 3.85534 4.59745 4.33264C4.12018 4.80993 3.75059 5.36615 3.4998 5.98596C3.25682 6.58463 3.13363 7.21735 3.13359 7.86682C3.13359 8.51647 3.25673 9.14982 3.4998 9.74865C3.7506 10.3685 4.12017 10.9247 4.59745 11.402C5.07473 11.8792 5.63086 12.2487 6.25175 12.5006C6.85058 12.7437 7.48393 12.8668 8.13359 12.8668C8.78305 12.8668 9.41578 12.7436 10.0144 12.5006C10.6343 12.2498 11.1905 11.8802 11.6678 11.403C12.1451 10.9257 12.5149 10.3695 12.7635 9.74963C13.0064 9.15099 13.1296 8.51821 13.1297 7.86877C13.1297 7.70308 13.1218 7.53799 13.1053 7.37561C13.1046 7.3673 13.1063 7.35921 13.1072 7.35119C13.1045 7.32772 13.1004 7.3041 13.1004 7.2799C13.1004 6.93753 13.3781 6.65979 13.7205 6.65979C14.0273 6.66001 14.2805 6.88357 14.3299 7.17639C14.3393 7.19167 14.3463 7.20909 14.3484 7.22815C14.534 9.03348 13.9348 10.9035 12.5516 12.2867C10.1087 14.7295 6.14744 14.7262 3.70683 12.2789C1.26966 9.83499 1.27215 5.88846 3.71269 3.44787Z" fill="currentColor"/>
</g></svg>
