<svg width="16" height="16" viewBox="0 0 16 16" fill="none" xmlns="http://www.w3.org/2000/svg">
<path fill-rule="evenodd" clip-rule="evenodd" d="M10.5071 1.75045C10.794 1.86944 10.9302 2.19854 10.8112 2.48551C10.6922 2.77247 10.3631 2.90864 10.0762 2.78965C9.41124 2.51393 8.69568 2.37019 7.95911 2.37019C4.90428 2.37019 2.42786 4.84662 2.42786 7.90144C2.42786 10.9563 4.90428 13.4327 7.95911 13.4327C9.44656 13.4327 10.8393 12.8436 11.8703 11.8126C12.3839 11.299 12.7927 10.6893 13.0709 10.0185C13.3466 9.35357 13.4904 8.63801 13.4904 7.90144C13.4904 7.59078 13.7422 7.33894 14.0529 7.33894C14.3635 7.33894 14.6154 7.59078 14.6154 7.90144C14.6154 8.78655 14.4422 9.64848 14.1101 10.4494C13.7752 11.2571 13.2834 11.9905 12.6658 12.6081C11.4259 13.848 9.74799 14.5577 7.95911 14.5577C4.28296 14.5577 1.30286 11.5776 1.30286 7.90144C1.30286 4.2253 4.28296 1.24519 7.95911 1.24519C8.84421 1.24519 9.70614 1.41833 10.5071 1.75045Z" fill="#0D6CF2"/>
</svg>
