<svg width="16" height="16" viewBox="0 0 16 16" fill="none" xmlns="http://www.w3.org/2000/svg">
<path fill-rule="evenodd" clip-rule="evenodd" d="M13 7.25H11.9375V3.75C11.9375 2.64531 11.0422 1.75 9.9375 1.75H6.0625C4.95781 1.75 4.0625 2.64531 4.0625 3.75V7.25H3C2.72344 7.25 2.5 7.47344 2.5 7.75V13.75C2.5 14.0266 2.72344 14.25 3 14.25H13C13.2766 14.25 13.5 14.0266 13.5 13.75V7.75C13.5 7.47344 13.2766 7.25 13 7.25ZM5.1875 3.75C5.1875 3.26719 5.57969 2.875 6.0625 2.875H9.9375C10.4203 2.875 10.8125 3.26719 10.8125 3.75V7.25H5.1875V3.75ZM12.375 13.125H3.625V8.375H12.375V13.125ZM7.5625 10.9531V11.7812C7.5625 11.85 7.61875 11.9062 7.6875 11.9062H8.3125C8.38125 11.9062 8.4375 11.85 8.4375 11.7812V10.9531C8.62656 10.8172 8.75 10.5953 8.75 10.3438C8.75 9.92969 8.41406 9.59375 8 9.59375C7.58594 9.59375 7.25 9.92969 7.25 10.3438C7.25 10.5953 7.37344 10.8172 7.5625 10.9531Z" fill="#5C6B8A"/>
</svg>
