<svg width="16" height="16" viewBox="0 0 16 16" fill="none" xmlns="http://www.w3.org/2000/svg">
<path d="M11.5 2C11.8 2 12 2.2 12 2.5V10H9.5V9H11V3H3.5V9H5.5V10H2.5V2.5C2.5 2.2 2.7 2 3 2H11.5Z" fill="#5C6B8A"/>
<path d="M13.5 3C13.8 3 14 3.2 14 3.5V9H13V4H11.5V3H13.5Z" fill="#5C6B8A"/>
<path fill-rule="evenodd" clip-rule="evenodd" d="M13.5 10V13H2.5V10H4.65C5.05 11.15 6.15 12 7.5 12C8.85 12 9.9 11.15 10.35 10H13.5ZM14 9H9.5C9.5 10.1 8.6 11 7.5 11C6.4 11 5.5 10.1 5.5 9H2C1.7 9 1.5 9.2 1.5 9.5V13.5C1.5 13.8 1.7 14 2 14H14C14.3 14 14.5 13.8 14.5 13.5V9.5C14.5 9.2 14.3 9 14 9Z" fill="#5C6B8A"/>
</svg>
