<svg width="16" height="16" viewBox="0 0 16 16" fill="none" xmlns="http://www.w3.org/2000/svg">
<path fill-rule="evenodd" clip-rule="evenodd" d="M6.98894 2H1.99548C1.71934 2 1.49548 2.22386 1.49548 2.5V13.5C1.49548 13.7761 1.71934 14 1.99548 14H6.98894C7.26508 14 7.48894 13.7761 7.48894 13.5V2.5C7.48894 2.22386 7.26508 2 6.98894 2ZM2.49548 13H6.48894V3H2.49548V13Z" fill="#5C6B8A"/>
<path fill-rule="evenodd" clip-rule="evenodd" d="M5.36386 5.01138H3.6283C3.55926 5.01138 3.5033 4.95541 3.5033 4.88638V4.13638C3.5033 4.06735 3.55926 4.01138 3.6283 4.01138H5.36386C5.43289 4.01138 5.48886 4.06735 5.48886 4.13638V4.88638C5.48886 4.95541 5.43289 5.01138 5.36386 5.01138Z" fill="#5C6B8A"/>
<path fill-rule="evenodd" clip-rule="evenodd" d="M5.36386 7.01492H3.6283C3.55926 7.01492 3.5033 6.95895 3.5033 6.88992V6.13992C3.5033 6.07089 3.55926 6.01492 3.6283 6.01492H5.36386C5.43289 6.01492 5.48886 6.07089 5.48886 6.13992V6.88992C5.48886 6.95895 5.43289 7.01492 5.36386 7.01492Z" fill="#5C6B8A"/>
<path fill-rule="evenodd" clip-rule="evenodd" d="M14.0046 2H9.01111C8.73497 2 8.51111 2.22386 8.51111 2.5V13.5C8.51111 13.7761 8.73497 14 9.01111 14H14.0046C14.2807 14 14.5046 13.7761 14.5046 13.5V2.5C14.5046 2.22386 14.2807 2 14.0046 2ZM9.51111 13H13.5046V3H9.51111V13Z" fill="#5C6B8A"/>
<path fill-rule="evenodd" clip-rule="evenodd" d="M12.3795 5.01138H10.6439C10.5749 5.01138 10.5189 4.95541 10.5189 4.88638V4.13638C10.5189 4.06735 10.5749 4.01138 10.6439 4.01138H12.3795C12.4485 4.01138 12.5045 4.06735 12.5045 4.13638V4.88638C12.5045 4.95541 12.4485 5.01138 12.3795 5.01138Z" fill="#5C6B8A"/>
<path fill-rule="evenodd" clip-rule="evenodd" d="M12.3795 7.01492H10.6439C10.5749 7.01492 10.5189 6.95895 10.5189 6.88992V6.13992C10.5189 6.07089 10.5749 6.01492 10.6439 6.01492H12.3795C12.4485 6.01492 12.5045 6.07089 12.5045 6.13992V6.88992C12.5045 6.95895 12.4485 7.01492 12.3795 7.01492Z" fill="#5C6B8A"/>
</svg>
