<?xml version="1.0" standalone="no"?>
<svg xmlns="http://www.w3.org/2000/svg" class="icon" viewBox="0 0 1024 1024">
  <path d="M446.08 532.032L172.48 800l55.232 54.016 273.664-267.968-55.168-54.016z m54.144-52.992l55.232 54.016 82.752-81.024-55.232-54.016-82.752 81.024z m199.488 18.752l-427.264 418.368a64 64 0 0 1-89.6 0l-71.936-70.4a64 64 0 0 1 0-91.52L538.24 335.872a64 64 0 0 1 89.536 0l71.936 70.4a64 64 0 0 1 0 91.52z m130.432-350.08l54.144 52.992-108.288 105.984-54.08-52.992 108.224-105.984zM494.208 264.64l-54.08 52.992-108.288-105.984 54.144-52.992 108.224 105.984z m140.736-50.752H558.4V64H634.88v149.888z m238.08 421.696l-54.08 52.992-108.224-105.984 54.08-52.992 108.224 105.984z m87.168-253.12v74.944h-153.088v-74.88h153.088z" p-id="41165"></path>
</svg>
