<svg width="16" height="16" viewBox="0 0 16 16" fill="none" xmlns="http://www.w3.org/2000/svg">
<path fill-rule="evenodd" clip-rule="evenodd" d="M14 1.5H2C1.72386 1.5 1.5 1.72386 1.5 2V14C1.5 14.2761 1.72386 14.5 2 14.5H14C14.2761 14.5 14.5 14.2761 14.5 14V2C14.5 1.72386 14.2761 1.5 14 1.5ZM2.5 13.5H13.5V2.5H2.5V13.5Z" fill="#5C6B8A"/>
<path fill-rule="evenodd" clip-rule="evenodd" d="M8.50063 3.71341C8.4442 3.71341 8.38637 3.72313 8.32912 3.74394L3.82912 5.38032C3.63153 5.45216 3.5 5.63996 3.5 5.85021V11.9182C3.5 11.9873 3.55595 12.0432 3.625 12.0432H4.375C4.44403 12.0432 4.5 11.9873 4.5 11.9182V10.9069V6.20043L8 4.92769V10.9069V11.9182C8 11.9873 8.05595 12.0432 8.125 12.0432H8.875C8.94403 12.0432 9 11.9873 9 11.9182V4.21385C9 3.92777 8.76566 3.71341 8.50063 3.71341Z" fill="#5C6B8A"/>
<path fill-rule="evenodd" clip-rule="evenodd" d="M12.1117 7.44227L8 6.5V11.9183C8 11.9873 8.05597 12.0433 8.125 12.0433H8.875C8.94403 12.0433 9 11.9873 9 11.9183V11.6835V11.3149V7.75509L11.5 8.32802V11.3149V11.7003V11.9183C11.5 11.9873 11.556 12.0433 11.625 12.0433H12.375C12.444 12.0433 12.5 11.9873 12.5 11.9183V7.92963C12.5 7.69652 12.3389 7.49434 12.1117 7.44227Z" fill="#5C6B8A"/>
<path fill-rule="evenodd" clip-rule="evenodd" d="M6.875 7H5.625C5.55597 7 5.5 7.05597 5.5 7.125V7.875C5.5 7.94403 5.55597 8 5.625 8H6.875C6.94403 8 7 7.94403 7 7.875V7.125C7 7.05597 6.94403 7 6.875 7Z" fill="#5C6B8A"/>
<path fill-rule="evenodd" clip-rule="evenodd" d="M6.875 9H5.625C5.55597 9 5.5 9.05597 5.5 9.125V9.875C5.5 9.94403 5.55597 10 5.625 10H6.875C6.94403 10 7 9.94403 7 9.875V9.125C7 9.05597 6.94403 9 6.875 9Z" fill="#5C6B8A"/>
</svg>
