<svg viewBox="0 0 1024 1024" xmlns="http://www.w3.org/2000/svg"><g transform="scale(64)">
<path d="M13.0498 1.5C13.3498 1.5 13.5498 1.7 13.5498 2V6.2002C13.5498 6.40013 13.6002 6.60005 13.7002 6.75L14.3496 7.75C14.4496 7.89995 14.5 8.09987 14.5 8.2998V14C14.5 14.3 14.3 14.5 14 14.5H2C1.7 14.5 1.5 14.3 1.5 14V2C1.5 1.7 1.7 1.5 2 1.5H13.0498ZM2.5 13.5H4.0498V10.0498H12.0498V13.5H13.5V8.2998L12.8496 7.2998C12.5998 6.99989 12.5 6.59999 12.5 6.2002V2.5H2.5V13.5ZM5.0498 13.5H11.0498V11.0498H5.0498V13.5ZM5.5 5.5H4.5V3.5H5.5V5.5ZM8 5.5H7V3.5H8V5.5ZM10.5 5.5H9.5V3.5H10.5V5.5Z" fill="currentColor"/>
</g></svg>
