<svg viewBox="0 0 1024 1024" xmlns="http://www.w3.org/2000/svg"><g transform="scale(64)">
<path fill-rule="evenodd" clip-rule="evenodd" d="M7.87695 1.42757C7.95759 1.4071 8.0424 1.40714 8.12305 1.42757L13.6045 2.91585C13.8097 2.97101 13.953 3.15747 13.9531 3.36995V7.99104L13.9463 8.33577C13.8022 11.8327 11.4439 13.4436 8.00098 14.5877L7.34766 14.3592C4.15452 13.188 2.04688 11.4933 2.04688 7.99007V3.36897C2.04702 3.15664 2.18954 2.97018 2.39453 2.91487L7.87695 1.42757ZM3.04688 3.77425V7.99007C3.04688 9.61328 3.55493 10.7049 4.39453 11.5369C5.21964 12.3545 6.4271 12.9795 8.00098 13.5282C9.57369 12.9796 10.7806 12.355 11.6055 11.5379C12.4449 10.7061 12.9531 9.61432 12.9531 7.99104V3.77522L7.99805 2.4305L3.04688 3.77425ZM10.8799 8.01155C10.9126 8.01152 10.9441 8.02506 10.9668 8.04866C10.9893 8.07223 11.0014 8.10398 11 8.13655C10.9329 9.74117 9.61387 11.0087 8.00781 11.0116C7.14175 11.0117 6.31802 10.636 5.75 9.98225L5.40234 10.2557C5.32335 10.3186 5.20898 10.26 5.20898 10.16L5.21484 8.63948C5.21505 8.60299 5.23211 8.56833 5.26074 8.54573C5.28957 8.52313 5.32766 8.51472 5.36328 8.52327L6.83594 8.88362C6.88097 8.8944 6.91617 8.93013 6.92578 8.97542C6.93522 9.02059 6.91753 9.06747 6.88086 9.09554L6.50586 9.38948L6.56836 9.45393C7.13587 10.0242 7.986 10.2065 8.7373 9.91878C9.48855 9.63103 9.99957 8.92726 10.041 8.12386C10.0444 8.06014 10.0973 8.01049 10.1611 8.01057L10.8799 8.01155ZM8.02246 5.01253C8.88845 5.01237 9.71226 5.38717 10.2803 6.04085L10.6279 5.76839C10.6641 5.74068 10.713 5.73568 10.7539 5.75569C10.7948 5.77582 10.8211 5.81754 10.8213 5.86311L10.8145 7.38362C10.8139 7.42005 10.7964 7.45404 10.7676 7.47639C10.7385 7.49881 10.7006 7.50675 10.665 7.49788L9.19238 7.1385C9.14741 7.12774 9.1122 7.09192 9.10254 7.04671C9.09293 7.00142 9.11069 6.95473 9.14746 6.92659L9.52246 6.63264L9.45996 6.56721C8.89247 5.99709 8.04225 5.81472 7.29102 6.10237C6.53971 6.39009 6.02876 7.09385 5.9873 7.89729C5.98518 7.96123 5.9331 8.01247 5.86914 8.0135H5.15039C5.11768 8.0135 5.08613 7.99999 5.06348 7.97639C5.04087 7.95285 5.02897 7.92111 5.03027 7.8885C5.09667 6.28336 6.41595 5.01544 8.02246 5.01253Z" fill="currentColor"/>
</g></svg>
