<svg width="16" height="16" viewBox="0 0 16 16" fill="none" xmlns="http://www.w3.org/2000/svg">
<path d="M6.66138 3.5387V4.5387H2.75415V13.2457H8.78442V12.0153H9.78442V13.7994C9.78442 14.0458 9.58453 14.2457 9.33813 14.2457H2.20044C1.95405 14.2457 1.75415 14.0458 1.75415 13.7994V3.98499C1.75415 3.73859 1.95405 3.5387 2.20044 3.5387H6.66138Z" fill="#5C6B8A"/>
<path fill-rule="evenodd" clip-rule="evenodd" d="M6.66158 1.75421C6.41519 1.75421 6.21545 1.95395 6.21545 2.20034V4.53812H6.71545C6.99159 4.53812 7.21545 4.31427 7.21545 4.03812V2.75421H13.2458V11.4613H7.21545V9.02723C7.21545 8.9582 7.15949 8.90223 7.09045 8.90223C6.6072 8.90223 6.21545 9.29398 6.21545 9.77723V12.0151C6.21545 12.2615 6.41519 12.4613 6.66158 12.4613H13.7996C14.046 12.4613 14.2458 12.2615 14.2458 12.0151V2.20034C14.2458 1.95395 14.046 1.75421 13.7996 1.75421H6.66158Z" fill="#5C6B8A"/>
<path fill-rule="evenodd" clip-rule="evenodd" d="M10.1563 8.97474L9.62492 8.44544C9.57602 8.39671 9.57586 8.31757 9.62458 8.26866L11.3023 6.5844C11.3509 6.53561 11.3509 6.45674 11.3023 6.40796L9.62458 4.72369C9.57586 4.67479 9.576 4.59565 9.62492 4.54691L10.1563 4.01761C10.2052 3.9689 10.2843 3.96904 10.333 4.01796L12.4502 6.1433C12.6446 6.33841 12.6446 6.65394 12.4502 6.84904L10.333 8.9744C10.2843 9.0233 10.2052 9.02346 10.1563 8.97474Z" fill="#5C6B8A"/>
<path fill-rule="evenodd" clip-rule="evenodd" d="M11.971 6.99619H4.32617C4.25712 6.99619 4.20117 6.94022 4.20117 6.87119V6.12119C4.20117 6.05215 4.25712 5.99619 4.32617 5.99619H11.971C12.0401 5.99619 12.096 6.05215 12.096 6.12119V6.87119C12.096 6.94022 12.0401 6.99619 11.971 6.99619Z" fill="#5C6B8A"/>
</svg>
