<?xml version="1.0" standalone="no"?>
<svg xmlns="http://www.w3.org/2000/svg" class="icon" viewBox="0 0 1024 1024">
  <path d="M608 864H368a32 32 0 0 1-32-32V550.016H224v33.984a8 8 0 0 1-8 8h-144A8 8 0 0 1 64 584v-144c0-4.416 3.584-8 8-8h144c4.416 0 8 3.584 8 8v33.984h112V192a32 32 0 0 1 32-32H608v-33.984c0-4.48 3.584-8 8-8h144c4.416 0 8 3.584 8 8v144a8 8 0 0 1-8 8h-144a8 8 0 0 1-8-8v-34.048H411.968v238.08H704v-34.048c0-4.416 3.584-8 8-8h144c4.416 0 8 3.584 8 8v144a8 8 0 0 1-8 8h-144A8 8 0 0 1 704 584v-33.984H411.968v238.016H608v-34.048c0-4.416 3.584-8 8-8h144c4.416 0 8 3.584 8 8v144a8 8 0 0 1-8 8h-144a8 8 0 0 1-8-8V864z" p-id="43265"></path>
</svg>
