<svg viewBox="0 0 1024 1024" xmlns="http://www.w3.org/2000/svg"><g transform="scale(64)">
<path d="M13.75 1.75C14.0266 1.75 14.25 1.97344 14.25 2.25V13.75C14.25 14.0266 14.0266 14.25 13.75 14.25H2.25C1.97344 14.25 1.75 14.0266 1.75 13.75V2.25C1.75 1.97344 1.97344 1.75 2.25 1.75H13.75ZM2.875 13.125H13.125V2.875H2.875V13.125ZM10.875 7.5C10.9438 7.5 11 7.55625 11 7.625V8.375C11 8.44375 10.9438 8.5 10.875 8.5H5.125C5.05625 8.5 5 8.44375 5 8.375V7.625C5 7.55625 5.05625 7.5 5.125 7.5H10.875Z" fill="currentColor"/>
<mask id="mask0_2088_3368" maskUnits="userSpaceOnUse" x="1" y="1" width="14" height="14">
<path d="M13.75 1.75C14.0266 1.75 14.25 1.97344 14.25 2.25V13.75C14.25 14.0266 14.0266 14.25 13.75 14.25H2.25C1.97344 14.25 1.75 14.0266 1.75 13.75V2.25C1.75 1.97344 1.97344 1.75 2.25 1.75H13.75ZM2.875 13.125H13.125V2.875H2.875V13.125ZM10.875 7.5C10.9438 7.5 11 7.55625 11 7.625V8.375C11 8.44375 10.9438 8.5 10.875 8.5H5.125C5.05625 8.5 5 8.44375 5 8.375V7.625C5 7.55625 5.05625 7.5 5.125 7.5H10.875Z" fill="currentColor"/>
</mask>
<g mask="url(#mask0_2088_3368)">
</g>
</g></svg>
