<svg width="16" height="16" viewBox="0 0 16 16" fill="none" xmlns="http://www.w3.org/2000/svg">
<path d="M8 1C11.8656 1 15 4.13438 15 8C15 11.8656 11.8656 15 8 15C4.13438 15 1 11.8656 1 8C1 4.13438 4.13438 1 8 1ZM8 2C4.6871 2 2 4.6871 2 8C2 11.3129 4.6871 14 8 14C11.3129 14 14 11.3129 14 8C14 4.6871 11.3129 2 8 2Z" fill="#5C6B8A"/>
<path fill-rule="evenodd" clip-rule="evenodd" d="M8.37109 4.8968C9.80037 5.06591 10.9341 6.19963 11.1032 7.62891H12.2969C12.34 7.62891 12.375 7.66388 12.375 7.70703V8.29297C12.375 8.33612 12.34 8.37109 12.2969 8.37109H11.1032C10.9341 9.80037 9.80037 10.9341 8.37109 11.1032V12.2969C8.37109 12.34 8.33612 12.375 8.29297 12.375H7.70703C7.66388 12.375 7.62891 12.34 7.62891 12.2969V11.1032C6.19963 10.9341 5.06591 9.80037 4.8968 8.37109H3.70312C3.65998 8.37109 3.625 8.33612 3.625 8.29297V7.70703C3.625 7.66388 3.65998 7.62891 3.70312 7.62891H4.8968C5.06591 6.19963 6.19963 5.06591 7.62891 4.8968V3.70312C7.62891 3.65998 7.66388 3.625 7.70703 3.625H8.29297C8.33612 3.625 8.37109 3.65998 8.37109 3.70312V4.8968ZM8 10.3828C9.31599 10.3828 10.3828 9.31599 10.3828 8C10.3828 6.68401 9.31599 5.61719 8 5.61719C6.68401 5.61719 5.61719 6.68401 5.61719 8C5.61719 9.31599 6.68401 10.3828 8 10.3828ZM8 6.82812C8.31313 6.82812 8.60636 6.94961 8.82838 7.17162C9.04935 7.39364 9.17188 7.68687 9.17188 8C9.17188 8.31313 9.04935 8.60636 8.82838 8.82838C8.60636 9.04935 8.31313 9.17188 8 9.17188C7.68687 9.17188 7.39364 9.04935 7.17162 8.82838C6.95065 8.60636 6.82812 8.31313 6.82812 8C6.82812 7.68687 6.95065 7.39364 7.17162 7.17162C7.39364 6.94961 7.68687 6.82812 8 6.82812Z" fill="#5C6B8A"/>
</svg>
