<svg viewBox="0 0 1024 1024" xmlns="http://www.w3.org/2000/svg"><g transform="scale(64)">
<path fill-rule="evenodd" clip-rule="evenodd" d="M13 2.71875H3C2.72386 2.71875 2.5 2.94261 2.5 3.21875V10.7812C2.5 11.0574 2.72386 11.2812 3 11.2812H13C13.2761 11.2812 13.5 11.0574 13.5 10.7812V3.21875C13.5 2.94261 13.2761 2.71875 13 2.71875ZM3.5 10.2812H12.5V3.71875H3.5V10.2812Z" fill="currentColor"/>
<path fill-rule="evenodd" clip-rule="evenodd" d="M6.88898 5.41208C6.76101 5.41208 6.63306 5.46089 6.53544 5.55853L4.3855 7.70847C4.33667 7.75728 4.33667 7.83642 4.3855 7.88524L4.91583 8.41556C4.94023 8.43997 4.97222 8.45219 5.00422 8.45219C5.0362 8.45219 5.06819 8.43997 5.09261 8.41556L6.88898 6.61919L8.77376 8.50395C8.87139 8.60159 8.99934 8.65041 9.12731 8.65041C9.25526 8.65041 9.38323 8.60159 9.48086 8.50395L11.6308 6.35402C11.6796 6.3052 11.6796 6.22606 11.6308 6.17725L11.1005 5.64691C11.0761 5.6225 11.0441 5.6103 11.0121 5.6103C10.9801 5.6103 10.9481 5.6225 10.9237 5.64691L9.12731 7.4433L7.24253 5.55853C7.1449 5.46089 7.01695 5.41208 6.88898 5.41208Z" fill="currentColor"/>
<path fill-rule="evenodd" clip-rule="evenodd" d="M12.4726 13.2812H3.54163C3.47258 13.2812 3.41663 13.2253 3.41663 13.1562V12.4062C3.41663 12.3372 3.47258 12.2812 3.54163 12.2812H12.4726C12.5416 12.2812 12.5976 12.3372 12.5976 12.4062V13.1562C12.5976 13.2253 12.5416 13.2812 12.4726 13.2812Z" fill="currentColor"/>
</g></svg>
