<svg width="16" height="16" viewBox="0 0 16 16" fill="none" xmlns="http://www.w3.org/2000/svg">
<path fill-rule="evenodd" clip-rule="evenodd" d="M13.125 8.25C13.125 7.93739 12.9582 7.64853 12.6875 7.49223C12.4168 7.33592 12.0832 7.33592 11.8125 7.49223C11.5418 7.64853 11.375 7.93739 11.375 8.25C11.375 8.56261 11.5418 8.85147 11.8125 9.00777C12.0832 9.16408 12.4168 9.16408 12.6875 9.00777C12.9582 8.85147 13.125 8.56261 13.125 8.25ZM8.75 8.25C8.75 7.76675 8.35825 7.375 7.875 7.375C7.39175 7.375 7 7.76675 7 8.25C7 8.73325 7.39175 9.125 7.875 9.125C8.35825 9.125 8.75 8.73325 8.75 8.25ZM4.375 8.25C4.375 7.76675 3.98325 7.375 3.5 7.375C3.01675 7.375 2.625 7.76675 2.625 8.25C2.625 8.73325 3.01675 9.125 3.5 9.125C3.98325 9.125 4.375 8.73325 4.375 8.25Z" fill="#5C6B8A"/>
<mask id="mask0_2088_3350" style="mask-type:luminance" maskUnits="userSpaceOnUse" x="2" y="7" width="12" height="3">
<path fill-rule="evenodd" clip-rule="evenodd" d="M13.125 8.25C13.125 7.93739 12.9582 7.64853 12.6875 7.49223C12.4168 7.33592 12.0832 7.33592 11.8125 7.49223C11.5418 7.64853 11.375 7.93739 11.375 8.25C11.375 8.56261 11.5418 8.85147 11.8125 9.00777C12.0832 9.16408 12.4168 9.16408 12.6875 9.00777C12.9582 8.85147 13.125 8.56261 13.125 8.25ZM8.75 8.25C8.75 7.76675 8.35825 7.375 7.875 7.375C7.39175 7.375 7 7.76675 7 8.25C7 8.73325 7.39175 9.125 7.875 9.125C8.35825 9.125 8.75 8.73325 8.75 8.25ZM4.375 8.25C4.375 7.76675 3.98325 7.375 3.5 7.375C3.01675 7.375 2.625 7.76675 2.625 8.25C2.625 8.73325 3.01675 9.125 3.5 9.125C3.98325 9.125 4.375 8.73325 4.375 8.25Z" fill="white"/>
</mask>
<g mask="url(#mask0_2088_3350)">
</g>
</svg>
