<svg viewBox="0 0 1024 1024" xmlns="http://www.w3.org/2000/svg"><g transform="scale(64)">
<path fill-rule="evenodd" clip-rule="evenodd" d="M7.875 3C7.56239 3 7.27353 3.16677 7.11723 3.4375C6.96092 3.70823 6.96092 4.04177 7.11723 4.3125C7.27353 4.58323 7.56239 4.75 7.875 4.75C8.18761 4.75 8.47647 4.58323 8.63277 4.3125C8.78908 4.04177 8.78908 3.70823 8.63277 3.4375C8.47647 3.16677 8.18761 3 7.875 3ZM7.875 7.375C7.39175 7.375 7 7.76675 7 8.25C7 8.73325 7.39175 9.125 7.875 9.125C8.35825 9.125 8.75 8.73325 8.75 8.25C8.75 7.76675 8.35825 7.375 7.875 7.375ZM7.875 11.75C7.39175 11.75 7 12.1418 7 12.625C7 13.1082 7.39175 13.5 7.875 13.5C8.35825 13.5 8.75 13.1082 8.75 12.625C8.75 12.1418 8.35825 11.75 7.875 11.75Z" fill="currentColor"/>
<mask id="mask0_2088_3384" maskUnits="userSpaceOnUse" x="7" y="3" width="2" height="11">
<path fill-rule="evenodd" clip-rule="evenodd" d="M7.875 3C7.56239 3 7.27353 3.16677 7.11723 3.4375C6.96092 3.70823 6.96092 4.04177 7.11723 4.3125C7.27353 4.58323 7.56239 4.75 7.875 4.75C8.18761 4.75 8.47647 4.58323 8.63277 4.3125C8.78908 4.04177 8.78908 3.70823 8.63277 3.4375C8.47647 3.16677 8.18761 3 7.875 3ZM7.875 7.375C7.39175 7.375 7 7.76675 7 8.25C7 8.73325 7.39175 9.125 7.875 9.125C8.35825 9.125 8.75 8.73325 8.75 8.25C8.75 7.76675 8.35825 7.375 7.875 7.375ZM7.875 11.75C7.39175 11.75 7 12.1418 7 12.625C7 13.1082 7.39175 13.5 7.875 13.5C8.35825 13.5 8.75 13.1082 8.75 12.625C8.75 12.1418 8.35825 11.75 7.875 11.75Z" fill="currentColor"/>
</mask>
<g mask="url(#mask0_2088_3384)">
</g>
</g></svg>
