<svg width="16" height="16" viewBox="0 0 16 16" fill="none" xmlns="http://www.w3.org/2000/svg">
<path d="M8 1.5C11.6 1.5 14.5 4.4 14.5 8C14.5 8.36112 14.4696 8.71491 14.4131 9.05957C14.169 8.69384 13.8577 8.37703 13.4971 8.12598C13.498 8.08409 13.5 8.04212 13.5 8C13.5 7.29371 13.3677 6.61994 13.1279 6.00098H10.8545C10.9274 6.48968 10.9736 7.00389 10.9912 7.53613C10.64 7.58728 10.3054 7.69052 9.99609 7.83789C9.98809 7.16541 9.93361 6.55255 9.8457 6.00098H6.1543C6.05937 6.59657 6 7.26358 6 8C6 8.73838 6.05891 9.40711 6.1543 10.0039H8.14453C8.05094 10.3197 8 10.6539 8 11V11.001H6.36523C6.80221 12.6319 7.53314 13.5 8 13.5C8.19275 13.5 8.42935 13.351 8.67285 13.0625C9.02218 13.5405 9.48941 13.9266 10.0322 14.1777C9.39341 14.3868 8.71043 14.5 8 14.5C4.4 14.5 1.5 11.6 1.5 8C1.5 4.4 4.4 1.5 8 1.5ZM3.38574 11.001C4.04596 12.0176 5.03249 12.7991 6.20117 13.2002C5.84344 12.6184 5.54757 11.8673 5.33887 11.001H3.38574ZM2.87207 6.00098C2.63228 6.61994 2.5 7.29371 2.5 8C2.5 8.70816 2.63303 9.3836 2.87402 10.0039H5.14648C5.05215 9.37311 5 8.69987 5 8C5 7.30195 5.05165 6.63035 5.14551 6.00098H2.87207ZM6.20117 2.79883C5.03053 3.20055 4.0431 3.98486 3.38281 5.00391H5.33789C5.54674 4.13521 5.84258 3.38182 6.20117 2.79883ZM8 2.5C7.53269 2.5 6.80108 3.3699 6.36426 5.00391H9.63574C9.19892 3.3699 8.46731 2.5 8 2.5ZM9.79785 2.79883C10.1566 3.38188 10.4532 4.13499 10.6621 5.00391H12.6172C11.9567 3.9846 10.9689 3.20046 9.79785 2.79883Z" fill="#5C6B8A"/>
<path d="M11.5 8C13.15 8 14.5 9.35 14.5 11C14.5 12.65 13.15 14 11.5 14C9.85 14 8.5 12.65 8.5 11C8.5 9.35 9.85 8 11.5 8ZM11.5 7C9.3 7 7.5 8.8 7.5 11C7.5 13.2 9.3 15 11.5 15C13.7 15 15.5 13.2 15.5 11C15.5 8.8 13.7 7 11.5 7Z" fill="#5C6B8A"/>
<path d="M11.9 9C11.9 9.2 11.7 9.35001 11.5 9.35001C11.3 9.35001 11.1 9.2 11.1 9C10.85 9.05 10.6 9.15002 10.35 9.30002C10.5 9.45002 10.5 9.70001 10.35 9.85001C10.25 9.95001 10.15 9.95001 10.05 9.95001C9.94999 9.95001 9.84999 9.95001 9.79999 9.85001C9.64999 10.05 9.55 10.3 9.5 10.6C9.7 10.6 9.85001 10.8 9.85001 11C9.85001 11.2 9.7 11.4 9.5 11.4C9.55 11.65 9.64999 11.9 9.79999 12.15C9.89999 12.1 9.94999 12.05 10.05 12.05C10.15 12.05 10.25 12.05 10.35 12.15C10.5 12.3 10.5 12.55 10.35 12.7C10.55 12.85 10.8 12.95 11.1 13C11.1 12.8 11.3 12.65 11.5 12.65C11.7 12.65 11.9 12.8 11.9 13C12.15 12.95 12.4 12.85 12.65 12.7C12.5 12.55 12.5 12.3 12.65 12.15C12.75 12.05 12.85 12.05 12.95 12.05C13.05 12.05 13.15 12.05 13.2 12.15C13.35 11.95 13.45 11.7 13.5 11.4C13.3 11.4 13.15 11.2 13.15 11C13.15 10.8 13.3 10.6 13.5 10.6C13.45 10.35 13.35 10.1 13.2 9.85001C13.1 9.90001 13.05 9.95001 12.95 9.95001C12.85 9.95001 12.75 9.95001 12.65 9.85001C12.5 9.70001 12.5 9.45002 12.65 9.30002C12.45 9.15002 12.2 9.05 11.9 9ZM11.5 11.85C11.05 11.85 10.7 11.5 10.7 11.05C10.7 10.6 11.05 10.25 11.5 10.25C11.95 10.25 12.3 10.6 12.3 11.05C12.3 11.5 11.95 11.85 11.5 11.85Z" fill="#5C6B8A"/>
</svg>
