<svg viewBox="0 0 1024 1024" xmlns="http://www.w3.org/2000/svg"><g transform="scale(64)">
<path fill-rule="evenodd" clip-rule="evenodd" d="M8 1.99805C4.68522 1.99805 1.99805 4.6852 1.99805 7.99998C1.99805 11.3148 4.68522 14.0019 8 14.0019C11.3148 14.0019 14.0019 11.3148 14.0019 7.99998C14.0019 4.6852 11.3148 1.99805 8 1.99805ZM8 2.99805C8.6757 2.99805 9.33066 3.13016 9.94667 3.39072C10.5422 3.64259 11.0772 4.00339 11.5369 4.46308C11.9966 4.92277 12.3574 5.4578 12.6093 6.05331C12.8698 6.66931 13.0019 7.32428 13.0019 7.99998C13.0019 8.67569 12.8698 9.33064 12.6093 9.94666C12.3574 10.5422 11.9966 11.0772 11.5369 11.5369C11.0772 11.9966 10.5422 12.3574 9.94667 12.6093C9.33066 12.8698 8.6757 13.0019 8 13.0019C7.3243 13.0019 6.66934 12.8698 6.05333 12.6093C5.45781 12.3574 4.92278 11.9966 4.46309 11.5369C4.00339 11.0772 3.64259 10.5422 3.39072 9.94666C3.13017 9.33064 2.99805 8.67569 2.99805 7.99998C2.99805 7.32428 3.13017 6.66933 3.39072 6.05331C3.64259 5.4578 4.00339 4.92277 4.46309 4.46308C4.92278 4.00339 5.45781 3.64259 6.05333 3.39072C6.66934 3.13016 7.3243 2.99805 8 2.99805Z" fill="currentColor"/>
<path fill-rule="evenodd" clip-rule="evenodd" d="M7.99998 1.99805C6.51552 1.99805 5.31213 4.6852 5.31213 7.99998C5.31213 11.3148 6.51552 14.0019 7.99998 14.0019C9.48443 14.0019 10.6878 11.3148 10.6878 7.99998C10.6878 4.6852 9.48443 1.99805 7.99998 1.99805ZM7.99998 2.99805C8.12984 2.99805 8.28101 3.12252 8.35957 3.1967C8.51362 3.3422 8.74766 3.62823 8.98792 4.16469C9.19987 4.638 9.3749 5.22072 9.49407 5.84986C9.62263 6.52861 9.68782 7.252 9.68782 7.99998C9.68782 8.74795 9.62263 9.47136 9.49407 10.1501C9.3749 10.7793 9.19987 11.362 8.98792 11.8353C8.74766 12.3717 8.51362 12.6578 8.35957 12.8033C8.28101 12.8775 8.12984 13.0019 7.99998 13.0019C7.87012 13.0019 7.71895 12.8775 7.64038 12.8033C7.48634 12.6578 7.25227 12.3717 7.01204 11.8353C6.80009 11.362 6.62506 10.7793 6.50588 10.1501C6.37731 9.47136 6.31213 8.74795 6.31213 7.99998C6.31213 7.252 6.37731 6.52861 6.50588 5.84986C6.62504 5.22072 6.80009 4.638 7.01204 4.16469C7.25227 3.62823 7.48634 3.3422 7.64038 3.1967C7.71895 3.12252 7.87012 2.99805 7.99998 2.99805Z" fill="currentColor"/>
<path d="M13.9795 7.49997C13.9931 7.66489 14.002 7.83154 14.002 7.99997C14.002 8.16839 13.9931 8.33506 13.9795 8.49997H2.02051C2.0069 8.33506 1.99805 8.16839 1.99805 7.99997C1.99805 7.83154 2.0069 7.66489 2.02051 7.49997H13.9795Z" fill="currentColor"/>
</g></svg>
