<svg width="16" height="16" viewBox="0 0 16 16" fill="none" xmlns="http://www.w3.org/2000/svg">
<path d="M9.875 13.875C9.94375 13.875 10 13.9312 10 14V14.5C10 14.7766 9.77656 15 9.5 15H6.5C6.22344 15 6 14.7766 6 14.5V14C6 13.9312 6.05625 13.875 6.125 13.875H9.875ZM8 1C10.8297 1 13.125 3.29531 13.125 6.125C13.125 8.02187 12.0938 9.67852 10.5625 10.5645V12.375C10.5625 12.6516 10.3391 12.875 10.0625 12.875H5.9375C5.66094 12.875 5.4375 12.6516 5.4375 12.375V10.5645C3.90625 9.67852 2.875 8.02187 2.875 6.125C2.875 3.29531 5.17031 1 8 1ZM8 2.125C5.79063 2.125 4 3.91563 4 6.125C4 7.57031 4.77227 8.87988 6.00195 9.59082L6.5625 9.91602V11.75H9.4375V9.91602L9.99805 9.59082C11.2277 8.87988 12 7.57031 12 6.125C12 3.91563 10.2094 2.125 8 2.125Z" fill="#5C6B8A"/>
</svg>
