<svg width="16" height="16" viewBox="0 0 16 16" fill="none" xmlns="http://www.w3.org/2000/svg">
<path d="M9.01562 0.234375C9.29177 0.234375 9.51562 0.458234 9.51562 0.734375V1.75H11.9531C12.2293 1.75 12.4531 1.97386 12.4531 2.25V8.79688C14.1645 9.02594 15.4844 10.4916 15.4844 12.2656C15.4844 14.1986 13.9174 15.7656 11.9844 15.7656C10.3933 15.7656 9.05134 14.7036 8.62598 13.25H1.01562C0.739484 13.25 0.515625 13.0261 0.515625 12.75V2.25C0.515625 1.97386 0.739484 1.75 1.01562 1.75H3.51562V0.734375C3.51562 0.458234 3.73948 0.234375 4.01562 0.234375H9.01562ZM11.9844 9.76562C10.6089 9.76562 9.49376 10.8765 9.48535 12.25C9.48532 12.2552 9.48438 12.2604 9.48438 12.2656C9.48438 12.6153 9.5569 12.9478 9.68652 13.25C10.0688 14.1411 10.9533 14.7656 11.9844 14.7656C13.3651 14.7656 14.4844 13.6463 14.4844 12.2656C14.4844 10.8849 13.3651 9.76562 11.9844 9.76562ZM12.4844 11.75H13.4844V12.75H12.4844V13.75H11.4844V12.75H10.4844V11.75H11.4844V10.75H12.4844V11.75ZM1.51562 2.75V12.25H8.48438C8.492 10.5046 9.77717 9.05982 11.4531 8.80469V2.75H9.51562V3.23438C9.51562 3.51052 9.29177 3.73438 9.01562 3.73438H4.01562C3.73948 3.73438 3.51562 3.51052 3.51562 3.23438V2.75H1.51562ZM7.39062 9.48438C7.45966 9.48438 7.51562 9.54034 7.51562 9.60938V10.3594C7.51562 10.4284 7.45966 10.4844 7.39062 10.4844H3.64062C3.57159 10.4844 3.51562 10.4284 3.51562 10.3594V9.60938C3.51562 9.54034 3.57159 9.48438 3.64062 9.48438H7.39062ZM9.39062 6.64355C9.45966 6.64355 9.51562 6.69952 9.51562 6.76855V7.51855C9.51536 7.58736 9.45949 7.64355 9.39062 7.64355H3.64062C3.57176 7.64355 3.51589 7.58736 3.51562 7.51855V6.76855C3.51562 6.69952 3.57159 6.64355 3.64062 6.64355H9.39062ZM4.51562 2.73438H8.51562V1.23438H4.51562V2.73438Z" fill="#5C6B8A"/>
</svg>
