<svg viewBox="0 0 1024 1024" xmlns="http://www.w3.org/2000/svg"><g transform="scale(64)">
<path d="M5.5 2.98438V3.98438H3.03125V13.4844H12.9688V3.98438H10.5V2.98438H13.4688C13.7449 2.98438 13.9688 3.20823 13.9688 3.48438V13.9844C13.9688 14.2605 13.7449 14.4844 13.4688 14.4844H2.53125C2.25511 14.4844 2.03125 14.2605 2.03125 13.9844V3.48438C2.03125 3.20823 2.25511 2.98438 2.53125 2.98438H5.5Z" fill="currentColor"/>
<path fill-rule="evenodd" clip-rule="evenodd" d="M10.5 1.48438H5.5C5.22386 1.48438 5 1.70823 5 1.98438V4.48438C5 4.76052 5.22386 4.98438 5.5 4.98438H10.5C10.7761 4.98438 11 4.76052 11 4.48438V1.98438C11 1.70823 10.7761 1.48438 10.5 1.48438ZM6 3.98438H10V2.48438H6V3.98438Z" fill="currentColor"/>
<path fill-rule="evenodd" clip-rule="evenodd" d="M10.875 8.89307H5.125C5.05597 8.89307 5 8.8371 5 8.76807V8.01807C5 7.94904 5.05597 7.89307 5.125 7.89307H10.875C10.944 7.89307 11 7.94904 11 8.01807V8.76807C11 8.8371 10.944 8.89307 10.875 8.89307Z" fill="currentColor"/>
<path fill-rule="evenodd" clip-rule="evenodd" d="M10.875 11.7344H5.125C5.05597 11.7344 5 11.6784 5 11.6094V10.8594C5 10.7903 5.05597 10.7344 5.125 10.7344H10.875C10.944 10.7344 11 10.7903 11 10.8594V11.6094C11 11.6784 10.944 11.7344 10.875 11.7344Z" fill="currentColor"/>
</g></svg>
