<svg width="16" height="16" viewBox="0 0 16 16" fill="none" xmlns="http://www.w3.org/2000/svg">
<path d="M14.5 2C14.8 2 15 2.2 15 2.5V6.5C15 6.8 14.8 7 14.5 7H11.5C11.2 7 11 6.8 11 6.5V4.9502H9.5V11.0996H11V9.5C11 9.2 11.2 9 11.5 9H14.5C14.8 9 15 9.2 15 9.5V13.5C15 13.8 14.8 14 14.5 14H11.5C11.2 14 11 13.8 11 13.5V12.0996H8.5V8.5H7V11C7 11.3 6.8 11.5 6.5 11.5H1.5C1.2 11.5 1 11.3 1 11V5C1 4.7 1.2 4.5 1.5 4.5H6.5C6.8 4.5 7 4.7 7 5V7.5H8.5V3.9502H11V2.5C11 2.2 11.2 2 11.5 2H14.5ZM12 13H14V10H12V13ZM2 10.5H6V5.5H2V10.5ZM12 6H14V3H12V6Z" fill="#5C6B8A"/>
</svg>
