<svg width="16" height="16" viewBox="0 0 16 16" fill="none" xmlns="http://www.w3.org/2000/svg">
<path d="M8 2.5C10.5 2.5 12.5 4.5 12.5 7V11H3.5V7C3.5 4.5 5.5 2.5 8 2.5ZM8 1.5C4.95 1.5 2.5 3.95 2.5 7V11H1.5V12H14.5V11H13.5V7C13.5 3.95 11.05 1.5 8 1.5Z" fill="#5C6B8A"/>
<path d="M9.45 12.1V12.55C9.45 13.35 8.8 14 8 14C7.2 14 6.55 13.35 6.55 12.55V12.1H9.45ZM10.5 11H5.5V12.5C5.5 13.9 6.6 15 8 15C9.4 15 10.5 13.9 10.5 12.5V11Z" fill="#5C6B8A"/>
<path d="M8.5 0.5H7.5V2H8.5V0.5Z" fill="#5C6B8A"/>
</svg>
