<?xml version="1.0" standalone="no"?>
<svg xmlns="http://www.w3.org/2000/svg" class="icon" viewBox="0 0 1024 1024">
  <path d="M980.989 212h-298.45c-6.055 0-11.01 5.32-11.01 11.823v100.492c0 6.503 4.955 11.823 11.01 11.823h178.43v112.315h-98.273c-6.056 0-11.011 5.32-11.011 11.823v100.492c0 6.503 4.955 11.823 11.011 11.823h98.273v115.271H682.54c-6.055 0-11.01 5.32-11.01 11.823v100.492c0 6.503 4.955 11.823 11.01 11.823h298.45c6.056 0 11.011-5.32 11.011-11.823V223.823c0-6.503-4.955-11.823-11.011-11.823zM43.029 342.05h63.038v458.127c0 6.503 4.963 11.823 11.03 11.823h110.29c6.067 0 11.03-5.32 11.03-11.823V235.645c0-13.005-9.927-23.645-22.059-23.645H43.03C36.963 212 32 217.32 32 223.823v106.404c0 6.502 4.963 11.822 11.03 11.822zM295.313 212c-6.056 0-11.01 5.32-11.01 11.823v106.404c0 6.502 4.954 11.822 11.01 11.822h188.288L290.083 675.153c-3.579 4.433-5.78 10.049-5.78 15.96v109.064c0 6.503 4.954 11.823 11.01 11.823h319.32c6.055 0 11.01-5.32 11.01-11.823V693.773c0-6.502-4.955-11.822-11.01-11.822H426.343l193.518-333.104c3.579-4.433 5.781-10.049 5.781-15.96V223.823c0-6.503-4.955-11.823-11.01-11.823h-319.32z" p-id="42815"></path>
</svg>
