<svg width="16" height="16" viewBox="0 0 16 16" fill="none" xmlns="http://www.w3.org/2000/svg">
<path fill-rule="evenodd" clip-rule="evenodd" d="M7.99999 2.02005C4.69735 2.02005 2.02002 4.69738 2.02002 8.00002C2.02002 11.3027 4.69735 13.98 7.99999 13.98C11.3026 13.98 13.98 11.3027 13.98 8.00002C13.98 4.69738 11.3026 2.02005 7.99999 2.02005ZM7.99999 3.02005C8.67272 3.02005 9.3248 3.15158 9.93811 3.41099C10.531 3.66177 11.0637 4.02097 11.5214 4.47864C11.979 4.93632 12.3382 5.469 12.589 6.06189C12.8484 6.67521 12.98 7.32728 12.98 8.00002C12.98 8.67274 12.8484 9.32482 12.589 9.93813C12.3382 10.531 11.979 11.0637 11.5214 11.5214C11.0637 11.9791 10.531 12.3383 9.93811 12.589C9.3248 12.8484 8.67272 12.98 7.99999 12.98C7.32725 12.98 6.67518 12.8484 6.06186 12.589C5.46897 12.3383 4.93629 11.9791 4.47861 11.5214C4.02094 11.0637 3.66174 10.531 3.41097 9.93813C3.15155 9.32482 3.02002 8.67274 3.02002 8.00002C3.02002 7.32728 3.15155 6.67521 3.41097 6.06189C3.66174 5.469 4.02094 4.93632 4.47861 4.47864C4.93629 4.02097 5.46897 3.66177 6.06186 3.41099C6.67518 3.15158 7.32725 3.02005 7.99999 3.02005Z" fill="#5C6B8A"/>
<path fill-rule="evenodd" clip-rule="evenodd" d="M8.375 1H7.625C7.55597 1 7.5 1.05597 7.5 1.125V3.875C7.5 3.94403 7.55597 4 7.625 4H8.375C8.44403 4 8.5 3.94403 8.5 3.875V1.125C8.5 1.05597 8.44403 1 8.375 1Z" fill="#5C6B8A"/>
<path fill-rule="evenodd" clip-rule="evenodd" d="M8.375 12H7.625C7.55597 12 7.5 12.056 7.5 12.125V14.875C7.5 14.944 7.55597 15 7.625 15H8.375C8.44403 15 8.5 14.944 8.5 14.875V12.125C8.5 12.056 8.44403 12 8.375 12Z" fill="#5C6B8A"/>
<path fill-rule="evenodd" clip-rule="evenodd" d="M14.875 7.5H12.125C12.056 7.5 12 7.55597 12 7.625V8.375C12 8.44403 12.056 8.5 12.125 8.5H14.875C14.944 8.5 15 8.44403 15 8.375V7.625C15 7.55597 14.944 7.5 14.875 7.5Z" fill="#5C6B8A"/>
<path fill-rule="evenodd" clip-rule="evenodd" d="M3.875 7.5H1.125C1.05597 7.5 1 7.55597 1 7.625V8.375C1 8.44403 1.05597 8.5 1.125 8.5H3.875C3.94403 8.5 4 8.44403 4 8.375V7.625C4 7.55597 3.94403 7.5 3.875 7.5Z" fill="#5C6B8A"/>
</svg>
