<?xml version="1.0" standalone="no"?>
<svg xmlns="http://www.w3.org/2000/svg" class="icon" viewBox="0 0 1024 1024">
  <g fill="currentColor" fill-rule="evenodd"><path d="M512 66.932a31.977 31.977 0 0 0-15.979 4.275L318.982 173.24a32.002 32.002 0 0 0-16.02 27.725v204.073a32.002 32.002 0 0 0 16.02 27.725l177.02 102.022A32.009 32.009 0 0 0 512 539.074c5.541 0 11.051-1.44 15.998-4.29l176.99-102.022a32.003 32.003 0 0 0 16.02-27.724V200.965a32.001 32.001 0 0 0-16.02-27.724L527.981 71.208a31.988 31.988 0 0 0-15.98-4.276m0 68.935 145.007 83.588v167.093L512 470.136l-145.038-83.59v-167.09zM751.782 484.926a31.978 31.978 0 0 0-15.98 4.276L558.793 591.235a32 32 0 0 0-16.019 27.724v204.073a32 32 0 0 0 16.02 27.724l176.99 102.023a32.009 32.009 0 0 0 15.997 4.29c5.542 0 11.051-1.44 15.998-4.29L944.8 850.757a32 32 0 0 0 16.02-27.725V618.96a32 32 0 0 0-16.02-27.725L767.76 489.201a31.98 31.98 0 0 0-15.979-4.275m.001 68.935 145.037 83.59v167.09l-145.037 83.59-145.008-83.589V637.45zM272.187 484.926a31.988 31.988 0 0 0-15.981 4.276L79.199 591.235a32 32 0 0 0-16.02 27.724v204.073a32 32 0 0 0 16.02 27.724l176.99 102.023a32.009 32.009 0 0 0 15.998 4.29c5.54 0 11.05-1.44 15.998-4.29l176.99-102.023a32.003 32.003 0 0 0 16.019-27.724V618.96a32.001 32.001 0 0 0-16.02-27.724L288.169 489.202a31.988 31.988 0 0 0-15.981-4.276m0 68.936 145.007 83.587v167.093L272.187 888.13 127.18 804.542V637.448z" /></g>
</svg>
