<?xml version="1.0" standalone="no"?>
<svg xmlns="http://www.w3.org/2000/svg" class="icon" viewBox="0 0 1024 1024">
  <g>
    <path d="m645.945 600.689 206.182 206.184-45.254 45.254L600.69 645.944a161.308 161.308 0 0 0 45.255-45.255m-266.905-.022a161.308 161.308 0 0 0 45.248 45.263L218.07 852.078l-45.247-45.262Zm427.89-427.745 45.247 45.263L645.96 424.333a161.308 161.308 0 0 0-45.248-45.263zm-588.803-.05 206.184 206.183a161.308 161.308 0 0 0-45.255 45.255L172.873 218.127z" />
    <g><path d="M801 1c-53.02 0-96 42.98-96 96s42.98 96 96 96c53.019 0 96-42.98 96-96S854.019 1 801 1m0 64c17.645 0 32 14.355 32 32s-14.355 32-32 32-32-14.355-32-32 14.355-32 32-32M96 0C42.98 0 0 42.98 0 96s42.98 96 96 96 96-42.98 96-96S149.02 0 96 0m0 64c17.645 0 32 14.355 32 32s-14.355 32-32 32-32-14.355-32-32 14.355-32 32-32M97 705c-53.02 0-96 42.98-96 96 0 53.019 42.98 96 96 96s96-42.981 96-96c0-53.02-42.98-96-96-96m0 64c17.645 0 32 14.355 32 32s-14.355 32-32 32-32-14.355-32-32 14.355-32 32-32M801 705c-53.02 0-96 42.98-96 96 0 53.019 42.98 96 96 96 53.019 0 96-42.981 96-96 0-53.02-42.981-96-96-96m0 64c17.645 0 32 14.355 32 32s-14.355 32-32 32-32-14.355-32-32 14.355-32 32-32M449 257c-106.039 0-192 85.961-192 192s85.961 192 192 192 192-85.961 192-192-85.961-192-192-192m0 64c34.19 0 66.333 13.314 90.51 37.49C563.686 382.667 577 414.81 577 449c0 34.19-13.314 66.333-37.49 90.51C515.333 563.686 483.19 577 449 577c-34.19 0-66.333-13.314-90.51-37.49C334.314 515.333 321 483.19 321 449c0-34.19 13.314-66.333 37.49-90.51C382.667 334.314 414.81 321 449 321" transform="translate(63.5 63.5)" /></g>
  </g>
</svg>
