<?xml version="1.0" standalone="no"?>
<svg xmlns="http://www.w3.org/2000/svg" class="icon" viewBox="0 0 1024 1024">
  <g fill="currentColor" fill-rule="evenodd">
    <path d="M512 62.347a31.983 31.983 0 0 0-15.982 4.277L133.749 275.47a32 32 0 0 0-16.018 27.722v417.613c0 11.44 6.107 22.01 16.018 27.723l362.269 208.847A31.983 31.983 0 0 0 512 961.655a31.983 31.983 0 0 0 15.982-4.278L890.251 748.53a32.002 32.002 0 0 0 16.018-27.724V303.193a32 32 0 0 0-16.018-27.722L527.982 66.624A31.983 31.983 0 0 0 512 62.347m0 68.937 330.269 190.399v380.635L512 892.717l-330.269-190.4V321.684z" />
    <path d="M511.998 288.38c-2.758 0-5.517.712-7.99 2.137L321.954 395.446a16 16 0 0 0-8.01 13.862v205.384a16.001 16.001 0 0 0 8.01 13.863l182.056 104.928a15.987 15.987 0 0 0 7.989 2.137c2.758 0 5.517-.712 7.99-2.137l182.055-104.928a16.002 16.002 0 0 0 8.01-13.863V409.308a16 16 0 0 0-8.01-13.862l-182.055-104.93a15.994 15.994 0 0 0-7.99-2.136m0 71.402 134.056 77.263v149.91l-134.056 77.264-134.055-77.264v-149.91z" />
    <path d="M158.199373 271.098885 361.763373 390.336885 329.416027 445.560515 125.852027 326.322515z" />
    <path d="M865.801423 271.098712 898.148177 326.322688 694.579177 445.560688 662.232423 390.336712z" />
  </g>
</svg>
