<svg width="16" height="16" viewBox="0 0 16 16" fill="none" xmlns="http://www.w3.org/2000/svg">
<path d="M14.125 1.375C14.4011 1.375 14.625 1.59886 14.625 1.875V14.125C14.625 14.4011 14.4011 14.625 14.125 14.625H1.875C1.59886 14.625 1.375 14.4011 1.375 14.125V1.875C1.375 1.59886 1.59886 1.375 1.875 1.375H14.125ZM2.5 13.5H13.5V2.5H2.5V13.5ZM5.625 5.1875C5.69404 5.1875 5.75 5.25046 5.75 5.32812V10.6719C5.75 10.7495 5.69404 10.8125 5.625 10.8125H4.6875C4.61846 10.8125 4.5625 10.7495 4.5625 10.6719V5.32812C4.5625 5.25046 4.61846 5.1875 4.6875 5.1875H5.625ZM11.3125 5.1875C11.3815 5.1875 11.4375 5.25046 11.4375 5.32812V10.6719C11.4375 10.7495 11.3815 10.8125 11.3125 10.8125H10.375C10.306 10.8125 10.25 10.7495 10.25 10.6719V5.32812C10.25 5.25046 10.306 5.1875 10.375 5.1875H11.3125ZM8 8.625C8.3797 8.625 8.6875 8.93319 8.6875 9.33008C8.68728 9.69242 8.37956 10 8 10C7.62044 10 7.31272 9.69242 7.3125 9.33008C7.3125 8.93319 7.6203 8.625 8 8.625ZM8 6C8.3797 6 8.6875 6.30819 8.6875 6.70508C8.68728 7.06742 8.37956 7.375 8 7.375C7.62044 7.375 7.31272 7.06742 7.3125 6.70508C7.3125 6.30819 7.6203 6 8 6Z" fill="#5C6B8A"/>
</svg>
