<svg viewBox="0 0 1024 1024" xmlns="http://www.w3.org/2000/svg"><g transform="scale(64)">
<mask id="mask0_2088_1446" maskUnits="userSpaceOnUse" x="1" y="4" width="10" height="11">
<path fill-rule="evenodd" clip-rule="evenodd" d="M1 4.23248H10.6977V14.9642H1V4.23248Z" fill="currentColor"/>
</mask>
<g mask="url(#mask0_2088_1446)">
<path fill-rule="evenodd" clip-rule="evenodd" d="M5.84886 4.23248C5.81505 4.23248 5.78125 4.23695 5.74833 4.24589L1.28323 5.45786C1.11606 5.50323 1 5.655 1 5.82823V9.59072C1 12.6347 2.95358 14.0022 5.84956 14.9642C8.74477 14.0022 10.6977 12.6353 10.6977 9.59206V5.82823C10.6977 5.655 10.5817 5.50323 10.4145 5.45786L5.94939 4.24589C5.91648 4.23695 5.88267 4.23248 5.84886 4.23248ZM5.84886 5.25478L9.69773 6.29948V9.59206C9.69773 10.7679 9.36655 11.6437 8.6555 12.3482C8.05058 12.9476 7.15403 13.4466 5.84952 13.9072C4.54469 13.4466 3.64781 12.9475 3.04264 12.3479C2.3313 11.643 2 10.7669 2 9.59072V6.29948L5.84886 5.25478Z" fill="currentColor"/>
</g>
<mask id="mask1_2088_1446" maskUnits="userSpaceOnUse" x="6" y="1" width="9" height="10">
<path fill-rule="evenodd" clip-rule="evenodd" d="M6.53662 1.09833H15V10.1295H6.53662V1.09833Z" fill="currentColor"/>
</mask>
<g mask="url(#mask1_2088_1446)">
<path fill-rule="evenodd" clip-rule="evenodd" d="M14.7528 2.16773L10.856 1.11003C10.8273 1.10223 10.7978 1.09833 10.7683 1.09833C10.7388 1.09833 10.7093 1.10223 10.6806 1.11003L6.78381 2.16773C6.6379 2.20734 6.53662 2.33978 6.53662 2.49097V3.36909L7.53662 3.64053V2.99958L10.7683 2.12239L14 2.99958V5.7757C14 6.76566 13.7229 7.50125 13.1281 8.09064C12.7786 8.43692 12.3122 8.74461 11.6977 9.03034V9.59206C11.6977 9.77453 11.691 9.95362 11.6784 10.1295C13.696 9.30247 15 8.09873 15 5.7757V2.49097C15 2.33978 14.8987 2.20734 14.7528 2.16773Z" fill="currentColor"/>
</g>
<path fill-rule="evenodd" clip-rule="evenodd" d="M5.06283 11.0001L3.72155 9.65886C3.67273 9.61005 3.67273 9.53091 3.72155 9.48209L4.25187 8.95175C4.3007 8.90292 4.37984 8.90292 4.42866 8.95175L5.41637 9.93948L7.26912 8.08672C7.31794 8.03791 7.39709 8.03791 7.44591 8.08672L7.97623 8.61706C8.02505 8.66588 8.02505 8.74503 7.97623 8.79384L5.76994 11.0001C5.57467 11.1954 5.25809 11.1954 5.06283 11.0001Z" fill="currentColor"/>
</g></svg>
