<svg viewBox="0 0 1024 1024" xmlns="http://www.w3.org/2000/svg"><g transform="scale(64)">
<path d="M4.87598 7.94147V8.05865C4.87622 8.12223 5.01305 8.35476 5.61914 8.58698C5.95379 8.71518 6.36208 8.81233 6.80762 8.87506H5.34277V10.3243C5.43856 10.3999 5.665 10.5328 6.08496 10.6544C6.61567 10.808 7.28506 10.8926 7.96973 10.8926C8.65455 10.8926 9.32464 10.808 9.85547 10.6544C10.2754 10.5328 10.5019 10.3998 10.5977 10.3243V8.87506H9.13281C9.57834 8.81233 9.98665 8.71518 10.3213 8.58698C10.9274 8.35477 11.0642 8.12223 11.0645 8.05865V7.94147H11.5312V10.462C11.5307 11.2152 9.93605 11.8262 7.96973 11.8262C6.00362 11.8261 4.40978 11.2152 4.40918 10.462V7.94147H4.87598Z" fill="currentColor"/>
<path d="M4.87598 5.53845L4.88281 5.5697C4.91712 5.65985 5.08798 5.86426 5.61914 6.06775C6.23063 6.30198 7.08743 6.43587 7.96973 6.43591C8.8522 6.43591 9.70969 6.30203 10.3213 6.06775C10.928 5.83531 11.0645 5.60178 11.0645 5.53845H11.5312V8.05896C11.5306 8.8122 9.93604 9.42322 7.96973 9.42322C6.00363 9.42312 4.40978 8.81214 4.40918 8.05896V5.53845H4.87598ZM5.34277 6.47205V7.92126C5.43856 7.99684 5.665 8.12979 6.08496 8.25134C6.61567 8.40496 7.28506 8.48959 7.96973 8.48962C8.65455 8.48962 9.32464 8.405 9.85547 8.25134C10.2754 8.12979 10.5019 7.99683 10.5977 7.92126V6.47205H5.34277Z" fill="currentColor"/>
<path fill-rule="evenodd" clip-rule="evenodd" d="M7.9702 4.17419C6.00351 4.17419 4.40918 4.78498 4.40918 5.53841C4.40918 6.29185 6.00351 6.90263 7.9702 6.90263C9.93688 6.90263 11.5312 6.29185 11.5312 5.53841C11.5312 4.78498 9.93688 4.17419 7.9702 4.17419ZM7.9702 5.10752C8.65502 5.10752 9.32451 5.19215 9.85534 5.34579C10.0781 5.41029 10.2466 5.47788 10.3699 5.53841C10.2466 5.59894 10.0781 5.66655 9.85534 5.73104C9.32451 5.88469 8.65502 5.9693 7.9702 5.9693C7.28537 5.9693 6.61588 5.88469 6.08505 5.73104C5.86224 5.66655 5.69382 5.59894 5.57051 5.53841C5.69382 5.47788 5.86224 5.41029 6.08505 5.34579C6.61588 5.19215 7.28537 5.10752 7.9702 5.10752Z" fill="currentColor"/>
<path fill-rule="evenodd" clip-rule="evenodd" d="M8.0065 0.999942C11.8723 1.00344 14.9997 4.13406 14.9997 7.99994C14.9997 9.14635 14.7226 10.2275 14.234 11.1826C14.0644 10.9088 13.7852 10.7108 13.4577 10.6494C13.5038 10.5544 13.5492 10.4589 13.5905 10.3613C13.9066 9.61394 14.067 8.81935 14.067 7.99994C14.067 7.18056 13.9066 6.38594 13.5905 5.63861C13.285 4.91637 12.8471 4.26731 12.2897 3.7099C11.7323 3.15253 11.0832 2.71558 10.361 2.4101C9.61366 2.094 8.81907 1.93354 7.99966 1.93354C7.249 1.93358 6.51949 2.06829 5.82779 2.33393C5.7667 2.35738 5.69738 2.32625 5.67545 2.26459C5.5993 2.05066 5.496 1.8495 5.3688 1.66596C5.32598 1.60416 5.35067 1.51789 5.42056 1.49018C6.22054 1.17291 7.09341 0.99916 8.0065 0.999942Z" fill="currentColor"/>
<path d="M2.35938 3.85675C2.56197 4.10511 2.86443 4.26761 3.20508 4.28448C2.88281 4.69917 2.61611 5.15203 2.41016 5.63898C2.09406 6.38629 1.93359 7.1809 1.93359 8.00031C1.93364 8.81951 2.09417 9.6135 2.41016 10.3607C2.7156 11.0828 3.15266 11.732 3.70996 12.2894C4.26736 12.8468 4.91646 13.2847 5.63867 13.5901C6.386 13.9062 7.18059 14.0667 8 14.0667C8.81941 14.0667 9.614 13.9062 10.3613 13.5901C10.5877 13.4944 10.8072 13.3854 11.0186 13.264C11.07 13.2347 11.1351 13.2483 11.1699 13.2962C11.3054 13.4827 11.4658 13.6504 11.6455 13.7943C11.7082 13.8447 11.7026 13.9428 11.6338 13.9847C10.5684 14.6329 9.31584 15.0046 7.97656 15.0003C4.11581 14.9877 1.00017 11.8611 1 8.00031C1.00001 6.4494 1.5057 5.01694 2.35938 3.85675Z" fill="currentColor"/>
<path fill-rule="evenodd" clip-rule="evenodd" d="M3.26346 1.48737C2.36139 1.48737 1.63013 2.21863 1.63013 3.12069C1.63013 4.02277 2.36139 4.75402 3.26346 4.75402C4.16552 4.75402 4.89678 4.02277 4.89678 3.12069C4.89678 2.21863 4.16552 1.48737 3.26346 1.48737ZM3.26346 2.42069C3.64944 2.42069 3.96346 2.73473 3.96346 3.12069C3.96346 3.50668 3.64944 3.82069 3.26346 3.82069C2.87747 3.82069 2.56346 3.50668 2.56346 3.12069C2.56346 2.73473 2.87747 2.42069 3.26346 2.42069Z" fill="currentColor"/>
<path fill-rule="evenodd" clip-rule="evenodd" d="M13.2423 10.1617C12.3403 10.1617 11.609 10.8929 11.609 11.795C11.609 12.6971 12.3403 13.4283 13.2423 13.4283C14.1444 13.4283 14.8757 12.6971 14.8757 11.795C14.8757 10.8929 14.1444 10.1617 13.2423 10.1617ZM13.2423 11.095C13.6283 11.095 13.9423 11.409 13.9423 11.795C13.9423 12.181 13.6283 12.495 13.2423 12.495C12.8564 12.495 12.5423 12.181 12.5423 11.795C12.5423 11.409 12.8564 11.095 13.2423 11.095Z" fill="currentColor"/>
</g></svg>
