<svg viewBox="0 0 1024 1024" xmlns="http://www.w3.org/2000/svg"><g transform="scale(64)">
<path d="M10 1.60001C10.25 1.60001 10.5 1.80001 10.5 2.10001V5.37833L13.2002 6.39981C13.3502 6.44988 13.5 6.65006 13.5 6.85001V13.0004H14.5V14.0004H1.5V13.0004H2.5V3.85001C2.5 3.60001 2.70039 3.40001 2.90039 3.35001L9.90039 1.60001H10ZM3.5 4.2504V12.9496H9.5V2.7504L3.5 4.2504ZM10.5 12.9496H12.5V7.14981L10.5 6.39981V12.9496ZM8.5 10.2504H4.5V9.2504H8.5V10.2504ZM8.5 6.2504V7.2504H4.5V6.2504H8.5Z" fill="currentColor"/>
</g></svg>
