<?xml version="1.0" standalone="no"?>
<svg xmlns="http://www.w3.org/2000/svg" class="icon" viewBox="0 0 1024 1024">
  <g fill="currentColor" fill-rule="evenodd"><path d="M288 512H96c-17.673 0-32 14.327-32 32v320c0 17.673 14.327 32 32 32h192c17.673 0 32-14.327 32-32V544c0-17.673-14.327-32-32-32M128 832h128V576H128zM608 320H416c-17.673 0-32 14.327-32 32v512c0 17.673 14.327 32 32 32h192c17.673 0 32-14.327 32-32V352c0-17.673-14.327-32-32-32M448 832h128V384H448zM928 128H736c-17.673 0-32 14.327-32 32v704c0 17.673 14.327 32 32 32h192c17.673 0 32-14.327 32-32V160c0-17.673-14.327-32-32-32M768 832h128V192H768z" /></g>
</svg>
