<svg viewBox="0 0 1024 1024" xmlns="http://www.w3.org/2000/svg"><g transform="scale(64)">
<path d="M8.5 7H12.5V9H14C14.2761 9 14.5 9.22386 14.5 9.5V13.5C14.5 13.7761 14.2761 14 14 14H10C9.72386 14 9.5 13.7761 9.5 13.5V9.5C9.5 9.22386 9.72386 9 10 9H11.5V8H4.5V9H6C6.27614 9 6.5 9.22386 6.5 9.5V13.5C6.5 13.7761 6.27614 14 6 14H2C1.72386 14 1.5 13.7761 1.5 13.5V9.5C1.5 9.22386 1.72386 9 2 9H3.5V7H7.5V6H3.5C3.22386 6 3 5.77614 3 5.5V2.5C3 2.22386 3.22386 2 3.5 2H12.5C12.7761 2 13 2.22386 13 2.5V5.5C13 5.77614 12.7761 6 12.5 6H8.5V7Z" fill="currentColor"/>
</g></svg>
