<svg width="16" height="16" viewBox="0 0 16 16" fill="none" xmlns="http://www.w3.org/2000/svg">
<path fill-rule="evenodd" clip-rule="evenodd" d="M1 8C1 4.13438 4.13438 1 8 1C11.8656 1 15 4.13438 15 8C15 11.8656 11.8656 15 8 15C4.13438 15 1 11.8656 1 8ZM2 8C2 11.3129 4.6871 14 8 14C11.3129 14 14 11.3129 14 8C14 4.6871 11.3129 2 8 2C4.6871 2 2 4.6871 2 8Z" fill="#5C6B8A"/>
<rect x="5.5" y="5.5" width="1" height="5" fill="#5C6B8A"/>
<rect x="9.5" y="5.5" width="1" height="5" fill="#5C6B8A"/>
</svg>
