<?xml version="1.0" standalone="no"?>
<svg xmlns="http://www.w3.org/2000/svg" class="icon" viewBox="0 0 1024 1024">
  <g fill="currentColor" fill-rule="evenodd">
    <path d="M864 159c17.673 0 32 14.327 32 32v704c0 17.673-14.327 32-32 32H160c-17.673 0-32-14.327-32-32V191c0-17.673 14.327-32 32-32h192v64H192v640h640V223H672v-64Z" />
    <path d="m304.736 711.009-33.73-34.153a8 8 0 0 1 .072-11.313l173.575-171.42c12.23-12.076 31.818-12.337 44.362-.585l71.282 66.772L707.5 411.592a8 8 0 0 1 11.313-.058l34.115 33.768a8 8 0 0 1 .058 11.313L583.883 627.459c-12.191 12.316-31.972 12.689-44.62.843l-71.538-67.014L316.049 711.08a8 8 0 0 1-11.313-.071M672 95H352c-17.673 0-32 14.327-32 32v160c0 17.673 14.327 32 32 32h320c17.673 0 32-14.327 32-32V127c0-17.673-14.327-32-32-32M384 255h256v-96H384z" />
  </g>
</svg>
