<svg width="16" height="16" viewBox="0 0 16 16" fill="none" xmlns="http://www.w3.org/2000/svg">
<path fill-rule="evenodd" clip-rule="evenodd" d="M14 1.5H2C1.72386 1.5 1.5 1.72386 1.5 2V14C1.5 14.2761 1.72386 14.5 2 14.5H14C14.2761 14.5 14.5 14.2761 14.5 14V2C14.5 1.72386 14.2761 1.5 14 1.5ZM2.5 13.5H13.5V2.5H2.5V13.5Z" fill="#5C6B8A"/>
<path fill-rule="evenodd" clip-rule="evenodd" d="M7.99893 3.80054C6.71683 3.80054 5.67749 4.83988 5.67749 6.12196C5.67749 7.40405 6.71683 8.4434 7.99893 8.4434C9.28102 8.4434 10.3204 7.40405 10.3204 6.12196C10.3204 4.83988 9.28102 3.80054 7.99893 3.80054ZM7.99893 4.80054C8.72757 4.80054 9.32037 5.39332 9.32037 6.12196C9.32037 6.8506 8.72757 7.4434 7.99893 7.4434C7.27029 7.4434 6.67749 6.8506 6.67749 6.12196C6.67749 5.39332 7.27029 4.80054 7.99893 4.80054Z" fill="#5C6B8A"/>
<path fill-rule="evenodd" clip-rule="evenodd" d="M12.5829 12.6531H11.8319C11.7645 12.6531 11.7099 12.5992 11.7077 12.5318C11.6627 11.122 10.8345 9.84794 9.43088 9.21145C9.42788 9.21009 9.42482 9.20883 9.42174 9.20765C7.9379 8.64972 6.40748 8.99922 5.37677 10.0299C4.70493 10.7018 4.32251 11.586 4.29218 12.5311C4.29001 12.599 4.23509 12.6531 4.16723 12.6531H3.41695C3.34687 12.6531 3.29006 12.5955 3.29191 12.5254C3.33952 10.7247 4.39309 9.09497 6.18451 8.28315C6.18745 8.28181 6.19045 8.28058 6.19348 8.27944C8.07774 7.57033 10.0213 8.01395 11.3302 9.32283C12.1896 10.1822 12.676 11.3153 12.708 12.5255C12.7098 12.5955 12.653 12.6531 12.5829 12.6531Z" fill="#5C6B8A"/>
</svg>
