<svg width="16" height="16" viewBox="0 0 16 16" fill="none" xmlns="http://www.w3.org/2000/svg">
<path d="M13.75 1.75C14.0266 1.75 14.25 1.97344 14.25 2.25V13.75C14.25 14.0266 14.0266 14.25 13.75 14.25H2.25C1.97344 14.25 1.75 14.0266 1.75 13.75V2.25C1.75 1.97344 1.97344 1.75 2.25 1.75H13.75ZM2.875 13.125H13.125V2.875H2.875V13.125ZM8.375 5C8.44375 5 8.5 5.05625 8.5 5.125V7.5H10.875C10.9438 7.5 11 7.55625 11 7.625V8.375C11 8.44375 10.9438 8.5 10.875 8.5H8.5V10.875C8.5 10.9438 8.44375 11 8.375 11H7.625C7.55625 11 7.5 10.9438 7.5 10.875V8.5H5.125C5.05625 8.5 5 8.44375 5 8.375V7.625C5 7.55625 5.05625 7.5 5.125 7.5H7.5V5.125C7.5 5.05625 7.55625 5 7.625 5H8.375Z" fill="#5C6B8A"/>
<mask id="mask0_2088_3356" style="mask-type:luminance" maskUnits="userSpaceOnUse" x="1" y="1" width="14" height="14">
<path d="M13.75 1.75C14.0266 1.75 14.25 1.97344 14.25 2.25V13.75C14.25 14.0266 14.0266 14.25 13.75 14.25H2.25C1.97344 14.25 1.75 14.0266 1.75 13.75V2.25C1.75 1.97344 1.97344 1.75 2.25 1.75H13.75ZM2.875 13.125H13.125V2.875H2.875V13.125ZM8.375 5C8.44375 5 8.5 5.05625 8.5 5.125V7.5H10.875C10.9438 7.5 11 7.55625 11 7.625V8.375C11 8.44375 10.9438 8.5 10.875 8.5H8.5V10.875C8.5 10.9438 8.44375 11 8.375 11H7.625C7.55625 11 7.5 10.9438 7.5 10.875V8.5H5.125C5.05625 8.5 5 8.44375 5 8.375V7.625C5 7.55625 5.05625 7.5 5.125 7.5H7.5V5.125C7.5 5.05625 7.55625 5 7.625 5H8.375Z" fill="white"/>
</mask>
<g mask="url(#mask0_2088_3356)">
</g>
</svg>
