<svg viewBox="0 0 1024 1024" xmlns="http://www.w3.org/2000/svg"><g transform="scale(64)">
<path fill-rule="evenodd" clip-rule="evenodd" d="M13.8605 7.36667C13.9372 7.36667 14 7.42667 14 7.5V8.5C14 8.57333 13.9372 8.63333 13.8605 8.63333H8.66279V13.8667C8.66279 13.9403 8.60032 14 8.52326 14H7.47674C7.39968 14 7.33721 13.9403 7.33721 13.8667V8.63333H2.13953C2.06279 8.63333 2 8.57333 2 8.5V7.5C2 7.42667 2.06279 7.36667 2.13953 7.36667H7.33721V2.13333C7.33721 2.0597 7.39968 2 7.47674 2H8.52326C8.60032 2 8.66279 2.0597 8.66279 2.13333V7.36667H13.8605Z" fill="currentColor"/>
</g></svg>
