<?xml version="1.0" standalone="no"?>
<svg xmlns="http://www.w3.org/2000/svg" class="icon" viewBox="0 0 1024 1024">
  <path d="M825.3184 524.4992c15.52106667-15.24266667 40.6784-15.24266667 56.19946667 0l56.17493333 55.16906667a38.53226667 38.53226667 0 0 1 0 55.1936L823.30666667 747.2l114.38613333 112.33813333a38.53226667 38.53226667 0 0 1 0 55.1936l-56.17493333 55.168c-15.52106667 15.2448-40.6784 15.2448-56.19946667 0L710.93333333 857.56373333 596.54826667 969.9008c-15.52106667 15.24266667-40.6784 15.24266667-56.19946667 0l-56.17493333-55.16906667a38.53226667 38.53226667 0 0 1 0-55.1936L598.56 747.2 484.17386667 634.86186667a38.53226667 38.53226667 0 0 1 0-55.1936l56.17493333-55.168c15.52106667-15.2448 40.6784-15.2448 56.19946667 0L710.93333333 636.83626667zM266.4064 64l-0.06506667 1.32906667h176.81173334c69.96266667 0 121.88373333 17.81333333 155.76213333 53.43786666 33.87733333 35.62453333 42.93866667 90.7808 27.1808 165.4688-17.648 81.56266667-50.896 139.21813333-99.744 172.96853334-48.848 33.74933333-111.87733333 50.624-189.088 50.624h-92.17386667l-19.95733333 415.59786666C224.15253333 943.9008 207.12426667 960 186.45333333 960h-73.06026666C92.00533333 960 74.66666667 942.80746667 74.66666667 921.6c0-0.60906667 0.01493333-1.21813333 0.04373333-1.82613333l39.33973333-819.2c0.768-15.97546667 11.3024-29.28746667 25.71413334-34.36586667l-0.09813334-0.87893333h2.93333334a39.0624 39.0624 0 0 1 10.13333333-1.32906667h113.67253333z m127.584 121.32906667H260.57813333l-9.7696 203.43786666h99.69066667c34.352 0 62.87253333-8.2816 85.56266667-24.84373333 22.6912-16.5632 37.81866667-42.8128 45.38133333-78.74986667 7.87946667-35.93813333 3.86133333-61.56266667-12.05333333-76.87466666-15.91466667-15.31306667-41.04853333-22.9696-75.39946667-22.9696z" p-id="42215"></path>
</svg>
