<svg viewBox="0 0 1024 1024" xmlns="http://www.w3.org/2000/svg"><g transform="scale(64)">
<path fill-rule="evenodd" clip-rule="evenodd" d="M13.5 2.01489H2.5C2.22386 2.01489 2 2.23875 2 2.51489V13.4851C2 13.7612 2.22386 13.9851 2.5 13.9851H13.5C13.7761 13.9851 14 13.7612 14 13.4851V2.51489C14 2.23875 13.7761 2.01489 13.5 2.01489ZM3 12.9851H13V3.01489H3V12.9851Z" fill="currentColor"/>
<path fill-rule="evenodd" clip-rule="evenodd" d="M10.875 5.49286H7.125C7.05597 5.49286 7 5.43689 7 5.36786V4.61786C7 4.54883 7.05597 4.49286 7.125 4.49286H10.875C10.944 4.49286 11 4.54883 11 4.61786V5.36786C11 5.43689 10.944 5.49286 10.875 5.49286Z" fill="currentColor"/>
<path fill-rule="evenodd" clip-rule="evenodd" d="M10.875 8.49286H7.125C7.05597 8.49286 7 8.43689 7 8.36786V7.61786C7 7.54883 7.05597 7.49286 7.125 7.49286H10.875C10.944 7.49286 11 7.54883 11 7.61786V8.36786C11 8.43689 10.944 8.49286 10.875 8.49286Z" fill="currentColor"/>
<path fill-rule="evenodd" clip-rule="evenodd" d="M10.875 11.5286H7.125C7.05597 11.5286 7 11.4726 7 11.4036V10.6536C7 10.5845 7.05597 10.5286 7.125 10.5286H10.875C10.944 10.5286 11 10.5845 11 10.6536V11.4036C11 11.4726 10.944 11.5286 10.875 11.5286Z" fill="currentColor"/>
<path fill-rule="evenodd" clip-rule="evenodd" d="M5.875 5.49286H5.125C5.05597 5.49286 5 5.43689 5 5.36786V4.61786C5 4.54883 5.05597 4.49286 5.125 4.49286H5.875C5.94403 4.49286 6 4.54883 6 4.61786V5.36786C6 5.43689 5.94403 5.49286 5.875 5.49286Z" fill="currentColor"/>
<path fill-rule="evenodd" clip-rule="evenodd" d="M5.875 8.49286H5.125C5.05597 8.49286 5 8.43689 5 8.36786V7.61786C5 7.54883 5.05597 7.49286 5.125 7.49286H5.875C5.94403 7.49286 6 7.54883 6 7.61786V8.36786C6 8.43689 5.94403 8.49286 5.875 8.49286Z" fill="currentColor"/>
<path fill-rule="evenodd" clip-rule="evenodd" d="M5.875 11.5286H5.125C5.05597 11.5286 5 11.4726 5 11.4036V10.6536C5 10.5845 5.05597 10.5286 5.125 10.5286H5.875C5.94403 10.5286 6 10.5845 6 10.6536V11.4036C6 11.4726 5.94403 11.5286 5.875 11.5286Z" fill="currentColor"/>
</g></svg>
