<svg width="16" height="16" viewBox="0 0 16 16" fill="none" xmlns="http://www.w3.org/2000/svg">
<path d="M8 1C11.8656 1 15 4.13438 15 8C15 11.8656 11.8656 15 8 15C4.13438 15 1 11.8656 1 8C1 4.13438 4.13438 1 8 1ZM8 2.1875C4.79063 2.1875 2.1875 4.79063 2.1875 8C2.1875 11.2094 4.79063 13.8125 8 13.8125C11.2094 13.8125 13.8125 11.2094 13.8125 8C13.8125 4.79063 11.2094 2.1875 8 2.1875ZM8 10.8125C8.34518 10.8125 8.625 11.0923 8.625 11.4375C8.625 11.7827 8.34518 12.0625 8 12.0625C7.65482 12.0625 7.375 11.7827 7.375 11.4375C7.375 11.0923 7.65482 10.8125 8 10.8125ZM8 4.3125C8.65625 4.3125 9.27539 4.5373 9.74414 4.94824C10.2316 5.37479 10.4996 5.94849 10.498 6.5625C10.498 7.46557 9.90322 8.27809 8.98145 8.63281C8.69238 8.74375 8.49805 9.0252 8.49805 9.33301V9.6875C8.49805 9.75625 8.4418 9.8125 8.37305 9.8125H7.62305C7.55447 9.81229 7.49805 9.75612 7.49805 9.6875V9.35156C7.49805 8.9907 7.60496 8.63473 7.80957 8.33789C8.01108 8.04735 8.29192 7.82482 8.62305 7.69824C9.15586 7.49355 9.5 7.04844 9.5 6.5625C9.5 5.87344 8.82656 5.3125 8 5.3125C7.17344 5.3125 6.5 5.87344 6.5 6.5625V6.68164C6.49979 6.75021 6.44362 6.80664 6.375 6.80664H5.625C5.55638 6.80664 5.50021 6.75021 5.5 6.68164V6.5625C5.5 5.94849 5.76844 5.37479 6.25586 4.94824C6.72461 4.53887 7.34375 4.3125 8 4.3125Z" fill="#5C6B8A"/>
</svg>
