<?xml version="1.0" standalone="no"?>
<svg xmlns="http://www.w3.org/2000/svg" class="icon" viewBox="0 0 1024 1024">
  <path d="M748.806 279.182H402.82c-138.77 0-251.264 112.495-251.264 251.264 0 138.77 112.495 251.264 251.264 251.264H556.64a3.988 3.988 0 0 1 3.988 3.988v79.766a3.988 3.988 0 0 1-3.988 3.989H402.82c-187.228 0-339.007-151.779-339.007-339.007S215.592 191.439 402.82 191.439h345.986V98.051c0-8.569 9.817-13.429 16.575-8.057l180.915 143.242c5.227 4.092 5.227 12.022 0 16.114L765.38 392.592c-6.63 5.372-16.575 0.512-16.575-8.057V279.182z" p-id="46718"></path>
</svg>
