<svg viewBox="0 0 1024 1024" xmlns="http://www.w3.org/2000/svg"><g transform="scale(64)">
<path fill-rule="evenodd" clip-rule="evenodd" d="M3.75 10.5C4.7 10.5 5.5 11.3 5.5 12.25C5.5 13.2 4.7 14 3.75 14C2.8 14 2 13.2 2 12.25C2 11.3 2.8 10.5 3.75 10.5ZM3.75 9.5C2.25 9.5 1 10.75 1 12.25C1 13.75 2.25 15 3.75 15C5.25 15 6.5 13.75 6.5 12.25C6.5 10.75 5.25 9.5 3.75 9.5Z" fill="currentColor"/>
<path fill-rule="evenodd" clip-rule="evenodd" d="M12.25 2C13.2 2 14 2.8 14 3.75C14 4.7 13.2 5.5 12.25 5.5C11.3 5.5 10.5 4.7 10.5 3.75C10.5 2.8 11.3 2 12.25 2ZM12.25 1C10.75 1 9.5 2.25 9.5 3.75C9.5 5.25 10.75 6.5 12.25 6.5C13.75 6.5 15 5.25 15 3.75C15 2.25 13.75 1 12.25 1Z" fill="currentColor"/>
<rect x="5.5" y="3" width="5" height="1" fill="currentColor"/>
<path fill-rule="evenodd" clip-rule="evenodd" d="M10.5 3H5.5V4H10.5V3Z" fill="currentColor"/>
<rect x="5.5" y="12" width="5" height="1" fill="currentColor"/>
<path fill-rule="evenodd" clip-rule="evenodd" d="M10.5 12H5.5V13H10.5V12Z" fill="currentColor"/>
<path fill-rule="evenodd" clip-rule="evenodd" d="M13 5.5H12V10.5H13V5.5Z" fill="currentColor"/>
<path fill-rule="evenodd" clip-rule="evenodd" d="M4 5.5H3V10.5H4V5.5Z" fill="currentColor"/>
<path fill-rule="evenodd" clip-rule="evenodd" d="M12.25 10.5C13.2 10.5 14 11.3 14 12.25C14 13.2 13.2 14 12.25 14C11.3 14 10.5 13.2 10.5 12.25C10.5 11.3 11.3 10.5 12.25 10.5ZM12.25 9.5C10.75 9.5 9.5 10.75 9.5 12.25C9.5 13.75 10.75 15 12.25 15C13.75 15 15 13.75 15 12.25C15 10.75 13.75 9.5 12.25 9.5Z" fill="currentColor"/>
<path fill-rule="evenodd" clip-rule="evenodd" d="M3.75 2C4.7 2 5.5 2.8 5.5 3.75C5.5 4.7 4.7 5.5 3.75 5.5C2.8 5.5 2 4.7 2 3.75C2 2.8 2.8 2 3.75 2ZM3.75 1C2.25 1 1 2.25 1 3.75C1 5.25 2.25 6.5 3.75 6.5C5.25 6.5 6.5 5.25 6.5 3.75C6.5 2.25 5.25 1 3.75 1Z" fill="currentColor"/>
</g></svg>
