<svg viewBox="0 0 1024 1024" xmlns="http://www.w3.org/2000/svg"><g transform="scale(64)">
<path d="M14.9229 1.57666C15.2414 1.57666 15.5 1.83519 15.5 2.15381V4.46143H14.9229V13.8462L14.9111 13.9624C14.865 14.1875 14.6879 14.3654 14.4629 14.4116L14.3467 14.4233H1.6543L1.53809 14.4116C1.31267 14.3656 1.13509 14.1877 1.08887 13.9624L1.07715 13.8462V4.46143H0.5V2.15381C0.5 1.87492 0.697909 1.64207 0.960938 1.58838L1.07715 1.57666H14.9229ZM2.07715 13.4233H13.9229V4.46143H2.07715V13.4233ZM11.5 8.8999C11.5 10.8329 9.933 12.3999 8 12.3999C6.87955 12.3999 5.88202 11.8729 5.24219 11.0552L4.97559 11.2642C4.93508 11.2965 4.87533 11.2673 4.875 11.2153L4.88086 9.80127C4.8812 9.76171 4.91914 9.73142 4.95801 9.74072L6.33105 10.0767C6.38124 10.0894 6.39513 10.1549 6.35449 10.187L6.03027 10.439C6.48867 11.0247 7.20028 11.3999 8 11.3999C9.38071 11.3999 10.5 10.2806 10.5 8.8999H11.5ZM8 5.3999C9.10549 5.3999 10.0918 5.9133 10.7324 6.7124L10.3418 7.0249L9.95215 7.3374C9.49317 6.76489 8.78924 6.3999 8 6.3999C6.61932 6.3999 5.50005 7.51924 5.5 8.8999H4.5C4.50005 6.96695 6.06704 5.3999 8 5.3999ZM11.0244 6.53564C11.065 6.50316 11.1249 6.53327 11.125 6.58545L11.1191 7.99854C11.119 8.03828 11.08 8.06747 11.041 8.05811L9.66895 7.72217C9.61822 7.70966 9.60422 7.64485 9.64551 7.61279L10.1152 7.24561L10.584 6.88037L11.0244 6.53564ZM1.5 3.46143H14.5V2.57666H1.5V3.46143Z" fill="currentColor"/>
</g></svg>
