<svg width="16" height="16" viewBox="0 0 16 16" fill="none" xmlns="http://www.w3.org/2000/svg">
<path fill-rule="evenodd" clip-rule="evenodd" d="M1.19832 13.9142L8.79363 8.40481C9.06863 8.20481 9.06863 7.79543 8.79363 7.59699L1.19832 2.08606C1.1155 2.02668 0.999878 2.0845 0.999878 2.18762V3.3595C0.999878 3.43918 1.03894 3.51418 1.103 3.56106L7.22175 8.00012L1.103 12.4392C1.03894 12.4861 0.999878 12.5611 0.999878 12.6407V13.8126C0.999878 13.9142 1.1155 13.9736 1.19832 13.9142Z" fill="#5C6B8A"/>
<path fill-rule="evenodd" clip-rule="evenodd" d="M7.19832 13.9142L14.7936 8.40481C15.0686 8.20481 15.0686 7.79543 14.7936 7.59699L7.19832 2.08606C7.1155 2.02668 6.99988 2.0845 6.99988 2.18762V3.3595C6.99988 3.43918 7.03894 3.51418 7.103 3.56106L13.2218 8.00012L7.103 12.4392C7.03894 12.4861 6.99988 12.5611 6.99988 12.6407V13.8126C6.99988 13.9142 7.1155 13.9736 7.19832 13.9142Z" fill="#5C6B8A"/>
</svg>
