<svg width="16" height="16" viewBox="0 0 16 16" fill="none" xmlns="http://www.w3.org/2000/svg">
<path d="M13.75 1.75C14.0266 1.75 14.25 1.97344 14.25 2.25V13.75C14.25 14.0266 14.0266 14.25 13.75 14.25H2.25C1.97344 14.25 1.75 14.0266 1.75 13.75V2.25C1.75 1.97344 1.97344 1.75 2.25 1.75H13.75ZM2.875 13.125H13.125V2.875H2.875V13.125ZM6.15039 5.5166C6.15039 5.41504 6.26582 5.35566 6.34863 5.41504L10.1924 8.19629C10.2608 8.24628 10.2608 8.34745 10.1924 8.39746L6.34863 11.1787C6.26582 11.2381 6.15039 11.1787 6.15039 11.0771V10.3447C6.15039 10.1838 6.22676 10.0332 6.35645 9.93945L8.62793 8.2959L6.35645 6.6543C6.22676 6.56055 6.15039 6.4084 6.15039 6.24902V5.5166Z" fill="#5C6B8A"/>
</svg>
