<svg width="16" height="16" viewBox="0 0 16 16" fill="none" xmlns="http://www.w3.org/2000/svg">
<path fill-rule="evenodd" clip-rule="evenodd" d="M8 1.39484C7.95837 1.39484 7.91677 1.40034 7.87625 1.41134L2.37991 2.90323C2.17411 2.95909 2.03125 3.1459 2.03125 3.35913V7.9906C2.03125 11.7376 4.43603 13.4209 8.00086 14.6051C11.5647 13.4209 13.9688 11.7384 13.9688 7.99226V3.35913C13.9688 3.1459 13.8259 2.95909 13.6201 2.90323L8.12375 1.41134C8.08323 1.40034 8.04163 1.39484 8 1.39484ZM8 2.41393L12.9688 3.7626V7.99226C12.9688 8.78343 12.851 9.46246 12.6089 10.0682C12.3868 10.6236 12.0625 11.108 11.6174 11.5491C10.836 12.3233 9.68166 12.9625 8.00081 13.5488C6.31958 12.9625 5.16484 12.3232 4.38309 11.5486C3.93783 11.1074 3.61339 10.6228 3.39125 10.0671C3.149 9.46124 3.03125 8.78199 3.03125 7.9906V3.7626L8 2.41393Z" fill="#5C6B8A"/>
<path fill-rule="evenodd" clip-rule="evenodd" d="M10.875 7.99097H5.125C5.05597 7.99097 5 7.935 5 7.86597V7.11597C5 7.04694 5.05597 6.99097 5.125 6.99097H10.875C10.944 6.99097 11 7.04694 11 7.11597V7.86597C11 7.935 10.944 7.99097 10.875 7.99097Z" fill="#5C6B8A"/>
<path fill-rule="evenodd" clip-rule="evenodd" d="M8.375 10.491H7.625C7.55597 10.491 7.5 10.435 7.5 10.366V4.61597C7.5 4.54694 7.55597 4.49097 7.625 4.49097H8.375C8.44403 4.49097 8.5 4.54694 8.5 4.61597V10.366C8.5 10.435 8.44403 10.491 8.375 10.491Z" fill="#5C6B8A"/>
</svg>
