<svg viewBox="0 0 1024 1024" xmlns="http://www.w3.org/2000/svg"><g transform="scale(64)">
<path fill-rule="evenodd" clip-rule="evenodd" d="M13.9578 4.58281L11.4172 2.04219C11.3 1.925 11.1562 1.83906 11 1.79219V1.75H2.25C1.97344 1.75 1.75 1.97344 1.75 2.25V13.75C1.75 14.0266 1.97344 14.25 2.25 14.25H13.75C14.0266 14.25 14.25 14.0266 14.25 13.75V5.28906C14.25 5.02344 14.1453 4.77031 13.9578 4.58281ZM6 2.875H10V4.5H6V2.875ZM13.125 13.125H2.875V2.875H5V5C5 5.27656 5.22344 5.5 5.5 5.5H10.5C10.7766 5.5 11 5.27656 11 5V3.21563L13.125 5.34063V13.125ZM8 6.90625C6.75781 6.90625 5.75 7.91406 5.75 9.15625C5.75 10.3984 6.75781 11.4062 8 11.4062C9.24219 11.4062 10.25 10.3984 10.25 9.15625C10.25 7.91406 9.24219 6.90625 8 6.90625ZM8 10.4062C7.30937 10.4062 6.75 9.84688 6.75 9.15625C6.75 8.46562 7.30937 7.90625 8 7.90625C8.69063 7.90625 9.25 8.46562 9.25 9.15625C9.25 9.84688 8.69063 10.4062 8 10.4062Z" fill="currentColor"/>
</g></svg>
