<svg viewBox="0 0 1024 1024" xmlns="http://www.w3.org/2000/svg"><g transform="scale(64)">
<path fill-rule="evenodd" clip-rule="evenodd" d="M14.1986 13.3385L10.1448 9.28468C10.7739 8.47141 11.1141 7.47707 11.1141 6.43122C11.1141 5.17932 10.6256 4.00546 9.74205 3.12039C8.85854 2.23532 7.68156 1.74829 6.43122 1.74829C5.18088 1.74829 4.0039 2.23688 3.12039 3.12039C2.23532 4.0039 1.74829 5.17932 1.74829 6.43122C1.74829 7.68156 2.23688 8.85854 3.12039 9.74205C4.0039 10.6271 5.17932 11.1141 6.43122 11.1141C7.47707 11.1141 8.46985 10.7739 9.28312 10.1463L13.337 14.1986C13.3869 14.2486 13.4681 14.2486 13.518 14.1986L14.1986 13.5196C14.2486 13.4697 14.2486 13.3885 14.1986 13.3385ZM8.9038 8.9038C8.24195 9.5641 7.36468 9.9278 6.43122 9.9278C5.49775 9.9278 4.62049 9.5641 3.95863 8.9038C3.29834 8.24195 2.93463 7.36468 2.93463 6.43122C2.93463 5.49775 3.29834 4.61893 3.95863 3.95863C4.62049 3.29834 5.49775 2.93463 6.43122 2.93463C7.36468 2.93463 8.24351 3.29678 8.9038 3.95863C9.5641 4.62049 9.9278 5.49775 9.9278 6.43122C9.9278 7.36468 9.5641 8.24351 8.9038 8.9038Z" fill="currentColor"/>
</g></svg>
