<svg width="16" height="16" viewBox="0 0 16 16" fill="none" xmlns="http://www.w3.org/2000/svg">
<path fill-rule="evenodd" clip-rule="evenodd" d="M10.5248 5.13303V4.44495C10.5248 4.38188 10.4732 4.33028 10.4101 4.33028H4.90371C4.84061 4.33028 4.78899 4.38188 4.78899 4.44495V5.13303C4.78899 5.1961 4.84061 5.24771 4.90371 5.24771H10.4101C10.4732 5.24771 10.5248 5.1961 10.5248 5.13303ZM4.90371 6.3945C4.84061 6.3945 4.78899 6.4461 4.78899 6.50917V7.19725C4.78899 7.26032 4.84061 7.31193 4.90371 7.31193H7.54219C7.60528 7.31193 7.65691 7.26032 7.65691 7.19725V6.50917C7.65691 6.4461 7.60528 6.3945 7.54219 6.3945H4.90371ZM6.96861 12.8739H3.64182V2.78211H11.672V7.7133C11.672 7.77638 11.7236 7.82798 11.7867 7.82798H12.5897C12.6528 7.82798 12.7044 7.77638 12.7044 7.7133V2.20872C12.7044 1.95499 12.4994 1.75 12.2456 1.75H3.06824C2.81443 1.75 2.60938 1.95499 2.60938 2.20872V13.4472C2.60938 13.701 2.81443 13.906 3.06824 13.906H6.96861C7.0317 13.906 7.08332 13.8544 7.08332 13.7913V12.9885C7.08332 12.9255 7.0317 12.8739 6.96861 12.8739ZM13.3598 13.6121L12.0219 12.2747C12.3416 11.8518 12.5324 11.3243 12.5324 10.7523C12.5324 9.35894 11.4024 8.22936 10.0086 8.22936C8.61479 8.22936 7.48483 9.35894 7.48483 10.7523C7.48483 12.1456 8.61479 13.2752 10.0086 13.2752C10.522 13.2752 10.998 13.1218 11.3967 12.8595L12.7546 14.217C12.7776 14.24 12.8062 14.25 12.8349 14.25C12.8636 14.25 12.8937 14.2385 12.9152 14.217L13.3598 13.7726C13.4042 13.7282 13.4042 13.6565 13.3598 13.6121ZM10.0086 12.3578C9.12098 12.3578 8.40256 11.6396 8.40256 10.7523C8.40256 9.86497 9.12098 9.14679 10.0086 9.14679C10.8962 9.14679 11.6146 9.86497 11.6146 10.7523C11.6146 11.6396 10.8962 12.3578 10.0086 12.3578Z" fill="#5C6B8A"/>
</svg>
