<?xml version="1.0" standalone="no"?>
<svg xmlns="http://www.w3.org/2000/svg" class="icon" viewBox="0 0 1024 1024">
  <g fill="currentColor" fill-rule="evenodd">
    <path d="M382 0c-2.664 0-5.327.352-7.92 1.056L22.314 96.537C9.143 100.112 0 112.068 0 125.715v296.414c0 239.81 153.906 347.542 382.055 423.328C610.143 769.669 764 661.985 764 422.235v-296.52c0-13.647-9.143-25.603-22.314-29.178L389.92 1.056A30.223 30.223 0 0 0 382 0m0 65.222 318 86.315v270.698c0 50.635-7.533 94.093-23.031 132.858-14.212 35.548-34.968 66.55-63.455 94.777-50.011 49.554-123.888 90.459-231.462 127.984-107.599-37.524-181.502-78.44-231.534-128.014-28.497-28.237-49.261-59.25-63.478-94.812C71.536 516.25 64 472.778 64 422.129V151.537z" transform="translate(130 89.271)" />
    <path d="M696 511.421H328a8 8 0 0 1-8-8v-48a8 8 0 0 1 8-8h368a8 8 0 0 1 8 8v48a8 8 0 0 1-8 8" />
    <path d="M536 671.421h-48a8 8 0 0 1-8-8v-368a8 8 0 0 1 8-8h48a8 8 0 0 1 8 8v368a8 8 0 0 1-8 8" />
  </g>
</svg>
