<?xml version="1.0" standalone="no"?>
<svg xmlns="http://www.w3.org/2000/svg" class="icon" viewBox="0 0 1024 1024">
  <path d="M832 64a32 32 0 0 1 32 32v243.136h-72V136h-560v208H640v64H232v208H640v64H232v208H640V960H192a32 32 0 0 1-31.488-26.24L160 928v-832A32 32 0 0 1 192 64zM496 480c4.416 0 8 3.584 8 8v48a8 8 0 0 1-8 8H312a8 8 0 0 1-8-8v-48c0-4.416 3.584-8 8-8z m0-272c4.416 0 8 3.584 8 8v48a8 8 0 0 1-8 8H312a8 8 0 0 1-8-8v-48c0-4.416 3.584-8 8-8z" p-id="14509"></path>
  <path d="M872.384 412.16a10.624 10.624 0 0 0-16.768 0l-149.312 188.928a10.624 10.624 0 0 0 8.384 17.216h98.56v323.136c0 5.888 4.736 10.688 10.624 10.688h80a10.688 10.688 0 0 0 10.624-10.688V618.432h98.816c8.96 0 13.888-10.24 8.384-17.216L872.384 412.16z" p-id="14510"></path>
</svg>
