<svg viewBox="0 0 1024 1024" xmlns="http://www.w3.org/2000/svg"><g transform="scale(64)">
<path fill-rule="evenodd" clip-rule="evenodd" d="M14.4532 9.78125L13.4219 8.90625C13.4754 8.60745 13.5004 8.30431 13.5001 8C13.5004 7.69803 13.4754 7.39489 13.4219 7.09375L14.4532 6.21875C14.608 6.08856 14.6658 5.8698 14.5938 5.67187L14.5782 5.625C14.2987 4.84318 13.88 4.11814 13.3438 3.48437L13.3126 3.4375C13.1739 3.28684 12.9568 3.22747 12.7657 3.29687L11.4844 3.75C11.0213 3.36341 10.498 3.06027 9.93756 2.84375L9.68756 1.51562C9.6497 1.31486 9.4888 1.15548 9.28131 1.125L9.23443 1.10937C8.42809 0.963278 7.57202 0.963278 6.76568 1.10937L6.71881 1.125C6.51131 1.15548 6.35041 1.31486 6.31256 1.51562L6.06256 2.85937C5.50528 3.06652 4.98508 3.3681 4.51568 3.75L3.23443 3.29687C3.04487 3.22747 2.82617 3.28528 2.68756 3.4375L2.65631 3.48437C2.12007 4.1197 1.70141 4.84474 1.42193 5.625L1.40631 5.67187C1.3343 5.86824 1.3921 6.087 1.54693 6.21875L2.57818 7.10937C2.53717 7.40114 2.51373 7.70115 2.51568 8C2.51373 8.29962 2.53717 8.59964 2.57818 8.89062L1.54693 9.78125C1.3921 9.91065 1.3343 10.1294 1.40631 10.3281L1.42193 10.3594C1.70141 11.1545 2.12007 11.8811 2.65631 12.5156L2.68756 12.5469C2.82617 12.7124 3.04331 12.7717 3.23443 12.7031L4.51568 12.25C4.98508 12.6311 5.50528 12.9343 6.06256 13.1406L6.31256 14.4844C6.35041 14.6844 6.51131 14.8437 6.71881 14.875L6.76568 14.8906C7.16586 14.9625 7.58296 15 8.00006 15C8.41715 15 8.83581 14.9625 9.23443 14.8906L9.28131 14.875C9.4888 14.8437 9.6497 14.6844 9.68756 14.4844L9.93756 13.1562C10.498 12.9389 11.0213 12.6374 11.4844 12.25L12.7657 12.7031C12.9552 12.7717 13.1739 12.7139 13.3126 12.5469L13.3438 12.5156C13.88 11.8795 14.2987 11.1545 14.5782 10.3594L14.5938 10.3281C14.6658 10.1341 14.608 9.91534 14.4532 9.78125ZM12.3282 7.28125C12.3641 7.51406 12.3844 7.75625 12.3907 8C12.3844 8.24062 12.3641 8.48281 12.3282 8.71875L12.2188 9.34375L13.3907 10.3437C13.2126 10.7516 12.9891 11.1359 12.7188 11.5L11.2813 10.9844L10.7813 11.3906C10.4094 11.6891 9.99381 11.9297 9.54693 12.0937L8.95318 12.3281L8.67193 13.8437C8.22974 13.8875 7.78131 13.8875 7.34381 13.8437L7.06256 12.3125L6.46881 12.0937C6.02506 11.9234 5.61099 11.6828 5.23443 11.375L4.75006 10.9687L3.29693 11.5C3.02506 11.1344 2.80318 10.7484 2.62506 10.3437L3.81256 9.32812L3.70318 8.70312C3.66568 8.47656 3.64537 8.23594 3.64068 8C3.64537 7.75937 3.66412 7.52031 3.70318 7.28125L3.81256 6.65625L2.62506 5.65625C2.80162 5.24687 3.02506 4.8625 3.29693 4.5L4.75006 5.01562L5.23443 4.625C5.61099 4.31406 6.02506 4.07344 6.46881 3.90625L7.06256 3.6875L7.34381 2.15625C7.78131 2.1125 8.22974 2.1125 8.67193 2.15625L8.95318 3.67187L9.54693 3.90625C9.99381 4.07031 10.411 4.31094 10.7813 4.625L11.2813 5.01562L12.7188 4.5C12.9907 4.86406 13.2126 5.25 13.3907 5.65625L12.2188 6.65625L12.3282 7.28125ZM8.00006 5.09375C6.48131 5.09375 5.25006 6.325 5.25006 7.84375C5.25006 9.3625 6.48131 10.5937 8.00006 10.5937C9.51881 10.5937 10.7501 9.3625 10.7501 7.84375C10.7501 6.325 9.51881 5.09375 8.00006 5.09375ZM9.23443 9.07812C8.90631 9.41094 8.46724 9.59375 8.00006 9.59375C7.53287 9.59375 7.09381 9.41094 6.76568 9.07812C6.43287 8.75 6.25006 8.31094 6.25006 7.84375C6.25006 7.37656 6.43287 6.9375 6.76568 6.60937C7.09381 6.275 7.53287 6.09375 8.00006 6.09375C8.46724 6.09375 8.90631 6.275 9.23443 6.60937C9.56724 6.9375 9.75006 7.37656 9.75006 7.84375C9.75006 8.31094 9.56724 8.75 9.23443 9.07812Z" fill="currentColor"/>
<mask id="mask0_2088_3341" maskUnits="userSpaceOnUse" x="1" y="0" width="14" height="15">
<path fill-rule="evenodd" clip-rule="evenodd" d="M14.4532 9.78125L13.4219 8.90625C13.4754 8.60745 13.5004 8.30431 13.5001 8C13.5004 7.69803 13.4754 7.39489 13.4219 7.09375L14.4532 6.21875C14.608 6.08856 14.6658 5.8698 14.5938 5.67187L14.5782 5.625C14.2987 4.84318 13.88 4.11814 13.3438 3.48437L13.3126 3.4375C13.1739 3.28684 12.9568 3.22747 12.7657 3.29687L11.4844 3.75C11.0213 3.36341 10.498 3.06027 9.93756 2.84375L9.68756 1.51562C9.6497 1.31486 9.4888 1.15548 9.28131 1.125L9.23443 1.10937C8.42809 0.963278 7.57202 0.963278 6.76568 1.10937L6.71881 1.125C6.51131 1.15548 6.35041 1.31486 6.31256 1.51562L6.06256 2.85937C5.50528 3.06652 4.98508 3.3681 4.51568 3.75L3.23443 3.29687C3.04487 3.22747 2.82617 3.28528 2.68756 3.4375L2.65631 3.48437C2.12007 4.1197 1.70141 4.84474 1.42193 5.625L1.40631 5.67187C1.3343 5.86824 1.3921 6.087 1.54693 6.21875L2.57818 7.10937C2.53717 7.40114 2.51373 7.70115 2.51568 8C2.51373 8.29962 2.53717 8.59964 2.57818 8.89062L1.54693 9.78125C1.3921 9.91065 1.3343 10.1294 1.40631 10.3281L1.42193 10.3594C1.70141 11.1545 2.12007 11.8811 2.65631 12.5156L2.68756 12.5469C2.82617 12.7124 3.04331 12.7717 3.23443 12.7031L4.51568 12.25C4.98508 12.6311 5.50528 12.9343 6.06256 13.1406L6.31256 14.4844C6.35041 14.6844 6.51131 14.8437 6.71881 14.875L6.76568 14.8906C7.16586 14.9625 7.58296 15 8.00006 15C8.41715 15 8.83581 14.9625 9.23443 14.8906L9.28131 14.875C9.4888 14.8437 9.6497 14.6844 9.68756 14.4844L9.93756 13.1562C10.498 12.9389 11.0213 12.6374 11.4844 12.25L12.7657 12.7031C12.9552 12.7717 13.1739 12.7139 13.3126 12.5469L13.3438 12.5156C13.88 11.8795 14.2987 11.1545 14.5782 10.3594L14.5938 10.3281C14.6658 10.1341 14.608 9.91534 14.4532 9.78125ZM12.3282 7.28125C12.3641 7.51406 12.3844 7.75625 12.3907 8C12.3844 8.24062 12.3641 8.48281 12.3282 8.71875L12.2188 9.34375L13.3907 10.3437C13.2126 10.7516 12.9891 11.1359 12.7188 11.5L11.2813 10.9844L10.7813 11.3906C10.4094 11.6891 9.99381 11.9297 9.54693 12.0937L8.95318 12.3281L8.67193 13.8437C8.22974 13.8875 7.78131 13.8875 7.34381 13.8437L7.06256 12.3125L6.46881 12.0937C6.02506 11.9234 5.61099 11.6828 5.23443 11.375L4.75006 10.9687L3.29693 11.5C3.02506 11.1344 2.80318 10.7484 2.62506 10.3437L3.81256 9.32812L3.70318 8.70312C3.66568 8.47656 3.64537 8.23594 3.64068 8C3.64537 7.75937 3.66412 7.52031 3.70318 7.28125L3.81256 6.65625L2.62506 5.65625C2.80162 5.24687 3.02506 4.8625 3.29693 4.5L4.75006 5.01562L5.23443 4.625C5.61099 4.31406 6.02506 4.07344 6.46881 3.90625L7.06256 3.6875L7.34381 2.15625C7.78131 2.1125 8.22974 2.1125 8.67193 2.15625L8.95318 3.67187L9.54693 3.90625C9.99381 4.07031 10.411 4.31094 10.7813 4.625L11.2813 5.01562L12.7188 4.5C12.9907 4.86406 13.2126 5.25 13.3907 5.65625L12.2188 6.65625L12.3282 7.28125ZM8.00006 5.09375C6.48131 5.09375 5.25006 6.325 5.25006 7.84375C5.25006 9.3625 6.48131 10.5937 8.00006 10.5937C9.51881 10.5937 10.7501 9.3625 10.7501 7.84375C10.7501 6.325 9.51881 5.09375 8.00006 5.09375ZM9.23443 9.07812C8.90631 9.41094 8.46724 9.59375 8.00006 9.59375C7.53287 9.59375 7.09381 9.41094 6.76568 9.07812C6.43287 8.75 6.25006 8.31094 6.25006 7.84375C6.25006 7.37656 6.43287 6.9375 6.76568 6.60937C7.09381 6.275 7.53287 6.09375 8.00006 6.09375C8.46724 6.09375 8.90631 6.275 9.23443 6.60937C9.56724 6.9375 9.75006 7.37656 9.75006 7.84375C9.75006 8.31094 9.56724 8.75 9.23443 9.07812Z" fill="currentColor"/>
</mask>
<g mask="url(#mask0_2088_3341)">
</g>
</g></svg>
