<svg viewBox="0 0 1024 1024" xmlns="http://www.w3.org/2000/svg"><g transform="scale(64)">
<path fill-rule="evenodd" clip-rule="evenodd" d="M6.87498 12.8201L5.70331 12.3845C5.6386 12.3605 5.60563 12.2885 5.6297 12.2238L8.96421 3.2536C8.98827 3.1889 9.06023 3.15593 9.12493 3.17999L10.2966 3.61552C10.3613 3.63958 10.3943 3.71154 10.3702 3.77624L7.0357 12.7464C7.01165 12.8111 6.93968 12.8441 6.87498 12.8201Z" fill="currentColor"/>
<path fill-rule="evenodd" clip-rule="evenodd" d="M4.24052 12.0009C4.19255 12.0506 4.11341 12.0519 4.06377 12.0039L0.478813 8.5393C0.332594 8.39797 0.25 8.20335 0.25 7.99999C0.25 7.79665 0.332594 7.602 0.478813 7.46069L4.06377 3.99605C4.11341 3.94808 4.19255 3.94943 4.24052 3.99907L5.10917 4.89791C5.15714 4.94755 5.1558 5.02669 5.10616 5.07466L2.07925 7.99999L5.10616 10.9253C5.1558 10.9733 5.15714 11.0524 5.10917 11.1021L4.24052 12.0009Z" fill="currentColor"/>
<path fill-rule="evenodd" clip-rule="evenodd" d="M11.7595 12.0009L10.8908 11.1021C10.8429 11.0524 10.8442 10.9733 10.8938 10.9253L13.9207 7.99999L10.8938 5.07466C10.8442 5.02669 10.8429 4.94755 10.8908 4.89791L11.7595 3.99907C11.8075 3.94943 11.8866 3.94808 11.9362 3.99605L15.5212 7.46069C15.6674 7.602 15.75 7.79665 15.75 7.99999C15.75 8.20335 15.6674 8.39797 15.5212 8.5393L11.9362 12.0039C11.8866 12.0519 11.8075 12.0506 11.7595 12.0009Z" fill="currentColor"/>
</g></svg>
