<svg width="16" height="16" viewBox="0 0 16 16" fill="none" xmlns="http://www.w3.org/2000/svg">
<path d="M10.5 2C10.8 2 11 2.2002 11 2.4502V11.0498C11 11.2998 10.8 11.5 10.5 11.5H9.5V12.5H11V14H8C7.7 14 7.5 13.7996 7.5 13.5996V11.5H6.5C6.2 11.5 6 11.2998 6 11.0498V2.4502C6 2.2002 6.2 2 6.5 2H10.5ZM8 4V10.0996H9V4H8Z" fill="#5C6B8A"/>
<path d="M14 12V2H12V13.5C12 13.8 12.15 14 12.4 14H15V12H14Z" fill="#5C6B8A"/>
<path d="M1 2.5V8.5C1 8.8 1.2 9 1.5 9H3V12H1V14H4.5C4.8 14 5 13.8 5 13.5V7.5C5 7.2 4.8 7 4.5 7H3V4H5V2H1.5C1.2 2 1 2.2 1 2.5Z" fill="#5C6B8A"/>
</svg>
