<?xml version="1.0" standalone="no"?>
<svg xmlns="http://www.w3.org/2000/svg" class="icon" viewBox="0 0 1024 1024">
  <path d="M992 704v128H754.24V192h116.672v512H992zM193.792 448c-29.776 0-53.92-28.64-53.92-64s24.144-64 53.92-64c29.792 0 53.936 28.64 53.936 64h107.872c0-106.032-72.448-192-161.808-192S32 277.968 32 384s72.432 192 161.792 192c21.824 0 41.488 15.6 49.84 39.52 8.336 23.904 3.728 51.424-11.696 69.728-15.424 18.304-38.624 23.792-58.784 13.888-20.16-9.92-33.28-33.248-33.28-59.136H32c0 106.032 72.432 192 161.792 192s161.808-85.968 161.808-192-72.448-192-161.808-192zM550.08 192c-96.672 0-175.024 85.968-175.024 192v256c0 106.032 78.352 192 175.024 192h175.008V384c0-106.032-78.352-192-175.008-192z m-58.352 448V384c0-35.36 26.128-64 58.352-64 32.208 0 58.336 28.64 58.336 64v256c0 35.36-26.128 64-58.336 64-32.224 0-58.352-28.64-58.352-64z" p-id="38764"></path>
</svg>
