<svg viewBox="0 0 1024 1024" xmlns="http://www.w3.org/2000/svg"><g transform="scale(64)">
<path fill-rule="evenodd" clip-rule="evenodd" d="M14.2031 5.51562L10.2344 4.9375L8.4531 1.34375C8.4005 1.24245 8.32071 1.16265 8.23435 1.10937C7.97497 0.992086 7.6746 1.0938 7.54685 1.34375L5.7656 4.9375L1.79685 5.51562C1.69377 5.53467 1.59365 5.58631 1.5156 5.65625C1.32456 5.86327 1.32769 6.17936 1.53123 6.35937L4.3906 9.1875L3.71873 13.1406C3.7025 13.2413 3.71971 13.3539 3.7656 13.4531C3.89962 13.695 4.20312 13.7905 4.43748 13.6562L8.0156 11.7969L11.5625 13.6562C11.6498 13.7123 11.7625 13.7295 11.875 13.7031C12.1426 13.6637 12.3257 13.4056 12.2812 13.1406L11.6094 9.1875L14.4687 6.35937C14.5519 6.29672 14.6035 6.19657 14.625 6.07812C14.6614 5.8132 14.4705 5.5597 14.2031 5.51562ZM10.3906 8.78125L10.9531 12.0625L8.0156 10.5156L5.04685 12.0625L5.60935 8.78125L3.21873 6.4375L6.5156 5.95312L8.0156 2.96875L9.48435 5.95312L12.7812 6.4375L10.3906 8.78125Z" fill="currentColor"/>
<mask id="mask0_2088_3360" maskUnits="userSpaceOnUse" x="1" y="1" width="14" height="13">
<path fill-rule="evenodd" clip-rule="evenodd" d="M14.2031 5.51562L10.2344 4.9375L8.4531 1.34375C8.4005 1.24245 8.32071 1.16265 8.23435 1.10937C7.97497 0.992086 7.6746 1.0938 7.54685 1.34375L5.7656 4.9375L1.79685 5.51562C1.69377 5.53467 1.59365 5.58631 1.5156 5.65625C1.32456 5.86327 1.32769 6.17936 1.53123 6.35937L4.3906 9.1875L3.71873 13.1406C3.7025 13.2413 3.71971 13.3539 3.7656 13.4531C3.89962 13.695 4.20312 13.7905 4.43748 13.6562L8.0156 11.7969L11.5625 13.6562C11.6498 13.7123 11.7625 13.7295 11.875 13.7031C12.1426 13.6637 12.3257 13.4056 12.2812 13.1406L11.6094 9.1875L14.4687 6.35937C14.5519 6.29672 14.6035 6.19657 14.625 6.07812C14.6614 5.8132 14.4705 5.5597 14.2031 5.51562ZM10.3906 8.78125L10.9531 12.0625L8.0156 10.5156L5.04685 12.0625L5.60935 8.78125L3.21873 6.4375L6.5156 5.95312L8.0156 2.96875L9.48435 5.95312L12.7812 6.4375L10.3906 8.78125Z" fill="currentColor"/>
</mask>
<g mask="url(#mask0_2088_3360)">
</g>
</g></svg>
