<?xml version="1.0" standalone="no"?>
<svg xmlns="http://www.w3.org/2000/svg" class="icon" viewBox="0 0 1024 1024">
  <path d="M136.53333333 819.47306667h750.93333334a34.13333333 34.13333333 0 0 1 34.13333333 34.13333333v20.48a34.13333333 34.13333333 0 0 1-34.13333333 34.13333333h-750.93333334a34.13333333 34.13333333 0 0 1-34.13333333-34.13333333v-20.48a34.13333333 34.13333333 0 0 1 34.13333333-34.13333333z m749.70453334-632.35413334a13.65333333 13.65333333 0 0 1 15.01866666 12.0832l40.48213334 363.86133334a34.13333333 34.13333333 0 0 1-37.6832 37.61493333l-363.86133334-40.41386667a13.65333333 13.65333333 0 0 1-8.12373333-23.21066666l135.9872-135.9872A338.3296 338.3296 0 0 0 460.8 330.41066667 341.33333333 341.33333333 0 0 0 148.13866667 535.89333333L68.26666667 465.57866667a443.32373333 443.32373333 0 0 1 392.53333333-238.25066667c106.35946667 0 204.04906667 37.6832 280.43946667 100.5568l136.87466666-136.8064a13.65333333 13.65333333 0 0 1 8.12373334-3.95946667z" p-id="39965"></path>
</svg>
