<?xml version="1.0" standalone="no"?>
<svg xmlns="http://www.w3.org/2000/svg" class="icon" viewBox="0 0 1024 1024">
  <path d="M136.53333333 819.2h750.93333334a34.13333333 34.13333333 0 0 1 34.13333333 34.13333333v20.48a34.13333333 34.13333333 0 0 1-34.13333333 34.13333334h-750.93333334a34.13333333 34.13333333 0 0 1-34.13333333-34.13333334V853.33333333a34.13333333 34.13333333 0 0 1 34.13333333-34.13333333zM446.0544 102.4a34.13333333 34.13333333 0 0 1 34.13333333-34.13333333h34.13333334a34.13333333 34.13333333 0 0 1 34.13333333 34.13333333v341.33333333h193.46773333a13.65333333 13.65333333 0 0 1 10.6496 22.18666667l-228.69333333 285.83253333a34.13333333 34.13333333 0 0 1-53.248 0l-228.69333333-285.83253333A13.65333333 13.65333333 0 0 1 252.58666667 443.73333333h193.46773333V102.4z" p-id="39815"></path>
</svg>
