<svg viewBox="0 0 1024 1024" xmlns="http://www.w3.org/2000/svg"><g transform="scale(64)">
<path d="M5.91602 0.84375C9.19667 0.843759 11.832 1.74376 11.832 2.84375V6.84961C12.0786 6.88031 12.2686 7.07484 12.2686 7.3125V7.76855C13.9791 7.9959 15.2939 9.36211 15.2939 11.0156V13H15.5967C15.8197 13.0001 16 13.1676 16 13.375V13.75C16 13.8014 15.9547 13.8436 15.8994 13.8438H13.1768C13.1768 14.568 12.5436 15.1562 11.7646 15.1562C10.9857 15.1562 10.3525 14.568 10.3525 13.8438H7.62988C7.58 13.8436 7.53996 13.8091 7.53223 13.7646C7.01895 13.8144 6.47709 13.8437 5.91602 13.8438C2.63534 13.8438 0 12.9438 0 11.8438V2.84375C0 1.74375 2.63534 0.84375 5.91602 0.84375ZM11.1602 13.8438C11.1602 14.1543 11.4316 14.4062 11.7656 14.4062C12.0995 14.406 12.3701 14.1542 12.3701 13.8438H11.1602ZM11.7646 8.57812C11.0638 8.57812 10.4055 8.83145 9.91016 9.29199C9.41486 9.75252 9.14258 10.3641 9.14258 11.0156V13H14.3867V11.0156C14.3867 10.3641 14.1135 9.75254 13.6182 9.29199C13.1229 8.83158 12.4653 8.57818 11.7646 8.57812ZM1.07617 11.7939C1.34537 12.094 2.95936 12.8438 5.91699 12.8438C6.81343 12.8437 7.58604 12.7777 8.23535 12.6777V11.0156C8.23535 10.7209 8.27813 10.4357 8.35645 10.1641C7.6135 10.2788 6.78774 10.3437 5.91602 10.3438C3.90894 10.3438 2.1445 10.0046 1.07617 9.49121V11.7939ZM10.7568 5.99023C9.68866 6.50399 7.92384 6.84374 5.91602 6.84375C3.90895 6.84375 2.14448 6.50463 1.07617 5.99121V8.29395C1.34537 8.59402 2.95936 9.34375 5.91699 9.34375C7.16495 9.34372 8.17317 9.21747 8.94238 9.04688C9.3908 8.4924 10.0239 8.07673 10.7568 7.87402V5.99023ZM5.91699 1.84375C2.95935 1.84375 1.34536 2.54351 1.07617 2.89355V4.79395C1.34537 5.09402 2.95936 5.84375 5.91699 5.84375C8.87431 5.84367 10.4877 5.14397 10.7568 4.79395V2.89355C10.4876 2.5935 8.8743 1.84383 5.91699 1.84375Z" fill="currentColor"/>
</g></svg>
