<svg width="16" height="16" viewBox="0 0 16 16" fill="none" xmlns="http://www.w3.org/2000/svg">
<path d="M8 1C11.8656 1 15 4.13438 15 8C15 11.8656 11.8656 15 8 15C4.13438 15 1 11.8656 1 8C1 4.13438 4.13438 1 8 1ZM8 2.1875C4.79063 2.1875 2.1875 4.79063 2.1875 8C2.1875 11.2094 4.79063 13.8125 8 13.8125C11.2094 13.8125 13.8125 11.2094 13.8125 8C13.8125 4.79063 11.2094 2.1875 8 2.1875ZM10.9219 5.51562C11.0234 5.51562 11.0824 5.63105 11.0215 5.71387L7.73145 10.2764C7.53302 10.5529 7.12228 10.5529 6.92383 10.2764L4.97656 7.57617C4.9175 7.49338 4.97667 7.37793 5.07812 7.37793H5.81055C5.97148 7.37793 6.12207 7.45625 6.21582 7.58594L7.32812 9.12988L9.78418 5.72363C9.87793 5.59238 10.0301 5.51562 10.1895 5.51562H10.9219Z" fill="#16B882"/>
</svg>
