<svg width="16" height="16" viewBox="0 0 16 16" fill="none" xmlns="http://www.w3.org/2000/svg">
<path d="M8 1C11.866 1 15 4.13401 15 8C15 11.866 11.866 15 8 15C4.13401 15 1 11.866 1 8C1 4.13401 4.13401 1 8 1ZM8 2.1875C4.78984 2.1875 2.1875 4.78984 2.1875 8C2.1875 11.2102 4.78984 13.8125 8 13.8125C11.2102 13.8125 13.8125 11.2102 13.8125 8C13.8125 4.78984 11.2102 2.1875 8 2.1875ZM10.9219 5.51562C11.0235 5.51562 11.0825 5.6311 11.0234 5.71387L7.73242 10.2773C7.53317 10.5534 7.12299 10.5535 6.92383 10.2773L4.97656 7.57715C4.91702 7.49435 4.97636 7.37793 5.07812 7.37793H5.81055C5.97057 7.37793 6.121 7.45581 6.21484 7.58594L7.32812 9.12891L9.78516 5.72266C9.87901 5.5927 10.0295 5.51562 10.1895 5.51562H10.9219Z" fill="#5C6B8A"/>
</svg>
