<svg viewBox="0 0 1024 1024" xmlns="http://www.w3.org/2000/svg"><g transform="scale(64)">
<g clip-path="url(#clip0_2420_2780)">
<path d="M12.5 7.00037V10.0004H14V7.00037H12.5ZM6.5 13.2504C6.50009 13.4492 6.57916 13.6401 6.71973 13.7806C6.86036 13.9212 7.05117 14.0004 7.25 14.0004H8.75C8.94883 14.0004 9.13964 13.9212 9.28027 13.7806C9.42084 13.6401 9.49991 13.4492 9.5 13.2504C9.5 13.0515 9.42082 12.8607 9.28027 12.7201C9.13962 12.5794 8.94891 12.5004 8.75 12.5004H7.25C7.05109 12.5004 6.86038 12.5794 6.71973 12.7201C6.57918 12.8607 6.5 13.0515 6.5 13.2504ZM2 10.0004H3.5V7.00037H2V10.0004ZM15 10.0013C14.9998 10.5545 14.551 11.0004 14 11.0004H12.5V11.2504C12.4999 11.9133 12.2363 12.5492 11.7676 13.0179C11.4031 13.3824 10.9372 13.6205 10.4365 13.7094C10.3571 14.0009 10.2047 14.2703 9.9873 14.4877C9.65913 14.8158 9.21405 15.0004 8.75 15.0004H7.25C6.78595 15.0004 6.34087 14.8158 6.0127 14.4877C5.68459 14.1596 5.50009 13.7144 5.5 13.2504C5.5 12.7863 5.68461 12.3412 6.0127 12.0131C6.34088 11.6849 6.78587 11.5004 7.25 11.5004H8.75C9.21413 11.5004 9.65912 11.6849 9.9873 12.0131C10.1798 12.2056 10.3219 12.4385 10.4072 12.6918C10.6518 12.6227 10.8776 12.4938 11.0605 12.3109C11.3418 12.0297 11.4999 11.6481 11.5 11.2504V5.37732C11.4932 4.92621 11.397 4.48081 11.2178 4.06677C11.0385 3.65275 10.7793 3.27795 10.4551 2.96424C10.1308 2.65057 9.74784 2.40409 9.32812 2.23865C8.90833 2.07318 8.45995 1.99228 8.00879 2.00037C8.00293 2.00047 7.99707 2.00047 7.99121 2.00037C7.54005 1.99228 7.09167 2.07318 6.67188 2.23865C6.25216 2.40409 5.86918 2.65057 5.54492 2.96424C5.22067 3.27795 4.96148 3.65275 4.78223 4.06677C4.60301 4.48081 4.50685 4.92621 4.5 5.37732V10.0004C4.49991 10.2655 4.39449 10.5199 4.20703 10.7074C4.01951 10.8948 3.76513 11.0004 3.5 11.0004H2C1.44784 11.0004 1.0002 10.5525 1 10.0004V7.00037C0.999983 6.44808 1.44771 6.00038 2 6.00037H3.5V5.36267C3.5088 4.77993 3.63274 4.20416 3.86426 3.66931C4.09577 3.13459 4.43083 2.65065 4.84961 2.24549C5.26835 1.84042 5.76269 1.52167 6.30469 1.30799C6.84139 1.09643 7.41449 0.993314 7.99121 1.00134V1.00037C7.99413 1.00032 7.99708 1.00139 8 1.00134C8.00292 1.00139 8.00587 1.00032 8.00879 1.00037L8.00781 1.00134C8.58487 0.993182 9.15831 1.09631 9.69531 1.30799C10.2373 1.52167 10.7317 1.84042 11.1504 2.24549C11.5692 2.65065 11.9042 3.13459 12.1357 3.66931C12.3673 4.20416 12.4912 4.77993 12.5 5.36267V6.00037H14C14.5523 6.00037 15 6.44808 15 7.00037V10.0013Z" fill="currentColor"/>
</g>
<defs>
<clipPath id="clip0_2420_2780">
<rect width="14" height="14" fill="currentColor" transform="translate(1 1)"/>
</clipPath>
</defs>
</g></svg>
