<svg viewBox="0 0 1024 1024" xmlns="http://www.w3.org/2000/svg"><g transform="scale(64)">
<path fill-rule="evenodd" clip-rule="evenodd" d="M13.6822 12.4445L3.83441 2.40857C3.78781 2.36108 3.78853 2.28482 3.83602 2.23822L4.35186 1.73205C4.39934 1.68546 4.47559 1.68618 4.52219 1.73366L13.5443 10.9281V4.68143C13.5443 4.61489 13.5982 4.56097 13.6647 4.56097H14.3874C14.4539 4.56097 14.5078 4.61489 14.5078 4.68143V12.0983C14.5078 12.274 14.4168 12.4398 14.2637 12.5262C14.1888 12.5685 14.107 12.5889 14.0262 12.5889C13.8992 12.5889 13.7746 12.5387 13.6822 12.4445Z" fill="currentColor"/>
<path fill-rule="evenodd" clip-rule="evenodd" d="M11.4105 14.266L2.4558 5.07866V11.3197C2.4558 11.3862 2.40188 11.4402 2.33534 11.4402H1.61264C1.54613 11.4402 1.49219 11.3862 1.49219 11.3197V3.90314C1.49219 3.72219 1.58881 3.55231 1.74892 3.46801C1.93983 3.3675 2.17114 3.40603 2.31902 3.55775L12.1005 13.5934C12.147 13.6411 12.146 13.7173 12.0983 13.7638L11.5808 14.2682C11.5332 14.3146 11.4569 14.3137 11.4105 14.266Z" fill="currentColor"/>
</g></svg>
