<?xml version="1.0" standalone="no"?>
<svg xmlns="http://www.w3.org/2000/svg" class="icon" viewBox="0 0 1024 1024">
  <g fill="currentColor" fill-rule="evenodd">
    <path d="M256.2 288v64H72a8 8 0 0 1-8-8v-48a8 8 0 0 1 8-8zm695.8 0a8 8 0 0 1 8 8v48a8 8 0 0 1-8 8H352v-64zM672 672v64H72a8 8 0 0 1-8-8v-48a8 8 0 0 1 8-8zm280 0a8 8 0 0 1 8 8v48a8 8 0 0 1-8 8H768v-64z" />
    <path d="M384 128H224.2c-17.673 0-32 14.327-32 32v320c0 17.673 14.327 32 32 32H384c17.673 0 32-14.327 32-32V160c0-17.673-14.327-32-32-32M256.2 448H352V192h-95.8zM800 512H640c-17.673 0-32 14.327-32 32v320c0 17.673 14.327 32 32 32h160c17.673 0 32-14.327 32-32V544c0-17.673-14.327-32-32-32M672 832h96V576h-96z" />
  </g>
</svg>
