<svg width="16" height="16" viewBox="0 0 16 16" fill="none" xmlns="http://www.w3.org/2000/svg">
<path d="M12.2002 2.5C12.3501 2.50004 12.4997 2.5503 12.5996 2.7002L15.4502 7L12.5996 11.2998C12.4997 11.3997 12.3501 11.4999 12.2002 11.5H11.793L10.5996 13.2998C10.4997 13.3997 10.3501 13.4999 10.2002 13.5H1.4502C1.17405 13.5 0.950195 13.2761 0.950195 13V5C0.950195 4.7 1.1502 4.5 1.4502 4.5H2.9502V3C2.9502 2.7 3.1502 2.5 3.4502 2.5H12.2002ZM2 12.5H9.9502L10.6211 11.5H2.9502V5.5H2V12.5ZM4 10.5H11.9502L14.2998 7L11.9502 3.5H4V10.5ZM12.5 6.5V7.5H10.5V6.5H12.5Z" fill="#5C6B8A"/>
</svg>
