<svg viewBox="0 0 1024 1024" xmlns="http://www.w3.org/2000/svg"><g transform="scale(64)">
<path fill-rule="evenodd" clip-rule="evenodd" d="M13.5 2.01492H2.5C2.22386 2.01492 2 2.23878 2 2.51492V13.4851C2 13.7612 2.22386 13.9851 2.5 13.9851H13.5C13.7761 13.9851 14 13.7612 14 13.4851V2.51492C14 2.23878 13.7761 2.01492 13.5 2.01492ZM3 12.9851H13V3.01492H3V12.9851Z" fill="currentColor"/>
<path fill-rule="evenodd" clip-rule="evenodd" d="M6.65625 8.48926C6.56995 8.48926 6.5 8.43329 6.5 8.36426V7.61426C6.5 7.54523 6.56995 7.48926 6.65625 7.48926H11.3438C11.43 7.48926 11.5 7.54523 11.5 7.61426V8.36426C11.5 8.43329 11.43 8.48926 11.3438 8.48926H6.65625Z" fill="currentColor"/>
<path fill-rule="evenodd" clip-rule="evenodd" d="M6.65625 11.5107C6.56995 11.5107 6.5 11.4548 6.5 11.3857V10.6357C6.5 10.5667 6.56995 10.5107 6.65625 10.5107H11.3438C11.43 10.5107 11.5 10.5667 11.5 10.6357V11.3857C11.5 11.4548 11.43 11.5107 11.3438 11.5107H6.65625Z" fill="currentColor"/>
<path fill-rule="evenodd" clip-rule="evenodd" d="M4.625 8.48926C4.55597 8.48926 4.5 8.43329 4.5 8.36426V7.61426C4.5 7.54523 4.55597 7.48926 4.625 7.48926H5.375C5.44403 7.48926 5.5 7.54523 5.5 7.61426V8.36426C5.5 8.43329 5.44403 8.48926 5.375 8.48926H4.625Z" fill="currentColor"/>
<path fill-rule="evenodd" clip-rule="evenodd" d="M4.625 11.5107C4.55597 11.5107 4.5 11.4548 4.5 11.3857V10.6357C4.5 10.5667 4.55597 10.5107 4.625 10.5107H5.375C5.44403 10.5107 5.5 10.5667 5.5 10.6357V11.3857C5.5 11.4548 5.44403 11.5107 5.375 11.5107H4.625Z" fill="currentColor"/>
<path fill-rule="evenodd" clip-rule="evenodd" d="M2.90161 6.0032H13.3232V5.0032H2.90161V6.0032Z" fill="currentColor"/>
</g></svg>
