<?xml version="1.0" standalone="no"?>
<svg xmlns="http://www.w3.org/2000/svg" xmlns:xlink="http://www.w3.org/1999/xlink" class="icon" viewBox="0 0 1024 1024">
  <defs>
    <path id="a" d="M0 0 768 0 768 766.0908 0 766.0908z" />
    <path id="c" d="M128 895.0455 896 895.0455 896 128.9545 128 128.9545z" />
  </defs>
  <g fill="none" fill-rule="evenodd" stroke="none" stroke-width="1">
    <g transform="translate(128 128.955)">
      <mask id="b" fill="#fff"><use xlink:href="#a" /></mask>
      <path fill="#181818" d="M736 0H32C14.327 0 0 14.327 0 32v702.091c0 17.673 14.327 32 32 32h704c17.673 0 32-14.327 32-32V32c0-17.673-14.327-32-32-32M64 702.091h640V64H64z" />
    </g>
    <path fill="#181818" d="M726 543.313H426c-5.523 0-10-3.582-10-8v-48c0-4.418 4.477-8 10-8h300c5.523 0 10 3.582 10 8v48c0 4.418-4.477 8-10 8M726 736.687H426c-5.523 0-10-3.582-10-8v-48c0-4.418 4.477-8 10-8h300c5.523 0 10 3.582 10 8v48c0 4.418-4.477 8-10 8M344 543.313h-48a8 8 0 0 1-8-8v-48a8 8 0 0 1 8-8h48a8 8 0 0 1 8 8v48a8 8 0 0 1-8 8M344 736.687h-48a8 8 0 0 1-8-8v-48a8 8 0 0 1 8-8h48a8 8 0 0 1 8 8v48a8 8 0 0 1-8 8" />
    <mask id="d" fill="#fff"><use xlink:href="#c" /></mask>
    <path fill="#181818" d="M185.704 384.2045 852.688 384.2045 852.688 320.2045 185.704 320.2045z" />
  </g>
</svg>
