<svg width="16" height="16" viewBox="0 0 16 16" fill="none" xmlns="http://www.w3.org/2000/svg">
<path d="M5 9C5.58335 9 6.18995 9.1271 6.76172 9.38281C6.51794 9.6226 6.2921 9.89277 6.08984 10.1934C5.73711 10.0694 5.36917 10 5 10C3.8 10 2.04961 10.85 1.59961 13H5.09473C5.0754 13.1629 5.05928 13.3295 5.0498 13.5H9.48047C9.49263 13.6623 9.5 13.8289 9.5 14H0.5C0.5 10.65 2.9 9 5 9ZM5 4.5C6.1 4.5 7 5.4 7 6.5C7 7.6 6.1 8.5 5 8.5C3.9 8.5 3 7.6 3 6.5C3 5.4 3.9 4.5 5 4.5ZM5 5.5C4.45 5.5 4 5.95 4 6.5C4 7.05 4.45 7.5 5 7.5C5.55 7.5 6 7.05 6 6.5C6 5.95 5.55 5.5 5 5.5Z" fill="#5C6B8A"/>
<path d="M10 7.5C12.55 7.5 15.5 9.65 15.5 14H4.5C4.5 9.65 7.45 7.5 10 7.5ZM10.0244 8.5C8.03255 8.51316 5.9979 10.0626 5.59961 13H14.4502C14.0519 10.0624 11.9674 8.51302 10.0244 8.5ZM10.0498 2C11.4498 2 12.5498 3.1 12.5498 4.5C12.5498 5.9 11.4498 7 10.0498 7C8.6499 6.9999 7.5498 5.89994 7.5498 4.5C7.5498 3.10007 8.6499 2.0001 10.0498 2ZM10.0498 3C9.1999 3.0001 8.5498 3.65007 8.5498 4.5C8.5498 5.34993 9.1999 5.9999 10.0498 6C10.8998 6 11.5498 5.35 11.5498 4.5C11.5498 3.65 10.8998 3 10.0498 3Z" fill="#5C6B8A"/>
</svg>
