<svg width="16" height="16" viewBox="0 0 16 16" fill="none" xmlns="http://www.w3.org/2000/svg">
<path d="M11.5 6.1004V9.90021L8 11.7996L4.5 9.90021V6.1004L8 4.20001L11.5 6.1004ZM5.5 6.65021V9.40021L8 10.7498L10.5 9.40021V6.65021L8 5.29962L5.5 6.65021Z" fill="#5C6B8A"/>
<path d="M8 1C8.1 1 8.2 1.0498 8.25 1.0498L14.25 4.2998C14.4 4.3998 14.5 4.55 14.5 4.75V11.2002C14.4999 11.4001 14.4 11.5504 14.25 11.6504L8.25 14.9004C8.1501 14.9503 8.09995 14.9502 8 14.9502C7.9 14.9502 7.8 14.9004 7.75 14.9004L1.75 11.6504C1.60005 11.5504 1.50007 11.4001 1.5 11.2002V4.75C1.5 4.55 1.6 4.3998 1.75 4.2998L7.75 1.0498C7.84995 0.999844 7.90003 1 8 1ZM2.5 5.09961V11L8 14L13.5 11V5.09961L8 2.09961L2.5 5.09961Z" fill="#5C6B8A"/>
<path d="M10.5 6.5L13.5 5" stroke="#5C6B8A"/>
<path d="M5.5 6.5L2.5 5" stroke="#5C6B8A"/>
</svg>
