<?xml version="1.0" standalone="no"?>
<svg xmlns="http://www.w3.org/2000/svg" class="icon" viewBox="0 0 1024 1024">
  <g fill="currentColor" fill-rule="evenodd">
    <path d="M862 191c17.673 0 32 14.327 32 32v672c0 17.673-14.327 32-32 32H162c-17.673 0-32-14.327-32-32V223c0-17.673 14.327-32 32-32h190v64H194v608h636V255H672v-64Z" />
    <path d="M672 95H352c-17.673 0-32 14.327-32 32v160c0 17.673 14.327 32 32 32h320c17.673 0 32-14.327 32-32V127c0-17.673-14.327-32-32-32M384 255h256v-96H384zM696 569.157H328a8 8 0 0 1-8-8v-48a8 8 0 0 1 8-8h368a8 8 0 0 1 8 8v48a8 8 0 0 1-8 8M696 751H328a8 8 0 0 1-8-8v-48a8 8 0 0 1 8-8h368a8 8 0 0 1 8 8v48a8 8 0 0 1-8 8" />
  </g>
</svg>
