<svg viewBox="0 0 1024 1024" xmlns="http://www.w3.org/2000/svg"><g transform="scale(64)">
<path d="M8 1.5C11.5899 1.5 14.5 4.41015 14.5 8C14.5 11.5899 11.5899 14.5 8 14.5C4.41015 14.5 1.5 11.5899 1.5 8C1.5 4.41015 4.41015 1.5 8 1.5ZM7.00488 3.5V8.41504L7.15039 8.56055L10.1328 11.5615L10.4795 11.9111L10.834 11.5703L11.5605 10.8711L11.9258 10.5195L11.5703 10.1592L9.01074 7.5625V3.5H7.00488ZM8.01074 4.5V7.97266L8.1543 8.11816L10.502 10.5L10.4941 10.5078L8.00488 8.00195V4.5H8.01074Z" fill="currentColor"/>
</g></svg>
