<svg width="16" height="16" viewBox="0 0 16 16" fill="none" xmlns="http://www.w3.org/2000/svg">
<path d="M8 1C11.8656 1 15 4.13438 15 8C15 11.8656 11.8656 15 8 15C4.13438 15 1 11.8656 1 8C1 4.13438 4.13438 1 8 1ZM8 2.1875C4.79063 2.1875 2.1875 4.79063 2.1875 8C2.1875 11.2094 4.79063 13.8125 8 13.8125C11.2094 13.8125 13.8125 11.2094 13.8125 8C13.8125 4.79063 11.2094 2.1875 8 2.1875ZM8.37695 4.375C8.44553 4.37521 8.50195 4.43138 8.50195 4.5V8.36719L10.7295 9.97852C10.7857 10.0176 10.7984 10.0955 10.7578 10.1533L10.3105 10.7627C10.2699 10.8171 10.1919 10.8296 10.1357 10.7891L7.55176 8.9043C7.51898 8.88086 7.5 8.84334 7.5 8.80273V4.5C7.5 4.43125 7.55625 4.375 7.625 4.375H8.37695Z" fill="#5C6B8A"/>
</svg>
