<svg width="16" height="16" viewBox="0 0 16 16" fill="none" xmlns="http://www.w3.org/2000/svg">
<path d="M13.5 14H2.5V13H13.5V14ZM13.9502 2C14.25 2.0001 14.4999 2.24996 14.5 2.5498V11.4502C14.4999 11.7501 14.2501 11.9999 13.9502 12H2.0498C1.74995 11.9999 1.5001 11.7501 1.5 11.4502V2.5498C1.50012 2.24996 1.74996 2.0001 2.0498 2H13.9502ZM2.5 11H13.5V3H2.5V11ZM5.7002 5.46582C5.70022 4.87849 6.3121 4.49079 6.84277 4.74219L10.0771 6.27734C10.6861 6.56668 10.6864 7.43352 10.0771 7.72266L6.84277 9.25781L6.74316 9.29785C6.27221 9.45 5.77177 9.13318 5.70703 8.64258L5.7002 8.53516V5.46582ZM6.7002 8.21777L7.28906 7.9375L9.40039 7L6.7002 5.7002V8.21777Z" fill="#5C6B8A"/>
</svg>
