<svg width="16" height="16" viewBox="0 0 16 16" fill="none" xmlns="http://www.w3.org/2000/svg">
<path d="M8 1C11.8656 1 15 4.13438 15 8C15 11.8656 11.8656 15 8 15C4.13438 15 1 11.8656 1 8C1 4.13438 4.13438 1 8 1ZM8 2C4.68666 2 2 4.68666 2 8C2 11.3133 4.68666 14 8 14C11.3133 14 14 11.3133 14 8C14 4.68666 11.3133 2 8 2ZM6.21289 4.86035C6.55492 4.38678 7.19459 4.25885 7.6875 4.54395L7.78418 4.60645L7.78613 4.6084L11.1992 7.08984H11.1982C11.291 7.15707 11.3723 7.23811 11.4404 7.33008H11.4414L11.4531 7.3457H11.4521C11.819 7.85633 11.689 8.55177 11.1982 8.9082L11.1992 8.90918L7.78711 11.3916L7.7793 11.3965C7.58476 11.5354 7.3561 11.6064 7.125 11.6064C6.50397 11.6064 6.00001 11.1025 6 10.4814V5.51855C6.00008 5.28755 6.07107 5.05871 6.20996 4.86426L6.21289 4.86035ZM7.19824 5.41699C7.14206 5.37668 7.06401 5.38929 7.02344 5.44531C7.0079 5.46707 7.00008 5.49215 7 5.51855V10.4814C7.00002 10.5502 7.05626 10.6064 7.125 10.6064C7.15151 10.6064 7.1764 10.5986 7.19824 10.583L10.6113 8.10059C10.6675 8.05995 10.6793 7.98142 10.6387 7.92676C10.6309 7.91596 10.6221 7.90618 10.6113 7.89844L7.19824 5.41699ZM10.0156 7.2959L10.0225 7.29199L10.0254 7.28906C10.0222 7.29134 10.0187 7.29358 10.0156 7.2959Z" fill="#5C6B8A"/>
</svg>
