<?xml version="1.0" standalone="no"?>
<svg xmlns="http://www.w3.org/2000/svg" class="icon" viewBox="0 0 1024 1024">
  <path d="M265.223 191.44h345.986c187.229 0 339.007 151.778 339.007 339.006 0 187.228-151.778 339.007-339.007 339.007H457.39a3.988 3.988 0 0 1-3.99-3.989v-79.766a3.988 3.988 0 0 1 3.99-3.988h153.82c138.77 0 251.264-112.495 251.264-251.264 0-138.77-112.494-251.264-251.264-251.264H265.223v105.353c0 8.569-9.945 13.429-16.574 8.057L67.734 249.35c-5.228-4.092-5.228-12.022 0-16.114L248.649 89.994c6.757-5.372 16.574-0.512 16.574 8.057v93.388z" p-id="46568"></path>
</svg>
