<?xml version="1.0" standalone="no"?>
<svg xmlns="http://www.w3.org/2000/svg" class="icon" viewBox="0 0 1024 1024">
  <path d="M904 792c4.4 0 8 3.6 8 8v56c0 4.4-3.6 8-8 8H120c-4.4 0-8-3.6-8-8v-56c0-4.4 3.6-8 8-8zM277.69 160c4.4 0 8 3.562 8 7.916l0.226 411.057h74.1c6.7 0 10.4 7.62 6.3 12.766l-112 140.218c-3.2 4.057-9.4 4.057-12.6 0l-112-140.317c-4.1-5.146-0.4-12.765 6.3-12.765h73.9l-0.225-410.959c0-4.354 3.6-7.916 8-7.916z m612.73 314c3.069 0 5.58 3.6 5.58 8v56c0 4.4-2.511 8-5.58 8H555.58c-3.069 0-5.58-3.6-5.58-8v-56c0-4.4 2.511-8 5.58-8z m0-314c3.069 0 5.58 3.6 5.58 8v56c0 4.4-2.511 8-5.58 8H555.58c-3.069 0-5.58-3.6-5.58-8v-56c0-4.4 2.511-8 5.58-8z" p-id="47018"></path>
</svg>
