<svg viewBox="0 0 1024 1024" xmlns="http://www.w3.org/2000/svg"><g transform="scale(64)">
<path fill-rule="evenodd" clip-rule="evenodd" d="M5.79998 9.5L6.44998 13H2.14998L2.79998 9.5H5.84998M6.19998 8.5H2.34998C2.09998 8.5 1.89998 8.65 1.84998 8.9L1.04998 13.4C0.999982 13.7 1.24998 14 1.54998 14H7.04998C7.34998 14 7.59998 13.7 7.54998 13.4L6.74998 8.9C6.74998 8.65 6.49998 8.5 6.24998 8.5H6.19998Z" fill="currentColor"/>
<path fill-rule="evenodd" clip-rule="evenodd" d="M9.54998 3L10.2 6.5H5.89998L6.54998 3H9.59998M9.94998 2H6.09998C5.84998 2 5.64998 2.15 5.59998 2.4L4.79998 6.9C4.74998 7.2 4.99998 7.5 5.29998 7.5H10.8C11.1 7.5 11.35 7.2 11.3 6.9L10.5 2.4C10.5 2.15 10.25 2 9.99998 2H9.94998Z" fill="currentColor"/>
<path fill-rule="evenodd" clip-rule="evenodd" d="M13.3 9.5L13.95 13H9.64998L10.3 9.5H13.35M13.7 8.5H9.84998C9.59998 8.5 9.39998 8.65 9.34998 8.9L8.54998 13.4C8.49998 13.7 8.74998 14 9.04998 14H14.55C14.85 14 15.1 13.7 15.05 13.4L14.25 8.9C14.25 8.65 14 8.5 13.75 8.5H13.7Z" fill="currentColor"/>
</g></svg>
