<svg width="16" height="16" viewBox="0 0 16 16" fill="none" xmlns="http://www.w3.org/2000/svg">
<path fill-rule="evenodd" clip-rule="evenodd" d="M13.914 8.80156L8.40465 1.20625C8.20466 0.93125 7.79528 0.93125 7.59684 1.20625L2.0859 8.80156C2.02653 8.88437 2.08434 9 2.18747 9H3.35934C3.43903 9 3.51403 8.96094 3.5609 8.89687L7.99997 2.77813L12.439 8.89687C12.4859 8.96094 12.5609 9 12.6406 9H13.8125C13.914 9 13.9734 8.88437 13.914 8.80156Z" fill="#5C6B8A"/>
<path fill-rule="evenodd" clip-rule="evenodd" d="M13.914 14.8016L8.40465 7.20625C8.20466 6.93125 7.79528 6.93125 7.59684 7.20625L2.0859 14.8016C2.02653 14.8844 2.08434 15 2.18747 15H3.35934C3.43903 15 3.51403 14.9609 3.5609 14.8969L7.99997 8.77813L12.439 14.8969C12.4859 14.9609 12.5609 15 12.6406 15H13.8125C13.914 15 13.9734 14.8844 13.914 14.8016Z" fill="#5C6B8A"/>
</svg>
