<svg viewBox="0 0 1024 1024" xmlns="http://www.w3.org/2000/svg"><g transform="scale(64)">
<path d="M13.75 1.75C14.0266 1.75 14.25 1.97344 14.25 2.25V13.75C14.25 14.0266 14.0266 14.25 13.75 14.25H2.25C1.97344 14.25 1.75 14.0266 1.75 13.75V2.25C1.75 1.97344 1.97344 1.75 2.25 1.75H13.75ZM2.875 13.125H13.125V2.875H2.875V13.125ZM7.89844 6.30176C7.94842 6.23303 8.04959 6.23307 8.09961 6.30176L10.8809 10.1455C10.9402 10.2283 10.8809 10.3438 10.7793 10.3438H10.0469C9.88763 10.3438 9.73635 10.2672 9.64258 10.1377L8 7.86523L6.35645 10.1377C6.26269 10.2674 6.11209 10.3438 5.95117 10.3438H5.21875C5.11724 10.3438 5.05797 10.2283 5.11719 10.1455L7.89844 6.30176Z" fill="currentColor"/>
</g></svg>
