<svg viewBox="0 0 1024 1024" xmlns="http://www.w3.org/2000/svg"><g transform="scale(64)">
<path fill-rule="evenodd" clip-rule="evenodd" d="M6.25 4.96406H7.40469V10.25C7.40469 10.3187 7.46094 10.375 7.52969 10.375H8.46719C8.53594 10.375 8.59219 10.3187 8.59219 10.25V4.96406H9.75C9.85469 4.96406 9.9125 4.84375 9.84844 4.7625L8.09844 2.54687C8.04844 2.48281 7.95156 2.48281 7.90156 2.54687L6.15156 4.76093C6.0875 4.84375 6.14531 4.96406 6.25 4.96406ZM13.7188 9.78125H12.7812C12.7125 9.78125 12.6562 9.8375 12.6562 9.90625V12.3125H3.34375V9.90625C3.34375 9.8375 3.2875 9.78125 3.21875 9.78125H2.28125C2.2125 9.78125 2.15625 9.8375 2.15625 9.90625V13C2.15625 13.2766 2.37969 13.5 2.65625 13.5H13.3438C13.6203 13.5 13.8438 13.2766 13.8438 13V9.90625C13.8438 9.8375 13.7875 9.78125 13.7188 9.78125Z" fill="currentColor"/>
<mask id="mask0_2088_3355" maskUnits="userSpaceOnUse" x="2" y="2" width="12" height="12">
<path fill-rule="evenodd" clip-rule="evenodd" d="M6.25 4.96406H7.40469V10.25C7.40469 10.3187 7.46094 10.375 7.52969 10.375H8.46719C8.53594 10.375 8.59219 10.3187 8.59219 10.25V4.96406H9.75C9.85469 4.96406 9.9125 4.84375 9.84844 4.7625L8.09844 2.54687C8.04844 2.48281 7.95156 2.48281 7.90156 2.54687L6.15156 4.76093C6.0875 4.84375 6.14531 4.96406 6.25 4.96406ZM13.7188 9.78125H12.7812C12.7125 9.78125 12.6562 9.8375 12.6562 9.90625V12.3125H3.34375V9.90625C3.34375 9.8375 3.2875 9.78125 3.21875 9.78125H2.28125C2.2125 9.78125 2.15625 9.8375 2.15625 9.90625V13C2.15625 13.2766 2.37969 13.5 2.65625 13.5H13.3438C13.6203 13.5 13.8438 13.2766 13.8438 13V9.90625C13.8438 9.8375 13.7875 9.78125 13.7188 9.78125Z" fill="currentColor"/>
</mask>
<g mask="url(#mask0_2088_3355)">
</g>
</g></svg>
