<?xml version="1.0" standalone="no"?>
<svg xmlns="http://www.w3.org/2000/svg" xmlns:xlink="http://www.w3.org/1999/xlink" class="icon" viewBox="0 0 1024 1024">
  <defs><path id="a" d="M0 1.13686838e-13 782.893 1.13686838e-13 782.893 391.929 0 391.929z" /></defs>
  <g fill="none" fill-rule="evenodd" stroke="none" stroke-width="1">
    <path d="M0 0H1024V1024H0z" />
    <path fill="#181818" d="M512.542 125.605c-121.531 0-220.051 98.52-220.051 220.05 0 121.532 98.52 220.053 220.05 220.053 121.532 0 220.052-98.521 220.052-220.052 0-121.53-98.52-220.051-220.051-220.051m0 64c41.683 0 80.87 16.232 110.345 45.706 29.474 29.475 45.706 68.662 45.706 110.345 0 41.681-16.232 80.87-45.706 110.344-29.474 29.474-68.662 45.707-110.345 45.707-41.683 0-80.871-16.233-110.345-45.707-29.474-29.473-45.706-68.663-45.706-110.344 0-41.683 16.232-80.87 45.706-110.346 29.474-29.473 68.662-45.705 110.345-45.705" />
    <g transform="translate(120.553 506.466)">
      <mask id="b" fill="#fff"><use xlink:href="#a" /></mask>
      <path fill="#181818" d="M774.886 391.929h-48.012c-4.353 0-7.89-3.482-7.99-7.834-1.97-84.667-35.83-163.97-95.853-224.06C561.171 98.107 478.925 64 391.446 64c-87.479 0-169.723 34.107-231.584 96.035-60.022 60.09-93.883 139.393-95.852 224.06-.1 4.352-3.638 7.834-7.99 7.834H8.006c-4.476 0-8.096-3.673-8.007-8.148 1.011-50.015 11.324-98.556 30.695-144.407 19.72-46.673 47.943-88.584 83.887-124.568 35.947-35.986 77.815-64.244 124.443-83.988C287.318 10.368 338.6 0 391.446 0c52.847 0 104.13 10.368 152.422 30.818 46.628 19.744 88.496 48.002 124.443 83.988 35.944 35.984 64.167 77.895 83.886 124.568 19.372 45.851 29.685 94.392 30.697 144.407.088 4.475-3.532 8.148-8.008 8.148" mask="url(#b)" />
    </g>
  </g>
</svg>
