<svg width="16" height="16" viewBox="0 0 16 16" fill="none" xmlns="http://www.w3.org/2000/svg">
<path fill-rule="evenodd" clip-rule="evenodd" d="M8.00854 1.00391C6.07554 1.00391 4.50854 2.57091 4.50854 4.50391C4.50854 6.43691 6.07554 8.00391 8.00854 8.00391C9.94155 8.00391 11.5085 6.43691 11.5085 4.50391C11.5085 2.57091 9.94155 1.00391 8.00854 1.00391ZM8.00854 2.00391C8.67631 2.00391 9.30412 2.26395 9.77631 2.73614C10.2485 3.20833 10.5085 3.83614 10.5085 4.50391C10.5085 5.17167 10.2485 5.79948 9.77631 6.27167C9.30412 6.74386 8.67631 7.00391 8.00854 7.00391C7.34078 7.00391 6.71297 6.74386 6.24078 6.27167C5.76859 5.79948 5.50854 5.17167 5.50854 4.50391C5.50854 3.83614 5.76859 3.20833 6.24078 2.73614C6.71297 2.26395 7.34078 2.00391 8.00854 2.00391Z" fill="#5C6B8A"/>
<path fill-rule="evenodd" clip-rule="evenodd" d="M13.2416 14.9961H13.8038C13.9068 14.9961 13.9656 14.8785 13.9038 14.7961L13.0488 13.655C12.9768 13.5588 12.8647 13.5048 12.7487 13.5048C12.7127 13.5048 12.6764 13.51 12.6408 13.5207C11.8707 13.7522 11.0293 13.4751 10.5469 12.8313C10.182 12.3443 10.0762 11.7192 10.2361 11.1518L10.8877 12.0215C11.0744 12.2707 11.3469 12.4322 11.6551 12.4764C11.9633 12.5206 12.2702 12.4421 12.5194 12.2554C13.0337 11.87 13.1387 11.1381 12.7533 10.6237L12.1016 9.75399C12.691 9.75999 13.2614 10.0371 13.6262 10.5241C14.1085 11.1679 14.1381 12.0533 13.6997 12.7273C13.6139 12.8592 13.6196 13.0307 13.7139 13.1566L14.7652 14.5597C14.8373 14.6559 14.9903 14.6049 14.9903 14.4848V13.6926C14.9903 13.6385 14.9728 13.5859 14.9403 13.5427L14.4628 12.9053C14.669 12.5068 14.7711 12.0636 14.7598 11.6091C14.7459 11.0522 14.5615 10.5215 14.2264 10.0743C13.8914 9.62718 13.4338 9.30109 12.9032 9.13135C12.3869 8.96617 11.8407 8.96031 11.3232 9.11438C11.2351 9.14063 11.1573 9.19599 11.1082 9.27371C11.0227 9.40887 11.0324 9.57784 11.1243 9.7004L12.1474 11.0659C12.2851 11.2496 12.2552 11.5136 12.0726 11.6529C11.9833 11.7211 11.8727 11.7499 11.7615 11.734C11.6517 11.7182 11.5545 11.6606 11.4879 11.5718L10.4592 10.1987C10.3857 10.1007 10.2689 10.0449 10.1466 10.0488C10.0242 10.0529 9.91151 10.1164 9.84473 10.2191C9.54893 10.6738 9.39976 11.2019 9.41332 11.7462C9.42718 12.3031 9.61162 12.8339 9.94667 13.281C10.2817 13.7282 10.7393 14.0543 11.2699 14.224C11.7029 14.3626 12.1569 14.389 12.5973 14.3031L13.0415 14.896C13.0887 14.959 13.1628 14.9961 13.2416 14.9961Z" fill="#5C6B8A"/>
<path fill-rule="evenodd" clip-rule="evenodd" d="M9.76321 8.59785C9.23034 8.47261 8.68018 8.40814 8.12195 8.40814C6.30507 8.40814 4.57356 9.09069 3.24635 10.3301C1.96723 11.5246 1.17732 13.1274 1.01023 14.8593C1.00315 14.9326 1.06109 14.9961 1.13479 14.9961H1.88893C1.9527 14.9961 2.00621 14.9481 2.01307 14.8847C2.17117 13.423 2.84612 12.072 3.92887 11.061C5.07021 9.99513 6.55935 9.40814 8.12195 9.40814C8.44421 9.40814 8.76334 9.43325 9.07695 9.48227C9.12165 9.48925 9.16681 9.47214 9.19475 9.43655C9.37535 9.20652 9.58282 8.99858 9.81245 8.81749C9.89454 8.75274 9.865 8.62177 9.76321 8.59785Z" fill="#5C6B8A"/>
</svg>
