<?xml version="1.0" standalone="no"?>
<svg xmlns="http://www.w3.org/2000/svg" class="icon" viewBox="0 0 1024 1024">
  <path d="M824.192 699.904a301.568 301.568 0 0 0-86.4-60.416 199.552 199.552 0 0 0 74.24-155.52 201.216 201.216 0 0 0-203.264-200 200.128 200.128 0 0 0-122.752 355.52c-31.744 14.72-60.928 34.88-86.4 60.416a298.048 298.048 0 0 0-87.616 203.904 8 8 0 0 0 8 8.192h56A7.936 7.936 0 0 0 384 904.32a226.048 226.048 0 0 1 66.688-153.536 226.624 226.624 0 0 1 161.28-66.752c60.928 0 118.208 23.68 161.28 66.752a226.944 226.944 0 0 1 66.752 153.536c0.128 4.288 3.712 7.68 8 7.68h56c4.48 0 8.128-3.712 8-8.192a297.408 297.408 0 0 0-87.808-203.904zM611.968 612.032a126.912 126.912 0 0 1-90.496-37.504 128.192 128.192 0 0 1 89.216-218.496 128.768 128.768 0 0 1 91.008 36.544c24.832 24.32 38.4 56.832 38.4 91.392 0 34.24-13.312 66.304-37.504 90.56a127.36 127.36 0 0 1-90.56 37.44zM361.536 510.336a256.384 256.384 0 0 1 2.944-72.96 8.064 8.064 0 0 0-4.48-8.768 127.552 127.552 0 0 1-75.584-120.512 127.36 127.36 0 0 1 36.224-85.568 127.36 127.36 0 0 1 93.248-38.72 127.872 127.872 0 0 1 106.368 58.88 8 8 0 0 0 9.28 3.2c17.6-6.144 36.224-10.432 55.296-12.48a8 8 0 0 0 6.336-11.52A200.32 200.32 0 0 0 415.36 112c-110.912-1.728-203.328 89.216-203.328 199.872 0 62.848 28.928 118.848 74.24 155.52-31.808 14.72-61.12 35.008-86.528 60.416a297.408 297.408 0 0 0-87.808 203.968 8 8 0 0 0 8 8.256h56.128a7.936 7.936 0 0 0 8-7.68 226.048 226.048 0 0 1 66.688-153.6 225.728 225.728 0 0 1 104.704-59.648 8 8 0 0 0 5.952-8.704z"></path>
</svg>
