<svg viewBox="0 0 1024 1024" xmlns="http://www.w3.org/2000/svg"><g transform="scale(64)">
<path fill-rule="evenodd" clip-rule="evenodd" d="M8.00849 1.96259C6.10957 1.96259 4.57019 3.50198 4.57019 5.40088C4.57019 7.2998 6.10957 8.83919 8.00849 8.83919C9.90741 8.83919 11.4468 7.2998 11.4468 5.40088C11.4468 3.50198 9.90741 1.96259 8.00849 1.96259ZM8.00849 2.96259C8.65978 2.96259 9.2721 3.21621 9.73263 3.67674C10.1932 4.13729 10.4468 4.74959 10.4468 5.40088C10.4468 6.05216 10.1932 6.66449 9.73263 7.12502C9.2721 7.58555 8.65978 7.83919 8.00849 7.83919C7.35719 7.83919 6.74488 7.58555 6.28435 7.12502C5.82382 6.66449 5.57019 6.05216 5.57019 5.40088C5.57019 4.74959 5.82382 4.13729 6.28435 3.67674C6.74488 3.21621 7.35719 2.96259 8.00849 2.96259Z" fill="currentColor"/>
<path fill-rule="evenodd" clip-rule="evenodd" d="M13.9913 14.0374H13.2411C13.1731 14.0374 13.1178 13.983 13.1162 13.915C13.0855 12.5921 12.5564 11.353 11.6185 10.4141C10.652 9.44647 9.36688 8.91354 8.00002 8.91354C6.63316 8.91354 5.3481 9.44647 4.38152 10.4141C3.44368 11.353 2.9146 12.5921 2.88383 13.915C2.88226 13.983 2.82699 14.0374 2.75897 14.0374H2.00879C1.93885 14.0374 1.88229 13.98 1.88369 13.9101C1.89947 13.1286 2.06061 12.3702 2.36329 11.6538C2.67141 10.9245 3.1124 10.2696 3.67402 9.70739C4.23569 9.14511 4.88988 8.70357 5.61844 8.39507C6.37302 8.07554 7.1743 7.91354 8.00002 7.91354C8.82576 7.91354 9.62704 8.07554 10.3816 8.39507C11.1102 8.70357 11.7644 9.14511 12.326 9.70739C12.8877 10.2696 13.3286 10.9245 13.6368 11.6538C13.9394 12.3702 14.1006 13.1286 14.1164 13.9101C14.1178 13.98 14.0612 14.0374 13.9913 14.0374Z" fill="currentColor"/>
</g></svg>
