<?xml version="1.0" standalone="no"?>
<svg xmlns="http://www.w3.org/2000/svg" class="icon" viewBox="0 0 1024 1024">
  <g fill="currentColor" fill-rule="evenodd">
    <path d="M896 96H128c-17.673 0-32 14.327-32 32v768c0 17.673 14.327 32 32 32h768c17.673 0 32-14.327 32-32V128c0-17.673-14.327-32-32-32M160 864h704V160H160z" />
    <path d="M511.93 243.235c-82.054 0-148.572 66.518-148.572 148.57 0 82.055 66.518 148.573 148.572 148.573s148.572-66.518 148.572-148.572c0-82.053-66.518-148.571-148.572-148.571m0 64c46.633 0 84.572 37.938 84.572 84.57 0 46.634-37.939 84.573-84.572 84.573s-84.572-37.94-84.572-84.572c0-46.633 37.94-84.571 84.572-84.571" />
    <path d="M805.312 809.799h-48.065c-4.318 0-7.812-3.447-7.95-7.762-2.878-90.225-55.887-171.768-145.717-212.503a10.292 10.292 0 0 0-.585-.243c-94.966-35.708-192.913-13.34-258.878 52.626-42.998 42.998-67.473 99.585-69.414 160.077-.139 4.34-3.654 7.805-7.997 7.805h-48.018c-4.485 0-8.12-3.69-8.004-8.173 3.05-115.241 70.477-219.547 185.128-271.503.188-.086.38-.165.574-.238 120.593-45.383 244.983-16.991 328.751 66.777 55.001 55.002 86.13 127.516 88.18 204.97.114 4.482-3.52 8.167-8.005 8.167" />
  </g>
</svg>
