<?xml version="1.0" standalone="no"?>
<svg xmlns="http://www.w3.org/2000/svg" xmlns:xlink="http://www.w3.org/1999/xlink" class="icon" viewBox="0 0 1024 1024">
  <defs><path id="a" d="M0 0 448 0 448 447.9999 0 447.9999z" /></defs>
  <g fill="none" fill-rule="evenodd" stroke="none" stroke-width="1">
    <g transform="translate(288.546 64.25)">
      <mask id="b" fill="#fff"><use xlink:href="#a" /></mask>
      <path fill="#181818" d="M224 0C100.288 0 0 100.288 0 224s100.288 224 224 224 224-100.288 224-224S347.712 0 224 0m0 64c42.737 0 82.917 16.643 113.137 46.863S384 181.263 384 224c0 42.737-16.643 82.917-46.863 113.137S266.737 384 224 384c-42.737 0-82.917-16.643-113.137-46.863S64 266.737 64 224c0-42.737 16.643-82.917 46.863-113.137S181.263 64 224 64" />
    </g>
    <path fill="#181818" d="M847.463 959.75h35.984c6.59 0 10.354-7.523 6.402-12.797l-54.722-73.034a24.001 24.001 0 0 0-26.115-8.593c-49.283 14.814-103.136-2.917-134.01-44.121-23.351-31.167-30.122-71.178-19.89-107.491l41.706 55.663c11.948 15.946 29.39 26.285 49.113 29.112 19.723 2.827 39.367-2.196 55.313-14.143 32.917-24.664 39.633-71.51 14.969-104.427l-41.706-55.663c37.722.384 74.225 18.12 97.576 49.284 30.867 41.204 32.76 97.873 4.7 141.007a24.002 24.002 0 0 0 .912 27.478l67.284 89.799c4.61 6.155 14.402 2.893 14.402-4.797v-50.702c0-3.459-1.121-6.826-3.196-9.594l-30.562-40.789c13.194-25.508 19.73-53.87 19.007-82.956-.888-35.643-12.691-69.609-34.134-98.228-21.443-28.618-50.727-49.488-84.686-60.351-33.047-10.572-68.003-10.947-101.12-1.086-5.64 1.68-10.617 5.223-13.762 10.197-5.471 8.65-4.848 19.464 1.03 27.308l65.478 87.39c8.813 11.761 6.899 28.657-4.784 37.572-5.718 4.363-12.8 6.207-19.91 5.186-7.031-1.007-13.25-4.693-17.51-10.379L669.39 652.72a24.03 24.03 0 0 0-20.003-9.596 24 24 0 0 0-19.322 10.9c-18.931 29.101-28.478 62.897-27.61 97.735.887 35.642 12.69 69.61 34.134 98.228 21.442 28.618 50.727 49.487 84.685 60.352 27.712 8.865 56.767 10.559 84.953 5.061l28.43 37.944a16.003 16.003 0 0 0 12.805 6.406M627.999 564.32c5.254-4.144 3.363-12.526-3.151-14.057-34.104-8.015-69.314-12.141-105.041-12.141-116.28 0-227.097 43.683-312.038 123.004C125.905 737.573 75.35 840.155 64.657 950.993c-.453 4.695 3.255 8.757 7.972 8.757h48.265a7.989 7.989 0 0 0 7.945-7.13c10.118-93.548 53.315-180.008 122.61-244.718 73.047-68.213 168.352-105.78 268.358-105.78a395.71 395.71 0 0 1 61.12 4.744c2.86.447 5.75-.648 7.539-2.926a236.39 236.39 0 0 1 39.533-39.62" />
  </g>
</svg>
