<svg viewBox="0 0 1024 1024" xmlns="http://www.w3.org/2000/svg"><g transform="scale(64)">
<path d="M7.48242 13.8271C7.13158 13.8509 6.76974 13.8662 6.39941 13.8662C3.14635 13.8661 0.533299 12.9066 0.533203 11.7334V2.13379C0.533203 0.96051 3.14629 8.96717e-05 6.39941 0C9.65275 0 12.2666 0.960456 12.2666 2.13379V7.60059C12.1982 7.58299 12.1292 7.56689 12.0596 7.55273C11.9902 7.53855 11.9202 7.5264 11.8496 7.51562C11.9202 7.52629 11.9901 7.53959 12.0596 7.55371C14.0038 7.95154 15.4668 9.67155 15.4668 11.7334C15.4667 14.0896 13.5564 15.9998 11.2002 16C9.6049 16 8.21442 15.1239 7.48242 13.8271ZM11.2002 8.4668C9.39612 8.46683 7.93363 9.92932 7.93359 11.7334C7.93366 13.5374 9.39614 15 11.2002 15C13.0041 14.9998 14.4667 13.5373 14.4668 11.7334C14.4668 9.92943 13.0041 8.46701 11.2002 8.4668ZM12.9814 10.2188C13.0429 10.2192 13.0787 10.2896 13.043 10.3398L11.0371 13.1211C10.9158 13.2894 10.6664 13.2892 10.5449 13.1211L9.35742 11.4756C9.32122 11.4252 9.35711 11.3547 9.41895 11.3545H9.86621C9.96342 11.3547 10.0552 11.4015 10.1123 11.4805L10.791 12.4219L12.2881 10.3457C12.3452 10.2665 12.4368 10.2188 12.5342 10.2188H12.9814ZM7.13477 13.0303C7.14263 13.0548 7.15088 13.0792 7.15918 13.1035C7.15092 13.0792 7.14259 13.0548 7.13477 13.0303ZM1.59961 11.6797C1.86626 11.9997 3.46637 12.7997 6.39941 12.7998C6.62896 12.7998 6.85025 12.7928 7.06348 12.7842C6.97834 12.4481 6.9336 12.096 6.93359 11.7334C6.9336 11.1531 7.04991 10.6 7.25977 10.0957C7.25798 10.1 7.25568 10.1041 7.25391 10.1084C6.9751 10.1233 6.68987 10.1328 6.39941 10.1328C4.40874 10.1328 2.65885 9.77135 1.59961 9.22363V11.6797ZM7.39844 9.79492C7.3946 9.80244 7.39051 9.80984 7.38672 9.81738C7.39052 9.80984 7.3946 9.80244 7.39844 9.79492ZM7.75098 9.22363C7.73837 9.24095 7.72524 9.25788 7.71289 9.27539C7.72525 9.25789 7.73836 9.24094 7.75098 9.22363ZM11.2002 5.49023C10.1409 6.03816 8.39036 6.40039 6.39941 6.40039C4.40869 6.40034 2.65884 6.03811 1.59961 5.49023V7.94629C1.86626 8.26627 3.46637 9.06632 6.39941 9.06641C6.95783 9.06641 7.46787 9.03859 7.92969 8.99219C7.92612 8.99643 7.92249 9.00062 7.91895 9.00488C8.70158 8.06481 9.88136 7.46682 11.2002 7.4668V5.49023ZM6.39941 1.06641C3.46637 1.06648 1.86626 1.81321 1.59961 2.18652V4.21289C1.86626 4.53287 3.46637 5.33292 6.39941 5.33301C9.33275 5.33301 10.9335 4.58622 11.2002 4.21289V2.18652C10.9335 1.86652 9.33275 1.06641 6.39941 1.06641Z" fill="currentColor"/>
</g></svg>
