<?xml version="1.0" standalone="no"?>
<svg xmlns="http://www.w3.org/2000/svg" class="icon" viewBox="0 0 1024 1024">
  <g fill="currentColor" fill-rule="evenodd">
    <path d="M896 96H128c-17.673 0-32 14.327-32 32v768c0 17.673 14.327 32 32 32h768c17.673 0 32-14.327 32-32V128c0-17.673-14.327-32-32-32M160 864h704V160H160z" />
    <path d="M544.04 237.659a32.05 32.05 0 0 0-10.976 1.954l-288 104.728A31.999 31.999 0 0 0 224 374.414v388.354a8 8 0 0 0 8 8h48a8 8 0 0 0 8-8v-365.94l224-81.455v447.395a8 8 0 0 0 8 8h48a8 8 0 0 0 8-8V269.687c0-18.31-14.998-32.028-31.96-32.028" />
    <path d="M775.148 476.305 512 416v346.768a8 8 0 0 0 8 8h48a8 8 0 0 0 8-8V496.326l160 36.667V762.768a8 8 0 0 0 8 8h48a8 8 0 0 0 8-8V507.496c0-14.92-10.31-27.858-24.852-31.191M440 448h-80a8 8 0 0 0-8 8v48a8 8 0 0 0 8 8h80a8 8 0 0 0 8-8v-48a8 8 0 0 0-8-8M440 576h-80a8 8 0 0 0-8 8v48a8 8 0 0 0 8 8h80a8 8 0 0 0 8-8v-48a8 8 0 0 0-8-8" />
  </g>
</svg>
