<?xml version="1.0" standalone="no"?>
<svg xmlns="http://www.w3.org/2000/svg" class="icon" viewBox="0 0 1024 1024">
  <g fill="currentColor" fill-rule="evenodd">
    <path d="M864 176H160c-17.673 0-32 14.327-32 32v480c0 17.673 14.327 32 32 32h704c17.673 0 32-14.327 32-32V208c0-17.673-14.327-32-32-32M192 656h640V240H192z" />
    <path d="M350.113 299.88a7.986 7.986 0 0 0-6.356 3.135l-29.187 38.106a8 8 0 0 0 1.486 11.216L420.063 432l-104.007 79.662a8 8 0 0 0-1.486 11.216l29.187 38.106a7.983 7.983 0 0 0 6.356 3.136 7.962 7.962 0 0 0 4.859-1.649l137.175-105.067c16.723-12.808 16.723-38 0-50.809L354.972 301.528a7.969 7.969 0 0 0-4.86-1.649M672.159 500.12h-144a8 8 0 0 0-8 8v48a8 8 0 0 0 8 8h144a8 8 0 0 0 8-8v-48a8 8 0 0 0-8-8M952 848H72a8 8 0 0 1-8-8v-48a8 8 0 0 1 8-8h880a8 8 0 0 1 8 8v48a8 8 0 0 1-8 8" />
  </g>
</svg>
