<svg width="16" height="16" viewBox="0 0 16 16" fill="none" xmlns="http://www.w3.org/2000/svg">
<path fill-rule="evenodd" clip-rule="evenodd" d="M13.5 2.75H2.5C2.22386 2.75 2 2.97386 2 3.25V10.75C2 11.0261 2.22386 11.25 2.5 11.25H13.5C13.7761 11.25 14 11.0261 14 10.75V3.25C14 2.97386 13.7761 2.75 13.5 2.75ZM3 10.25H13V3.75H3V10.25Z" fill="#5C6B8A"/>
<path fill-rule="evenodd" clip-rule="evenodd" d="M5.47054 4.68561C5.43297 4.68561 5.39582 4.70248 5.37122 4.73461L4.91518 5.33001C4.87319 5.38483 4.8836 5.46328 4.9384 5.50526L6.56351 6.75L4.9384 7.99472C4.8836 8.0367 4.87319 8.11515 4.91518 8.16997L5.37122 8.76537C5.39582 8.79751 5.43297 8.81437 5.47054 8.81437C5.49705 8.81437 5.52379 8.80598 5.54646 8.78861L7.68982 7.14694C7.95112 6.94681 7.95112 6.55317 7.68982 6.35305L5.54646 4.71137C5.52379 4.69401 5.49705 4.68561 5.47054 4.68561Z" fill="#5C6B8A"/>
<path fill-rule="evenodd" clip-rule="evenodd" d="M10.5024 7.81439H8.25244C8.18341 7.81439 8.12744 7.87036 8.12744 7.93939V8.68939C8.12744 8.75842 8.18341 8.81439 8.25244 8.81439H10.5024C10.5715 8.81439 10.6274 8.75842 10.6274 8.68939V7.93939C10.6274 7.87036 10.5715 7.81439 10.5024 7.81439Z" fill="#5C6B8A"/>
<path fill-rule="evenodd" clip-rule="evenodd" d="M14.875 13.25H1.125C1.05597 13.25 1 13.194 1 13.125V12.375C1 12.306 1.05597 12.25 1.125 12.25H14.875C14.944 12.25 15 12.306 15 12.375V13.125C15 13.194 14.944 13.25 14.875 13.25Z" fill="#5C6B8A"/>
</svg>
