<svg width="16" height="16" viewBox="0 0 16 16" fill="none" xmlns="http://www.w3.org/2000/svg">
<path fill-rule="evenodd" clip-rule="evenodd" d="M10.9992 2H4.99109C4.71495 2 4.49109 2.22386 4.49109 2.5V13.5C4.49109 13.7761 4.71495 14 4.99109 14H10.9992C11.2753 14 11.4992 13.7761 11.4992 13.5V2.5C11.4992 2.22386 11.2753 2 10.9992 2ZM5.49109 13H10.4992V3H5.49109V13Z" fill="#5C6B8A"/>
<path fill-rule="evenodd" clip-rule="evenodd" d="M2.99914 4C3.27252 4 3.49465 4.2194 3.49907 4.49173L3.49914 4.5V11.5C3.49914 11.7734 3.27973 11.9955 3.0074 11.9999L2.99914 12H0.985229V11L2.49914 11V5L0.985229 5V4H2.99914Z" fill="#5C6B8A"/>
<path fill-rule="evenodd" clip-rule="evenodd" d="M12.9911 12C12.7177 12 12.4956 11.7806 12.4912 11.5083L12.4911 11.5V4.5C12.4911 4.22662 12.7105 4.00448 12.9828 4.00007L12.9911 4H15.005V5L13.4911 5V11L15.005 11V12H12.9911Z" fill="#5C6B8A"/>
</svg>
