<svg viewBox="0 0 1024 1024" xmlns="http://www.w3.org/2000/svg"><g transform="scale(64)">
<path fill-rule="evenodd" clip-rule="evenodd" d="M12.1093 11.2656L14.3906 13.5469C14.4339 13.5969 14.4339 13.6766 14.3906 13.7188L13.7187 14.3906C13.6765 14.434 13.5969 14.434 13.5468 14.3906L11.2656 12.1094C8.93844 14.0176 5.49242 13.885 3.31245 11.7031C0.998714 9.39117 0.998714 5.63376 3.31245 3.31251C5.63362 0.998757 9.39095 0.998757 11.7031 3.31251C13.8846 5.49246 14.0172 8.93835 12.1093 11.2656ZM10.875 10.875C12.7293 9.0194 12.7293 6.01187 10.875 4.15626C9.01934 2.30188 6.01181 2.30188 4.1562 4.15626C2.30183 6.01187 2.30183 9.0194 4.1562 10.875C6.01181 12.7294 9.01934 12.7294 10.875 10.875ZM5.07808 6.92188H9.95308C10.0218 6.92188 10.0781 6.97813 10.0781 7.04688V7.98438C10.0781 8.05313 10.0218 8.10938 9.95308 8.10938H5.07808C5.00933 8.10938 4.95308 8.05313 4.95308 7.98438V7.04688C4.95308 6.97813 5.00933 6.92188 5.07808 6.92188Z" fill="currentColor"/>
<mask id="mask0_2088_3363" maskUnits="userSpaceOnUse" x="1" y="1" width="14" height="14">
<path fill-rule="evenodd" clip-rule="evenodd" d="M12.1093 11.2656L14.3906 13.5469C14.4339 13.5969 14.4339 13.6766 14.3906 13.7188L13.7187 14.3906C13.6765 14.434 13.5969 14.434 13.5468 14.3906L11.2656 12.1094C8.93844 14.0176 5.49242 13.885 3.31245 11.7031C0.998714 9.39117 0.998714 5.63376 3.31245 3.31251C5.63362 0.998757 9.39095 0.998757 11.7031 3.31251C13.8846 5.49246 14.0172 8.93835 12.1093 11.2656ZM10.875 10.875C12.7293 9.0194 12.7293 6.01187 10.875 4.15626C9.01934 2.30188 6.01181 2.30188 4.1562 4.15626C2.30183 6.01187 2.30183 9.0194 4.1562 10.875C6.01181 12.7294 9.01934 12.7294 10.875 10.875ZM5.07808 6.92188H9.95308C10.0218 6.92188 10.0781 6.97813 10.0781 7.04688V7.98438C10.0781 8.05313 10.0218 8.10938 9.95308 8.10938H5.07808C5.00933 8.10938 4.95308 8.05313 4.95308 7.98438V7.04688C4.95308 6.97813 5.00933 6.92188 5.07808 6.92188Z" fill="currentColor"/>
</mask>
<g mask="url(#mask0_2088_3363)">
</g>
</g></svg>
