<?xml version="1.0" encoding="UTF-8"?>
<svg width="160px" height="160px" viewBox="0 0 160 160" version="1.1" xmlns="http://www.w3.org/2000/svg" xmlns:xlink="http://www.w3.org/1999/xlink">
    <title>Z#/1.缺省图/暂无主机</title>
    <defs>
        <circle id="path-1" cx="33.15" cy="33.15" r="33.15"></circle>
    </defs>
    <g id="Z#/1.缺省图/暂无主机" stroke="none" stroke-width="1" fill="none" fill-rule="evenodd">
        <g id="编组" transform="translate(14, 4)">
            <g transform="translate(14.8125, 16.45)">
                <g>
                    <path d="M59.4125,0 C31.275,0 7.725,19.5625 1.575,45.825 L65.9125,45.825 C69.1875,45.825 71.85,48.4875 71.85,51.7625 L71.85,117.5125 C72.1625,117.45 72.475,117.3875 72.7875,117.3125 C99.15,111.2375 118.8125,87.625 118.8125,59.4125 C118.8125,26.6 92.2125,0 59.4,0 L59.4125,0 Z" id="路径" fill="#0181FD" fill-rule="nonzero"></path>
                    <path d="M71.8625,51.7625 L71.8625,117.5125 C69.025,118.1125 66.1375,118.525 63.175,118.7 C61.925,118.7875 60.675,118.825 59.4125,118.825 C26.6,118.825 0,92.225 0,59.4125 C0,58.35 0.025,57.3 0.0875,56.25 C0.275,52.6875 0.7875,49.2 1.575,45.825 L65.9125,45.825 C69.2,45.825 71.8625,48.475 71.8625,51.7625 L71.8625,51.7625 Z" id="路径" fill="#FFFFFF" fill-rule="nonzero"></path>
                    <g transform="translate(1.0625, 63.275)">
                        <path d="M24.375,2.4125 C24.375,2.85 24.0125,3.2125 23.575,3.2125 L0.8,3.2125 C0.3625,3.2125 0,2.85 0,2.4125 L0,0.8125 C0,0.375 0.3625,0.0125 0.8,0.0125 L23.575,0.0125 C24.0125,0.0125 24.375,0.375 24.375,0.8125 L24.375,2.4125 Z M58.35,2.4125 C58.35,2.85 57.9875,3.2125 57.55,3.2125 L28.15,3.2125 C27.7125,3.2125 27.35,2.85 27.35,2.4125 L27.35,0.8125 C27.35,0.375 27.7125,0.0125 28.15,0.0125 L57.55,0.0125 C57.9875,0.0125 58.35,0.375 58.35,0.8125 L58.35,2.4125 Z M58.35,24.85 C58.35,25.2875 57.9875,25.65 57.55,25.65 L28.15,25.65 C27.7125,25.65 27.35,25.2875 27.35,24.85 L27.35,23.25 C27.35,22.8125 27.7125,22.45 28.15,22.45 L57.55,22.45 C57.9875,22.45 58.35,22.8125 58.35,23.25 L58.35,24.85 Z M58.625,39.6 C58.625,40.0375 58.2625,40.4 57.825,40.4 L42.6625,40.4 C42.225,40.4 41.8625,40.0375 41.8625,39.6 L41.8625,38 C41.8625,37.5625 42.225,37.2 42.6625,37.2 L57.825,37.2 C58.2625,37.2 58.625,37.5625 58.625,38 L58.625,39.6 Z M58.625,17.1625 C58.625,17.6 58.2625,17.9625 57.825,17.9625 L42.6625,17.9625 C42.225,17.9625 41.8625,17.6 41.8625,17.1625 L41.8625,15.5625 C41.8625,15.125 42.225,14.7625 42.6625,14.7625 L57.825,14.7625 C58.2625,14.7625 58.625,15.125 58.625,15.5625 L58.625,17.1625 Z" id="形状"></path>
                        <path d="M57.575,10.5875 C58.0125,10.5875 58.375,10.225 58.375,9.7875 L58.375,8.1875 C58.375,7.75 58.0125,7.3875 57.575,7.3875 L0.7875,7.3875 C0.475,7.3875 0.2125,7.575 0.075,7.825 C0.2625,8.75 0.4625,9.6625 0.6875,10.5625 C0.7125,10.5625 0.75,10.575 0.775,10.575 L57.5625,10.575 L57.575,10.5875 Z" id="路径" fill="#E6E6E6" fill-rule="nonzero"></path>
                        <rect id="矩形" fill="#E6E6E6" fill-rule="nonzero" x="0" y="0" width="24.375" height="3.2" rx="0.8"></rect>
                        <rect id="矩形" fill="#E6E6E6" fill-rule="nonzero" x="27.35" y="0" width="31" height="3.2" rx="0.8"></rect>
                        <path d="M39.575,17.15 L39.575,15.55 C39.575,15.1125 39.2125,14.75 38.775,14.75 L1.925,14.75 C2.2875,15.8375 2.675,16.9 3.0875,17.95 L38.775,17.95 C39.2125,17.95 39.575,17.5875 39.575,17.15 Z" id="路径" fill="#E6E6E6" fill-rule="nonzero"></path>
                        <rect id="矩形" fill="#E6E6E6" fill-rule="nonzero" x="41.8625" y="14.75" width="16.7625" height="3.2" rx="0.8"></rect>
                        <path d="M58.3875,32.225 L58.3875,30.625 C58.3875,30.1875 58.025,29.825 57.5875,29.825 L9.4125,29.825 C10.1625,30.925 10.9625,31.9875 11.7875,33.025 L57.5875,33.025 C58.025,33.025 58.3875,32.6625 58.3875,32.225 L58.3875,32.225 Z" id="路径" fill="#E6E6E6" fill-rule="nonzero"></path>
                        <path d="M24.375,24.8375 L24.375,23.2375 C24.375,22.8 24.0125,22.4375 23.575,22.4375 L5.075,22.4375 C5.6125,23.525 6.1875,24.5875 6.7875,25.6375 L23.575,25.6375 C24.0125,25.6375 24.375,25.275 24.375,24.8375 Z" id="路径" fill="#E6E6E6" fill-rule="nonzero"></path>
                        <rect id="矩形" fill="#E6E6E6" fill-rule="nonzero" x="27.35" y="22.4375" width="31" height="3.2" rx="0.8"></rect>
                        <path d="M39.575,39.5875 L39.575,37.9875 C39.575,37.55 39.2125,37.1875 38.775,37.1875 L15.4125,37.1875 C16.475,38.3 17.5625,39.3625 18.7125,40.3875 L38.775,40.3875 C39.2125,40.3875 39.575,40.025 39.575,39.5875 Z" id="路径" fill="#E6E6E6" fill-rule="nonzero"></path>
                        <rect id="矩形" fill="#E6E6E6" fill-rule="nonzero" x="41.8625" y="37.1875" width="16.7625" height="3.2" rx="0.8"></rect>
                        <path d="M58.3875,54.65 L58.3875,53.05 C58.3875,52.6125 58.025,52.25 57.5875,52.25 L38.8125,52.25 C43.925,54.025 49.35,55.1375 55,55.45 L57.5875,55.45 C58.025,55.45 58.3875,55.0875 58.3875,54.65 Z" id="路径" fill="#E6E6E6" fill-rule="nonzero"></path>
                        <path d="M58.35,47.275 L58.35,45.675 C58.35,45.2375 57.9875,44.875 57.55,44.875 L28.15,44.875 C27.7125,44.875 27.35,45.2375 27.35,45.675 L27.35,46.8375 C28.05,47.2625 28.7625,47.675 29.4875,48.075 L57.55,48.075 C57.9875,48.075 58.35,47.7125 58.35,47.275 Z" id="路径" fill="#E6E6E6" fill-rule="nonzero"></path>
                    </g>
                </g>
                <path d="M71.8625,51.7625 L71.8625,56.25 L0.0875,56.25 C0.275,52.6875 0.7875,49.2 1.575,45.825 L65.9125,45.825 C69.2,45.825 71.8625,48.475 71.8625,51.7625 Z" id="路径" fill="#132039" fill-rule="nonzero"></path>
                <circle id="椭圆形" fill="#FFFFFF" fill-rule="nonzero" cx="2.65" cy="51.0375" r="1.5875"></circle>
                <circle id="椭圆形" fill="#FFFFFF" fill-rule="nonzero" cx="7.525" cy="51.0375" r="1.5875"></circle>
                <circle id="椭圆形" fill="#FFFFFF" fill-rule="nonzero" cx="12.325" cy="51.0375" r="1.5875"></circle>
            </g>
            <path d="M87.6125,133.7625 C84.4875,134.475 81.275,134.95 77.9875,135.15 L54.675,91.7375 L86.675,95.575 L87.6125,133.7625 L87.6125,133.7625 Z" id="路径" fill="#132039" fill-rule="nonzero"></path>
            <circle id="椭圆形" cx="74.225" cy="75.875" r="59.4125"></circle>
            <g transform="translate(50.0353, 36.5625)">
                <rect id="矩形" fill="#E6E6E6" fill-rule="nonzero" transform="translate(54.0532, 75.4052) rotate(-23.41) translate(-54.0532, -75.4052)" x="50.1782018" y="67.3302351" width="7.75" height="16.15"></rect>
                <rect id="矩形" fill="#CCCCCC" fill-rule="nonzero" transform="translate(52.5813, 71.9847) rotate(-23.41) translate(-52.5813, -71.9847)" x="48.7063022" y="67.6221634" width="7.75" height="8.725"></rect>
                <path d="M73.1146777,114.9625 L69.9146777,116.35 C67.8896777,117.225 65.5396777,116.275 64.6896777,114.2375 L52.5271777,85.025 C52.2521777,84.3625 52.5646777,83.6 53.2146777,83.3125 L60.4521777,80.175 C61.1146777,79.8875 61.8771777,80.175 62.1771777,80.8375 L75.1521777,109.7 C76.0521777,111.7125 75.1521777,114.075 73.1146777,114.95 L73.1146777,114.9625 Z" id="路径" fill="#FFA005" fill-rule="nonzero"></path>
                <g fill-rule="nonzero">
                    <path d="M37.8146777,73.275 C23.6521777,73.275 10.8646777,64.875 5.23967765,51.8875 C-2.53532235,33.9375 5.75217765,13.0125 23.7021777,5.2375 C28.1896777,3.3 32.9271777,2.3125 37.7771777,2.3125 C51.9396777,2.3125 64.7146777,10.7125 70.3521777,23.7 C78.1271777,41.65 69.8396777,62.575 51.8896777,70.35 C47.4021777,72.2875 42.6646777,73.275 37.8146777,73.275 L37.8146777,73.275 Z" id="路径" fill="#07C846"></path>
                    <path d="M37.7771777,4.6375 C50.5896777,4.6375 62.8021777,12.1125 68.2146777,24.625 C75.4896777,41.425 67.7646777,60.95 50.9646777,68.225 C46.6771777,70.0875 42.2021777,70.9625 37.8146777,70.9625 C25.0021777,70.9625 12.7896777,63.4875 7.37717765,50.975 C0.102177651,34.175 7.82717765,14.65 24.6271777,7.375 C28.9146777,5.5125 33.3896777,4.6375 37.7771777,4.6375 M37.7771777,0 C32.6021777,0 27.5521777,1.05 22.7771777,3.125 C3.65217765,11.4 -5.17282235,33.7 3.11467765,52.825 C9.10217765,66.6625 22.7271777,75.6125 37.8146777,75.6125 C42.9896777,75.6125 48.0396777,74.5625 52.8146777,72.4875 C62.0771777,68.475 69.2271777,61.1 72.9396777,51.7125 C76.6521777,42.325 76.4896777,32.05 72.4771777,22.7875 C66.4896777,8.95 52.8646777,0 37.7771777,0 L37.7771777,0 Z" id="形状" fill="#132039"></path>
                </g>
                <g id="Clipped" transform="translate(4.6397, 4.65)">
                    <mask id="mask-2" fill="white">
                        <use xlink:href="#path-1"></use>
                    </mask>
                    <g id="椭圆形"></g>
                    <g id="编组" mask="url(#mask-2)">
                        <g transform="translate(-14.425, 15.4125)">
                            <g>
                                <rect id="矩形" fill="#6ADE90" fill-rule="nonzero" x="6.575" y="0" width="44.3875" height="61.875" rx="5.9375"></rect>
                                <path d="M5.9375,0 L45.025,0 C48.3,0 50.9625,2.6625 50.9625,5.9375 L50.9625,10.4375 L0,10.4375 L0,5.9375 C0,2.6625 2.6625,0 5.9375,0 Z" id="路径" fill="#39D36B" fill-rule="nonzero"></path>
                            </g>
                            <g transform="translate(30.0875, 0.1625)">
                                <path d="M1.875,0 L33.1125,0 C34.1375,0 34.975,0.8375 34.975,1.8625 L34.975,9.8125 L0.025,9.8125 L0.025,1.8625 C0.025,0.8375 0.8625,0 1.8875,0 L1.875,0 Z" id="路径" fill="#FFFFFF" fill-rule="nonzero"></path>
                                <rect id="矩形" fill="#0181FD" fill-rule="nonzero" x="0.0125" y="12.6625" width="34.95" height="9.8125"></rect>
                                <path d="M0.0125,25.325 L34.9625,25.325 L34.9625,33.275 C34.9625,34.3 34.125,35.1375 33.1,35.1375 L1.8625,35.1375 C0.8375,35.1375 0,34.3 0,33.275 L0,25.325 L0,25.325 L0.0125,25.325 Z" id="路径" fill="#FFFFFF" fill-rule="nonzero"></path>
                            </g>
                        </g>
                    </g>
                </g>
            </g>
            <g>
                <g id="_编组-3-5" fill="#FFA005" fill-rule="nonzero">
                    <circle id="_椭圆形-5" cx="27.9" cy="27.9" r="27.9"></circle>
                </g>
                <path d="M28.275,15.35 C25.725,15.35 23.725,16.075 22.2375,17.525 C20.725,18.975 20,20.975 20,23.525 L23.925,23.525 C23.925,22.075 24.2,20.9375 24.7875,20.15 C25.4375,19.1875 26.5125,18.7375 28.025,18.7375 C29.2,18.7375 30.125,19.05 30.7875,19.7 C31.4125,20.35 31.75,21.25 31.75,22.3875 C31.75,23.25 31.4375,24.075 30.825,24.8375 L30.4125,25.325 C28.175,27.325 26.825,28.775 26.375,29.7 C25.8875,30.625 25.6875,31.7625 25.6875,33.075 L25.6875,33.5625 L29.65,33.5625 L29.65,33.075 C29.65,32.25 29.825,31.525 30.1625,30.8375 C30.475,30.2125 30.925,29.625 31.5375,29.1125 C33.1875,27.6625 34.1875,26.7375 34.5,26.3875 C35.325,25.2875 35.775,23.875 35.775,22.15 C35.775,20.05 35.0875,18.3875 33.7125,17.1875 C32.3375,15.95 30.5125,15.3625 28.2625,15.3625 L28.275,15.35 Z M27.65,35.2375 C26.8875,35.2375 26.275,35.475 25.75,35.9625 C25.2375,36.45 24.9875,37.0625 24.9875,37.825 C24.9875,38.5875 25.225,39.2 25.75,39.6875 C26.2625,40.175 26.8875,40.45 27.65,40.45 C28.4125,40.45 29.025,40.2125 29.55,39.725 C30.0625,39.2375 30.3375,38.5875 30.3375,37.825 C30.3375,37.0625 30.0625,36.45 29.575,35.9625 C29.0625,35.475 28.4,35.2375 27.65,35.2375 L27.65,35.2375 Z" id="_形状-5" fill="#FFFFFF"></path>
            </g>
        </g>
    </g>
</svg>