<?xml version="1.0" encoding="UTF-8"?>
<svg width="160px" height="160px" viewBox="0 0 160 160" version="1.1" xmlns="http://www.w3.org/2000/svg" xmlns:xlink="http://www.w3.org/1999/xlink">
    <title>Z#/1.缺省图/健康</title>
    <defs>
        <path d="M33.1,0.0125 L127.4125,0.0125 C145.6875,0.0125 160.525,14.85 160.525,33.125 L160.525,118.1 L33.1125,118.1 C14.8375,118.1 0,103.2625 0,84.9875 L0,33.1125 C0,14.8375 14.8375,0 33.1125,0 L33.1,0.0125 Z" id="path-1"></path>
        <rect id="path-3" x="9.69845447" y="6.56640832" width="64.6" height="87.4125" rx="3.7125"></rect>
    </defs>
    <g id="Z#/1.缺省图/健康" stroke="none" stroke-width="1" fill="none" fill-rule="evenodd">
        <g id="编组" transform="translate(3, 14)">
            <path d="M48.025,13.7625 L115.525,13.7625 C133.8,13.7625 148.6375,28.6 148.6375,46.875 L148.6375,131.85 L48.025,131.85 C29.75,131.85 14.9125,117.0125 14.9125,98.7375 L14.9125,46.8625 C14.9125,28.5875 29.75,13.75 48.025,13.75 L48.025,13.7625 Z" id="路径" fill="#0181FD" fill-rule="nonzero"></path>
            <g id="Clipped" transform="translate(14.925, 13.75)">
                <mask id="mask-2" fill="white">
                    <use xlink:href="#path-1"></use>
                </mask>
                <g id="路径"></g>
                <g id="编组" mask="url(#mask-2)">
                    <g transform="translate(-0.7878, 8.6789)">
                        <rect id="矩形" fill="#07C846" fill-rule="nonzero" transform="translate(102.9735, 70.8172) rotate(14.14) translate(-102.9735, -70.8172)" x="70.6734685" y="27.1109581" width="64.6" height="87.4125" rx="6.9625"></rect>
                        <g id="Clipped" stroke-width="1" fill="none" fill-rule="evenodd" transform="translate(60.975, 20.5445)">
                            <mask id="mask-4" fill="white">
                                <use xlink:href="#path-3" transform="translate(41.9985, 50.2727) rotate(14.14) translate(-41.9985, -50.2727)"></use>
                            </mask>
                            <g id="矩形" transform="translate(41.9985, 50.2727) rotate(14.14) translate(-41.9985, -50.2727)"></g>
                            <rect id="矩形" fill="#132039" fill-rule="nonzero" mask="url(#mask-4)" x="-34.4747148" y="-3.33597518" width="88.3125" height="119.5125" rx="5.075"></rect>
                        </g>
                        <rect id="矩形" fill="#FFA005" fill-rule="nonzero" transform="translate(41.9985, 50.2727) rotate(165.86) translate(-41.9985, -50.2727)" x="9.69845447" y="6.56640832" width="64.6" height="87.4125" rx="6.75"></rect>
                        <g id="编组" stroke-width="1" fill="none" fill-rule="evenodd" transform="translate(23.4878, 10.2836)">
                            <g fill-rule="nonzero">
                                <rect id="矩形" fill="#E6E6E6" x="0" y="6.925" width="88.3125" height="119.5125" rx="5.075"></rect>
                                <rect id="矩形" fill="#132039" x="25.9125" y="3.3125" width="36.4875" height="8.225" rx="2.4"></rect>
                                <path d="M56.1125,4.1125 L32.1875,4.1125 L33.95,1.15 C34.375,0.4375 35.1375,0 35.975,0 L52.35,0 C53.175,0 53.95,0.4375 54.375,1.15 L56.1375,4.1125 L56.1125,4.1125 Z" id="路径" fill="#132039"></path>
                            </g>
                            <g transform="translate(13.85, 20.9875)" fill-rule="nonzero">
                                <rect id="矩形" fill="#FFFFFF" x="0" y="0" width="60.6" height="52.0125" rx="5.775"></rect>
                                <g transform="translate(16.4125, 9.0625)">
                                    <g transform="translate(0, 19.725)" fill="#E6F9EC">
                                        <ellipse id="椭圆形" cx="13.8875" cy="10.425" rx="13.8875" ry="3.7375"></ellipse>
                                        <rect id="矩形" x="0" y="3.7375" width="27.775" height="6.6875"></rect>
                                        <ellipse id="椭圆形" cx="13.8875" cy="3.7375" rx="13.8875" ry="3.7375"></ellipse>
                                    </g>
                                    <g transform="translate(0, 9.8625)" fill="#07C846">
                                        <ellipse id="椭圆形" cx="13.8875" cy="10.425" rx="13.8875" ry="3.7375"></ellipse>
                                        <rect id="矩形" x="0" y="3.7375" width="27.775" height="6.6875"></rect>
                                        <ellipse id="椭圆形" cx="13.8875" cy="3.7375" rx="13.8875" ry="3.7375"></ellipse>
                                    </g>
                                    <g fill="#E6F9EC">
                                        <ellipse id="椭圆形" cx="13.8875" cy="10.425" rx="13.8875" ry="3.7375"></ellipse>
                                        <rect id="矩形" x="0" y="3.7375" width="27.775" height="6.6875"></rect>
                                        <ellipse id="椭圆形" cx="13.8875" cy="3.7375" rx="13.8875" ry="3.7375"></ellipse>
                                    </g>
                                </g>
                            </g>
                            <rect id="矩形" fill="#FFFFFF" fill-rule="nonzero" x="13.875" y="82.6375" width="60.55" height="6.8375" rx="3.41875"></rect>
                        </g>
                    </g>
                </g>
            </g>
            <g id="_编组-3-7">
                <circle id="_椭圆形-9" fill="#07C846" fill-rule="nonzero" cx="24.7375" cy="24.7375" r="24.7375"></circle>
                <g id="编组" transform="translate(14.425, 12.3909)" fill="#FFFFFF">
                    <path d="M20.85,6.70909598 L14.025,6.74659598 C14.35,5.62159598 14.5125,4.62159598 14.5125,3.73409598 C14.5125,1.73409598 12.7625,-0.228404022 11.0125,0.0215959784 C9.4625,0.246595978 9.3,1.58409598 9.3,3.24659598 L9.3,4.75909598 C9.3,6.69659598 7.675,8.34659598 5.7875,8.53409598 L5.5375,8.53409598 C5.5375,8.53409598 5.5375,21.846596 5.5375,21.846596 L18.975,21.846596 C20.2375,21.846596 21.3125,20.946596 21.55,19.721596 L23.425,9.80909598 C23.575,9.04659598 23.3625,8.25909598 22.875,7.64659598 C22.375,7.04659598 21.6375,6.69659598 20.8625,6.69659598 L20.8625,6.69659598 L20.85,6.70909598 Z" id="_形状-6"></path>
                    <path d="M4.35,8.60909598 L0.825,8.60909598 C0.375,8.60909598 0,8.97159598 0,9.43409598 L0,21.021596 C0,21.471596 0.3625,21.846596 0.825,21.846596 L4.35,21.846596 L4.35,8.60909598 L4.35,8.60909598 Z" id="_矩形-7"></path>
                </g>
            </g>
        </g>
    </g>
</svg>