<?xml version="1.0" encoding="UTF-8"?>
<svg width="160px" height="160px" viewBox="0 0 160 160" version="1.1" xmlns="http://www.w3.org/2000/svg" xmlns:xlink="http://www.w3.org/1999/xlink">
    <title>Z#/1.缺省图/异常</title>
    <defs>
        <path d="M33.1125,0 L100.6125,0 C118.8875,0 133.725,14.8375 133.725,33.1125 L133.725,118.0875 L33.1125,118.0875 C14.8375,118.0875 -4.4408921e-15,103.25 -4.4408921e-15,84.975 L-4.4408921e-15,33.1125 C-4.4408921e-15,14.8375 14.8375,0 33.1125,0 Z" id="path-1"></path>
    </defs>
    <g id="Z#/1.缺省图/异常" stroke="none" stroke-width="1" fill="none" fill-rule="evenodd">
        <g id="资源-7" transform="translate(6, 14)">
            <path d="M115.525,13.75 L48.025,13.75 C29.7375,13.75 14.9125,28.575 14.9125,46.8625 L14.9125,72.8 L49.5625,72.8 C50.15,72.8 50.6375,73.275 50.6375,73.875 L50.6375,88.1125 C50.6375,88.7 50.1625,89.1875 49.5625,89.1875 L48.0625,89.1875 L48.0625,91.6 L49.5625,91.6 C50.15,91.6 50.6375,92.075 50.6375,92.675 L50.6375,106.9125 C50.6375,107.5 50.1625,107.9875 49.5625,107.9875 L48.0625,107.9875 L48.0625,110.4 L49.5625,110.4 C50.15,110.4 50.6375,110.875 50.6375,111.475 L50.6375,130.65 C50.6375,131.2375 50.1625,131.725 49.5625,131.725 L45.0625,131.725 C46.0375,131.8125 47.025,131.8625 48.025,131.8625 L91.4625,131.8625 L91.4625,37.15 C91.4625,33.5875 94.35,30.7 97.9125,30.7 L144.4125,30.7 C138.75,20.5875 127.9375,13.75 115.525,13.75 Z" id="路径" fill="#0181FD" fill-rule="nonzero"></path>
            <g id="Clipped" transform="translate(14.9125, 13.75)">
                <mask id="mask-2" fill="white">
                    <use xlink:href="#path-1"></use>
                </mask>
                <g id="路径"></g>
                <g id="编组" mask="url(#mask-2)">
                    <g transform="translate(-13.25, 47.0625)">
                        <path d="M76.075,40.3375 C85.7625,33.55 97.6875,18.85 104.2,0" id="路径" stroke="#07C846" stroke-width="2.0125"></path>
                        <path d="M46.8,36.0375 C48.675,41.1 56.5625,49.7 69.95,43.7125" id="路径" stroke="#07C846" stroke-width="2.0125"></path>
                        <line x1="66.525" y1="37.125" x2="69.475" y2="39.75" id="路径" stroke="#FFA005" stroke-width="2.475" stroke-linecap="round" stroke-linejoin="round"></line>
                        <line x1="72.7" y1="33.1625" x2="73.0875" y2="38.075" id="路径" stroke="#FFA005" stroke-width="2.475" stroke-linecap="round" stroke-linejoin="round"></line>
                        <g id="编组" stroke="none" stroke-width="1" fill-rule="evenodd" transform="translate(0, 11.975)">
                            <rect id="矩形" fill="#132039" fill-rule="nonzero" transform="translate(24.4875, 26.3375) rotate(-180) translate(-24.4875, -26.3375)" x="2.575" y="13.0125" width="43.825" height="26.65"></rect>
                            <rect id="矩形" fill="#FFFFFF" fill-rule="nonzero" transform="translate(24.4875, 48.25) rotate(-180) translate(-24.4875, -48.25)" x="0" y="37.5875" width="48.975" height="21.325" rx="1.075"></rect>
                            <rect id="矩形" fill="#07C846" fill-rule="nonzero" transform="translate(24.4875, 48.25) rotate(-180) translate(-24.4875, -48.25)" x="0" y="37.5875" width="48.975" height="21.325" rx="1.075"></rect>
                            <circle id="椭圆形" fill="#FFFFFF" fill-rule="nonzero" cx="45.3875" cy="41.8" r="1.2"></circle>
                            <circle id="椭圆形" fill="#FFFFFF" fill-rule="nonzero" cx="41.2375" cy="41.8" r="1.2"></circle>
                            <circle id="椭圆形" fill="#FFFFFF" fill-rule="nonzero" cx="37.0875" cy="41.8" r="1.2"></circle>
                            <rect id="矩形" fill="#39D36B" fill-rule="nonzero" transform="translate(27.0313, 45.9125) rotate(-180) translate(-27.0313, -45.9125)" x="25.8" y="40.5875" width="2.4625" height="10.65"></rect>
                            <rect id="矩形" fill="#39D36B" fill-rule="nonzero" transform="translate(23.3562, 45.9125) rotate(-180) translate(-23.3562, -45.9125)" x="22.125" y="40.5875" width="2.4625" height="10.65"></rect>
                            <rect id="矩形" fill="#39D36B" fill-rule="nonzero" transform="translate(19.6688, 45.9125) rotate(-180) translate(-19.6688, -45.9125)" x="18.4375" y="40.5875" width="2.4625" height="10.65"></rect>
                            <rect id="矩形" fill="#39D36B" fill-rule="nonzero" transform="translate(15.9937, 45.9125) rotate(-180) translate(-15.9937, -45.9125)" x="14.7625" y="40.5875" width="2.4625" height="10.65"></rect>
                            <rect id="矩形" fill="#39D36B" fill-rule="nonzero" transform="translate(12.3062, 45.9125) rotate(-180) translate(-12.3062, -45.9125)" x="11.075" y="40.5875" width="2.4625" height="10.65"></rect>
                            <rect id="矩形" fill="#39D36B" fill-rule="nonzero" transform="translate(8.6312, 45.9125) rotate(-180) translate(-8.6312, -45.9125)" x="7.4" y="40.5875" width="2.4625" height="10.65"></rect>
                            <rect id="矩形" fill="#39D36B" fill-rule="nonzero" transform="translate(4.9437, 45.9125) rotate(-180) translate(-4.9437, -45.9125)" x="3.7125" y="40.5875" width="2.4625" height="10.65"></rect>
                            <g transform="translate(0, 18.7875)" fill-rule="nonzero">
                                <rect id="矩形" fill="#FFFFFF" transform="translate(24.4875, 8.1938) rotate(-180) translate(-24.4875, -8.1938)" x="0" y="0" width="48.975" height="16.3875" rx="1.075"></rect>
                                <rect id="矩形" fill="#FFFFFF" transform="translate(24.4875, 8.1938) rotate(-180) translate(-24.4875, -8.1938)" x="0" y="0" width="48.975" height="16.3875" rx="1.075"></rect>
                                <circle id="椭圆形" fill="#E6E6E6" cx="45.3875" cy="4" r="1.2"></circle>
                                <circle id="椭圆形" fill="#E6E6E6" cx="41.2375" cy="4" r="1.2"></circle>
                                <circle id="椭圆形" fill="#E6E6E6" cx="37.0875" cy="4" r="1.2"></circle>
                                <rect id="矩形" fill="#E6E6E6" transform="translate(27.0313, 8.8375) rotate(-180) translate(-27.0313, -8.8375)" x="25.8" y="3.5125" width="2.4625" height="10.65"></rect>
                                <rect id="矩形" fill="#E6E6E6" transform="translate(23.3562, 8.8375) rotate(-180) translate(-23.3562, -8.8375)" x="22.125" y="3.5125" width="2.4625" height="10.65"></rect>
                                <rect id="矩形" fill="#E6E6E6" transform="translate(19.6688, 8.8375) rotate(-180) translate(-19.6688, -8.8375)" x="18.4375" y="3.5125" width="2.4625" height="10.65"></rect>
                                <rect id="矩形" fill="#E6E6E6" transform="translate(15.9937, 8.8375) rotate(-180) translate(-15.9937, -8.8375)" x="14.7625" y="3.5125" width="2.4625" height="10.65"></rect>
                                <rect id="矩形" fill="#E6E6E6" transform="translate(12.3062, 8.8375) rotate(-180) translate(-12.3062, -8.8375)" x="11.075" y="3.5125" width="2.4625" height="10.65"></rect>
                                <rect id="矩形" fill="#E6E6E6" transform="translate(8.6312, 8.8375) rotate(-180) translate(-8.6312, -8.8375)" x="7.4" y="3.5125" width="2.4625" height="10.65"></rect>
                                <rect id="矩形" fill="#E6E6E6" transform="translate(4.9437, 8.8375) rotate(-180) translate(-4.9437, -8.8375)" x="3.7125" y="3.5125" width="2.4625" height="10.65"></rect>
                            </g>
                            <g fill-rule="nonzero">
                                <rect id="矩形" fill="#FFFFFF" transform="translate(24.4875, 8.1938) rotate(-180) translate(-24.4875, -8.1938)" x="0" y="0" width="48.975" height="16.3875" rx="1.075"></rect>
                                <rect id="矩形" fill="#FFFFFF" transform="translate(24.4875, 8.1938) rotate(-180) translate(-24.4875, -8.1938)" x="0" y="0" width="48.975" height="16.3875" rx="1.075"></rect>
                                <circle id="椭圆形" fill="#E6E6E6" cx="45.3875" cy="3.9875" r="1.2"></circle>
                                <circle id="椭圆形" fill="#E6E6E6" cx="41.2375" cy="3.9875" r="1.2"></circle>
                                <circle id="椭圆形" fill="#E6E6E6" cx="37.0875" cy="3.9875" r="1.2"></circle>
                                <rect id="矩形" fill="#E6E6E6" transform="translate(27.0313, 8.8375) rotate(-180) translate(-27.0313, -8.8375)" x="25.8" y="3.5125" width="2.4625" height="10.65"></rect>
                                <rect id="矩形" fill="#E6E6E6" transform="translate(23.3562, 8.8375) rotate(-180) translate(-23.3562, -8.8375)" x="22.125" y="3.5125" width="2.4625" height="10.65"></rect>
                                <rect id="矩形" fill="#E6E6E6" transform="translate(19.6688, 8.8375) rotate(-180) translate(-19.6688, -8.8375)" x="18.4375" y="3.5125" width="2.4625" height="10.65"></rect>
                                <rect id="矩形" fill="#E6E6E6" transform="translate(15.9937, 8.8375) rotate(-180) translate(-15.9937, -8.8375)" x="14.7625" y="3.5125" width="2.4625" height="10.65"></rect>
                                <rect id="矩形" fill="#E6E6E6" transform="translate(12.3062, 8.8375) rotate(-180) translate(-12.3062, -8.8375)" x="11.075" y="3.5125" width="2.4625" height="10.65"></rect>
                                <rect id="矩形" fill="#E6E6E6" transform="translate(8.6312, 8.8375) rotate(-180) translate(-8.6312, -8.8375)" x="7.4" y="3.5125" width="2.4625" height="10.65"></rect>
                                <rect id="矩形" fill="#E6E6E6" transform="translate(4.9437, 8.8375) rotate(-180) translate(-4.9437, -8.8375)" x="3.7125" y="3.5125" width="2.4625" height="10.65"></rect>
                            </g>
                        </g>
                        <g id="编组" stroke="none" stroke-width="1" fill-rule="evenodd" transform="translate(36.825, 4.0375)">
                            <path d="M4.4125,0 L4.4125,0 C6.85,0 8.825,1.975 8.825,4.4125 L8.825,7.95 L0,7.95 L0,4.4125 C0,1.975 1.975,0 4.4125,0 Z" id="路径" fill="#FFA005" fill-rule="nonzero"></path>
                            <circle id="椭圆形" fill="#FFFFFF" fill-rule="nonzero" cx="3.0375" cy="3.4" r="1.7"></circle>
                        </g>
                    </g>
                </g>
            </g>
            <g id="_编组-3">
                <circle id="_椭圆形" fill="#FFA005" fill-rule="nonzero" cx="24.7375" cy="24.7375" r="24.7375"></circle>
                <g id="编组" transform="translate(21.5222, 13.9875)" fill="#FFFFFF">
                    <path d="M0.815346205,0 L5.61534621,0 C6.06534621,0 6.44034621,0.3625 6.44034621,0.825 C6.44034621,0.85 6.44034621,0.875 6.44034621,0.8875 L5.26534621,15.1875 C5.22784621,15.6125 4.87784621,15.9375 4.44034621,15.9375 L2.00284621,15.9375 C1.57784621,15.9375 1.21534621,15.6125 1.17784621,15.1875 L0.00284620526,0.8875 C-0.0346537947,0.4375 0.302846205,0.0375 0.752846205,0 C0.777846205,0 0.802846205,0 0.815346205,0 Z" id="_矩形"></path>
                    <rect id="_矩形备份" fill-rule="nonzero" x="1.24034621" y="17.55" width="3.95" height="3.95" rx="0.825"></rect>
                </g>
            </g>
            <path d="M148.625,46.8625 C148.625,40.9875 147.0875,35.4875 144.4125,30.7 L97.9125,30.7 C94.35,30.7 91.4625,33.5875 91.4625,37.15 L91.4625,131.8375 L148.6375,131.8375 L148.6375,46.8625 L148.625,46.8625 Z" id="路径" fill="#F2F2F2" fill-rule="nonzero"></path>
            <g id="编组" transform="translate(100.546, 55.5688)">
                <path d="M10.7914603,1.06875 L0.291460333,19.25625 C-0.533539667,20.68125 0.491460333,22.44375 2.12896033,22.44375 L23.1289603,22.44375 C24.7664603,22.44375 25.7914603,20.66875 24.9664603,19.25625 L14.4664603,1.06875 C13.6414603,-0.35625 11.6039603,-0.35625 10.7789603,1.06875 L10.7914603,1.06875 Z" id="路径" fill="#CCCCCC" fill-rule="nonzero"></path>
                <g transform="translate(11.1157, 8.6187)" fill="#FFFFFF">
                    <path d="M0.388226947,0 L2.63822695,0 C2.85072695,0 3.02572695,0.175 3.02572695,0.3875 C3.02572695,0.3875 3.02572695,0.4125 3.02572695,0.425 L2.47572695,7.15 C2.46322695,7.35 2.28822695,7.5 2.08822695,7.5 L0.938226947,7.5 C0.738226947,7.5 0.563226947,7.35 0.550726947,7.15 L0.00072694688,0.425 C-0.0117730531,0.2125 0.138226947,0.025 0.350726947,0.0125 C0.350726947,0.0125 0.375726947,0.0125 0.388226947,0.0125 L0.388226947,0 Z" id="_矩形-2"></path>
                    <rect id="_矩形备份-2" fill-rule="nonzero" x="0.588226947" y="8.2375" width="1.8625" height="1.8625" rx="0.3875"></rect>
                </g>
            </g>
            <g id="编组" transform="translate(121.596, 95.8813)">
                <path d="M10.7914603,1.06875 L0.291460333,19.25625 C-0.533539667,20.68125 0.491460333,22.44375 2.12896033,22.44375 L23.1289603,22.44375 C24.7664603,22.44375 25.7914603,20.66875 24.9664603,19.25625 L14.4664603,1.06875 C13.6414603,-0.35625 11.6039603,-0.35625 10.7789603,1.06875 L10.7914603,1.06875 Z" id="路径" fill="#CCCCCC" fill-rule="nonzero"></path>
                <g transform="translate(11.1157, 8.6187)" fill="#FFFFFF">
                    <path d="M0.388226947,0 L2.63822695,0 C2.85072695,0 3.02572695,0.175 3.02572695,0.3875 C3.02572695,0.3875 3.02572695,0.4125 3.02572695,0.425 L2.47572695,7.15 C2.46322695,7.35 2.28822695,7.5 2.08822695,7.5 L0.938226947,7.5 C0.738226947,7.5 0.563226947,7.35 0.550726947,7.15 L0.00072694688,0.425 C-0.0117730531,0.2125 0.138226947,0.025 0.350726947,0.0125 C0.350726947,0.0125 0.375726947,0.0125 0.388226947,0.0125 L0.388226947,0 Z" id="_矩形-3"></path>
                    <rect id="_矩形备份-3" fill-rule="nonzero" x="0.588226947" y="8.25" width="1.8625" height="1.8625" rx="0.3875"></rect>
                </g>
            </g>
            <path d="M97.9125,30.7 C94.35,30.7 91.4625,33.5875 91.4625,37.15 L91.4625,42.0375 L148.275,42.0375 C147.6875,37.975 146.35,34.15 144.4125,30.7 L97.9125,30.7 L97.9125,30.7 Z" id="路径" fill="#132039" fill-rule="nonzero"></path>
            <circle id="椭圆形" fill="#FFFFFF" fill-rule="nonzero" cx="97.55" cy="36.3625" r="1.725"></circle>
            <circle id="椭圆形" fill="#FFFFFF" fill-rule="nonzero" cx="102.85" cy="36.3625" r="1.725"></circle>
            <circle id="椭圆形" fill="#FFFFFF" fill-rule="nonzero" cx="108.1375" cy="36.3625" r="1.725"></circle>
            <rect id="矩形" fill="#E6E6E6" fill-rule="nonzero" x="100.0875" y="50.25" width="26.4875" height="3.4875" rx="1.225"></rect>
            <path d="M130.9625,50.25 L148.275,50.25 L148.275,53.7375 L130.9625,53.7375 C130.2875,53.7375 129.7375,53.1875 129.7375,52.5125 L129.7375,51.4875 C129.7375,50.8125 130.2875,50.2625 130.9625,50.2625 L130.9625,50.25 Z" id="路径" fill="#E6E6E6" fill-rule="nonzero"></path>
            <path d="M123.725,58.2625 L148.275,58.2625 L148.275,61.75 L123.725,61.75 C123.05,61.75 122.5,61.2 122.5,60.525 L122.5,59.5 C122.5,58.825 123.05,58.275 123.725,58.275 L123.725,58.2625 Z" id="路径" fill="#E6E6E6" fill-rule="nonzero"></path>
            <path d="M131.025,66.275 L148.275,66.275 L148.275,69.7625 L131.025,69.7625 C130.35,69.7625 129.8,69.2125 129.8,68.5375 L129.8,67.5125 C129.8,66.8375 130.35,66.2875 131.025,66.2875 L131.025,66.275 Z" id="路径" fill="#E6E6E6" fill-rule="nonzero"></path>
            <path d="M131.025,74.2875 L148.275,74.2875 L148.275,77.775 L131.025,77.775 C130.35,77.775 129.8,77.225 129.8,76.55 L129.8,75.525 C129.8,74.85 130.35,74.3 131.025,74.3 L131.025,74.2875 Z" id="路径" fill="#E6E6E6" fill-rule="nonzero"></path>
            <path d="M101.3125,82.3 L148.275,82.3 L148.275,85.7875 L101.3125,85.7875 C100.6375,85.7875 100.0875,85.2375 100.0875,84.5625 L100.0875,83.5375 C100.0875,82.8625 100.6375,82.3125 101.3125,82.3125 L101.3125,82.3 Z" id="路径" fill="#E6E6E6" fill-rule="nonzero"></path>
            <path d="M101.3125,90.3125 L148.275,90.3125 L148.275,93.8 L101.3125,93.8 C100.6375,93.8 100.0875,93.25 100.0875,92.575 L100.0875,91.55 C100.0875,90.875 100.6375,90.325 101.3125,90.325 L101.3125,90.3125 Z" id="路径" fill="#E6E6E6" fill-rule="nonzero"></path>
            <rect id="矩形" fill="#E6E6E6" fill-rule="nonzero" x="100.0875" y="98.325" width="24.075" height="3.4875" rx="1.225"></rect>
            <rect id="矩形" fill="#E6E6E6" fill-rule="nonzero" x="100.0875" y="106.3375" width="17.9875" height="3.4875" rx="1.225"></rect>
            <rect id="矩形" fill="#E6E6E6" fill-rule="nonzero" x="100.0875" y="114.35" width="17.9875" height="3.4875" rx="1.225"></rect>
        </g>
    </g>
</svg>